<svg width="148" height="36" viewBox="0 0 148 36" fill="none" xmlns="http://www.w3.org/2000/svg">
<path d="M8.596 28.336C7.15867 28.336 5.88933 28.0933 4.788 27.608C3.68667 27.104 2.81867 26.3947 2.184 25.48C1.54933 24.5467 1.22267 23.4173 1.204 22.092H4.984C5.02133 23.0067 5.348 23.7813 5.964 24.416C6.59867 25.032 7.46667 25.34 8.568 25.34C9.52 25.34 10.276 25.116 10.836 24.668C11.396 24.2013 11.676 23.5853 11.676 22.82C11.676 22.0173 11.424 21.392 10.92 20.944C10.4347 20.496 9.78133 20.132 8.96 19.852C8.13867 19.572 7.26133 19.2733 6.328 18.956C4.816 18.4333 3.65867 17.7613 2.856 16.94C2.072 16.1187 1.68 15.0267 1.68 13.664C1.66133 12.5067 1.932 11.5173 2.492 10.696C3.07067 9.856 3.85467 9.212 4.844 8.764C5.83333 8.29733 6.972 8.064 8.26 8.064C9.56667 8.064 10.7147 8.29733 11.704 8.764C12.712 9.23067 13.496 9.884 14.056 10.724C14.6347 11.564 14.9427 12.5627 14.98 13.72H11.144C11.1253 13.0293 10.8547 12.4227 10.332 11.9C9.828 11.3587 9.11867 11.088 8.204 11.088C7.42 11.0693 6.75733 11.2653 6.216 11.676C5.69333 12.068 5.432 12.6467 5.432 13.412C5.432 14.0653 5.63733 14.588 6.048 14.98C6.45867 15.3533 7.01867 15.6707 7.728 15.932C8.43733 16.1933 9.24933 16.4733 10.164 16.772C11.1347 17.108 12.0213 17.5 12.824 17.948C13.6267 18.396 14.2707 18.9933 14.756 19.74C15.2413 20.468 15.484 21.4107 15.484 22.568C15.484 23.5947 15.2227 24.5467 14.7 25.424C14.1773 26.3013 13.4027 27.0107 12.376 27.552C11.3493 28.0747 10.0893 28.336 8.596 28.336ZM23.7482 28L16.5802 8.4H20.4162L25.9602 24.332L31.5322 8.4H35.3122L28.1442 28H23.7482ZM45.554 28.336C43.706 28.336 42.0914 27.916 40.71 27.076C39.3287 26.236 38.2554 25.0693 37.49 23.576C36.7247 22.064 36.342 20.3093 36.342 18.312C36.342 16.296 36.734 14.5227 37.518 12.992C38.3207 11.4427 39.45 10.2387 40.906 9.38C42.3807 8.50267 44.126 8.064 46.142 8.064C48.438 8.064 50.342 8.61467 51.854 9.716C53.366 10.8173 54.346 12.3387 54.794 14.28H50.79C50.4914 13.3653 49.95 12.656 49.166 12.152C48.382 11.6293 47.374 11.368 46.142 11.368C44.182 11.368 42.67 11.9933 41.606 13.244C40.542 14.476 40.01 16.1747 40.01 18.34C40.01 20.5053 40.5327 22.1853 41.578 23.38C42.642 24.556 44.0794 25.144 45.89 25.144C47.6634 25.144 48.998 24.668 49.894 23.716C50.8087 22.7453 51.3594 21.476 51.546 19.908H46.59V17.22H55.158V28H51.854L51.574 25.424C50.9394 26.3573 50.146 27.076 49.194 27.58C48.242 28.084 47.0287 28.336 45.554 28.336ZM65.3142 28V8.4H68.8982V16.548H77.6902V8.4H81.2742V28H77.6902V19.46H68.8982V28H65.3142ZM89.7877 28.336C88.593 28.336 87.613 28.1493 86.8477 27.776C86.0824 27.384 85.513 26.8707 85.1397 26.236C84.7664 25.6013 84.5797 24.9013 84.5797 24.136C84.5797 22.848 85.0837 21.8027 86.0917 21C87.0997 20.1973 88.6117 19.796 90.6277 19.796H94.1557V19.46C94.1557 18.508 93.885 17.808 93.3437 17.36C92.8024 16.912 92.1304 16.688 91.3277 16.688C90.5997 16.688 89.965 16.8653 89.4237 17.22C88.8824 17.556 88.5464 18.06 88.4157 18.732H84.9157C85.009 17.724 85.345 16.8467 85.9237 16.1C86.521 15.3533 87.2864 14.784 88.2197 14.392C89.153 13.9813 90.1984 13.776 91.3557 13.776C93.3344 13.776 94.893 14.2707 96.0317 15.26C97.1704 16.2493 97.7397 17.6493 97.7397 19.46V28H94.6877L94.3517 25.76C93.941 26.5067 93.3624 27.1227 92.6157 27.608C91.8877 28.0933 90.945 28.336 89.7877 28.336ZM90.5997 25.536C91.6264 25.536 92.4197 25.2 92.9797 24.528C93.5584 23.856 93.9224 23.0253 94.0717 22.036H91.0197C90.0677 22.036 89.3864 22.2133 88.9757 22.568C88.565 22.904 88.3597 23.324 88.3597 23.828C88.3597 24.3693 88.565 24.7893 88.9757 25.088C89.3864 25.3867 89.9277 25.536 90.5997 25.536ZM104.502 28L99.4057 14.112H103.158L106.686 24.612L110.214 14.112H113.966L108.842 28H104.502ZM122.291 28.336C120.891 28.336 119.649 28.0373 118.567 27.44C117.484 26.8427 116.635 26.0027 116.019 24.92C115.403 23.8373 115.095 22.5867 115.095 21.168C115.095 19.7307 115.393 18.452 115.991 17.332C116.607 16.212 117.447 15.344 118.511 14.728C119.593 14.0933 120.863 13.776 122.319 13.776C123.681 13.776 124.885 14.0747 125.931 14.672C126.976 15.2693 127.788 16.0907 128.367 17.136C128.964 18.1627 129.263 19.3107 129.263 20.58C129.263 20.7853 129.253 21 129.235 21.224C129.235 21.448 129.225 21.6813 129.207 21.924H118.651C118.725 23.0067 119.099 23.856 119.771 24.472C120.461 25.088 121.292 25.396 122.263 25.396C122.991 25.396 123.597 25.2373 124.083 24.92C124.587 24.584 124.96 24.1547 125.203 23.632H128.843C128.581 24.5093 128.143 25.312 127.527 26.04C126.929 26.7493 126.183 27.3093 125.287 27.72C124.409 28.1307 123.411 28.336 122.291 28.336ZM122.319 16.688C121.441 16.688 120.667 16.94 119.995 17.444C119.323 17.9293 118.893 18.676 118.707 19.684H125.623C125.567 18.7693 125.231 18.0413 124.615 17.5C123.999 16.9587 123.233 16.688 122.319 16.688ZM132.277 28V14.112H135.441L135.721 16.464C136.15 15.6427 136.766 14.9893 137.569 14.504C138.39 14.0187 139.352 13.776 140.453 13.776C142.17 13.776 143.505 14.3173 144.457 15.4C145.409 16.4827 145.885 18.0693 145.885 20.16V28H142.301V20.496C142.301 19.3013 142.058 18.3867 141.573 17.752C141.088 17.1173 140.332 16.8 139.305 16.8C138.297 16.8 137.466 17.1547 136.813 17.864C136.178 18.5733 135.861 19.5627 135.861 20.832V28H132.277Z" fill="black"/>
</svg>
