<svg fill="none" viewBox="0 0 175 30" xmlns="http://www.w3.org/2000/svg">
  <path fill="#000" fill-rule="evenodd" d="M113.817 2.868c.336 0 .928.082.928-.452 0-.42-.34-.475-.701-.475h-.732v.927h.505Zm1.234 1.458h-.393l-.756-1.208h-.592v1.208h-.336v-2.61h1.15c.252 0 .447.031.646.14.168.086.279.312.279.562 0 .534-.365.701-.785.701l.787 1.207Zm.842-1.317a2.031 2.031 0 0 0-2.021-2.02c-1.123 0-2.072.898-2.072 2.02 0 1.15.949 2.073 2.072 2.073 1.095 0 2.021-.924 2.021-2.073Zm-4.347 0a2.288 2.288 0 0 1 1.437-2.134 2.3 2.3 0 0 1 .889-.168c1.293 0 2.33 1.04 2.33 2.302 0 1.29-1.037 2.353-2.33 2.353-1.317 0-2.326-1.063-2.326-2.353Zm60.668-.14c.34 0 .928.081.928-.453 0-.42-.367-.475-.674-.475h-.756v.927h.502Zm1.209 1.457h-.367l-.783-1.208h-.561v1.208h-.309v-2.61h1.123c.223 0 .42.031.643.14.199.086.281.312.281.562 0 .534-.363.701-.814.701l.787 1.207Zm.867-1.317c0-1.122-.895-2.02-2.045-2.02a2.017 2.017 0 0 0-1.869 1.246 1.999 1.999 0 0 0-.152.774c0 1.15.9 2.073 2.021 2.073 1.15 0 2.045-.924 2.045-2.073Zm-4.348 0c0-1.262.982-2.302 2.303-2.302 1.289 0 2.326 1.04 2.326 2.302 0 1.29-1.037 2.353-2.326 2.353-1.321 0-2.303-1.063-2.303-2.353Zm-136.4 21.4a6.122 6.122 0 0 1-6.144-6.145 6.136 6.136 0 0 1 6.144-6.139 6.135 6.135 0 0 1 6.139 6.14 6.12 6.12 0 0 1-6.14 6.144Zm-23.06 0c-3.392 0-6.112-2.719-6.112-6.145 0-3.393 2.72-6.139 6.113-6.139a6.14 6.14 0 0 1 6.144 6.14 6.125 6.125 0 0 1-6.144 6.144Zm77.304 0c-3.393 0-6.112-2.719-6.112-6.145 0-3.393 2.719-6.139 6.112-6.139 3.365 0 6.117 2.746 6.117 6.14a6.12 6.12 0 0 1-6.117 6.144Zm-23.308 0a6.107 6.107 0 0 1-6.144-6.145 6.12 6.12 0 0 1 6.144-6.139 6.141 6.141 0 0 1 6.144 6.14 6.126 6.126 0 0 1-6.144 6.144Zm-24.765 2.302a10.305 10.305 0 0 1-6.17 2.018c-5.781 0-10.464-4.684-10.464-10.465 0-5.75 4.683-10.432 10.464-10.432 2.298 0 4.429.756 6.139 2.018V1.241h4.546v27.321h-4.515v-1.85Zm72.983-12.202c-.254-1.714-1.629-2.945-3.814-2.945-1.15 0-3.646.39-3.646 1.877 0 2.217 3.787 2.412 4.711 2.47 6.061.561 7.826 3.226 7.826 6.366 0 2.328-1.178 4.066-2.859 5.301-1.43 1.037-4.375 1.457-6.172 1.457-3.984 0-8.021-2.184-8.555-7.125h4.461c.248 2.33 2.691 3.2 4.066 3.2 2.494 0 4.262-1.065 4.262-2.3 0-1.963-1.822-2.385-4.461-2.664-1.482-.168-4.32-.674-5.496-1.656-1.316-1.037-2.439-2.217-2.439-4.235 0-3.619 2.832-6.479 8.416-6.51 4.627-.027 8.133 2.724 8.242 6.732l-4.542.032ZM16.654 26.711a10.294 10.294 0 0 1-6.171 2.018C4.678 28.73.05 24.045.05 18.264c0-5.75 4.628-10.432 10.433-10.432 2.302 0 4.433.756 6.17 2.018V7.86h4.488v20.702h-4.487v-1.85ZM52.023 6.43V1.213h-4.515V6.43h4.515Zm0 22.132V7.86h-4.515v20.702h4.515Zm41.88-1.85c-1.684 1.29-3.814 2.018-6.117 2.018-5.777 0-10.46-4.684-10.46-10.465 0-5.75 4.683-10.432 10.46-10.432 2.303 0 4.434.756 6.117 2.018V7.86h4.54v20.702h-4.485l-.055-1.85Zm-23.254 0c-1.71 1.29-3.868 2.018-6.171 2.018-5.75 0-10.46-4.684-10.46-10.465 0-5.75 4.71-10.432 10.46-10.432 2.303 0 4.434.756 6.17 2.018v-8.61h4.489v27.321h-4.488v-1.85Zm82.018-10.8c.252-4.909-1.209-10.296-5.137-15.54-3.812 4.91-5.156 10.491-4.822 15.54h9.959Zm-9.371 3.896a29.182 29.182 0 0 1-.42-2.213h9.621c-.11.743-.251 1.482-.42 2.213h-8.781Zm2.244 5.557a18.968 18.968 0 0 0 2.131 2.89c.787-.872 1.488-1.855 2.135-2.89h-4.266Zm22.133-9.426c1.121-2.329 1.908-4.936 2.27-7.854-6.533.562-11.666 3.73-15.119 7.854h12.849Zm-.87 1.656c-.449.783-.928 1.484-1.43 2.213l-13.102-.055c.42-.7.842-1.488 1.32-2.158h13.212Zm-5.162 6.086c.82-.67 1.589-1.402 2.299-2.189l-32.537-.027a20.148 20.148 0 0 0 2.383 2.244l27.855-.028Zm-11.359 1.684a16.526 16.526 0 0 0-.336 2.83c3.113-.139 6.338-1.094 9.256-2.83h-8.92Zm-21.738-7.77c.475.783.953 1.484 1.488 2.213h13.043c-.367-.756-.814-1.484-1.295-2.213h-13.236Zm7.627 7.77c2.918 1.736 6.117 2.691 9.229 2.83a20.214 20.214 0 0 0-.307-2.83h-8.922Zm4.347-9.426c-3.42-4.125-8.523-7.292-15.061-7.854a26.668 26.668 0 0 0 2.217 7.854h12.844Z" clip-rule="evenodd"/>
</svg>
