<svg xml:space="preserve" viewBox="0 0 1000 985.847" xmlns="http://www.w3.org/2000/svg">
  <g style="stroke-width:.08719587">
    <g style="stroke-width:.00953014">
      <path d="M99.046 700.43a3.831 3.831 0 0 1-.942-2.513c.002-.17.015-.341.04-.51h1.803c.025.169.04.34.042.51a3.832 3.832 0 0 1-.943 2.513zm-3.573-1.405a3.588 3.588 0 0 1 .376-1.618h2.121a3.588 3.588 0 0 1-.296.406 3.588 3.588 0 0 1-2.201 1.212zm7.147 0a3.587 3.587 0 0 1-2.202-1.212 3.587 3.587 0 0 1-.295-.406h2.12c.25.502.38 1.056.377 1.618zm-6.622-1.89c.057-.093.118-.183.183-.27h5.731c.065.087.126.177.182.27zm.405-.542c.086-.096.178-.186.275-.272h4.738c.097.086.19.176.276.272zm.622-.543a3.587 3.587 0 0 1 1.511-.597c0 .2-.018.4-.052.597zm1.57 0a3.83 3.83 0 0 1 .451-.646c.172.2.323.416.451.646zm1.012 0a3.588 3.588 0 0 1-.05-.597c.542.08 1.059.285 1.51.597z" style="opacity:1;fill:#000;fill-opacity:1;stroke:none;stroke-width:.00986032;stroke-linecap:square;stroke-linejoin:miter;stroke-miterlimit:4;stroke-dasharray:none;stroke-opacity:1" transform="matrix(139.90705 0 0 -139.90705 -13357.27 97995.032)"/>
      <path d="M97.862 695.032v-.51a.625.625 0 1 1 0-1.028v-.085h.3v1.623zm.448 0v-.301h.3v.3zm1.406 0v-.51a.624.624 0 1 1-.358-1.14.628.628 0 0 1 .358.112v-.085h.301v1.623zm-3.618-.399a.625.625 0 1 1 .357-1.139v-.085h.301v1.21h-.3v-.097a.621.621 0 0 1-.358.112zm4.668 0a.624.624 0 1 1 0-1.25c.132 0 .255.04.357.111v-.085h.301v1.21h-.3v-.097a.622.622 0 0 1-.358.112zm1.297 0c-.315 0-.502-.172-.502-.397 0-.275.223-.32.415-.356l.159-.028c.113-.021.163-.054.163-.12 0-.06-.057-.12-.192-.12-.197 0-.26.103-.263.19h-.308c.01-.244.218-.417.566-.417.285 0 .52.124.52.396 0 .19-.108.3-.354.348l-.192.038c-.123.024-.208.047-.208.12 0 .081.083.117.187.117.152 0 .213-.076.218-.166h.303c-.016.237-.206.395-.512.395zm-3.753-.014v-1.21h.3v1.21zm-2.198-.265a.345.345 0 0 0 .346-.346.345.345 0 0 0-.346-.345.345.345 0 0 0-.346.345c0 .192.154.346.346.346zm1.407 0a.345.345 0 0 0 .345-.346.345.345 0 0 0-.345-.345.345.345 0 0 0-.346.345c0 .192.154.346.346.346zm1.854 0a.345.345 0 0 0 .346-.346.345.345 0 0 0-.346-.345.345.345 0 0 0-.346.345c0 .192.154.346.346.346zm1.407 0a.345.345 0 0 0 .346-.346.345.345 0 0 0-.346-.345.345.345 0 0 0-.346.345c0 .192.154.346.346.346z" style="clip-rule:evenodd;fill-rule:nonzero;stroke-width:.00062324;stroke-linejoin:round;stroke-miterlimit:1.41420996" transform="matrix(139.90705 0 0 -139.90705 -13357.27 97995.032)"/>
    </g>
  </g>
</svg>
