<svg viewBox="0 0 48 48" xmlns="http://www.w3.org/2000/svg">
  <path fill="#ff8f00" d="M39 39.1H9c-1.7 0-3-1.3-3-3V9c0-1.7 1.3-3 3-3h30c1.7 0 3 1.3 3 3v27.1c0 1.6-1.3 3-3 3z"/>
  <path fill="#dd2c00" d="M39 42H9c-1.7 0-3-1.3-3-3V14c0-1.7 1.3-3 3-3h30c1.7 0 3 1.3 3 3v25c0 1.7-1.3 3-3 3z"/>
  <path fill="#b71c1c" d="M15 15a2 2 0 1 0 0 4 2 2 0 1 0 0-4zm18 0a2 2 0 1 0 0 4 2 2 0 1 0 0-4z"/>
  <path fill="#fff" d="M24 27c-5.5 0-10-4.5-10-10 0-.6.4-1 1-1s1 .4 1 1c0 4.4 3.6 8 8 8s8-3.6 8-8c0-.6.4-1 1-1s1 .4 1 1c0 5.5-4.5 10-10 10z"/>
</svg>
