<svg preserveAspectRatio="none" viewBox="0 0 170 80" xmlns="http://www.w3.org/2000/svg">
  <path d="M164.7 27.7v2.6h2.1v1.9c0 1.9-.5 2.6-1.8 2.6-1.1 0-1.5-.8-1.5-2V23c0-1.6.6-2.1 1.4-2.1 1.3 0 1.9.7 1.9 3.6h3.1v-1.2c0-2.8-1.6-5.2-4.9-5.2-3.2 0-4.8 2.2-4.8 4.9v9.8c0 3 1.8 4.9 4.4 4.9 1.5 0 2.3-.5 3.3-1.7l.6 1.5h1.6v-9.6h-5.4zm-10.6 1.5-4-10.9h-3v19h2.9V25.4h.1l4.1 11.9h2.8v-19h-2.9zm-6.8 24h4.2v-2.8h-4.2v-4.9h5.4v-2.8H144v19h9.1v-2.9h-5.8zm-7.1-34.9h3.2v19h-3.2zm-1.8 19.1v-.1l-3.9-11.9 3.5-7.1h-3.2l-3.4 7.1h-.1v-7.1H128v19h3.3v-6.7l1.1-2.1h.1l2.7 8.9zm-11.4 5c-3.4 0-5 2.2-5 4.9v9.8c0 2.7 1.6 4.9 5 4.9 3.2 0 4.8-2.2 4.8-4.9v-2.2h-3.2v2.3c0 1.2-.4 1.9-1.6 1.9-1.3 0-1.8-.7-1.8-2.1v-9.6c0-1.4.4-2.1 1.8-2.1.9 0 1.6.7 1.6 2.3v1.5h3.2v-1.4c0-2.9-1.6-5.3-4.8-5.3zm-9-17h.1l4.1 11.9h2.9v-19h-3v10.9l-3.9-10.9h-3.1v19h2.9zM95.5 42.5c-3.4-.1-5 2.1-5 4.7V57c0 2.7 1.6 4.9 5 4.9 3.2 0 4.8-2.2 4.8-4.9v-2.2h-3.2v2.3c0 1.2-.4 1.9-1.6 1.9-1.3 0-1.8-.7-1.8-2.1v-9.6c0-1.4.4-2.1 1.8-2.1.8 0 1.6.7 1.6 2.3V49h3.2v-1.4c0-2.7-1.6-5.1-4.8-5.1zm7.9.2h3.2v19h-3.2zm34.1 0h-3.2v19h8.3v-2.9h-5.1zm-20.2 10.4c1.1-.5 2.3-1.8 2.3-4.8.1-4.1-1.8-5.6-5.5-5.6h-4.6v19h3.2v-7.8c.6 0 1.3 0 1.7-.1l2.3 7.8h3.3l-2.7-8.5zm-3.3-1.9h-1.2v-5.9h1.2c1.7 0 2.4.7 2.4 2.9s-.6 3-2.4 3zm-4.3-32.9h-4l-3.5 19h3.1l.6-4.2h3.6l.6 4.2h3.1l-3.5-19zm-3.3 12 1.3-8.2h.1l1.3 8.2h-2.7zm-8.4-3c1.6-.6 2.2-2.3 2.2-3.9 0-3.3-1.5-5-5-5h-4.8v19h5.2c3.7 0 5.1-2.3 5.1-5.5-.1-2.5-1.1-3.8-2.7-4.6zM93.6 21h1.2c1.5.1 2.1 1 2.1 2.7 0 1.6-1 2.4-2.2 2.4h-1.2V21zM95 34.7h-1.4v-5.9h1.1c2 0 2.7 1 2.7 2.9-.1 2-.7 3-2.4 3zm-15.4 8c.1-.9.1-1.8.1-2.7s-.1-1.8-.1-2.7H60l18.9-5.1c-.3-1.8-.8-3.5-1.4-5.2l-18.9 5.1 16.9-9.8c-.8-1.6-1.6-3.1-2.7-4.6L56 27.5l13.8-13.9c-1.2-1.3-2.4-2.6-3.8-3.8L52.2 23.7l9.8-17c-1.5-1-3-1.9-4.6-2.7l-9.7 17.1 5-19c-1.6-.6-3.4-1-5.2-1.4l-5 19V.1c-.9 0-1.8-.1-2.7-.1s-1.8.1-2.7.1v26.8c.9-.2 1.8-.3 2.7-.3 7.3 0 13.3 6 13.3 13.3s-6 13.3-13.3 13.3-13.3-6-13.3-13.3c0-5.9 3.8-10.9 9.1-12.6L22.3 4.1c-1.6.8-3.1 1.7-4.6 2.7l9.8 17L13.6 9.9c-1.3 1.2-2.6 2.4-3.8 3.8l13.8 13.9-16.9-9.8c-1 1.5-1.9 3-2.7 4.6l17 9.8-18.9-5.1c-.6 1.7-1 3.4-1.4 5.2l18.9 5.1H.1c0 .8-.1 1.7-.1 2.6s.1 1.8.1 2.7h19.5l-18.9 5c.3 1.8.8 3.5 1.4 5.2L21 47.8 4.1 57.7c.8 1.6 1.6 3.1 2.7 4.6l16.9-9.8L9.9 66.3c1.2 1.3 2.4 2.6 3.8 3.8l13.8-13.9-9.8 17c1.5 1 3 1.9 4.6 2.7l9.8-17-5.1 19c1.6.6 3.4 1 5.2 1.4l5-19v19.6c.9.1 1.8.1 2.7.1s1.8-.1 2.7-.1V60.3l5 19c1.8-.3 3.5-.8 5.2-1.4l-5-19 9.8 17c1.6-.8 3.1-1.7 4.6-2.7l-9.8-17 13.9 13.9c1.3-1.2 2.6-2.4 3.8-3.8l-14-13.9L73 62.2c1-1.5 1.9-3 2.7-4.6l-16.9-9.8 18.9 5.1c.6-1.7 1-3.4 1.4-5.2l-19-5h19.5z"/>
</svg>
