<svg fill="none" viewBox="0 0 70 69" xmlns="http://www.w3.org/2000/svg">
  <path fill="#000" d="M68.918 36.477c.085-.769.085-1.538.085-2.306 0-.77-.085-1.538-.085-2.307H52.193l16.127-4.357c-.256-1.537-.682-2.99-1.194-4.442l-16.127 4.357 14.42-8.372c-.682-1.367-1.365-2.648-2.304-3.93l-14.334 8.372 11.775-11.874c-1.024-1.11-2.048-2.221-3.243-3.246L45.538 20.246 53.9 5.724a36.287 36.287 0 0 0-3.925-2.307l-8.277 14.608 4.267-16.231C44.599 1.28 43.064.94 41.528.598L37.26 16.829V.085C36.493.085 35.725 0 34.958 0c-.769 0-1.536.085-2.304.085V22.98a10.557 10.557 0 0 1 2.303-.257c6.23 0 11.349 5.126 11.349 11.362s-5.12 11.362-11.348 11.362c-6.23 0-11.35-5.126-11.35-11.362 0-5.04 3.243-9.311 7.766-10.764L20.025 3.502A36.3 36.3 0 0 0 16.1 5.81l8.362 14.522-11.86-11.874c-1.11 1.025-2.219 2.05-3.243 3.246l11.775 11.875-14.42-8.372a36.36 36.36 0 0 0-2.304 3.93l14.506 8.371-16.127-4.356c-.512 1.452-.853 2.904-1.195 4.442l16.127 4.357H1.082c0 .683-.085 1.452-.085 2.22 0 .77.085 1.538.085 2.307h16.64l-16.129 4.27c.256 1.538.683 2.99 1.195 4.443l16.127-4.357-14.42 8.457c.682 1.367 1.365 2.648 2.303 3.93l14.42-8.372L9.445 56.638c1.024 1.11 2.048 2.22 3.243 3.246L24.462 48.01 16.1 62.532a36.29 36.29 0 0 0 3.925 2.307l8.362-14.523-4.352 16.231c1.366.513 2.901.854 4.437 1.196l4.267-16.23v16.743c.768.085 1.536.085 2.304.085.768 0 1.536-.085 2.303-.085V51.512l4.267 16.231c1.536-.256 2.986-.683 4.437-1.196l-4.267-16.23 8.363 14.522a36.269 36.269 0 0 0 3.925-2.307L45.709 48.01l11.86 11.874c1.11-1.025 2.219-2.05 3.242-3.246L48.867 44.763l14.42 8.372a36.368 36.368 0 0 0 2.304-3.93l-14.42-8.371 16.126 4.357c.512-1.453.854-2.905 1.195-4.443l-16.212-4.27h16.639Z"/>
</svg>
