<svg xml:space="preserve" fill-rule="evenodd" clip-rule="evenodd" image-rendering="optimizeQuality" shape-rendering="geometricPrecision" text-rendering="geometricPrecision" viewBox="0 0 4257.46 889.51" xmlns="http://www.w3.org/2000/svg">
  <g fill-rule="nonzero">
    <path fill="#F7931A" d="M875.92 551.95c-59.08 238.24-300.11 383.47-538.36 324.39C99.32 817.27-45.91 576.23 13.17 337.99 72.25 99.74 313.28-45.5 551.52 13.58c.4.1.81.2 1.21.31C790.34 73.52 934.9 314.17 875.92 551.95z"/>
    <path fill="#fff" d="M545.37 380.28c-13.89 55.56-98.61 27.08-126.11 20.28l24.3-97.22c27.08 6.67 115.7 19.44 101.39 76.94h.42zm-15.14 157.1c-15 60.54-116.94 27.78-150 19.57l26.8-107.36c33.06 8.33 138.89 24.58 123.2 87.79zm111.11-156.26c8.75-59.17-36.25-90.97-97.22-112.08l20-80.14-49.3-12.22-19.44 78.06c-12.78-3.19-25.97-6.25-39.03-9.17l19.44-78.89-48.75-12.22-20 80.14-31.11-6.94-67.36-16.81-12.92 52.09s36.11 8.33 35.42 8.89c13.79 1.67 23.85 13.92 22.78 27.78l-22.78 91.25c1.71.39 3.39.94 5 1.67l-5.14-1.39-31.81 127.92c-2.98 9.36-12.98 14.51-22.35 11.53h-.01c0 .69-35.56-8.75-35.56-8.75l-24.17 55.56 63.47 15.7 34.72 9.03-20.14 80.97 48.75 12.22 20-80.14c13.14 3.61 26.07 6.94 38.75 10l-19.72 80.42 48.75 12.08 20.14-80.83c83.33 15.71 145.69 9.44 172.08-65.83 21.25-60.56-1.11-95.42-44.86-118.2 31.94-7.36 55.56-27.78 62.36-71.67z"/>
    <path fill="#4D4D4D" d="M1157.17 750c25.96.08 51.5-6.53 74.17-19.17a192.719 192.719 0 0 0 60.28-50.28 257.469 257.469 0 0 0 39.86-72.64 247.313 247.313 0 0 0 14.72-84.44c1.56-29.21-4.68-58.31-18.06-84.31-11.94-20.14-34.17-30.41-66.39-30.41-14.04.48-28 2.39-41.67 5.69a100.48 100.48 0 0 0-45.56 23.61l-73.61 307.78 11.81 2.22c3.51.86 7.1 1.42 10.69 1.67 4.61.57 9.25.8 13.89.69l19.86-.42zm146.25-481.11c32.15-.74 64.07 5.82 93.33 19.17a185.93 185.93 0 0 1 65.28 51.81 216.335 216.335 0 0 1 38.89 76.8 350.146 350.146 0 0 1 12.36 94.59 384.571 384.571 0 0 1-107.5 266.53 369.39 369.39 0 0 1-117.08 80.83 357.242 357.242 0 0 1-146.11 30.28h-35.56c-19.33-.63-38.63-2.29-57.78-5a660.196 660.196 0 0 1-69.44-13.89 338.802 338.802 0 0 1-69.44-24.72l195.14-817.5L1279.82.01l-69.44 290.14a269.5 269.5 0 0 1 44.86-15.69c15.86-3.86 32.15-5.78 48.47-5.69l-.28.14z"/>
    <path fill="#4D4D4D" d="M1774.39 209.3c-22.72.22-44.87-7.06-63.06-20.69a73.758 73.758 0 0 1-27.78-63.61c-.08-15.29 3.18-30.42 9.58-44.31a117.901 117.901 0 0 1 25.42-36.11 125.404 125.404 0 0 1 36.53-24.17c14.04-6.03 29.17-9.1 44.44-9.03 22.56-.07 44.5 7.25 62.5 20.83a74.037 74.037 0 0 1 27.78 63.61c.12 15.33-3.1 30.5-9.44 44.44a119.323 119.323 0 0 1-25.28 35.97c-10.64 10.18-23 18.36-36.53 24.17a109.502 109.502 0 0 1-44.44 8.89h.28zm-80.97 663.76h-166.67l140.83-591.68h167.64l-141.81 591.68z"/>
    <path fill="#4D4D4D" d="m1981.06 134.03 174.3-26.94-43.33 174.31h186.68l-33.63 137.22h-185.14l-49.44 206.39c-4.28 15.8-6.93 32-7.92 48.35-1.02 13.22.94 26.5 5.69 38.87a48.271 48.271 0 0 0 24.17 25.14c15.7 6.94 32.84 10.1 50 9.17 17.58.06 35.12-1.67 52.36-5.14 17.35-3.39 34.44-8.03 51.11-13.89l12.5 128.33a608.292 608.292 0 0 1-73.2 21.25 416.853 416.853 0 0 1-93.33 9.03c-51.81 0-91.81-7.78-120.42-23.06-26.76-13.61-48.2-35.81-60.83-63.06a200.783 200.783 0 0 1-15.69-91.67c1.87-36.79 7.12-73.33 15.69-109.17l110.42-465.69v.56z"/>
    <path fill="#4D4D4D" d="M2292.59 636.8c-.35-49.08 8.01-97.86 24.72-144.02a355.22 355.22 0 0 1 70.83-118.19 331.838 331.838 0 0 1 111.94-79.74c46.32-20 96.35-29.99 146.8-29.29 30.46-.36 60.86 2.85 90.56 9.57a374.405 374.405 0 0 1 72.5 25.28l-57.91 130.14c-15-6.11-30.56-11.37-46.67-16.25-19.21-5.35-39.1-7.83-59.03-7.36-50.36-1.82-98.8 19.47-131.53 57.78-32.5 38.23-48.81 89.62-48.89 154.17a158.91 158.91 0 0 0 24.72 92.79c16.47 23.61 46.86 35.4 91.11 35.4 21.21.02 42.35-2.26 63.06-6.8 18.47-3.94 36.57-9.56 54.03-16.81l12.36 133.9a648.88 648.88 0 0 1-69.44 21.93 387.717 387.717 0 0 1-91.11 9.46 309.55 309.55 0 0 1-119.17-20.15 224.167 224.167 0 0 1-79.72-54.57 205.948 205.948 0 0 1-45.69-80.57 331.67 331.67 0 0 1-13.89-97.22l.42.56z"/>
    <path fill="#4D4D4D" d="M3114.94 407.5c-23.5-.33-46.47 7.14-65.28 21.25a184.721 184.721 0 0 0-47.08 54.03 267.788 267.788 0 0 0-29.44 71.41 306.453 306.453 0 0 0-9.44 73.59c-1.5 30.31 4.67 60.49 17.92 87.78 12.09 20.97 33.75 31.53 65.28 31.53 23.54.4 46.54-7.13 65.28-21.39 19.11-14.76 35.14-33.13 47.22-54.01a264.734 264.734 0 0 0 28.76-71.41 314.45 314.45 0 0 0 9.43-73.75c1.56-30.29-4.63-60.5-17.92-87.78-12.08-20.83-33.89-31.39-65.28-31.39l.56.14zm-83.33 481.39c-35.39.82-70.58-5.32-103.61-18.06a191.021 191.021 0 0 1-72.5-50.56 218.083 218.083 0 0 1-43.33-77.08 313.48 313.48 0 0 1-13.89-98.33c.11-45.86 7.46-91.43 21.82-135 13.93-43.85 35.68-84.82 64.15-120.97a344.61 344.61 0 0 1 104.58-88.33 288.056 288.056 0 0 1 141.67-34.31c35.18-.64 70.18 5.5 103.06 18.06a193.626 193.626 0 0 1 72.91 49.86 220.925 220.925 0 0 1 43.2 77.08 310.49 310.49 0 0 1 13.89 98.47c-.14 45.82-7.31 91.36-21.25 135a390.252 390.252 0 0 1-63.06 121.53 331.365 331.365 0 0 1-104.03 88.2 293.976 293.976 0 0 1-143.61 34.44z"/>
    <path fill="#4D4D4D" d="M3626.75 209.3c-22.68.24-44.81-7.04-62.91-20.69a73.707 73.707 0 0 1-27.78-63.61c-.08-15.29 3.18-30.42 9.57-44.31a119.817 119.817 0 0 1 24.72-36.11 127.835 127.835 0 0 1 36.67-24.17c14-6.02 29.08-9.09 44.32-9.03 22.72-.2 44.91 7.14 63.06 20.83a74.063 74.063 0 0 1 27.78 63.61c.03 15.35-3.29 30.52-9.74 44.44a116.655 116.655 0 0 1-25.13 35.97c-10.64 10.18-23 18.36-36.53 24.17-13.92 5.97-28.9 9-44.04 8.89zm-80.82 663.76h-166.67l140.56-591.68h167.78l-141.67 591.68z"/>
    <path fill="#4D4D4D" d="M3807.59 308.33c12.64-3.61 26.67-8.06 41.67-12.91 15-4.86 32.5-9.31 51.79-13.89a624.81 624.81 0 0 1 64.04-10.14c26.71-2.82 53.56-4.17 80.42-4.03 87.78 0 148.33 25.5 181.67 76.53 19.96 30.56 30.06 67.84 30.3 111.85v3.17c-.15 28.62-4.42 60.05-12.8 94.28l-76.53 319.44h-167.22l74.3-312.79c4.44-19.43 8.06-38.32 10.7-56.79 2.89-15.99 2.89-32.36 0-48.33a58.025 58.025 0 0 0-20.83-33.75 80.369 80.369 0 0 0-50.14-12.92c-22.26.04-44.46 2.32-66.25 6.81l-109.17 458.33h-168.21l136.26-564.86z"/>
  </g>
</svg>
