<svg version="1.0" viewBox="-21.521 -21.521 2622.274 760.4" xmlns="http://www.w3.org/2000/svg">
  <path d="M545.85 0c-22.056-.052-46.688 2.516-73.407 9.313 0 0-137 34-288 175 0 0-72 73-123 167 0 0-53 98-61 180 0 0-8 92 44 139 0 0 60 55 191 44 0 0 82-10 171-66 0 0 43-28 71-54 0 0-13 47 6 81 0 0 18 32 59 39 0 0 30 6 73-10 0 0 27-12 45-21 0 0 37-20 73-48 0 0-7 28 9 52 0 0 19 27 54 30 0 0 94 7 225-154l-92 148 84-1 73-126s76-130 92-146c0 0 39-52 98-64l39 3s16 8 16 26l-29-5s-17 2-26 20c0 0-8 17-4 34 0 0 5 14 18 19l9 3 29-4s51-19 121-107l-16 29-59 101-69 122s-20 40-11 64c0 0 9 23 39 29l65-5s37-11 67-37l43-35s52-44 99-96l-3 4s-41 75-48 100c0 0-16 53 21 74l42 4s35-5 70-30l57-49s49-46 75-79c0 0-13 30-16 52 0 0-10 70 55 98l61 5s24-2 61-15c0 0 86-28 207-139 0 0 61-56 104-106l-152 255h75l56-94 72-117s41-65 116-107c0 0 30-18 53-22 0 0 24-5 29 7 0 0-34-7-42 28 0 0-8 35 20 46 0 0 21 7 38-5 0 0 15-11 20-32 0 0 4-21-6-36 0 0-12-18-40-20 0 0-31-1-93 40 0 0-46 30-65 49l51-87h-76s-72 122-199 227c0 0-124 101-194 104 0 0-68 5-75-47 0 0-4-31 14-75 0 0 42 4 98-14 0 0 53-17 97-47 0 0 47-32 64-66 0 0 20-38-3-70 0 0-42-41-133-3 0 0-94 39-164 132l-18 27-2 3-50 58-51 51s-62 61-93 43c0 0-12-8-12-27 0 0 0-19 14-42l145-252h-65s-36 59-78 115c0 0-82 109-171 172 0 0-61 47-95 31 0 0-15-7-14-26 0 0 1-21 21-50l142-242 79-1 10-10h-80l85-151-72 1s-50 85-88 136c0 0-70 92-128 117 0 0 10-13 11-33l-1-16s-4-21-24-31l-18-5-34 3s-40 9-77 41l31-52h-72s-65 116-150 215c0 0-111 128-172 113 0 0-18-9-19-31 0 0 0-22 19-53l145-245-72 1-23 40-15 29s3-9 0-28c0 0-6-45-49-54l-34-3s-86-1-184 85c0 0-67 60-118 151 0 0-102 95-210 116 0 0-96 20-137-23 0 0-45-46-45-126 0 0 1-95 69-224 0 0 72-106 116-154 0 0 112-123 228-154 0 0 95-25 148 18 0 0 45 37 49 112l26-44s33-52 62-82c0 0-27 12-60 16 0 0-41 5-61-7 0 0-44.548-28.138-116.594-28.312zm244.218 353.376c29.299.148 44.375 13.937 44.375 13.937 35 32 7 92 7 92-54 112-133 180-133 180l-48 34c-75 37-107 11-107 11-26-22-15-72-15-72 7-34 35-83 35-83l54-79c49-54 105-82 105-82 23.031-11.343 42.278-15.015 57.625-14.937zm1286.406 8.812c1.006-.012 2 .031 2.969.125 0 0 16 2 23 10 0 0 7 10 5 30 0 0-5 53-64 103 0 0-67 57-145 55l15-31s34-66 84-117c0 0 47.856-49.743 79.031-50.125z" style="fill:#000;stroke:none"/>
  <path d="M1772.443 250.304s0 13 10 23c0 0 9 9 23 9 0 0 13 0 22-9 0 0 9-10 9-23l-9-23s-10-9-22-9c0 0-14 0-23 9 0 0-10 9-10 23" style="fill:#000;stroke:none"/>
</svg>
