<svg fill="none" viewBox="0 0 185 24" xmlns="http://www.w3.org/2000/svg">
  <path fill="#00122C" d="M137.26 18.918c1.008 0 1.825-.832 1.825-1.857 0-1.026-.817-1.858-1.825-1.858s-1.825.832-1.825 1.858c0 1.025.817 1.857 1.825 1.857ZM32.267 18.43c-.816-.342-1.537-.83-2.065-1.466-.576-.636-1.009-1.369-1.345-2.2-.336-.83-.48-1.76-.48-2.737 0-.978.144-1.906.432-2.737.288-.831.72-1.613 1.297-2.2a5.987 5.987 0 0 1 2.017-1.466 6.783 6.783 0 0 1 2.69-.538c.864 0 1.585.098 2.257.342a6.96 6.96 0 0 1 1.777.978c.529.39.913.928 1.201 1.515.336.587.528 1.27.624 1.955H37.31a2.488 2.488 0 0 0-.816-1.466c-.432-.391-.96-.587-1.585-.587-1.057 0-1.825.391-2.353 1.124-.529.734-.769 1.76-.769 3.031 0 1.27.24 2.248.769 3.03.48.783 1.296 1.125 2.353 1.125.72 0 1.297-.196 1.729-.538.432-.39.72-.929.864-1.71h3.363a5.412 5.412 0 0 1-1.73 3.568c-.48.44-1.104.83-1.777 1.075a7.21 7.21 0 0 1-2.353.39 6.228 6.228 0 0 1-2.738-.488ZM46.244 7.09c.48-.685 1.008-1.223 1.585-1.565.576-.342 1.296-.537 2.209-.537a4.36 4.36 0 0 1 1.825.39 4.153 4.153 0 0 1 1.393 1.027c.384.44.672.978.912 1.564.24.587.337 1.271.337 2.004v8.603h-3.459v-8.114c0-.733-.192-1.32-.576-1.76-.384-.44-.96-.684-1.68-.684-.77 0-1.394.293-1.874.831-.48.538-.768 1.27-.768 2.2v7.527h-3.459V.148h3.459V7.09h.096Zm13.928 11.338a5.906 5.906 0 0 1-2.113-1.466 6.11 6.11 0 0 1-1.297-2.249 8.593 8.593 0 0 1-.432-2.737c0-.978.144-1.906.48-2.737a8.251 8.251 0 0 1 1.297-2.2 5.985 5.985 0 0 1 2.017-1.466 6.316 6.316 0 0 1 2.594-.538c1.057 0 1.97.196 2.738.587.816.39 1.44.928 2.017 1.613.528.684.96 1.564 1.249 2.493.288.977.432 2.053.432 3.226H59.74c.144 1.026.48 1.857 1.009 2.444.528.586 1.297.88 2.305.88.673 0 1.2-.147 1.633-.44.384-.294.72-.685.865-1.173h3.41c-.096.586-.336 1.124-.625 1.661-.336.538-.72.978-1.2 1.369a5.154 5.154 0 0 1-1.777.929c-.673.244-1.441.342-2.258.342a7.841 7.841 0 0 1-2.93-.538Zm.529-9.971c-.48.489-.769 1.222-.96 2.053h5.763c-.048-.831-.337-1.516-.817-2.053-.48-.538-1.152-.782-1.921-.782-.913.049-1.585.293-2.065.782Zm13.592 9.973c-.817-.342-1.537-.83-2.066-1.466-.576-.636-1.008-1.369-1.344-2.2-.337-.83-.48-1.76-.48-2.737 0-.978.143-1.906.432-2.737.288-.831.72-1.613 1.296-2.2a5.986 5.986 0 0 1 2.018-1.466 6.783 6.783 0 0 1 2.69-.538c.864 0 1.584.098 2.257.342a6.962 6.962 0 0 1 1.777.978c.528.39.912.928 1.2 1.515.337.587.529 1.27.625 1.955h-3.362a2.488 2.488 0 0 0-.817-1.466c-.432-.391-.96-.587-1.585-.587-1.056 0-1.825.391-2.353 1.124-.528.734-.769 1.76-.769 3.031 0 1.27.24 2.248.769 3.03.48.783 1.297 1.125 2.353 1.125.72 0 1.297-.196 1.73-.538.432-.39.72-.929.864-1.71h3.314a5.414 5.414 0 0 1-1.729 3.568c-.48.44-1.105.83-1.777 1.075a7.21 7.21 0 0 1-2.354.39 6.142 6.142 0 0 1-2.69-.488Zm13.881-4.302v4.448h-3.41V.148h3.41v10.216l4.61-4.985h4.131l-4.803 5.034 5.38 8.163h-4.18l-3.65-6.012-1.488 1.564Zm13.111 4.302a6.554 6.554 0 0 1-2.16-1.466 7.405 7.405 0 0 1-1.394-2.2c-.336-.83-.48-1.76-.48-2.737 0-.978.144-1.906.48-2.737.337-.831.817-1.613 1.393-2.2.577-.635 1.297-1.124 2.161-1.466a7.025 7.025 0 0 1 2.738-.538 7.01 7.01 0 0 1 2.738.538 6.552 6.552 0 0 1 2.161 1.466 7.408 7.408 0 0 1 1.393 2.2c.336.83.48 1.76.48 2.737 0 .978-.144 1.906-.48 2.737-.336.831-.817 1.613-1.393 2.2-.576.635-1.297 1.124-2.161 1.466a7.024 7.024 0 0 1-2.738.538 7.024 7.024 0 0 1-2.738-.538Zm5.188-3.324c.576-.782.864-1.808.864-3.128s-.288-2.346-.864-3.128c-.577-.782-1.393-1.222-2.45-1.222-1.057 0-1.873.39-2.449 1.222-.577.782-.865 1.857-.865 3.128 0 1.27.288 2.346.865 3.128.576.782 1.392 1.173 2.449 1.173s1.873-.39 2.45-1.173Zm14.408 1.906h-.096a5.813 5.813 0 0 1-1.489 1.418c-.576.342-1.296.489-2.209.489-1.441 0-2.546-.44-3.362-1.271-.769-.88-1.153-2.004-1.153-3.47v-8.8h3.41v8.213c0 .782.192 1.368.529 1.76.336.39.912.635 1.633.635.816 0 1.441-.293 1.921-.831s.72-1.271.72-2.15V5.378h3.458v13.197h-3.314v-1.564h-.048Zm6.676-11.635V1.223h3.362v4.154h2.21v2.298h-2.21v6.99c0 .488.096.83.337 1.026.24.196.528.293.96.293h.673c.096 0 .24 0 .336-.049v2.64c-.192 0-.336.049-.577.049-.192 0-.432.049-.672.049h-.913c-.432 0-.816-.05-1.248-.147a2.838 2.838 0 0 1-1.105-.489 2.68 2.68 0 0 1-.816-.977 3.568 3.568 0 0 1-.337-1.564V7.675h-1.777V5.377h1.777Zm16.522 13.003a5.466 5.466 0 0 1-1.873-1.467 6.01 6.01 0 0 1-1.153-2.2c-.24-.83-.384-1.76-.384-2.786s.144-1.906.384-2.786c.288-.83.673-1.613 1.153-2.2a5.465 5.465 0 0 1 1.873-1.466c.72-.342 1.585-.537 2.546-.537 1.44 0 2.641.39 3.554 1.124.912.733 1.489 1.808 1.729 3.177h-1.537c-.192-.978-.577-1.76-1.249-2.249-.624-.488-1.441-.733-2.449-.733-.769 0-1.393.147-1.97.44-.528.293-1.008.684-1.344 1.222a5.106 5.106 0 0 0-.769 1.809c-.192.684-.24 1.417-.24 2.2 0 .781.096 1.515.288 2.199.192.684.432 1.27.817 1.808.336.538.816.93 1.344 1.222.529.294 1.201.44 1.922.44 1.104 0 2.017-.342 2.689-.977.673-.636 1.057-1.516 1.201-2.59h1.489c-.144 1.514-.673 2.688-1.633 3.616-.913.88-2.161 1.32-3.746 1.32-1.057-.049-1.922-.244-2.642-.587Zm12.824 0a5.204 5.204 0 0 1-1.921-1.467c-.529-.635-.913-1.369-1.201-2.2-.288-.83-.432-1.76-.432-2.786a8.68 8.68 0 0 1 .432-2.786c.288-.83.672-1.613 1.201-2.2a5.203 5.203 0 0 1 1.921-1.466 6.087 6.087 0 0 1 2.545-.537c.961 0 1.777.195 2.546.537.72.342 1.393.831 1.921 1.467.528.635.913 1.368 1.201 2.2.288.83.384 1.759.384 2.785 0 1.027-.144 1.907-.384 2.787-.288.83-.673 1.612-1.201 2.2a5.212 5.212 0 0 1-1.921 1.465c-.721.343-1.585.538-2.546.538a6.254 6.254 0 0 1-2.545-.538Zm4.467-1.223c.576-.293 1.008-.684 1.392-1.222a4.74 4.74 0 0 0 .817-1.808 8.111 8.111 0 0 0 .288-2.2c0-.782-.096-1.515-.288-2.2a6.85 6.85 0 0 0-.817-1.808c-.384-.538-.816-.929-1.392-1.222-.577-.293-1.201-.44-1.922-.44-.72 0-1.393.147-1.921.44a4.167 4.167 0 0 0-1.393 1.222 5.706 5.706 0 0 0-.864 1.809 8.111 8.111 0 0 0-.288 2.2c0 .781.096 1.515.288 2.199.192.684.48 1.27.864 1.808.385.538.865.93 1.393 1.222.528.294 1.201.44 1.921.44.721 0 1.393-.146 1.922-.44Zm7.925-11.924v2.004h.048a5.772 5.772 0 0 1 1.585-1.662c.624-.44 1.441-.635 2.401-.635.817 0 1.537.195 2.162.586.624.391 1.056 1.027 1.344 1.809h.049a4.768 4.768 0 0 1 1.729-1.809c.72-.44 1.537-.635 2.449-.635.576 0 1.057.097 1.537.293.48.195.913.44 1.249.782.336.342.624.782.816 1.32.192.537.288 1.124.288 1.76v9.531h-1.537V9.241c0-.978-.24-1.71-.768-2.2-.528-.488-1.201-.684-1.969-.684-.48 0-.961.098-1.345.244-.432.196-.816.44-1.105.734a4.104 4.104 0 0 0-.768 1.173 4.118 4.118 0 0 0-.288 1.564v8.505h-1.585V9.241c0-.978-.24-1.71-.769-2.2-.48-.488-1.104-.684-1.873-.684-.48 0-.912.098-1.345.293a4.63 4.63 0 0 0-1.2.782 3.601 3.601 0 0 0-.817 1.222c-.192.44-.288.978-.288 1.516v8.407h-1.585V5.233h1.585ZM15.41 12.024l6.147-10.949a.676.676 0 0 0 0-.733C21.413.147 21.173 0 20.932 0H8.252c-.24 0-.48.147-.624.342L1.096 11.633c-.144.245-.144.538 0 .734l6.532 11.29a.697.697 0 0 0 .625.343h12.68c.24 0 .48-.147.624-.342a.676.676 0 0 0 0-.733l-6.148-10.9Zm-.817-1.466L9.5 1.466h10.23l-5.138 9.092ZM8.205 2.2l5.523 9.824-5.523 9.825-5.668-9.825L8.205 2.2ZM9.5 22.534l5.092-9.092 5.09 9.092H9.502Z"/>
</svg>
