<svg fill="none" viewBox="0 0 57 66" xmlns="http://www.w3.org/2000/svg">
  <path fill="#00122C" d="m39.87 32.967 16.734-29.65c.392-.662.392-1.323 0-1.985-.392-.53-1.046-.927-1.7-.927H20.39c-.653 0-1.307.397-1.699.927L.911 31.908c-.392.662-.392 1.456 0 1.985l17.78 30.577c.392.661 1.046.926 1.7.926h34.513c.654 0 1.308-.397 1.7-.926.392-.662.392-1.324 0-1.986L39.87 32.967Zm-2.222-3.971L23.79 4.376h27.846l-13.988 24.62ZM20.26 6.362l15.034 26.605L20.26 59.572 4.833 32.967 20.26 6.362Zm3.53 55.063 13.858-24.62 13.857 24.62H23.79Z"/>
</svg>
