<svg viewBox="0 0 512 130" xmlns="http://www.w3.org/2000/svg">
  <g fill="none">
    <path fill="#45AD47" d="M79.857 23.463V.004h-23.46l-2.34 2.362-11.07 21.094-3.48 2.349H0v32.215h21.72l1.933 2.34L0 105.561v23.46h23.458l2.342-2.361 11.07-21.095 3.48-2.348h39.507V71.002h-21.72l-1.932-2.355 23.652-45.184"/>
    <path fill="#1F211F" d="m125.69 106.637 6.665-12.72 3.075 12.72h-9.74Zm.65-35.631L95.98 129.02h18.016l4.405-8.442 20.342-.001 2.013 8.443h18.014l-13.884-58.015H126.34Zm60.762 27.122h-7.697v-11.73h7.697c4.69 0 6.471 2.346 6.471 5.912 0 3.473-1.78 5.818-6.47 5.818Zm24.116-6.105c0-13.322-9.01-21.017-21.678-21.017h-27.49v58.021h17.355v-16.922h4.223l3.447-.01 8.402 16.932h18.017l-10.714-20.473c5.254-3.347 8.438-9.02 8.438-16.53Zm2.567-21.017v15.38h16.399v42.641h9.881l7.46-14.272V86.386H262.4l8.042-15.38h-56.656ZM311.013.004h17.339v58.013h-17.34V.004Zm-147.48.03-7.792 14.873h4.784c8.542 0 13.95 5.46 13.95 14.096 0 8.537-5.408 13.998-13.95 13.998h-5.406V16.096l-16.773 32.02v9.893h23.336c18.805 0 29.857-11.339 29.857-29.006 0-17.083-10.331-28.244-28.006-28.97Zm32.592 57.983h44.283V42.64h-26.945v-6.27h24.773V21.65h-24.773v-6.267h26.945V.004h-44.283v58.013Zm75.112-22.906L262.833.004h-17.998l13.893 58.012h18.514L307.629.004H289.61l-18.374 35.107ZM455.345 0v15.38h16.398v42.641h9.881l7.461-14.272V15.38h14.874L512 0h-56.655Zm-93.909 35.636 6.654-12.709 3.074 12.71h-9.728Zm.675-35.632-30.367 58.012h17.985l4.421-8.453h20.323l2.017 8.453 17.99.001L380.595.004h-18.484Zm72.182 27.48L414.873.005h-17.1v58.013h17.334V28.555l21.499 29.462h15.022V.004h-17.335v27.48Z"/>
  </g>
</svg>
