<svg xmlns:xlink="http://www.w3.org/1999/xlink" preserveAspectRatio="xMidYMid" viewBox="0 0 256 326" xmlns="http://www.w3.org/2000/svg">
  <defs>
    <path id="dialogflow_svg__a" d="M244.828 64.429 139.051 3.389a22.134 22.134 0 0 0-22.188 0L11.067 64.428A22.257 22.257 0 0 0 0 83.666v122.171a22.188 22.188 0 0 0 11.067 19.184l52.925 30.592v62.372a6.658 6.658 0 0 0 9.987 5.74l170.957-98.65a22.134 22.134 0 0 0 11.068-19.184V83.648a22.314 22.314 0 0 0-11.176-19.219Z"/>
  </defs>
  <mask id="dialogflow_svg__b" fill="#fff">
    <use xlink:href="#dialogflow_svg__a"/>
  </mask>
  <path fill="#EF6C00" d="m255.896 70.871-127.912 73.872L0 70.87v147.743l63.992 36.909v73.89l191.904-110.799z" mask="url(#dialogflow_svg__b)"/>
  <path fill="#FF9800" d="M127.984 144.743 0 70.87 127.984-3l127.912 73.871z" mask="url(#dialogflow_svg__b)"/>
  <path fill="#FF9800" d="M125.716 142.493.81 70.386 0 70.87l127.984 73.872L255.896 70.87l-3.006-1.781z" mask="url(#dialogflow_svg__b)"/>
  <path fill="#FF9800" d="M127.984 145.66v-.917L.81 71.303 0 71.79z" mask="url(#dialogflow_svg__b)"/>
</svg>
