<svg fill="none" viewBox="0 0 2427 958" xmlns="http://www.w3.org/2000/svg">
  <path fill="#000" fill-rule="evenodd" d="M98.84 22.742 52.9 20.368l-18.935-3.787-3.787-7.107c0-6.628 4.734-9.468 14.215-9.468h475.043c222.6 0 378.886 67.728 469.83 203.651 52.104 78.623 78.144 171.927 78.144 279.914 0 56.366-8.52 110.826-26.06 163.393-19.88 55.419-47.35 104.212-82.874 147.79-38.845 45.926-86.197 81.463-140.67 107.506-58.26 26.524-123.615 40.259-197.024 40.259H15.016c-9.948 0-14.682-3.321-14.682-8.988 0-6.161 7.108-9.468 20.363-9.468l116.04-7.095c18.003-2.386 30.791-7.6 36.951-14.695l11.842-16.588c4.267-11.348 6.64-28.391 7.107-51.607V82.896c0-29.364-16.575-47.366-48.779-54.473L98.84 22.742ZM354.604 35.53l-3.321 18.949v834.047c0 9.468 1.894 16.082 5.681 18.468l18.949 2.841h62.514l144.924-5.214c38.832-4.254 71.983-10.415 98.039-18.949a266.458 266.458 0 0 0 71.982-39.765c18.949-15.629 38.365-37.898 59.687-66.315 35.511-46.405 61.087-105.612 76.716-178.074 9.468-47.34 14.215-93.292 14.215-137.337 0-38.832-5.681-80.517-17.522-125.509-16.576-64.887-41.685-121.721-77.209-170.033-68.675-93.772-181.395-140.19-337.214-140.19H375.9c-10.882-.973-17.989 1.4-21.296 7.081ZM1160.7 935.411c-.95-5.694 3.79-8.054 14.22-8.054l33.15-.96c18-2.36 28.89-8.508 33.15-17.989l6.16-34.097v-275.18c0-10.415-3.8-18.469-10.9-23.203l-24.63-2.386-33.15 9.014-18-.96c-2.37-5.681 4.73-10.895 21.31-15.629 39.31-10.414 73.9-23.682 103.25-40.258 17.99-10.414 30.78-16.108 36.46-18.469l14.21-1.413c4.74.934 7.13 10.414 7.13 27.457v346.682c0 16.562 3.77 28.416 10.89 35.511 8.51 8.534 28.42 12.788 59.19 12.788 10.9 0 16.57 2.386 17.54 7.574 0 4.28-3.32 5.694-9.01 5.694h-252.45c-5.68.039-8.52-2.348-8.52-6.122Zm1117.73-341.014c-23.2 24.163-38.83 52.567-47.36 86.664v201.304c0 17.989 6.16 30.777 18.95 38.831l28.91 5.188 30.29 3.321c7.13.959 9.97 2.386 9.97 6.16l-1.42 3.32-8.05 2.387h-253.39c-7.58 0-11.83-2.387-11.83-6.161l7.09-5.694 42.64-3.32c16.56-2.84 27-8.508 32.68-17.042l7.12-21.309V603.878l-4.76-20.842-8.03-4.734c-2.39-2.361-6.16-3.774-11.85-4.734-7.1-.454-15.63.959-24.62 4.734l-24.14 6.64-13.76-3.32c-2.36-3.32-1.41-5.681 1.9-7.095l20.36-8.534c46.4-13.735 83.82-27.936 109.89-42.605l32.19-17.535 14.22.933 5.68 11.855v104.186c35.54-57.78 63.94-93.292 83.37-105.146 11.83-7.094 23.2-12.788 31.73-15.149l16.57-1.413c10.41-.96 22.27 2.36 35.51 10.894 18.01 10.415 27.48 26.043 28.42 45.926.95 16.588-3.81 29.39-14.22 39.312-9.47 8.054-18.95 10.44-27.46 8.054-8.05-1.414-14.21-4.734-18.47-9.468l-13.26-16.563c-10.42-15.174-20.37-19.908-32.19-15.628-13.79 3.748-27.98 14.189-42.68 30.751Zm-989.85-389.313c-17.53 0-31.73 6.16-43.56 18.002-12.79 11.841-18.95 26.99-18.02 44.525-.93 16.575 5.22 30.79 18.02 42.632 11.83 11.841 26.04 17.989 43.56 17.989 16.56 0 31.26-6.161 43.09-17.989 11.83-11.842 18.47-26.044 18.47-42.632 0-17.535-6.64-32.684-18.47-44.525-11.83-11.842-26.53-18.002-43.09-18.002Zm251.02 377.939c17.04-22.723 38.38-41.672 63.94-56.821 22.75-13.268 45.47-21.789 69.15-26.069l87.63-5.188c31.71 1.414 61.1 7.574 87.62 19.403 63.94 28.417 104.19 80.529 119.34 156.298 15.63 76.73 2.38 141.63-39.31 194.197-35.52 44.512-82.41 72.929-141.61 85.237-62.03 13.735-119.81 9.468-171.93-11.828-67.74-27.483-108.92-81.943-122.2-161.513-11.84-75.289 3.79-139.243 47.37-193.716Zm277.53-21.297c-28.89-32.191-65.36-46.405-109.42-42.631-42.6 4.28-75.29 27.937-96.61 72.929-19.4 40.738-26.52 90.49-19.4 149.204 5.19 58.26 23.68 104.666 53.5 140.19 31.74 37.418 67.74 53.046 107.99 45.952 42.15-8.054 72.95-30.803 93.31-68.675 19.89-38.831 26.98-89.037 22.25-152.978-5.67-63.941-22.23-111.32-51.62-143.991Z" clip-rule="evenodd"/>
</svg>
