<svg fill="none" viewBox="0 0 126 28" xmlns="http://www.w3.org/2000/svg">
  <path fill="#000" d="M.593.583h9c5.745 0 9.383 4.596 9.383 10.915 0 3.447-1.15 6.51-3.447 8.426-1.532 1.34-3.638 2.106-6.32 2.106H.594V.583Zm8.33 17.713c4.117 0 5.649-2.49 5.649-6.702 0-4.213-1.82-7.181-5.554-7.181H4.901v13.979h4.022v-.096Zm10.723-3.926c0-4.595 3.255-8.138 8.043-8.138 4.787 0 8.042 3.543 8.042 8.138 0 4.596-3.255 8.139-8.043 8.139-4.787 0-8.042-3.639-8.042-8.139Zm11.872 0c0-2.968-1.436-5.074-3.925-5.074-2.49 0-3.926 2.01-3.926 5.074s1.34 4.98 3.926 4.98c2.585 0 3.925-2.012 3.925-4.98Zm4.979 0c0-4.595 2.968-8.138 7.66-8.138 4.02 0 6.415 2.298 6.989 5.649h-4.021c-.288-1.34-1.34-2.394-2.777-2.394-2.49 0-3.734 1.915-3.734 4.883 0 2.873 1.149 4.883 3.638 4.883 1.628 0 2.777-.861 3.064-2.585h4.021c-.287 3.256-2.776 5.84-6.893 5.84-4.883-.095-7.947-3.638-7.947-8.138Zm25.564 7.66v-1.82h-.096c-1.053 1.437-2.202 2.203-4.404 2.203-3.447 0-5.362-2.202-5.362-5.553V6.615h4.021v9.575c0 1.819.766 2.776 2.586 2.776 1.914 0 3.063-1.436 3.063-3.447V6.615h4.117v15.32h-3.925v.095ZM85.805.679h4.117v3.83h-4.117V.679Zm0 5.936h4.117v15.32h-4.117V6.614Zm5.745 15.798h4.022c.286.957 1.244 1.723 3.063 1.723 2.298 0 3.447-1.148 3.447-3.16v-1.723h-.096c-.861 1.053-2.106 1.82-4.02 1.82-3.447 0-6.799-2.681-6.799-7.373 0-4.596 2.777-7.468 6.606-7.468 1.916 0 3.352.766 4.213 2.01h.096V6.616h3.925v14.17c0 2.203-.67 3.639-1.819 4.692-1.245 1.244-3.255 1.723-5.553 1.723-4.02 0-6.606-1.723-7.085-4.787Zm10.819-8.809c0-2.202-1.245-4.117-3.638-4.117-2.106 0-3.447 1.628-3.447 4.213s1.34 4.117 3.447 4.117c2.585 0 3.638-1.915 3.638-4.213Zm9.479-4.883c1.149-1.627 2.585-2.489 4.595-2.489 3.16 0 5.266 2.394 5.266 5.745V22.03h-4.117v-9.383c0-1.628-.957-2.777-2.68-2.777-1.819 0-3.16 1.437-3.16 3.543v8.713h-3.925V6.806h4.021v1.915Zm-35.33.383c-3.16-.67-4.595-1.244-4.595-2.968 0-1.532 1.531-2.489 3.83-2.489 2.106 0 3.733.957 4.116 2.968h4.213C83.603 2.498 80.54.2 75.752.2c-4.787 0-8.234 2.202-8.234 6.415 0 4.5 3.543 5.458 7.373 6.32 3.255.765 5.266 1.148 5.266 3.255 0 2.01-1.915 2.776-4.117 2.776-3.064 0-4.5-1.053-4.788-3.638H67.04c.191 4.5 3.446 7.085 9.287 7.085 4.787 0 8.33-2.394 8.33-6.798-.096-4.5-3.734-5.553-8.139-6.51Zm46.915.383c-.861 0-1.628-.766-1.628-1.627 0-.862.767-1.628 1.628-1.628.862 0 1.628.766 1.628 1.628 0 .861-.766 1.627-1.628 1.627Zm0-2.968c-.766 0-1.34.575-1.34 1.34 0 .767.574 1.341 1.34 1.341.766 0 1.34-.574 1.34-1.34 0-.766-.574-1.34-1.34-1.34Z"/>
  <path fill="#000" d="M122.86 6.998h.575c.191 0 .382 0 .478.096.096.096.192.192.192.383 0 .287-.192.383-.288.479l.384.67h-.384l-.287-.574h-.382v.574h-.288V6.998Zm.288.288v.478h.287c.095 0 .287 0 .287-.287 0 0 0-.191-.096-.191h-.478Z"/>
</svg>
