<svg baseProfile="basic" viewBox="0 0 832 256" xmlns="http://www.w3.org/2000/svg">
  <path fill="#988430" d="M115.9.6C143-2 171 4.3 194.2 18.5c22 13.2 39.8 33.2 50.4 56.5 11.2 24.4 14.2 52.3 8.9 78.6-5.2 26.3-19.2 50.8-39 68.9-19.9 18.3-45.7 30-72.6 32.9-17.3 1.6-35.1.3-51.7-5-28.5-8.7-53.6-27.9-69.7-52.9C6.9 176.6-.3 151.7 0 126.9c.1-28.4 10.2-56.6 28-78.7C49.3 21.3 81.7 3.7 115.9.6z"/>
  <path fill="#7A6A2A" d="M125.5 4c22.8-.4 45.7 5.4 65.3 17 21.2 12.4 38.6 31.3 49.1 53.4 11.4 23.1 14.7 49.9 10.3 75.3-5.8 34-26.7 64.9-55.9 83.2-20.2 13-44.3 19.7-68.3 19.1-23.4-.2-46.7-7.5-66.2-20.4-20-13.2-36.2-32.2-45.6-54.2C3.3 152.7 1 124.3 7.6 98c6.5-26.6 22.3-50.6 43.8-67.5C72.3 13.8 98.8 4.5 125.5 4z"/>
  <path fill="#BA9F33" d="M78.3 17.2C99.7 7.5 124 4.4 147.1 8.1c24.2 3.8 47.1 15.2 64.8 32.1 21.6 20.5 35.2 49.1 37.3 78.9 2.7 33.9-9.7 68.6-33.4 93-.3-7.1-.4-14.1-.6-21.2-.1-5.2-1.2-10.4-1.7-15.6.1-1.8.3-3.6.4-5.4.3-4.9-2.3-9.5-1.7-14.4.6-7-3-13.3-4.8-19.8-1.8-4.6-1.7-9.6-3.4-14.2-1.3-17.7-8.1-35.6-21.6-47.6.4-.6 1.3-1.9 1.7-2.5.5 1.2 1.1 2.3 1.7 3.4 3.1-3.5 3.6-8.4 4.5-12.8 1.7-7.9.5-16.1-.8-23.9-1-4-1.9-8.7-5.2-11.5-3.6-2.1-9.8-2.2-11.9 2-.1.2-.2.7-.3 1-1.6 2.7-3.7 5.1-6.5 6.7-4.8 3-7.5 8.6-12.6 11.2-3.2 1.1-6.5-.7-9.8-.4-6.2.6-12.5 1-18.5 2.7-5.7-.9-11.4-1.8-17-2.9 0-.4.1-1.2.1-1.6-2.6-2.5-4.9-5.4-5.9-8.9-1.7-6.6-5.8-13-11.9-16.2-.9-.3-1.7-.7-2.6-1-.5.6-1.1 1.2-1.6 1.8-.2.5-.6 1.4-.8 1.8-1.4 3.1-1.1 6.5-1.2 9.7-.1 8.4-1 17-4.5 24.8-5.7 0-11.4-.1-17.2 0-1.1 2.6-.7 5.4-.8 8.1-9.2 8.5-12.9 21.1-14.6 33.1 0 .9 0 1.9.1 2.8 0 .4 0 1.1.1 1.5-4 5.3-4.8 12.3-5.8 18.7 1.5-.1 3-.2 4.4-.2-1.4.1-2.7.3-4.1.4-.3 1.5-.5 2.9-.6 4.4 1.3-.5 2.7-1 4-1.5h.7c-1.6.6-3.1 1.4-4.7 2.2 0 .9.1 2.8.1 3.7l5.4-2.7-.7.7c-1.5 1-3.5 1.5-4.7 2.9 0 3.4.5 6.7 1 10 1.2 7.6 3.8 14.9 7.7 21.5-.1 4.8-1.2 9.7-4 13.7.8 1.5 2.1 2.9 2.2 4.7-.5 3-2.9 5.5-2.4 8.7.6 7.7-2.2 15.1-5.5 21.9-17.4-18.1-28.9-41.7-32.4-66.6-3.3-23.2.2-47.4 10.2-68.6C30 50.5 51.9 28.9 78.3 17.2z"/>
  <path fill="#C79C3B" d="M85.9 20.8c.5-.6 1-1.2 1.6-1.8.9.3 1.7.6 2.6 1 1.5 4.6 3.7 9.2 3.3 14.1-.2 3.3-.9 6.9.8 9.9.7 1.8 2.5 2.7 3.9 3.7-.9.7-1.8 1.4-2.7 2-3.9 1.5-7 4.4-9.8 7.3h-3.4c6.1-7.4 8.8-17.1 8.8-26.5 0-3.8-3-6.7-5.1-9.7z"/>
  <path fill="#B58634" d="M90.1 20c6.1 3.2 10.2 9.6 11.9 16.2.9 3.5 3.3 6.4 5.9 8.9 0 .4-.1 1.2-.1 1.6-3.2-1.1-7.1-1.7-9.7 1-1.5-1-3.2-1.9-3.9-3.7-1.7-3.1-.9-6.6-.8-9.9.4-4.9-1.9-9.5-3.3-14.1z"/>
  <path fill="#DFC068" d="M85.9 20.8c2.2 2.9 5.2 5.8 5.1 9.7 0 9.5-2.7 19.2-8.8 26.5h-1.7c2.7-4.1 5.3-8.5 5.6-13.4.5-7-1.7-14-.9-21 .1-.4.5-1.3.7-1.8z"/>
  <path fill="#A78F33" d="M83.9 32.4c.1-3.3-.2-6.7 1.2-9.7-.7 7 1.4 14 .9 21-.3 5-2.9 9.4-5.6 13.4h-1.1c3.6-7.7 4.5-16.3 4.6-24.7z"/>
  <path fill="#A17C34" d="M172.4 28.5c2.1-4.2 8.3-4.2 11.9-2 3.4 2.8 4.2 7.4 5.2 11.5 1.3 7.9 2.6 16 .8 23.9-.9 4.4-1.4 9.3-4.5 12.8-.6-1.1-1.2-2.2-1.7-3.4-.6-1.7-1.1-3.5-1.7-5.3 2.2-4.8 3.2-10.1 3.8-15.3.5-4.7-2.6-8.5-5.7-11.6-1.5-4.2-4.8-7.4-8.1-10.6z"/>
  <path fill="#B89844" d="M172.1 29.5c.1-.2.2-.7.3-1 3.2 3.2 6.6 6.4 8.2 10.7-.1 1.3-.4 2.7-1.7 3.1-3.8 1.9-8 3.3-10.8 6.7-1.9 2.4-5.6 3.8-5.9 7.1l1.6 1.2c-.4.5-1.1 1.5-1.5 2l1.5 1.5c2-2.1 5.1-2.3 7.7-3.2-.4 1-.8 2-1.2 3.1 1.1-.2 2.2-.5 3.4-.7-1.4 1.6-2.9 3-4.6 4.4-.2-.1-.6-.3-.7-.4-2-1-3.9-2.3-6.2-2.4-.1-.3-.3-1-.4-1.3-1.3-.1-2.5-.3-3.7-.7.3-.8 1-2.5 1.3-3.3-.7.3-2.1 1-2.8 1.3 1.9-3.1 3.7-6.2 5.5-9.3.1-.2.4-.7.5-.9 2.5-4.7 6.3-8.6 8.8-13.3.9-1.5.8-3.1.7-4.6z"/>
  <path fill="#CBA94C" d="M172.1 29.5c.1 1.5.1 3.1-.7 4.5-2.5 4.7-6.3 8.6-8.8 13.3 0-3.9.5-8 3.1-11.1 2.7-1.6 4.9-4 6.4-6.7z"/>
  <path fill="#AC8132" d="M153 47.4c5.2-2.6 7.8-8.3 12.6-11.2-2.6 3.1-3.1 7.2-3.1 11.1-.1.2-.4.7-.5.9.1-1.5 0-3-.3-4.5-2.4 5-5.1 10-8.8 14.3-2.1-.6-4.4-.8-6.6-.8 1.2-2.3 2.8-4.5 4.5-6.5-8.6-2-17.4-.1-26.1-.9 6-1.7 12.3-2 18.5-2.7 3.3-.4 6.6 1.3 9.8.3z"/>
  <path fill="#927238" d="M180.6 39.2c3.1 3.1 6.2 6.9 5.7 11.6-.6 5.2-1.7 10.5-3.8 15.3-1.6 1.3-3.2 2.5-4.9 3.8-.8-.6-1.6-1.1-2.3-1.7l-.4-.3c2.5-5.4 6.5-10.4 6.8-16.6-4.8.2-9.5 1-14.1 2.4-1.9.5-2.8 2.2-3.8 3.7l-1.6-1.2c.3-3.4 4-4.7 5.9-7.1 2.8-3.4 7-4.8 10.8-6.7 1.3-.5 1.6-1.9 1.7-3.2z"/>
  <path fill="#8C6228" d="M161.8 43.7c.2 1.5.4 3 .3 4.5-1.8 3.1-3.7 6.2-5.5 9.3.7-.3 2.1-1 2.8-1.3-.3.8-1 2.5-1.3 3.3-1.7-.6-3.3-1.1-5-1.6 3.6-4.3 6.3-9.2 8.7-14.2z"/>
  <path fill="#D2A83E" d="M98 47.8c2.6-2.7 6.5-2.1 9.7-1 5.6 1.1 11.4 2 17 2.9 8.7.8 17.5-1.1 26.1.9-1.7 2-3.2 4.2-4.5 6.5-14 0-28.1.1-42.1 0-.6-2-.7-4.5-2.5-5.8-1.9-1.3-4.3-1.3-6.5-1.5 1.1-.6 1.9-1.3 2.8-2z"/>
  <path fill="#DCBA5A" d="M85.5 57.1c2.9-2.9 6-5.8 9.8-7.3 2.2.2 4.6.2 6.5 1.5 1.8 1.3 1.9 3.8 2.5 5.8H85.5z"/>
  <path fill="#543E26" d="M167.6 53.7c4.5-1.5 9.3-2.2 14.1-2.4-.3 6.1-4.3 11.2-6.8 16.6-1.9-1.3-3.8-2.5-5.8-3.6 1.6-1.3 3.2-2.8 4.6-4.4-1.1.2-2.2.5-3.4.7.4-1 .8-2 1.2-3.1-2.6.9-5.7 1.1-7.7 3.2l-1.5-1.5c.4-.5 1.1-1.5 1.5-2 1-1.3 1.9-3 3.8-3.5z"/>
  <path fill="#F3EBDB" d="M62.2 57.2c5.7-.1 11.4 0 17.2 0h25c14 .1 28.1 0 42.1 0 2.2 0 4.4.2 6.6.8 1.7.4 3.3 1 5 1.6 1.2.4 2.4.6 3.7.7.1.3.3 1 .4 1.3 2.3.1 4.2 1.4 6.2 2.4-1.3 3.3-3.9 5.8-6.4 8.3 2.1 1.2 4.3 2.4 6.2 3.9 2.5-2.6 4.8-5.3 7.1-8 .8.6 1.6 1.1 2.3 1.7 1.7 1.2 3.3 2.6 4.8 4 13.4 12 20.3 29.9 21.6 47.6.2 2.3.2 4.6.3 7-.1 9.2-.9 18.5-3.3 27.4-1.7 6.2-4 12.2-7.3 17.7-2.3 3.5-4.7 6.9-7.7 9.9-1.9 2-3.9 3.9-6.1 5.6l-3-1.5c-1.7.9-3.3 2.4-5.3 2.5-2.7.2-5.3 1.4-8 1.9 2.6-3.9 8-6.9 7.1-12.3-1.5.1-2.9.1-4.4.2.5-1.9 1-3.8 1.4-5.7-.5-.3-1.5-1-1.9-1.3 1.7-1.8 3.3-3.7 4.9-5.6-3.3.8-6.3 2.4-9.5 3.7 6-8.8 11.4-18.1 15.8-27.8 2.5-6 5.9-12 6-18.7.2-4.3-2.5-8-2.6-12.2-.4-4.9-.4-10.5-4.4-14-7 1.4-14.1.1-21.1-.7-1.9-.3-3.8.1-5.6.4-.3-.4-.7-.8-1-1.1-2.2-2.2-4.5-4.5-7.4-5.5-2.7-.4-5.5-.1-8.3-.1l-.4-.1c-3-1.3-6.2-3-9.6-2.4-2.9.3-4.6 2.9-6.8 4.3-2.3 1.5-4.7 3-6.5 5.2 2.3 4 6.6 6.2 10.9 7.3-.1 2.6-.4 5.2-.6 7.8-2.7.9-5.2 2.2-7.5 3.9-1.2-2.7-1.8-5.5-3-8.2-1.3-1.7-3-2.9-4.6-4.3-.4 1.1-.7 2.3-1.1 3.4-.8.4-1.6.8-2.4 1.3-.1-2-.2-4-.5-5.9-.8-3.5-3.3-6.3-4.7-9.7.2-3.4 1.3-6.7 1.3-10.1-1.7.7-3.4 1.3-5.1 2.1-2.3.9-3.4 3.3-5.3 4.6-1.9.8-4 1.2-6 1.7l.3-.7c1.8-1.6 2.3-3.9 2.7-6.1-1.1.5-2.2 1.1-3.4 1.6-1.4-2 .7-3.3 2-4.6-1.8-1.7-4.3-3-6.8-2.1-4.2 1.5-6.1 6.1-6.5 10.3-1.7 0-3.4.1-5.2.1.7-1.2 1.3-2.5 2-3.7-.8-1.9-2.8-2.6-4.6-3.2.1-4.7 0-9.4 0-14.1 0-1.4.1-2.7.1-4.1.2-3-.2-5.9.9-8.4z"/>
  <path fill="#DCDAD7" d="M168.3 63.9c.2.1.6.3.7.4 2 1.1 3.9 2.2 5.8 3.6l.4.3c-2.3 2.7-4.6 5.5-7.1 8-2-1.5-4.1-2.7-6.2-3.9 2.5-2.6 5.1-5 6.4-8.4z"/>
  <path fill="#A78E32" d="M46.8 98.4c1.7-12 5.4-24.6 14.6-33.1 0 1.4 0 2.7-.1 4.1-6.1 6.4-9.6 14.9-11.3 23.5-.6 2.9-2 5.6-3.2 8.3.1-.9 0-1.8 0-2.8z"/>
  <path fill="#B59544" d="M177.6 69.8c1.6-1.3 3.3-2.5 4.9-3.8.6 1.8 1.1 3.5 1.7 5.3-.4.6-1.3 1.9-1.7 2.5-1.6-1.4-3.2-2.7-4.9-4z"/>
  <path fill="#EBCC73" d="M50.1 92.9c1.7-8.6 5.2-17.1 11.3-23.5 0 4.7.1 9.4 0 14.1-2.9 2.5-4.2 6.5-7.9 8-.5 2.6-1.5 5-3 7.1-1.1 1.4-2.3 2.7-3.4 4.1 0-.4 0-1.1-.1-1.5 1.2-2.7 2.5-5.4 3.1-8.3z"/>
  <path fill="#D7D7D5" d="M75.6 80.1c2.5-.9 5 .4 6.8 2.1-1.2 1.3-3.4 2.6-2 4.6 1.1-.6 2.2-1.1 3.4-1.6-.4 2.2-1 4.5-2.7 6.1-2.3-.3-4.6-.4-6.9-.1.1-1.4.2-2.8.6-4.1 1.1-1.1 2.6-1.6 3.9-2.3-.8-.8-1.5-1.9-2.5-2.4-2.5.7-5 2.6-5.4 5.3.1 1.2.3 2.5.4 3.7-.4 0-1.2-.1-1.7-.1H69l.1-.9c.4-4.2 2.3-8.8 6.5-10.3z"/>
  <path fill="#E6DED7" d="M179.8 81.8c2.1-.7 4.3-1.4 6.4-2 1.6 3.2 1.1 6.8-.6 9.9h2.4c.1 2.7.1 6.6-3.1 7.4-1.8-3.9-6-6.2-7.1-10.5.2-1.8 1.2-3.3 2-4.8z"/>
  <path fill="#F5F2E6" d="M70.7 87.6c.4-2.7 2.9-4.6 5.4-5.3 1.1.5 1.7 1.6 2.5 2.4-1.3.7-2.8 1.2-3.9 2.3-.3 1.3-.4 2.7-.6 4.1-.7.1-2.2.2-3 .2-.2-1.3-.4-2.5-.4-3.7z"/>
  <path fill="#F8F3E4" d="M92.1 85.6c1.7-.8 3.4-1.4 5.1-2.1-.1 3.4-1.1 6.7-1.3 10.1 1.3 3.3 3.9 6.1 4.7 9.7.4 2 .4 3.9.5 5.9.8-.4 1.6-.9 2.4-1.3.4-1.1.7-2.3 1.1-3.4 1.6 1.4 3.3 2.6 4.6 4.3 1.2 2.7 1.8 5.6 3 8.2 2.3-1.6 4.8-3 7.5-3.9l.6-7.8v-1.1c-1.5-1.3-4-2.1-4.2-4.4-.2-2.9 1.7-5.5 3.7-7.4.6.1 1.2.3 1.8.4 1.1-.1 1.7-.8 1.6-2 1.5-.1 3 0 4.5.1-1.5 2.1-3.5 4.1-6.2 4.5 0 1.4 0 2.8.1 4.3-.1 1.4-.2 2.9-.3 4.3v11.1c0 16.9-.1 33.7 0 50.5.1.3.2 1 .3 1.3 7.6-.5 16.2 1.9 22.8-3.1 9.2-6.6 13-18.2 14-29.1 1.1-12.8-1.2-26.6-9.2-37 1.8-.3 3.7-.6 5.6-.4 7 .8 14.1 2.2 21.1.7 4.1 3.5 4 9.1 4.4 14 .1 4.2 2.9 7.9 2.6 12.2-.1 6.7-3.5 12.7-6 18.7-4.4 9.7-9.8 19-15.8 27.8 3.2-1.2 6.2-2.9 9.5-3.7-1.6 1.9-3.2 3.8-4.9 5.6.5.3 1.4 1 1.9 1.3-.5 1.9-.9 3.8-1.4 5.7 1.5-.1 2.9-.1 4.4-.2.9 5.4-4.5 8.4-7.1 12.3 2.7-.5 5.3-1.7 8-1.9 2 0 3.6-1.5 5.3-2.5l3 1.5c-10.6 8-23.9 12.4-37.2 12.1-11.6 0-23.1.1-34.7 0H78.7c-4.9 0-9.8.2-14.7 0-1.7.1-2.4-1.8-2.4-3.2-.2-3.9 0-7.8-.1-11.7 0-4.4.1-8.9 0-13.3 0-1.9.3-3.9.7-5.7 6.2-.6 12.4.2 18.6-.3v-11.2c.4 1.4.8 2.8 1.3 4.2 2.9-.5 6.2-1.3 8.4 1.3 5.2-4.6 12.8-4.4 18.9-6.9 1.3-3.5 4.5-6.3 4.1-10.3-.2-.1-.8-.2-1-.2-6.5-2-12.5 2.1-18.8 2.6-4.2-.4-8.2-2.4-10.9-5.7.2-.9.5-1.9.7-2.8-.6-.5-1.2-1-1.9-1.5-.1-1.9-.1-3.7 0-5.6.6-2.2 2-3.9 4.1-4.9.6-3.3 1.2-6.6 1.8-10-1.7-2.2-4.1-3.7-6.6-4.7V92.5c0-.2.1-.7.1-.9 2-.5 4.1-.8 6-1.7 1.7-1 2.8-3.4 5.1-4.3z"/>
  <path fill="#F4EFC8" d="M53.5 91.5c3.7-1.5 5-5.5 7.9-8 0 2.2.1 4.4.1 6.6.6.1 1.8.2 2.4.3 1.7 0 3.4 0 5.2-.1l-.1.9c-2.4 0-4.7-.1-7.1-.1-.3 1.3-.5 2.7-.6 4-4.6 1.8-7.4 6-11.1 8.9 0-1.8.1-3.7.2-5.5 1.6-2.1 2.6-4.5 3.1-7z"/>
  <path fill="#FCFCF4" d="M61.4 83.5c1.8.6 3.7 1.3 4.6 3.2-.7 1.2-1.3 2.5-2 3.7-.6-.1-1.8-.2-2.4-.3-.1-2.2-.2-4.4-.2-6.6z"/>
  <path fill="#D7D7D5" d="M115.7 92.8c2.3-1.4 4-4 6.8-4.3 3.4-.6 6.6 1.1 9.6 2.4-1.5 0-3 0-4.5-.1s-3-.2-4.5-.1c-1.2.1-1.8.7-1.6 2-.6-.1-1.2-.2-1.8-.4-2.1 1.9-3.9 4.4-3.7 7.4.2 2.3 2.6 3.1 4.2 4.4v1.1c-4.4-1.1-8.6-3.3-10.9-7.3 1.7-2.1 4.1-3.6 6.4-5.1z"/>
  <path fill="#E5C66B" d="M61.9 91.1c2.4 0 4.7.1 7.1.1h.5c.9 1.9 2.2 3.5 4.1 4.6.6.4 1.1.9 1.7 1.4-1.8 2.8-4.5 5.1-5.9 8.2-1.3.5-2.6 1.1-3.9 1.6-.3-.2-.8-.5-1.1-.7.3-.5.8-1.4 1.1-1.8-1-.2-2-.5-3-.7-.5-2.8-.9-5.7-1.1-8.6 0-1.4.2-2.8.5-4.1z"/>
  <path fill="#242110" d="M69.5 91.2c.4 0 1.2 0 1.7.1-.2 3.5 3.8 3.1 6.2 2.8-1.1-1-2.1-2-3.2-3 2.3-.2 4.6-.2 6.9.1l-.3.7c0 .2-.1.6-.1.9-2.6.5-4.4 3.3-7.2 3-1.8-1-3.1-2.7-4-4.6z"/>
  <path fill="#938357" d="M71.1 91.3c.7-.1 2.2-.2 3-.2 1.1 1 2.2 2 3.2 3-2.3.3-6.4.7-6.2-2.8z"/>
  <path fill="#CDBD83" d="M121.5 92.8c-.1-1.3.4-1.9 1.6-2 .1 1.2-.5 1.9-1.6 2z"/>
  <path fill="#252211" d="M127.7 90.8c1.5.1 3 0 4.5.1l.4.1c2 1.3 3.9 2.6 5.5 4.3-1.8 4-5.1 7.3-9.2 9-2.4.7-5 .5-7.6.6v-1c1.9 0 3.8-.1 5.7-.2-2.1-.9-4.1-2.1-5.4-4.1-.1-1.4-.1-2.8-.1-4.3 2.7-.4 4.7-2.3 6.2-4.5z"/>
  <path fill="#D2B257" d="M132.5 91c2.7 0 5.5-.4 8.3.1 3 1 5.3 3.3 7.4 5.5-2.8 2.9-4.6 6.5-7 9.7-2.4 3.3-6.6 3.8-10 5.7-3.1 1.7-6.4 2.8-9.9 3.1V105c2.5-.1 5.1.1 7.6-.6 4.1-1.7 7.3-5 9.2-9-1.7-1.8-3.6-3.1-5.6-4.4z"/>
  <path fill="#E6BD62" d="M73.5 95.8c2.8.3 4.5-2.5 7.2-3 0 3.8.1 7.7 0 11.5-2.1.5-4.3 1.6-6.5.8-1.6-.6-3.3-.5-4.9.3 1.3-3.2 4-5.4 5.9-8.2-.5-.5-1.1-1-1.7-1.4z"/>
  <path fill="#696148" d="M128 93.1c2.9.2-1.4 2.6 0 0z"/>
  <path fill="#F4ECB4" d="M50.2 104c3.8-2.9 6.5-7.2 11.1-8.9.1 2.9.5 5.7 1.1 8.6 1 .2 2 .5 3 .7-.3.5-.8 1.4-1.1 1.8-3 2.2-6.8 3.9-8.3 7.6-1.7 4.5-1.5 9.4-2.1 14.1-1.1-1.1-2.7-2-2.6-3.7-.2-3.5.7-7 .9-10.5-1.6 2.4-2.6 5.1-3.6 7.8-.4 1.7-2.4 2.1-3.7 2.9-1.3.5-2.7 1-4 1.5.2-1.5.4-2.9.6-4.4 1.4-.1 2.7-.3 4.1-.4-1.5.1-3 .1-4.4.2 1-6.4 1.8-13.4 5.8-18.7 1.2-1.4 2.4-2.7 3.4-4.1-.1 1.9-.1 3.7-.2 5.5z"/>
  <path fill="#71694F" d="M128.9 96.4c2.6-1.3.3 2.8 0 0z"/>
  <path fill="#DFCD88" d="M148.2 96.6c.3.4.7.7 1 1.1 8 10.4 10.3 24.2 9.2 37-1.4.7-2.8 1.5-4.1 2.3-2.2 1.5-3.4 4.1-5.7 5.6-3.9 1.9-8.8 1.5-12.3 4.3-2 2.2-3.3 5-5.6 7 1.2 1.3 2.6 2.4 3.7 3.8.6 1 .4 2.4 1 3.4 1.1.9 2.4 1.6 3.6 2.3-3.2.5-6.3.4-9.5-.1-2.9-.6-5.6 1.1-8.2 2.1-.1-16.9 0-33.7 0-50.5 3.5-.3 6.8-1.4 9.9-3.1 3.3-1.8 7.6-2.4 10-5.7 2.4-3 4.2-6.6 7-9.5zm-26.6 3c1.3 2 3.3 3.1 5.4 4.1-1.9.1-3.8.2-5.7.2.1-1.4.2-2.8.3-4.3z"/>
  <path fill="#DFC57C" d="M69.4 105.4c1.6-.7 3.3-.9 4.9-.3 2.2.8 4.4-.3 6.5-.8v6.7c-4.2-1.5-8.5-2.6-13-2.4-.8-.5-1.5-1.1-2.3-1.6 1.3-.5 2.6-1.1 3.9-1.6z"/>
  <path fill="#F3E19D" d="M56 113.8c1.5-3.7 5.3-5.4 8.3-7.6.3.2.8.5 1.1.7.8.5 1.5 1.1 2.3 1.6-4 .1-7.9 2.7-8.4 6.9-.7 5.3-2.5 10.5-3 15.8-.5 3.9 3 6.4 4.1 9.7.3 1.8.5 3.7.9 5.5-.5 2.3-1 4.7-1.4 7.1-.8 0-1.6 0-2.3.1-.8 1.9-1.8 3.8-2.4 5.8.7 3.8 2 7.6 2.9 11.4-.2.4-.5 1.3-.7 1.7-1.9-2.1-3-5-5.5-6.4-.6-1.1-1.3-2.1-2-3.2-3.9-6.6-6.5-14-7.7-21.5.4-2.2.8-4.5 1.2-6.7 1.6 3.2 1.4 7.1 3.6 10 1.5-.4 2.9-.7 4.4-1l.7.9c1.5-2.2 3-4.6 3.3-7.4-1 1.4-1.9 2.8-2.8 4.3-1.2-1.9-2.7-3.8-3.4-6-.4-2.5-.3-5.1-.5-7.6l-2.7.6.7-.7c.8-.9 1.6-1.8 2.4-2.8-1.1-.1-2.2-.3-3.3-.4h-.7c1.3-.8 3.3-1.2 3.7-2.9 1-2.7 2-5.4 3.6-7.8-.2 3.5-1.1 7-.9 10.5-.1 1.7 1.5 2.6 2.6 3.7.4-4.8.3-9.7 1.9-14.3z"/>
  <path fill="#252211" d="M59.3 115.5c.5-4.2 4.4-6.8 8.4-6.9 4.5-.2 8.8.9 13 2.4v12.7c-1.3 1.3-2.6 2.6-3.8 4-2.1 1.8-4.9 2.5-7.5 3.2-.1.6-.4 1.7-.5 2.3-.1.6-.4 1.9-.6 2.5-3.8-3.5-6-8.2-8.4-12.5-1.4-2.4-.9-5.2-.6-7.7z"/>
  <path fill="#DFDDD9" d="M80.7 111.2c2.6 1 4.9 2.5 6.6 4.7-.6 3.3-1.1 6.6-1.8 10-2 1-3.5 2.7-4.1 4.9.1-2.6-.3-5.3-.8-7.8.1-4 .2-7.9.1-11.8z"/>
  <path fill="#D6D6D5" d="M21.2 112.3c2.8-.4 5.6-.1 8.4-.2l-1.2 1.6c4.3-.3 8.8 0 13 1.2-3.8-.8-7.7-1.4-11.7-1.1-1.5.2-2.7-.5-3.9-1.2-1.5-.1-3.7 1.4-4.6-.3z"/>
  <path fill="#6E6342" d="M56.3 131.3c.5-5.4 2.3-10.5 3-15.8-.3 2.5-.8 5.3.6 7.7 2.5 4.4 4.7 9.1 8.4 12.5.1-.6.4-1.9.6-2.5 1.4.1 2.7.1 4.1.2 1.9 1.6 4 3 5.7 4.8 1.8-3.4-.7-6.8-.4-10.3-.3-.1-1-.2-1.4-.3 1.3-1.3 2.5-2.7 3.8-4v17.9c-6.7-2.1-13.9-4.5-21-2.3 6.6 3 14 3.2 21 5.1v5.9c-3.2 1.4-6.1 3.4-9.3 5.1-3.3-2.2-5.6-5.4-8.9-7.6l-1.2-1.2c-.5-1.8-.6-3.7-.9-5.5-1.1-3.3-4.6-5.9-4.1-9.7z"/>
  <path fill="#BFA64C" d="M29.5 125.2c3.4-1.9 7.2-2.7 10.9-3.4-.4.8-1.1 1.3-2 1.5-2.9.8-5.8 1.9-8.9 1.9z"/>
  <path fill="#988430" d="M203.9 121.4c1.7 4.6 1.6 9.6 3.4 14.2 1.8 6.5 5.4 12.8 4.8 19.8-.9-1.5-1.7-3-1.7-4.8 0-3.8-2-7-2.9-10.6-1.1-3.9-2.2-7.8-3.4-11.7 0-2.2 0-4.6-.2-6.9z"/>
  <path fill="#E7E3DB" d="M80.7 122.9c.5 2.6.9 5.2.8 7.8-.1 1.9-.1 3.7 0 5.6.6.5 1.2 1 1.9 1.5-.2.9-.5 1.8-.7 2.8-.3 1.4-.4 2.8-.4 4.2 9.5 3.4 21.5 5.7 30.1-1.1.2.1.8.2 1 .2.4 4-2.7 6.8-4.1 10.3-6.2 2.5-13.8 2.3-18.9 6.9-2.2-2.6-5.5-1.8-8.4-1.3-.5-1.4-.9-2.8-1.3-4.2-.1-1.8-.1-3.6-.1-5.4v-26.6l.1-.7z"/>
  <path fill="#F5EDB6" d="M45.6 124.5c1.1.1 2.2.2 3.3.4-.8.9-1.6 1.9-2.4 2.8l-5.4 2.7c0-.9-.1-2.8-.1-3.7 1.5-.8 3.1-1.6 4.6-2.2z"/>
  <path fill="#F4ECB4" d="m45.9 128.4 2.7-.6c.2 2.5.1 5.1.5 7.6.7 2.2 2.2 4 3.4 6-.4.7-.8 1.5-1.2 2.3-1.5.3-3 .6-4.4 1-2.2-2.9-2-6.8-3.6-10-.4 2.2-.8 4.4-1.2 6.7-.5-3.3-.9-6.7-1-10 1.3-1.5 3.2-2 4.8-3z"/>
  <path fill="#39331F" d="M69.4 130.9c2.7-.7 5.4-1.4 7.5-3.2.3.1 1 .2 1.4.3-.3 3.5 2.2 6.9.4 10.3-1.7-1.9-3.7-3.3-5.7-4.8-1.4-.1-2.8-.2-4.1-.2.1-.7.4-1.9.5-2.4z"/>
  <path fill="#CCA847" d="M204.2 128.4c1.2 3.9 2.3 7.8 3.4 11.7.9 3.5 2.9 6.8 2.9 10.6-.1 1.8.8 3.3 1.7 4.8-.7 4.9 1.9 9.5 1.7 14.4-.1 1.8-.3 3.6-.4 5.4-.7-1.1-1.4-2.2-2.3-3.2-1 2.9-.3 6.6-2.7 8.9-1.1-1.5-1.6-4-3.7-4.2-3.1-.5-6 1-8.1 3.2-2.7 2.9-7 3.1-10.7 3.4 2.9-3 5.4-6.4 7.7-9.9 2 .6 3.4-1.2 4.9-2.2 1.5-1.3 3.5-1.7 5.1-2.7 1.4-2.2 2.5-4.7 3.1-7.3-.5-1.7-1.3-3.3-1.7-5-.9.2-1.7.4-2.6.6-.4-.3-1.2-.9-1.5-1.2 2.3-8.8 3.2-18.1 3.2-27.3z"/>
  <path fill="#C1A956" d="M37.2 132.2c1.3-.6 1.3 1.1.3 1.4-.9.5-2 1.4-3.1 1-.1-1.4 1.8-1.9 2.8-2.4z"/>
  <path fill="#ECD592" d="M154.4 137c1.3-.9 2.7-1.6 4.1-2.3-1 10.9-4.7 22.5-14 29.1-6.6 4.9-15.2 2.6-22.8 3.1-.1-.3-.3-1-.3-1.3 2.6-1 5.3-2.7 8.2-2.1 3.2.4 6.4.5 9.5.1-1.2-.8-2.5-1.4-3.6-2.3-.6-1.1-.4-2.4-1-3.4-1.1-1.3-2.5-2.5-3.7-3.8 2.3-2 3.7-4.7 5.6-7 3.5-2.9 8.4-2.4 12.3-4.3 2.3-1.7 3.5-4.2 5.7-5.8z"/>
  <path fill="#D7C27C" d="M52.5 141.4c.8-1.5 1.8-2.9 2.8-4.3-.3 2.8-1.7 5.2-3.3 7.4l-.7-.9c.4-.7.8-1.4 1.2-2.2z"/>
  <path fill="#242110" d="M59.8 139.3c7-2.3 14.2.2 21 2.3v2.8c-7-1.9-14.4-2.1-21-5.1z"/>
  <path fill="#D6D6D5" d="M82.3 144.9c0-1.4 0-2.8.4-4.2 2.7 3.2 6.7 5.3 10.9 5.7 6.3-.5 12.3-4.7 18.8-2.6-8.6 6.8-20.6 4.4-30.1 1.1z"/>
  <path fill="#EED88B" d="m61.3 146.5 1.2 1.2c.3 4.3 2.9 7.8 4.9 11.5 1.6 3 4.4 5.2 7.2 7.1 2 .6 4.1.5 6.1.6-6.2.4-12.4-.4-18.6.3-.5 1.9-.8 3.8-.7 5.7-1.1-.7-2.2-1.4-3.3-2-.9-3.8-2.1-7.6-2.9-11.4.6-2 1.6-3.9 2.4-5.8.8 0 1.6-.1 2.3-.1.4-2.4.9-4.7 1.4-7.1z"/>
  <path fill="#DFC677" d="M62.6 147.7c3.2 2.2 5.6 5.4 8.9 7.6.9.8 1.8 1.7 2.6 2.5 1.9 1.5 4.4 2 6.7 2.7v6.3c-2-.2-4.1-.1-6.1-.6-2.8-1.9-5.5-4.1-7.2-7.1-2-3.6-4.6-7.2-4.9-11.4z"/>
  <path fill="#927D49" d="M71.4 155.3c3.1-1.6 6-3.6 9.3-5.1 0 1.8 0 3.6.1 5.4-2.3.4-5 .2-6.7 2.2-.9-.8-1.7-1.7-2.7-2.5z"/>
  <path fill="#C4A859" d="M74.1 157.8c1.6-2 4.4-1.8 6.7-2.2v4.9c-2.4-.6-4.8-1.1-6.7-2.7z"/>
  <path fill="#C0993A" d="M200.9 155.8c.4.3 1.2.9 1.5 1.2.9-.2 1.7-.4 2.6-.6.4 1.7 1.2 3.3 1.7 5-.6 2.6-1.6 5.1-3.1 7.3-1.7 1-3.6 1.4-5.1 2.7-1.5 1-2.9 2.8-4.9 2.2 3.3-5.6 5.6-11.6 7.3-17.8z"/>
  <path fill="#E5CB7A" d="M49.8 162.9c.6 1.1 1.3 2.1 2 3.2 1.8 7.2 4.4 14.7 9.6 20.1.1 3.9-.1 7.8.1 11.7 0 1.4.7 3.3 2.4 3.2 4.9.2 9.8 0 14.7 0-1.9 2.5-.5 5.5-.5 8.3.1 3.3 1.8 6.2 2.3 9.5-1.4 3.5-3.7 6.5-5.5 9.8-1.8.3-3.7-.5-5.5.1-1 1.4-1.6 3.5-3.6 3.9-9.4-5.8-18.2-12.6-25.8-20.7 3.4-6.8 6.2-14.2 5.5-21.9-.5-3.2 1.9-5.7 2.4-8.7-.1-1.8-1.4-3.2-2.2-4.7 3-4.1 4-9 4.1-13.8z"/>
  <path fill="#D2B159" d="M51.8 166.1c2.5 1.4 3.6 4.3 5.5 6.4.2-.4.5-1.3.7-1.7 1.1.7 2.2 1.4 3.3 2 .1 4.4.1 8.9 0 13.3-5.1-5.3-7.6-12.8-9.5-20z"/>
  <path fill="#BA9040" d="M211.2 172.1c.8 1 1.6 2 2.3 3.2.4 5.2 1.6 10.3 1.7 15.6.1 7.1.2 14.1.6 21.2-7.9 8.3-17 15.5-26.9 21.2-3.8-2.7-8.1-.6-11.6 1.5.6-1.3 1.6-2.3 2.7-3.2 2.1-1.8 2.9-4.6 5.1-6.3 2.3-2 5.3-3.2 7.1-5.8 1.8-3.9 5.8-6 8.1-9.5 2.2-3.2 5.9-6.1 5.5-10.4-.2-3.7.6-7.3 1-10.9.1-2.6.5-5.3 1.6-7.7 2.5-2.3 1.9-5.9 2.8-8.9z"/>
  <path fill="#D8C173" d="M196.7 180.1c2.1-2.2 5-3.7 8.1-3.2 2.1.2 2.7 2.7 3.7 4.2-1.1 2.4-1.5 5.1-1.6 7.7-.4 3.6-1.2 7.2-1 10.9.3 4.3-3.3 7.2-5.5 10.4-2.4 3.5-6.3 5.6-8.1 9.5h-3.8c3.2-4.9 5.2-10.4 7.7-15.6.6-.9.3-1.8 0-2.7-.6-1.5.2-3.1.1-4.6-.3-1.6-.9-3.1-1.5-4.6-2.7-.5-5.4-1.2-8.2-1-3.4.6-5.8 3.5-8.9 4.9-1.5.6-3.2.8-4.5 1.7-2.7 2.3-3.4 6.4-6.6 8.4-3.1 2.1-5.8 4.7-8.8 7.1-1.7 1.6-4.2.4-6.3.8-1.8.9-3.1 2.6-4.8 3.7-2.2.8-4.9.4-6.7 2.1-3 2.6-7.5 1.9-10.7 4.2-3.6 1.8-5.3 5.9-8.7 8-2.6 1.6-4.7 3.8-6.7 6-.6-.7-1.1-1.4-1.7-2.1-2.9 1.7-5.2 4.4-8.6 5.1-1.2-1.4-2.4-3.2-4.5-3.3.3-.7.7-1.4 1-2.1-.7-.9-1.5-1.8-2.8-1.7-3.2-.4-6.4.3-9.5.1-2.2-1.1-4-2.9-5.3-5 2.4-2.9 3.6-6.6 5.6-9.7 1.2-1.7 3.2-.3 4.7 0 .6-1.5 1.3-2.9 1.9-4.3.9.1 1.7.2 2.6.3 2.1-1.9 3.3-4.4 4.1-7 1.4-.4 2.8-.8 4.1-1.2 0-2.3 1-4.3 2.7-5.8 11.6.1 23.1 0 34.7 0 13.3.3 26.6-4 37.2-12.1 2.2-1.7 4.2-3.6 6.1-5.6 3.5-.5 7.7-.6 10.5-3.5z"/>
  <path fill="#E0CD81" d="M177.6 195.9c3.1-1.4 5.5-4.2 8.9-4.9 2.8-.2 5.5.5 8.2 1 .5 1.5 1.2 3 1.5 4.6.1 1.5-.7 3.1-.1 4.6.3.9.6 1.8 0 2.7-2.5 5.2-4.5 10.7-7.7 15.6h3.8c-1.8 2.6-4.8 3.7-7.1 5.8-2.2 1.7-3 4.5-5.1 6.3-1.1.9-2 1.9-2.7 3.2-4.5 3-9.9 4.4-14.7 6.8 0-.9-.1-1.8-.1-2.7-3.5.8-7 1.5-10.4 2.4-2.9.8-4.7 3.5-7.3 4.9-2.1.8-4.5.9-6 2.7-15.9 1.3-32.1-.3-47.3-5 1.7-.5 3.4-1.1 5.1-1.8.2-1.9 1.3-3.4 2.6-4.7 2.1.1 3.3 1.8 4.5 3.3 3.4-.7 5.7-3.4 8.6-5.1.6.7 1.1 1.4 1.7 2.1 2.1-2.2 4.1-4.5 6.7-6 3.5-2 5.1-6.1 8.7-8 3.2-2.3 7.7-1.6 10.7-4.2 1.9-1.7 4.5-1.3 6.7-2.1 1.7-1.1 3-2.8 4.8-3.7 2.1-.3 4.6.8 6.3-.8 2.9-2.4 5.7-4.9 8.8-7.1 3.2-1.9 3.8-6 6.6-8.4 1.2-.7 2.8-.8 4.3-1.5z"/>
  <path fill="#C2A44D" d="M78.7 201.1h3.2c2.5 2.9 5.7 6.2 9.8 6.2 3.2-.3 1.6-4.2 1.2-6.2h15c-1.7 1.5-2.7 3.5-2.7 5.8-1.4.4-2.8.8-4.1 1.2-.8 2.6-2 5.2-4.1 7-.9-.1-1.7-.2-2.6-.3-.6 1.4-1.3 2.9-1.9 4.3-1.5-.4-3.5-1.7-4.7 0-2 3.1-3.2 6.8-5.6 9.7-.4-.9-.9-1.8-1.3-2.7-2 .9-4 1.7-6.1 2.5 1.8-3.3 4.1-6.3 5.5-9.8-.5-3.2-2.2-6.1-2.3-9.5.2-2.7-1.2-5.7.7-8.2z"/>
  <path fill="#D2B159" d="M81.9 201.1h11c.4 2 2 5.9-1.2 6.2-4.1 0-7.3-3.3-9.8-6.2z"/>
  <path fill="#CEB052" d="M75 228.7c2-.8 4.1-1.6 6.1-2.5.4.9.8 1.8 1.3 2.7 1.3 2.1 3.1 3.8 5.3 5 3.2.2 6.4-.4 9.5-.1 1.3-.2 2.1.7 2.8 1.7-.3.7-.6 1.4-1 2.1-1.3 1.3-2.3 2.8-2.6 4.7l-5.1 1.8c-8.8-2.9-17.4-6.8-25.4-11.4 2-.4 2.6-2.4 3.6-3.9 1.7-.6 3.7.1 5.5-.1z"/>
  <path fill="#D2BA6B" d="M177.2 234.8c3.4-2.2 7.8-4.2 11.6-1.5-15.2 8.9-32.5 14.5-50.1 15.7 1.5-1.8 3.9-2 6-2.7 2.6-1.4 4.4-4.1 7.3-4.9 3.4-1 6.9-1.7 10.4-2.4 0 .9.1 1.8.1 2.7 4.8-2.6 10.2-3.9 14.7-6.9z"/>
  <path fill="#333" d="M294 185.6V70.1c.5 0 .9-.1 1.4-.1h23.4c5.2 0 10.3.4 15.4 1.9 9.1 2.6 14.7 8.5 17.2 17.5 1.5 5.3 1.9 10.7 1.9 16.2 0 15.4 0 30.8-.1 46.2-.1 6.3-1.2 12.5-3.8 18.4-3.3 7.5-9.1 12.2-17.1 14.1-3.9.9-8 1.3-12 1.4-8.4.2-16.8.1-25.1.1-.4-.1-.8-.2-1.2-.2zm16.1-104v92.8c5.2-.3 10.3-.2 15.3-.8 6.2-.8 9.6-5 10.5-11 .6-4.4 1-8.8 1.1-13.2.1-14.1.2-28.1 0-42.2 0-4.8-.4-9.5-1.1-14.2-.8-5.7-4.2-9.4-9.9-10.2-5.3-.8-10.5-.9-15.9-1.2zM767 70h10c.9 0 1 .5 1.3 1.1 3 7.1 6.1 14.2 9.1 21.3 7.5 17.5 15 35.1 22.5 52.6.2.4.3.7.7 1.1v-76H824v115.6h-9.6c-.3 0-.8-.6-1-1.1-3.6-8.5-7.2-17.1-10.8-25.6-7.1-16.8-14.1-33.6-21.2-50.4-.2-.4-.4-.8-.8-1.2v78.2H767V70zm-114.8 57.5V106c0-6.4.6-12.8 2.7-18.9 3.5-10.5 11-16.1 21.8-17.6 6-.8 12-.8 18 .7 8.9 2.2 14.8 7.7 17.9 16.2 1.9 5.3 2.8 10.8 2.9 16.4.1 16.2.1 32.3 0 48.5 0 6.9-1.1 13.6-3.9 20-3 7-8.2 11.8-15.4 13.9-8.9 2.5-17.9 2.5-26.7-.8-6.1-2.3-10.4-6.7-13.1-12.6-3.3-7.3-4-15.1-4.1-23-.1-7-.1-14.1-.1-21.3zm16.4.2h-.2c0 8.1-.1 16.2 0 24.3.1 3.9.4 7.8 1.1 11.7.9 4.9 3.6 8.5 8.6 9.9 3.1.8 6.2.9 9.4.4 5.5-.8 9.1-3.9 10.2-9.2.9-3.9 1.3-8 1.4-12 .1-16.8.1-33.6 0-50.4 0-3.6-.5-7.3-1.1-10.9-.9-5.5-4.6-8.9-10-9.7-2.3-.3-4.6-.4-6.9-.2-5.9.3-9.8 3.4-11.4 9-.7 2.6-1.1 5.3-1.2 8 0 9.8.1 19.4.1 29.1zm-301.4-.3c0-8.7-.1-17.4 0-26.1.1-6.2 1.2-12.2 3.9-17.8 3.3-6.8 8.6-11.2 15.9-13.1 7.7-2 15.5-2.1 23.2 0 8.6 2.3 14.2 8 17.2 16.3 1.9 5.4 2.7 11 2.7 16.7 0 15.9.1 31.9 0 47.8 0 6.7-1 13.4-3.7 19.6-4 9.2-11.2 14.2-21 15.5-5.9.8-11.8.7-17.6-.8-9.2-2.3-15.1-8.2-18.1-17.1-2.2-6.5-2.7-13.3-2.8-20.1-.1-7 0-14.1 0-21.1.2.2.3.2.3.2zm16.2.2h-.1c0 8.1-.1 16.2 0 24.3.1 3.9.4 7.7 1 11.5.9 5.5 4.2 9.7 10.4 10.5 2.1.3 4.3.3 6.4.2 6-.3 9.8-3.4 11.5-9.2 1.1-4 1.3-8.1 1.3-12.2 0-16.8.1-33.5 0-50.3 0-3.7-.4-7.4-1.1-11-1-5-4-8.4-9.2-9.4-3.3-.7-6.6-.7-9.9 0-4.6 1-7.8 3.6-9 8.3-.7 2.7-1.2 5.6-1.3 8.4-.1 9.6 0 19.2 0 28.9zm108.1 12.2h-14.7v-11.3h29.1v57.1H496c-.5-4.2-1-8.4-1.6-12.6-.1 0-.2-.1-.3-.1-.2.5-.4 1.1-.7 1.6-3.6 7.9-9.5 12.4-18.3 12.6-4.9.1-9.6-.3-14.2-2.2-6.2-2.5-10.3-7.1-12.8-13.2-3.2-7.7-4-15.9-4-24.2v-38.2c0-7.1.5-14.1 2.4-21 1.8-6.7 5.3-12.1 11.5-15.5 3-1.7 6.3-2.6 9.7-3.1 5.8-.7 11.6-.8 17.3.4 9.5 2 15.6 7.6 18.2 16.9 1.9 6.5 2 13.1 1.9 19.9h-15v-2.1c0-5 0-10.1-1.3-15-1-3.8-3.2-6.4-7.1-7.4-4.5-1.2-9-1.3-13.3.3-4.1 1.5-6.3 5-6.9 9.2-.7 4.4-1.1 8.9-1.2 13.3-.1 15.9-.1 31.7 0 47.6 0 4.1.7 8.2 1.6 12.1 1.3 5.5 5.1 8.6 10.8 9.3 3 .4 6.1.3 8.9-.7 4.4-1.5 6.8-4.8 8.1-9.1 1.6-5.7 1.8-11.5 1.8-17.4v-7.2zm147.4-28.5h-15.3v-1.6c-.2-5.8-.2-11.7-.6-17.5-.4-5.7-3.3-9.3-8.1-10.1-2.6-.5-5.4-.5-8.1-.3-7.3.5-10.3 5.5-11.1 11.7-.6 4.7-.8 9.4-.8 14.1-.1 14.3 0 28.6 0 43 0 4.7.1 9.4 1.3 13.9 1 3.5 2.5 6.8 6.1 8.3 4.7 2 9.6 2.1 14.3.3 3.8-1.5 5.3-4.8 6-8.4.6-3.1.8-6.3.9-9.4.1-4.1 0-8.2 0-12.4h15.2c0 .1.1.1.1.2.2 8.8.2 17.6-2.4 26.1-3.1 10.2-9.7 16-20.3 17.3-5.3.7-10.5.6-15.7-.5-10.3-2.3-16.4-8.9-19.3-18.8-1.8-6.3-2.5-12.7-2.4-19.2v-39.9c0-6.5.5-12.9 2.2-19.1 2.7-10.3 8.9-17.1 19.7-19.1 7.5-1.4 15.1-1.5 22.4 1.2 6.6 2.4 11 7.2 13.3 13.8 2 5.7 2.6 11.7 2.7 17.7 0 2.9-.1 5.7-.1 8.7zM522.8 70.1h44.6v11.8h-28.6v38.5h23.1v11.3h-23.1v42.5h28.8v11.5h-44.9c.1-38.6.1-77 .1-115.6zm209.5 115.5V70.1H748v115.5h-15.7z"/>
</svg>
