<svg xmlns:xlink="http://www.w3.org/1999/xlink" preserveAspectRatio="xMidYMid" viewBox="0 0 256 163" xmlns="http://www.w3.org/2000/svg">
  <defs>
    <linearGradient id="epsagon-icon_svg__c" x1="-1246.114%" x2="12.973%" y1="-445.363%" y2="35.84%">
      <stop offset="0%" stop-color="#5CCD53"/>
      <stop offset="99%" stop-color="#0000F3"/>
    </linearGradient>
    <linearGradient id="epsagon-icon_svg__d" x1="81.768%" x2="838.157%" y1="62.157%" y2="351.401%">
      <stop offset="0%" stop-color="#5CCD53"/>
      <stop offset="99%" stop-color="#0000F3"/>
    </linearGradient>
    <linearGradient id="epsagon-icon_svg__e" x1="26.883%" x2="394.258%" y1="38.702%" y2="212.238%">
      <stop offset="0%" stop-color="#5CCD53"/>
      <stop offset="99%" stop-color="#0000F3"/>
    </linearGradient>
    <linearGradient id="epsagon-icon_svg__f" x1="-9.279%" x2="100.746%" y1="24.494%" y2="58.091%">
      <stop offset="0%" stop-color="#5CCD53"/>
      <stop offset="99%" stop-color="#0000F3"/>
    </linearGradient>
    <linearGradient id="epsagon-icon_svg__g" x1="46.668%" x2="98.994%" y1="50%" y2="50%">
      <stop offset="0%" stop-color="#FFF" stop-opacity="0"/>
      <stop offset="100%" stop-color="#FFF" stop-opacity=".8"/>
    </linearGradient>
    <linearGradient id="epsagon-icon_svg__h" x1="100%" x2="0%" y1="50%" y2="50%">
      <stop offset="0%" stop-color="#EEF1FE"/>
      <stop offset="87.071%" stop-color="#C6D4FC"/>
      <stop offset="100%" stop-color="#C2D1FC" stop-opacity="0"/>
    </linearGradient>
    <path id="epsagon-icon_svg__a" d="M49.827 58.231c.77-.77 7.496-4.363 8.304-4.725l5.927-2.655-3.795-25.168 3.795-19.788 6.157-5.08 5.149 3.033.061 6.927L82.522 0l7.98.177 1.001 11.49 1.047 21.636-7.973 21.396 15.092 15.393v27.16l-10.705 7.181H67.798l-22.389 5.11-5.387 14.901 4.525 12.838 6.458 7.15-9.744 3.848-22.79-25.136 1.093-12.038-15.177-7.742L0 70.107 25.352 51.59l24.475 6.642Z"/>
  </defs>
  <path fill="#1A1233" d="m245.371 141.692-6.165 4.687.985 7.674 7.135 2.993 6.165-4.687-.985-7.68-7.135-2.987ZM10.244 90.711 0 98.507l1.632 12.776 11.875 4.972 10.244-7.796-1.631-12.776-11.876-4.972Zm44.17-19.58-1.139-8.959-9.559-4.002-8.243 6.273.87 6.772-7.335 5.58 2.201 17.233 16.024 6.719 13.823-10.529-2.201-17.232-4.441-1.855Zm186.478-4.318 7.973-21.396-1.046-21.635-1-11.49-7.982-.178-7.096 10.775-.062-6.927-5.149-2.955-6.157 5.08-3.794 19.787 3.794 25.168s-5.118 2.309-5.926 2.655c-.4.177-1.47.67-2.555 1.208l-.77-5.98-28.977-12.137-1.732 1.316-.7-5.518-34.096-14.277-9.751 7.42-9.067-3.803-10.167 7.697-9.451-3.956 11.399-8.674-2.663-20.866L96.514 0l-16.74 12.745 2.163 16.933-12.238 9.312 1.463 11.476-4.033 3.078 4.402 34.457 32.04 13.423 17.164-13.084.13.985 9.467 3.972 2.009 15.747 27.707 11.606 4.272-3.248 11.49 5.857-1.046 12.053 22.12 24.359v.123l.153.062.547.592.446-.177 4.618 1.94 4.987-3.795-.77-6.21-5.61-2.31-.37-.415-4.571-12.869 5.387-14.9.655-.146-.093.069 1.54 12.268 10.505 4.395.67 5.28 9.682 4.056 8.35-6.358-1.323-10.413-7.042-2.948-1.147-8.997-3.394-1.416 4.025-.924h21.165l10.706-7.18V82.275l-15.108-15.462Z"/>
  <path fill="#A1BEFF" d="m211.114 60.902-28.977-12.137-25.006 19.026 3.98 31.163 28.984 12.137 24.998-19.026-3.979-31.163z" opacity=".77"/>
  <path fill="#A1BEFF" d="m179.697 44.563-34.095-14.285-29.416 22.389 4.68 36.674 34.095 14.277 29.423-22.382-4.687-36.673z" opacity=".74"/>
  <path fill="#A1BEFF" d="m126.822 45.91-32.04-13.423-27.646 21.042 4.395 34.465 32.048 13.415 27.646-21.035z" opacity=".79"/>
  <path fill="#A1BEFF" d="m98.292 35.342-15.347-6.434L69.699 38.99l2.11 16.502 15.346 6.426L100.4 51.843l-2.108-16.5z" opacity=".7"/>
  <path fill="#A1BEFF" d="m144.032 41.122-17.24-7.219-14.878 11.321 2.363 18.549 17.248 7.22 14.877-11.322-2.37-18.549z" opacity=".37"/>
  <path fill="#A1BEFF" d="m231.671 130.855-7.042-2.947-1.147-8.99-11.413-4.78-9.844 7.49 1.57 12.275 10.498 4.395.677 5.272 9.682 4.056 8.35-6.357-1.33-10.414z" opacity=".7"/>
  <path fill="#A1BEFF" d="m206.827 152.205-5.772-2.416-4.98 3.786.793 6.211 5.772 2.417 4.98-3.787-.793-6.21Zm45.679-7.527-7.135-2.986-6.165 4.687.985 7.674 7.135 2.993 6.165-4.687-.985-7.68ZM22.12 95.683 10.244 90.71 0 98.507l1.632 12.776 11.875 4.972 10.244-7.796-1.631-12.776Z"/>
  <path fill="#A1BEFF" d="M58.855 72.986 42.83 66.274 29.008 76.795l2.201 17.233 16.024 6.719 13.823-10.529z" opacity=".29"/>
  <g transform="translate(156.292 12.168)">
    <mask id="epsagon-icon_svg__b" fill="#fff">
      <use xlink:href="#epsagon-icon_svg__a"/>
    </mask>
    <use xlink:href="#epsagon-icon_svg__a" fill="#A1BEFF" opacity=".46"/>
    <path fill="#A1BEFF" d="M52.952 56.254c.77-.77 4.371-2.417 5.18-2.779l5.926-2.655-3.795-25.168 3.795-19.787 6.157-5.08 5.149 3.032.061 6.927L82.522-.03l7.98.177 1.001 11.491 1.047 21.635-7.973 21.396 15.092 15.393v27.16l-10.705 7.182H67.798l-22.389 5.14-5.387 14.901 4.525 12.838 6.458 7.15-9.744 3.848-22.79-25.136 1.093-12.038-15.177-7.742L0 70.107l28.077-24.444 24.875 10.59Z" mask="url(#epsagon-icon_svg__b)"/>
  </g>
  <path fill="#A1BEFF" d="m53.275 62.172-9.559-4.002-8.243 6.273 1.316 10.274 9.551 4.002 8.243-6.272-1.308-10.275z" opacity=".7"/>
  <path fill="#A1BEFF" d="m180.167 72.662-27.715-11.614-23.913 18.203 3.81 29.8 27.714 11.614 23.906-18.202z" opacity=".22"/>
  <path fill="#A1BEFF" d="m188.402 69.7-21.035-8.813-18.148 13.815 2.894 22.62 21.034 8.805 18.141-13.808-2.886-22.62z" opacity=".22"/>
  <path fill="#A1BEFF" d="M115.917 8.127 96.514 0 79.782 12.738l2.663 20.865 19.395 8.127 16.74-12.737-2.663-20.866z"/>
  <g opacity=".3" style="mix-blend-mode:color">
    <path fill="#1A1233" d="m245.371 141.692-6.165 4.687.985 7.674 7.135 2.993 6.165-4.687-.985-7.68-7.135-2.987ZM10.244 90.711 0 98.507l1.632 12.776 11.875 4.972 10.244-7.796-1.631-12.776-11.876-4.972Zm44.17-19.58-1.139-8.959-9.559-4.002-8.243 6.273.87 6.772-7.335 5.58 2.201 17.233 16.024 6.719 13.823-10.529-2.201-17.232-4.441-1.855Zm186.478-4.318 7.973-21.396-1.046-21.635-1-11.49-7.982-.178-7.096 10.775-.062-6.927-5.149-2.955-6.157 5.08-3.794 19.787 3.794 25.168s-5.118 2.309-5.926 2.655c-.4.177-1.47.67-2.555 1.208l-.77-5.98-28.977-12.137-1.732 1.316-.7-5.518-34.096-14.277-9.751 7.42-9.067-3.803-10.167 7.697-9.451-3.956 11.399-8.674-2.663-20.866L96.514 0l-16.74 12.745 2.163 16.933-12.238 9.312 1.463 11.476-4.033 3.078 4.402 34.457 32.04 13.423 17.164-13.084.13.985 9.467 3.972 2.009 15.747 27.707 11.606 4.272-3.248 11.49 5.857-1.046 12.053 22.12 24.359v.123l.153.062.547.592.446-.177 4.618 1.94 4.987-3.795-.77-6.21-5.61-2.31-.37-.415-4.571-12.869 5.387-14.9.655-.146-.093.069 1.54 12.268 10.505 4.395.67 5.28 9.682 4.056 8.35-6.358-1.323-10.413-7.042-2.948-1.147-8.997-3.394-1.416 4.025-.924h21.165l10.706-7.18V82.275l-15.108-15.462Z"/>
    <path fill="url(#epsagon-icon_svg__c)" d="m245.371 141.692-6.165 4.687.985 7.674 7.135 2.993 6.165-4.687-.985-7.68z"/>
    <path fill="url(#epsagon-icon_svg__d)" d="M10.244 90.71 0 98.508l1.632 12.776 11.875 4.972 10.244-7.796-1.631-12.776-11.876-4.972z"/>
    <path fill="url(#epsagon-icon_svg__e)" d="m54.414 71.13-1.139-8.958-9.559-4.002-8.243 6.273.87 6.772-7.335 5.58 2.201 17.233 16.024 6.719 13.823-10.529-2.201-17.232z"/>
    <path fill="url(#epsagon-icon_svg__f)" d="m240.892 66.813 7.973-21.396-1.046-21.635-1-11.49-7.982-.178-7.096 10.775-.062-6.927-5.149-2.955-6.157 5.08-3.794 19.787 3.794 25.168s-5.118 2.309-5.926 2.655c-.4.177-1.47.67-2.555 1.208l-.77-5.98-28.977-12.137-1.732 1.316-.7-5.518-34.096-14.277-9.751 7.42-9.067-3.803-10.167 7.697-9.451-3.956 11.399-8.674-2.663-20.866L96.514 0l-16.74 12.745 2.163 16.933-12.238 9.312 1.463 11.476-4.033 3.078 4.402 34.457 32.04 13.423 17.164-13.084.13.985 9.467 3.972 2.009 15.747 27.707 11.606 4.272-3.248 11.49 5.857-1.046 12.053 22.12 24.359v.123l.153.062.547.592.446-.177 4.618 1.94 4.987-3.795-.77-6.21-5.61-2.31-.37-.415-4.571-12.869 5.387-14.9.655-.146-.093.069 1.54 12.268 10.505 4.395.67 5.28 9.682 4.056 8.35-6.358-1.323-10.413-7.042-2.948-1.147-8.997-3.394-1.416 4.025-.924h21.165l10.706-7.18V82.275l-15.108-15.462Z"/>
  </g>
  <path fill="url(#epsagon-icon_svg__g)" d="m252.498 144.686.978 7.696-6.158 4.688-7.134-3.01-.978-7.696 6.157-4.687 7.135 3.009ZM10.244 90.74 0 98.515l1.593 12.768 11.876 4.98 10.282-7.82-1.631-12.768-11.876-4.934Zm44.17-19.587-1.147-8.951-9.551-4.002-8.258 6.25.862 6.764-7.335 5.588 2.201 17.232 16.04 6.712 13.853-10.521-2.224-17.233-4.441-1.84Zm186.478-4.318 7.973-21.396-1.046-21.658-1-11.49-7.982-.178-7.096 10.775-.062-6.927-5.149-2.955-6.157 5.08-3.794 19.787 3.794 25.168s-5.118 2.309-5.926 2.655c-.4.177-1.47.67-2.555 1.208l-.77-5.98-28.977-12.137-1.732 1.316-.7-5.518-34.096-14.277-9.751 7.42-9.067-3.803-10.167 7.697-9.451-3.956 11.399-8.674-2.663-20.866L96.514 0l-16.74 12.745 2.163 16.933-12.238 9.312 1.463 11.476-4.033 3.078 4.402 34.457 32.04 13.423 17.164-13.084.13.985 9.467 3.972 2.009 15.747 27.707 11.606 4.272-3.248 11.49 5.857-1.046 12.053 22.12 24.359v.123l.153.062.547.592.446-.177 4.618 1.94 4.987-3.795-.77-6.21-5.61-2.31-.37-.415-4.571-12.869 5.387-14.9.655-.146-.093.069 1.54 12.268 10.505 4.395.67 5.28 9.682 4.056 8.35-6.358-1.323-10.413-7.042-2.948-1.147-8.997-3.394-1.416 4.025-.924h21.165l10.706-7.18V82.275l-15.108-15.439Z"/>
  <path fill="url(#epsagon-icon_svg__h)" d="M207.297 68.445c.77-.77 6.319-2.41 7.127-2.771l5.926-2.655-3.794-25.168 3.794-19.787 6.157-5.08 5.15 3.032.06 6.927 7.097-10.775 7.981.177 1 11.491 1.047 21.635-7.973 21.396 15.093 15.393v27.16l-10.706 7.182H224.09l-22.389 5.11-5.387 14.9 4.525 12.838 6.458 7.15-9.744 3.848-22.79-25.136 1.094-12.038v-7.019l-7.166 4.41V70.992l15.693-12.791 22.913 10.244Z"/>
</svg>
