<svg xmlns:xlink="http://www.w3.org/1999/xlink" preserveAspectRatio="xMidYMid" viewBox="0 0 512 106" xmlns="http://www.w3.org/2000/svg">
  <defs>
    <linearGradient id="epsagon_svg__c" x1="-1246.114%" x2="12.973%" y1="-445.363%" y2="35.84%">
      <stop offset="0%" stop-color="#5CCD53"/>
      <stop offset="99%" stop-color="#0000F3"/>
    </linearGradient>
    <linearGradient id="epsagon_svg__d" x1="81.768%" x2="838.157%" y1="62.157%" y2="351.401%">
      <stop offset="0%" stop-color="#5CCD53"/>
      <stop offset="99%" stop-color="#0000F3"/>
    </linearGradient>
    <linearGradient id="epsagon_svg__e" x1="26.883%" x2="394.258%" y1="38.702%" y2="212.238%">
      <stop offset="0%" stop-color="#5CCD53"/>
      <stop offset="99%" stop-color="#0000F3"/>
    </linearGradient>
    <linearGradient id="epsagon_svg__f" x1="-9.279%" x2="100.746%" y1="24.494%" y2="58.091%">
      <stop offset="0%" stop-color="#5CCD53"/>
      <stop offset="99%" stop-color="#0000F3"/>
    </linearGradient>
    <linearGradient id="epsagon_svg__g" x1="46.668%" x2="98.994%" y1="50%" y2="50%">
      <stop offset="0%" stop-color="#FFF" stop-opacity="0"/>
      <stop offset="100%" stop-color="#FFF" stop-opacity=".8"/>
    </linearGradient>
    <linearGradient id="epsagon_svg__h" x1="100%" x2="0%" y1="50%" y2="50%">
      <stop offset="0%" stop-color="#EEF1FE"/>
      <stop offset="87.071%" stop-color="#C6D4FC"/>
      <stop offset="100%" stop-color="#C2D1FC" stop-opacity="0"/>
    </linearGradient>
    <path id="epsagon_svg__a" d="M28.95 33.833c.447-.447 4.355-2.535 4.825-2.746l3.443-1.542-2.204-14.623 2.204-11.497L40.796.474l2.991 1.762.036 4.024L47.946 0l4.637.103.581 6.676.609 12.57-4.633 12.432 8.769 8.943v15.78l-6.22 4.173H39.39l-13.008 2.97-3.13 8.656 2.63 7.46 3.751 4.154-5.661 2.235-13.24-14.604.634-6.994-8.818-4.499L0 40.733l14.73-10.759 14.22 3.86Z"/>
  </defs>
  <g fill="#1A1233">
    <path d="m142.563 82.325-3.582 2.723.573 4.458 4.145 1.74 3.582-2.724-.572-4.462-4.146-1.735ZM5.952 52.704 0 57.234l.948 7.423 6.9 2.889 5.952-4.53-.948-7.423-6.9-2.89Zm25.663-11.376-.662-5.205-5.554-2.326-4.789 3.645.506 3.935-4.262 3.242 1.279 10.012 9.31 3.904 8.031-6.117-1.279-10.013-2.58-1.077Z"/>
    <path d="m139.96 38.82 4.633-12.432-.608-12.57-.581-6.677-4.637-.102-4.123 6.26-.036-4.025-2.991-1.717-3.578 2.952-2.204 11.496 2.204 14.623s-2.974 1.341-3.443 1.543c-.233.103-.854.389-1.485.702l-.447-3.475-16.836-7.052-1.006.765-.407-3.206-19.81-8.295-5.665 4.31-5.268-2.209-5.907 4.472-5.492-2.298 6.623-5.04-1.547-12.123L56.076 0 46.35 7.405l1.256 9.838-7.11 5.41.85 6.668-2.344 1.789 2.558 20.02 18.616 7.798 9.972-7.601.076.572 5.5 2.307 1.167 9.15 16.099 6.743 2.481-1.887 6.677 3.403-.608 7.003 12.85 14.152v.071l.09.036.317.344.26-.103 2.683 1.127 2.897-2.204-.447-3.609-3.26-1.342-.214-.241-2.657-7.477 3.13-8.657.38-.085-.053.04.894 7.128 6.104 2.554.39 3.067 5.625 2.357 4.852-3.694-.77-6.05-4.091-1.713-.666-5.227-1.972-.823 2.338-.537h12.298l6.22-4.172V47.803l-8.778-8.984Z"/>
  </g>
  <path fill="#A1BEFF" d="m122.66 35.385-16.836-7.052-14.53 11.054 2.313 18.106 16.84 7.052 14.525-11.054-2.312-18.106z" opacity=".77"/>
  <path fill="#A1BEFF" d="m104.406 25.891-19.81-8.3-17.09 13.01 2.718 21.307 19.81 8.295 17.095-13.004-2.723-21.308z" opacity=".74"/>
  <path fill="#A1BEFF" d="M73.685 26.674 55.07 18.875 39.007 31.101l2.553 20.024 18.62 7.795 16.063-12.222z" opacity=".79"/>
  <path fill="#A1BEFF" d="m57.109 20.534-8.917-3.738-7.696 5.858 1.225 9.587 8.917 3.734 7.696-5.853-1.225-9.588z" opacity=".7"/>
  <path fill="#A1BEFF" d="m83.684 23.892-10.017-4.194-8.644 6.578 1.373 10.777 10.021 4.194 8.644-6.578-1.377-10.777z" opacity=".37"/>
  <path fill="#A1BEFF" d="m134.604 76.028-4.092-1.712-.666-5.223-6.632-2.777-5.72 4.35.913 7.133 6.1 2.554.393 3.063 5.625 2.356 4.852-3.693-.773-6.05z" opacity=".7"/>
  <path fill="#A1BEFF" d="m120.169 88.433-3.354-1.404-2.893 2.2.46 3.609 3.354 1.404 2.893-2.2-.46-3.609Zm26.54-4.373-4.146-1.735-3.582 2.723.573 4.458 4.145 1.74 3.582-2.724-.572-4.462ZM12.852 55.593l-6.9-2.89L0 57.234l.948 7.424 6.9 2.889 5.952-4.53-.948-7.423Z"/>
  <path fill="#A1BEFF" d="m34.195 42.405-9.31-3.899-8.031 6.113 1.279 10.012 9.31 3.904 8.031-6.117z" opacity=".29"/>
  <g transform="translate(90.807 7.07)">
    <mask id="epsagon_svg__b" fill="#fff">
      <use xlink:href="#epsagon_svg__a"/>
    </mask>
    <use xlink:href="#epsagon_svg__a" fill="#A1BEFF" opacity=".46"/>
    <path fill="#A1BEFF" d="M30.766 32.684c.447-.447 2.54-1.404 3.009-1.614l3.443-1.543-2.204-14.623 2.204-11.497 3.578-2.95 2.991 1.761.036 4.025 4.123-6.26 4.637.102.581 6.676.609 12.57-4.633 12.432 8.769 8.943v15.78l-6.22 4.173H39.39l-13.008 2.987-3.13 8.657 2.63 7.46 3.751 4.154-5.661 2.235-13.24-14.604.634-6.994-8.818-4.499L0 40.733l16.313-14.202 14.453 6.153Z" mask="url(#epsagon_svg__b)"/>
  </g>
  <path fill="#A1BEFF" d="M30.953 36.123 25.4 33.797l-4.789 3.645.765 5.97 5.55 2.325 4.789-3.645-.76-5.97z" opacity=".7"/>
  <path fill="#A1BEFF" d="M104.679 42.218 88.576 35.47 74.682 46.045l2.214 17.315 16.103 6.748 13.889-10.576z" opacity=".22"/>
  <path fill="#A1BEFF" d="m109.464 40.496-12.222-5.12-10.544 8.027 1.681 13.142 12.222 5.116 10.54-8.023-1.677-13.142z" opacity=".22"/>
  <path fill="#A1BEFF" d="M67.349 4.722 56.076 0l-9.722 7.4 1.547 12.124 11.269 4.722 9.726-7.401-1.547-12.123z"/>
  <g opacity=".3" style="mix-blend-mode:color">
    <path fill="#1A1233" d="m142.563 82.325-3.582 2.723.573 4.458 4.145 1.74 3.582-2.724-.572-4.462-4.146-1.735ZM5.952 52.704 0 57.234l.948 7.423 6.9 2.889 5.952-4.53-.948-7.423-6.9-2.89Zm25.663-11.376-.662-5.205-5.554-2.326-4.789 3.645.506 3.935-4.262 3.242 1.279 10.012 9.31 3.904 8.031-6.117-1.279-10.013-2.58-1.077Z"/>
    <path fill="#1A1233" d="m139.96 38.82 4.633-12.432-.608-12.57-.581-6.677-4.637-.102-4.123 6.26-.036-4.025-2.991-1.717-3.578 2.952-2.204 11.496 2.204 14.623s-2.974 1.341-3.443 1.543c-.233.103-.854.389-1.485.702l-.447-3.475-16.836-7.052-1.006.765-.407-3.206-19.81-8.295-5.665 4.31-5.268-2.209-5.907 4.472-5.492-2.298 6.623-5.04-1.547-12.123L56.076 0 46.35 7.405l1.256 9.838-7.11 5.41.85 6.668-2.344 1.789 2.558 20.02 18.616 7.798 9.972-7.601.076.572 5.5 2.307 1.167 9.15 16.099 6.743 2.481-1.887 6.677 3.403-.608 7.003 12.85 14.152v.071l.09.036.317.344.26-.103 2.683 1.127 2.897-2.204-.447-3.609-3.26-1.342-.214-.241-2.657-7.477 3.13-8.657.38-.085-.053.04.894 7.128 6.104 2.554.39 3.067 5.625 2.357 4.852-3.694-.77-6.05-4.091-1.713-.666-5.227-1.972-.823 2.338-.537h12.298l6.22-4.172V47.803l-8.778-8.984Z"/>
    <path fill="url(#epsagon_svg__c)" d="m142.563 82.325-3.582 2.723.573 4.458 4.145 1.74 3.582-2.724-.572-4.462z"/>
    <path fill="url(#epsagon_svg__d)" d="M5.952 52.704 0 57.234l.948 7.423 6.9 2.889 5.952-4.53-.948-7.423-6.9-2.89z"/>
    <path fill="url(#epsagon_svg__e)" d="m31.615 41.328-.662-5.205-5.554-2.326-4.789 3.645.506 3.935-4.262 3.242 1.279 10.012 9.31 3.904 8.031-6.117-1.279-10.013z"/>
    <path fill="url(#epsagon_svg__f)" d="m139.96 38.82 4.633-12.432-.608-12.57-.581-6.677-4.637-.102-4.123 6.26-.036-4.025-2.991-1.717-3.578 2.952-2.204 11.496 2.204 14.623s-2.974 1.341-3.443 1.543c-.233.103-.854.389-1.485.702l-.447-3.475-16.836-7.052-1.006.765-.407-3.206-19.81-8.295-5.665 4.31-5.268-2.209-5.907 4.472-5.492-2.298 6.623-5.04-1.547-12.123L56.076 0 46.35 7.405l1.256 9.838-7.11 5.41.85 6.668-2.344 1.789 2.558 20.02 18.616 7.798 9.972-7.601.076.572 5.5 2.307 1.167 9.15 16.099 6.743 2.481-1.887 6.677 3.403-.608 7.003 12.85 14.152v.071l.09.036.317.344.26-.103 2.683 1.127 2.897-2.204-.447-3.609-3.26-1.342-.214-.241-2.657-7.477 3.13-8.657.38-.085-.053.04.894 7.128 6.104 2.554.39 3.067 5.625 2.357 4.852-3.694-.77-6.05-4.091-1.713-.666-5.227-1.972-.823 2.338-.537h12.298l6.22-4.172V47.803l-8.778-8.984Z"/>
  </g>
  <path fill="url(#epsagon_svg__g)" d="m146.704 84.064.568 4.472-3.577 2.723-4.146-1.748-.568-4.472 3.578-2.723 4.145 1.748ZM5.952 52.722 0 57.238l.926 7.419 6.9 2.893 5.974-4.543-.948-7.419-6.9-2.866Zm25.663-11.38-.666-5.201-5.55-2.326-4.798 3.631.501 3.93-4.261 3.247 1.278 10.013 9.32 3.899 8.049-6.113-1.293-10.012-2.58-1.069Zm108.346-2.51 4.632-12.43-.608-12.584-.581-6.677-4.637-.102-4.123 6.26-.036-4.025-2.991-1.717-3.578 2.952-2.204 11.496 2.204 14.623s-2.974 1.341-3.443 1.543c-.233.103-.854.389-1.485.702l-.447-3.475-16.836-7.052-1.006.765-.407-3.206-19.81-8.295-5.665 4.31-5.268-2.209-5.907 4.472-5.492-2.298 6.623-5.04-1.547-12.123L56.076 0 46.35 7.405l1.256 9.838-7.11 5.41.85 6.668-2.344 1.789 2.558 20.02 18.616 7.798 9.972-7.601.076.572 5.5 2.307 1.167 9.15 16.099 6.743 2.481-1.887 6.677 3.403-.608 7.003 12.85 14.152v.071l.09.036.317.344.26-.103 2.683 1.127 2.897-2.204-.447-3.609-3.26-1.342-.214-.241-2.657-7.477 3.13-8.657.38-.085-.053.04.894 7.128 6.104 2.554.39 3.067 5.625 2.357 4.852-3.694-.77-6.05-4.091-1.713-.666-5.227-1.972-.823 2.338-.537h12.298l6.22-4.172V47.803l-8.778-8.97Z"/>
  <path fill="url(#epsagon_svg__h)" d="M120.442 39.767c.447-.447 3.67-1.4 4.14-1.61l3.444-1.542-2.205-14.623 2.205-11.497 3.577-2.951 2.992 1.762.035 4.024 4.123-6.26 4.638.103.58 6.676.61 12.57-4.634 12.431 8.77 8.944v15.78l-6.22 4.173h-12.298l-13.008 2.969-3.13 8.657 2.629 7.46 3.752 4.153-5.662 2.236-13.24-14.604.635-6.994v-4.078l-4.163 2.562v-28.86l9.117-7.433 13.313 5.952Z"/>
  <path d="M175.02 63.628v-.697c0-16.34 6.936-24.51 20.81-24.51a21.6 21.6 0 0 1 7.884 1.373 18.222 18.222 0 0 1 5.621 3.233 17.073 17.073 0 0 1 3.654 4.856 33.654 33.654 0 0 1 2.236 5.094 28.172 28.172 0 0 1 1.041 5.07c.245 1.923.369 3.132.372 3.627v2.044l-.184 3.349h-34.553c.435 4.77 1.895 8.235 4.378 10.397 2.483 2.161 6.164 3.237 11.04 3.228 6.893 0 12.316-1.177 16.269-3.532v7.07c-4.576 2.2-10.123 3.3-16.64 3.3h-.281a27.595 27.595 0 0 1-7.647-1.002 21.795 21.795 0 0 1-6.837-3.461c-2.239-1.646-3.993-4.119-5.263-7.419s-1.904-7.307-1.9-12.02Zm6.881-2.651h27.855a18.83 18.83 0 0 0-.398-3.627 33.899 33.899 0 0 0-1.583-5.138 10.942 10.942 0 0 0-4.289-5.232c-2.063-1.395-4.616-2.093-7.66-2.093-4.722 0-8.15 1.224-10.285 3.672-2.134 2.447-3.348 6.586-3.64 12.418Zm46.041 43.433V53.433a13.89 13.89 0 0 1 .581-3.904c.562-1.7 1.346-3.32 2.33-4.816 1.163-1.875 3.18-3.394 6.05-4.557 2.871-1.162 6.402-1.744 10.594-1.744a28.88 28.88 0 0 1 5.192.447 18.455 18.455 0 0 1 5.491 2.089 17.082 17.082 0 0 1 5.098 4.27c1.425 1.762 2.628 4.214 3.608 7.356a36.995 36.995 0 0 1 1.45 11.005c0 4.722-.637 8.738-1.91 12.047-1.273 3.309-3.022 5.786-5.245 7.432a21.827 21.827 0 0 1-6.87 3.47c-2.5.69-5.084 1.027-7.677 1.002-4-.02-7.975-.64-11.792-1.838v18.718h-6.9Zm6.882-25.712a29.191 29.191 0 0 0 11.792 2.37c5.196 0 8.972-1.377 11.327-4.132 2.355-2.754 3.531-7.238 3.528-13.45 0-3.99-.426-7.314-1.279-9.973-.852-2.659-2.045-4.597-3.577-5.813a13.245 13.245 0 0 0-4.387-2.41 17.091 17.091 0 0 0-4.735-.604c-8.42 0-12.644 2.814-12.673 8.443l.004 25.569Zm42.598-26.54a13.013 13.013 0 0 1 4.163-9.721c2.772-2.683 7.012-4.025 12.718-4.025a28.221 28.221 0 0 1 12.185 2.889v6.842a21.911 21.911 0 0 0-11.443-3.265c-7.155 0-10.732 2.424-10.732 7.271 0 1.649.869 2.979 2.607 3.99a26.03 26.03 0 0 0 6.368 2.517 82.214 82.214 0 0 1 7.534 2.401 14.448 14.448 0 0 1 6.395 4.731c1.75 2.221 2.625 5.053 2.625 8.496 0 4.13-1.541 7.365-4.624 9.709-3.082 2.343-7.353 3.514-12.811 3.514a29.151 29.151 0 0 1-14.373-3.577v-7.244c4.565 2.805 9.258 4.208 14.082 4.208 7.226 0 10.838-2.192 10.835-6.574 0-2.36-.868-4.21-2.603-5.55a17.77 17.77 0 0 0-6.372-3.004 180.973 180.973 0 0 1-7.535-2.191 14.614 14.614 0 0 1-6.39-4.025c-1.753-1.87-2.63-4.333-2.63-7.392Zm41.064 20.025a13.415 13.415 0 0 1 1.185-5.742 12.932 12.932 0 0 1 2.906-4.123 15.15 15.15 0 0 1 4.374-2.683 33.873 33.873 0 0 1 4.695-1.646 32.076 32.076 0 0 1 4.86-.796c1.873-.184 3.206-.292 3.999-.322.791-.03 1.726-.049 2.812-.049l7.63.447c0-4.313-1.17-7.391-3.507-9.234-2.337-1.842-5.795-2.763-10.374-2.763a40.04 40.04 0 0 0-13.898 2.276v-6.663a42.826 42.826 0 0 1 14.269-2.473c6.66 0 11.738 1.682 15.235 5.044 3.497 3.363 5.247 8.282 5.25 14.757v14.278c0 3.041-.705 5.638-2.115 7.79a12.235 12.235 0 0 1-5.433 4.673 30.032 30.032 0 0 1-6.225 1.999 30.44 30.44 0 0 1-5.737.559 37.08 37.08 0 0 1-4.494-.282 25.686 25.686 0 0 1-5.214-1.26 19.139 19.139 0 0 1-5.053-2.568 12.601 12.601 0 0 1-3.654-4.471 14.435 14.435 0 0 1-1.511-6.748Zm6.882 0c0 5.923 4.302 8.885 12.905 8.885h.139c8.416 0 12.625-2.87 12.628-8.608v-9.113a50.821 50.821 0 0 0-8.452-.56c-11.477 0-17.217 3.132-17.22 9.396Zm42.969-9.369c0-4.966.667-9.179 2.003-12.637s3.124-5.98 5.366-7.566a20.74 20.74 0 0 1 12.834-4.199c4.057 0 7.465.567 10.222 1.7 2.758 1.132 4.696 2.589 5.814 4.368a19.926 19.926 0 0 1 2.235 4.629 13.58 13.58 0 0 1 .582 3.859v35.81a17.887 17.887 0 0 1-.895 5.813 16.626 16.626 0 0 1-2.996 5.182c-1.389 1.69-3.517 3.008-6.385 3.953-2.868.945-6.328 1.42-10.38 1.422a55.74 55.74 0 0 1-13.526-1.721v-6.435a46.725 46.725 0 0 0 12.785 1.722c2.567.046 5.13-.232 7.628-.828 2.057-.542 3.548-1.314 4.472-2.316a8.595 8.595 0 0 0 1.9-2.996c.368-1.156.541-2.365.515-3.578v-4.735a35.774 35.774 0 0 1-11.144 1.735 30.855 30.855 0 0 1-5.911-.537 19.139 19.139 0 0 1-5.608-2.115 16.653 16.653 0 0 1-4.919-4.1c-1.368-1.673-2.479-3.909-3.331-6.708a33.373 33.373 0 0 1-1.261-9.722Zm6.882-.026c0 3.577.38 6.515 1.14 8.813.76 2.299 1.868 4.012 3.322 5.138a12.378 12.378 0 0 0 4.432 2.236c1.724.405 3.492.599 5.263.577a29.594 29.594 0 0 0 11.144-2.182V52.722c0-5.334-3.994-8-11.98-8a15.732 15.732 0 0 0-4.548.603 12.968 12.968 0 0 0-4.176 2.326c-1.452 1.148-2.582 3.008-3.39 5.58-.808 2.573-1.213 5.759-1.216 9.557h.009Zm44.18 12.534c-1.332-3.396-1.999-7.511-1.999-12.347 0-4.835.667-8.95 2-12.346 1.332-3.393 3.146-5.927 5.441-7.602a22.739 22.739 0 0 1 6.999-3.577 27.765 27.765 0 0 1 7.857-1.047 28.28 28.28 0 0 1 7.906 1.047c2.54.77 4.925 1.981 7.047 3.577 2.293 1.672 4.107 4.206 5.442 7.602 1.336 3.395 2.002 7.511 1.999 12.346 0 4.839-.666 8.954-1.999 12.347-1.332 3.392-3.146 5.926-5.442 7.602a22.757 22.757 0 0 1-7.047 3.555 28.28 28.28 0 0 1-7.906 1.046 27.765 27.765 0 0 1-7.857-1.046 22.806 22.806 0 0 1-6.994-3.55c-2.302-1.676-4.117-4.212-5.447-7.607Zm8.577-26.25c-2.447 2.91-3.671 7.545-3.671 13.903 0 6.36 1.224 10.99 3.671 13.894 2.45 2.913 6.372 4.369 11.765 4.369 5.393 0 9.324-1.441 11.792-4.324 2.463-2.883 3.695-7.534 3.698-13.952.003-6.418-1.23-11.069-3.698-13.952-2.465-2.883-6.396-4.324-11.792-4.324s-9.317 1.462-11.765 4.387Zm45.044 37.715V43.072a44.583 44.583 0 0 1 20.123-4.65c5.977 0 10.614 1.518 13.911 4.556 3.297 3.038 4.946 7.317 4.946 12.838v30.971h-6.882v-30.97a13.862 13.862 0 0 0-.416-3.578 11.34 11.34 0 0 0-1.623-3.327c-.805-1.178-2.105-2.084-3.9-2.719a20.592 20.592 0 0 0-6.779-.952 44.337 44.337 0 0 0-12.485 1.904V86.77l-6.895.017Z"/>
</svg>
