<svg viewBox="2 217.3 496 65.4" xmlns="http://www.w3.org/2000/svg">
  <path fill-rule="evenodd" d="M115.5 226.9v2.3H98.8v52h-5.9v-52H76.1v-2.3h39.4zm37.6-9.6v2.1h-29.5v-2.1h29.5zm0 9.6v2.3h-23.6v21.5h21.7v2.2h-21.7v26h23.9v2.5h-29.8V227l29.5-.1zm40.6 0v2.3h-23.6v21.5h21.7v2.2h-21.7v26H194v2.5h-29.8V227l29.5-.1zm-162.3 0v2.3H7.8v21.5h21.7v2.2H7.8v26h23.9v2.5H2V227l29.4-.1zm416.4 0v2.3h-23.6v21.5H446v2.2h-21.7v26h23.9v2.5h-29.8V227l29.4-.1zm-216.3 0v51.9s22.7-.1 23.7-.1v2.6h-29.5v-54.4h5.8zm-162.6 41c.1-7.3-6.4-9.6-13.3-12-7.8-2.7-15.8-5.6-15.8-15.8.1-9.4 8.9-14.4 17.1-14.3 4.8.1 9.5 1.3 13.8 3.6v3.6c-3.7-3.3-8.5-5.1-13.5-5.2-7-.1-12.4 4.4-12.4 10.4-.1 7.2 6.6 9.6 13.6 12.1 7.8 2.8 15.8 5.6 15.7 15.3C74 277 63.9 282.8 54 282.7c-5.1 0-10.1-1.3-14.5-3.8v-3.7c4.2 3.2 9.2 5 14.4 5.2 9.6.1 14.9-6.3 15-12.5zm216.3-41.5 8.5 21.2s11.5 28.8 13.4 33.6h-6.7c-.3-.7-8.1-21.1-8.1-21.1h-21.8s-7.7 20.4-8 21.1H259l21.5-54.9h4.7v.1zm-4.2 6.2c-3.6 9.9-8.3 22.1-9.2 24.6l-.3.8h20.1l-2.8-7.5-7.2-19.2-.6 1.3zm71.6-5.7v36.9c0 11.6-7.6 18.6-20.2 18.6-13.3 0-20.3-6.6-20.3-19v-36.6h5.8v38c0 9.8 5.7 15.6 15.3 15.6 10.1 0 16.4-6.4 16.4-16.7v-36.9l3 .1zm124.7 0c6.2-.1 11.2 1.5 14.2 4.7 2.2 2.4 3.4 5.7 3.3 9 0 10.6-12.3 13.3-12.9 13.4l-.7.2s15.9 25.6 16.8 27.2h-6.4l-15.9-26.5h-10.8v26.5H459V227l18.3-.1zm-.6 2.1h-11.9v23.8h8.6c5.7.1 10.1-1.4 12.8-4.2 2-2.2 3-5.1 2.9-8 .2-3-.9-6-2.9-8.3-1.3-1.2-2.8-2.1-4.4-2.7-1.6-.5-3.4-.7-5.1-.6zm-93.3-2.1c8-.1 14.5 2.2 18.9 6.8 4.3 4.5 6.6 11.4 6.6 19.7 0 8.6-2.3 15.3-6.8 20.1-4.9 5.2-12.3 7.9-21.4 7.7h-16.8v-54.4l19.5.1zm-1 2.1h-12.6v50.1h9.7c7.9.1 13.7-1.9 17.6-6 3.9-4.1 5.8-10.4 5.8-18.8 0-8.9-2.1-15.6-6.2-19.9-1.9-1.9-4.1-3.3-6.6-4.3-2.4-.8-5-1.2-7.7-1.1z" clip-rule="evenodd"/>
</svg>
