<svg xml:space="preserve" id="fitbit_svg__Layer_1" x="0" y="0" style="enable-background:new 0 0 113.3 29.5" version="1.1" viewBox="0 0 113.3 29.5" xmlns="http://www.w3.org/2000/svg">
  <style>
    .fitbit_svg__st1{fill:#002a3a}
  </style>
  <path d="M16.4 2.2c0 1.2-1 2.2-2.2 2.2S12 3.4 12 2.2 13 0 14.2 0s2.2 1 2.2 2.2zm-2.2 4c-1.3 0-2.3 1-2.3 2.3s1 2.3 2.3 2.3 2.3-1 2.3-2.3-1-2.3-2.3-2.3zm0 6.2c-1.3 0-2.4 1.1-2.4 2.4s1.1 2.4 2.4 2.4 2.4-1.1 2.4-2.4-1.1-2.4-2.4-2.4zm0 6.3c-1.3 0-2.3 1-2.3 2.3 0 1.3 1 2.3 2.3 2.3s2.3-1 2.3-2.3c0-1.2-1-2.3-2.3-2.3zm0 6.4c-1.2 0-2.2 1-2.2 2.2 0 1.2 1 2.2 2.2 2.2s2.2-1 2.2-2.2c0-1.2-1-2.2-2.2-2.2zm6.1-19.2c-1.4 0-2.6 1.2-2.6 2.6s1.2 2.6 2.6 2.6 2.6-1.2 2.6-2.6-1.2-2.6-2.6-2.6zm0 6.2c-1.5 0-2.7 1.2-2.7 2.7 0 1.5 1.2 2.7 2.7 2.7s2.7-1.2 2.7-2.7c0-1.5-1.2-2.7-2.7-2.7zm0 6.3c-1.4 0-2.6 1.2-2.6 2.6 0 1.4 1.2 2.6 2.6 2.6s2.6-1.2 2.6-2.6c0-1.4-1.2-2.6-2.6-2.6zm6.3-6.6c-1.6 0-3 1.3-3 3 0 1.6 1.3 3 3 3s3-1.3 3-3c-.1-1.7-1.4-3-3-3zM8 6.5c-1.1 0-2 .9-2 2s.9 2 2 2 2-.9 2-2-.9-2-2-2zm0 6.2c-1.2 0-2.1.9-2.1 2.1 0 1.2.9 2.1 2.1 2.1s2.1-.9 2.1-2.1c0-1.2-.9-2.1-2.1-2.1zM8 19c-1.1 0-2 .9-2 2s.9 2 2 2 2-.9 2-2-.9-2-2-2zm-6.2-6c-1 0-1.8.8-1.8 1.8s.8 1.8 1.8 1.8 1.8-.8 1.8-1.8S2.8 13 1.8 13z" style="fill:#00b0b9"/>
  <path d="M52.2 10.9c-.2 0-.4.2-.4.4V27c0 .2.2.4.4.4h1.9c.2 0 .4-.2.4-.4V11.3c0-.2-.2-.4-.4-.4h-1.9z" class="fitbit_svg__st1"/>
  <path d="M53.2 4.3c-1 0-1.8.8-1.8 1.8s.8 1.8 1.8 1.8S55 7.1 55 6.1s-.8-1.8-1.8-1.8z" class="fitbit_svg__st1"/>
  <path d="M92.5 10.9c-.2 0-.4.2-.4.4V27c0 .2.2.4.4.4h1.9c.2 0 .4-.2.4-.4V11.3c0-.2-.2-.4-.4-.4h-1.9z" class="fitbit_svg__st1"/>
  <path d="M93.4 4.3c-1 0-1.8.8-1.8 1.8s.8 1.8 1.8 1.8 1.8-.8 1.8-1.8-.8-1.8-1.8-1.8z" class="fitbit_svg__st1"/>
  <path d="M112.4 25.9c.1-.1.1-.2.1-.3v-.1s0-.1-.1-.1c0 0-.1-.1-.2-.1h-.7v1.4h.2v-.5h.3l.4.5h.2l-.5-.6c.2 0 .3-.1.3-.2zm-.7.1v-.5h.4c.1 0 .2 0 .3.1.1 0 .1.1.1.2s0 .2-.1.2-.2.1-.3.1h-.4z" class="fitbit_svg__st1"/>
  <path d="M112 24.7c-.7 0-1.3.6-1.3 1.3 0 .7.6 1.3 1.3 1.3s1.3-.6 1.3-1.3c0-.7-.6-1.3-1.3-1.3zm0 2.5c-.7 0-1.2-.5-1.2-1.2s.5-1.2 1.2-1.2 1.2.5 1.2 1.2-.6 1.2-1.2 1.2z" class="fitbit_svg__st1"/>
  <path d="M67.8 13.5c.2 0 .4-.2.4-.4v-1.9c0-.2-.2-.4-.4-.4h-4v-6c0-.2-.2-.4-.4-.4h-1.9c-.2 0-.4.2-.4.4v6h-2c-.2 0-.4.2-.4.4v1.9c0 .2.2.4.4.4h2v9.1c0 2.8 1.9 4.6 4.6 4.6h2c.2 0 .4-.2.4-.4v-1.9c0-.2-.2-.4-.4-.4H66c-1.3 0-2.2-.9-2.2-2.3v-8.8h4z" class="fitbit_svg__st1"/>
  <path d="M107.6 13.5c.2 0 .4-.2.4-.4v-1.9c0-.2-.2-.4-.4-.4h-4v-6c0-.2-.2-.4-.4-.4h-1.9c-.2 0-.4.2-.4.4v6h-2c-.2 0-.4.2-.4.4v1.9c0 .2.2.4.4.4h2v9.1c0 2.8 1.9 4.6 4.6 4.6h2c.2 0 .4-.2.4-.4v-1.9c0-.2-.2-.4-.4-.4h-1.8c-1.3 0-2.2-.9-2.2-2.3v-8.8h4.1z" class="fitbit_svg__st1"/>
  <path d="M40.3 13.5v13.4c0 .2.2.4.4.4h1.9c.2 0 .4-.2.4-.4V13.5h4.4c.2 0 .4-.2.4-.4v-1.9c0-.2-.2-.4-.4-.4H43V7.3c0-1.4 1-2.4 2.2-2.4h2.2c.2 0 .4-.2.4-.4V2.6c0-.2-.2-.4-.4-.4h-2.1c-2.8 0-5 2.3-5 5v3.6h-2c-.2 0-.4.2-.4.4v1.9c0 .2.2.4.4.4h2z" class="fitbit_svg__st1"/>
  <path d="M86.1 12.8c-1.5-1.6-3.6-2.5-5.8-2.5-2.1 0-4.2.9-5.5 2.2v-10c0-.2-.2-.4-.4-.4h-1.9c-.2 0-.4.2-.4.4V19c0 6.1 4.1 8.8 8.1 8.8s8.1-2.7 8.1-8.8c.1-2.4-.7-4.6-2.2-6.2zm-5.8 12.5c-4 0-5.5-3.2-5.5-6.2 0-3.7 2.2-6.1 5.5-6.1s5.5 2.5 5.5 6.1c-.1 3-1.5 6.2-5.5 6.2z" class="fitbit_svg__st1"/>
</svg>
