<svg preserveAspectRatio="xMidYMid" viewBox="0 0 256 267" xmlns="http://www.w3.org/2000/svg">
  <path fill="#FFCA20" d="m237.3 115.092-88.81-88.8h88.81z" opacity=".7"/>
  <path fill="#FFCA20" d="M86.287 0h50.345l38.476 38.466h-88.82z" opacity=".7"/>
  <path fill="#FFCF39" d="M89.17 88.821.359 0h106.782v88.81l-17.971.011Zm78.02 88.8L256 266.432h-88.81v-88.81Z" opacity=".9"/>
  <path fill="#FFE490" d="m107.14 177.632-88.8-88.821h88.811v88.81l-.01.011Zm95.643-44.95-70.797-70.839h70.829l-.032 70.84Zm8.278 125.483-80.543-80.533h80.543v80.533Z" opacity=".7"/>
  <path fill="#FCBC7C" d="M107.14 70.744 36.397 0h70.745z" opacity=".9"/>
  <path fill="#F9A040" d="m130.877 177.621 88.811 88.811h-88.81z" opacity=".8"/>
  <path fill="#F9A040" d="m220.765 213.078-88.695-88.694h88.695z" opacity=".7"/>
  <path fill="#FFCF39" d="m131.986 61.843 87.734 87.734h-87.734z" opacity=".9"/>
  <path fill="#FFC737" d="M107.14 266.084 0 158.922h107.14z" opacity=".7"/>
</svg>
