<svg fill="none" viewBox="0 0 449 107" xmlns="http://www.w3.org/2000/svg">
  <g fill="#111827" clip-path="url(#formance_svg__a)">
    <path fill-rule="evenodd" d="M.966 85.893c0 3.06 2.463 5.54 5.502 5.54h17.246c3.039 0 5.502-2.48 5.502-5.54V68.201a2.616 2.616 0 0 1 2.607-2.625h10.284c3.039 0 5.502-2.48 5.502-5.54V39.72h7.175c3.04 0 5.502-2.481 5.502-5.54V16.486c0-3.06-2.463-5.54-5.502-5.54H6.468c-3.039 0-5.502 2.48-5.502 5.54v69.406ZM44.713 39.72h-24.52c-3.04 0-5.503-2.481-5.503-5.54v-4.765c0-3.06 2.464-5.54 5.503-5.54h21.914c3.039 0 5.502 2.48 5.502 5.54v7.389h7.175a2.616 2.616 0 0 0 2.607-2.625V16.487a2.615 2.615 0 0 0-2.607-2.624H6.468a2.615 2.615 0 0 0-2.606 2.624v69.406a2.615 2.615 0 0 0 2.606 2.624h17.246a2.615 2.615 0 0 0 2.606-2.624V68.201c0-3.06 2.464-5.54 5.503-5.54h10.284a2.615 2.615 0 0 0 2.606-2.625V39.72Zm0-2.916v-7.389a2.615 2.615 0 0 0-2.606-2.624H20.193a2.615 2.615 0 0 0-2.607 2.624v4.764a2.616 2.616 0 0 0 2.607 2.625h24.52Z" clip-rule="evenodd"/>
    <path d="M117.853 28.583v11.043H97.891v8.778h14.724v10.548H97.891V78.49H84.016V28.583h33.837Zm23.612 50.402c-3.964 0-7.528-.826-10.689-2.477-3.115-1.652-5.569-4.012-7.363-7.08-1.793-3.067-2.689-6.677-2.689-10.83 0-4.106.896-7.692 2.689-10.76 1.841-3.068 4.319-5.427 7.433-7.079 3.162-1.652 6.725-2.478 10.69-2.478 3.964 0 7.503.826 10.618 2.478 3.162 1.652 5.639 4.011 7.433 7.079 1.84 3.068 2.761 6.654 2.761 10.76s-.921 7.716-2.761 10.83c-1.794 3.068-4.271 5.428-7.433 7.08-3.162 1.651-6.725 2.477-10.689 2.477Zm0-12.034c1.935 0 3.539-.708 4.813-2.124 1.322-1.463 1.983-3.539 1.983-6.229s-.661-4.743-1.983-6.159c-1.274-1.416-2.855-2.123-4.742-2.123-1.888 0-3.469.707-4.743 2.123-1.275 1.416-1.912 3.469-1.912 6.159 0 2.737.614 4.814 1.841 6.23 1.227 1.415 2.808 2.123 4.743 2.123Zm39.694-21.166c1.558-2.265 3.445-4.058 5.663-5.38 2.218-1.321 4.602-1.982 7.15-1.982v14.795h-3.893c-3.021 0-5.262.59-6.725 1.77-1.463 1.18-2.195 3.232-2.195 6.158V78.49h-13.874V38.777h13.874v7.008Zm68.968-7.362c5.002 0 8.919 1.51 11.751 4.53 2.879 3.02 4.318 7.15 4.318 12.389V78.49h-13.875V57.182c0-2.123-.59-3.775-1.769-4.955-1.18-1.18-2.785-1.77-4.814-1.77s-3.634.59-4.814 1.77c-1.18 1.18-1.77 2.832-1.77 4.955V78.49H225.28V57.182c0-2.123-.59-3.775-1.77-4.955-1.133-1.18-2.714-1.77-4.743-1.77-2.076 0-3.704.59-4.884 1.77-1.18 1.18-1.77 2.832-1.77 4.955V78.49h-13.875V38.777h13.875v5.238c1.227-1.699 2.808-3.044 4.743-4.035 1.982-1.038 4.247-1.557 6.796-1.557 2.926 0 5.521.637 7.786 1.911 2.313 1.274 4.13 3.068 5.451 5.38 1.416-2.17 3.28-3.917 5.593-5.238 2.312-1.369 4.86-2.053 7.645-2.053Zm20.697 20.175c0-4.106.732-7.692 2.195-10.76 1.51-3.068 3.539-5.427 6.088-7.079 2.595-1.652 5.474-2.478 8.636-2.478 2.737 0 5.097.543 7.079 1.629 1.982 1.085 3.516 2.548 4.601 4.389v-5.522h13.875V78.49h-13.875v-5.522c-1.085 1.84-2.643 3.304-4.672 4.39-1.982 1.085-4.318 1.627-7.008 1.627-3.162 0-6.041-.826-8.636-2.477-2.549-1.652-4.578-4.012-6.088-7.08-1.463-3.114-2.195-6.724-2.195-10.83Zm28.599 0c0-2.548-.708-4.554-2.123-6.017-1.369-1.463-3.068-2.195-5.097-2.195-2.077 0-3.799.732-5.168 2.195-1.368 1.416-2.053 3.421-2.053 6.017 0 2.548.685 4.578 2.053 6.088 1.369 1.463 3.091 2.194 5.168 2.194 2.029 0 3.728-.731 5.097-2.194 1.415-1.463 2.123-3.492 2.123-6.088Zm47.053-20.175c4.578 0 8.212 1.534 10.902 4.601 2.689 3.02 4.034 7.126 4.034 12.318V78.49h-13.874V57.182c0-2.265-.59-4.035-1.77-5.309-1.18-1.321-2.761-1.982-4.743-1.982-2.076 0-3.704.66-4.884 1.982-1.18 1.274-1.77 3.044-1.77 5.31V78.49h-13.875V38.777h13.875v5.663c1.227-1.793 2.879-3.233 4.955-4.318 2.077-1.133 4.46-1.699 7.15-1.699Zm19.577 20.175c0-4.106.849-7.692 2.548-10.76 1.699-3.068 4.059-5.427 7.079-7.079 3.067-1.652 6.56-2.478 10.477-2.478 5.049 0 9.297 1.393 12.742 4.177 3.445 2.737 5.663 6.583 6.654 11.539h-14.724c-.85-2.596-2.501-3.894-4.955-3.894-1.747 0-3.139.732-4.177 2.195-.991 1.416-1.487 3.516-1.487 6.3s.496 4.908 1.487 6.371c1.038 1.463 2.43 2.195 4.177 2.195 2.501 0 4.152-1.298 4.955-3.894h14.724c-.991 4.908-3.209 8.754-6.654 11.539-3.445 2.784-7.693 4.176-12.742 4.176-3.917 0-7.41-.826-10.477-2.477-3.02-1.652-5.38-4.012-7.079-7.08-1.699-3.067-2.548-6.677-2.548-10.83Zm82.499-.425c0 1.086-.071 2.171-.213 3.256h-26.262c.141 2.171.731 3.8 1.769 4.885 1.086 1.038 2.454 1.557 4.106 1.557 2.313 0 3.964-1.038 4.955-3.114h14.795a17.369 17.369 0 0 1-3.61 7.362c-1.746 2.123-3.964 3.799-6.654 5.026-2.69 1.227-5.663 1.84-8.919 1.84-3.918 0-7.41-.826-10.477-2.477-3.021-1.652-5.404-4.012-7.15-7.08-1.699-3.067-2.548-6.677-2.548-10.83 0-4.153.849-7.74 2.548-10.76 1.699-3.068 4.059-5.427 7.079-7.079 3.067-1.652 6.583-2.478 10.548-2.478 3.917 0 7.385.803 10.406 2.407 3.02 1.605 5.38 3.917 7.078 6.938 1.699 2.973 2.549 6.489 2.549 10.547Zm-14.158-3.468c0-1.7-.566-3.02-1.699-3.965-1.133-.99-2.548-1.486-4.247-1.486-1.699 0-3.091.472-4.177 1.416-1.085.896-1.793 2.241-2.124 4.035h12.247Z"/>
  </g>
  <defs>
    <clipPath id="formance_svg__a">
      <path fill="#fff" d="M.653.49h447.694v106.184H.653z"/>
    </clipPath>
  </defs>
</svg>
