<svg xml:space="preserve" style="enable-background:new 0 0 383.7 111.5" viewBox="0 0 383.7 111.5" xmlns="http://www.w3.org/2000/svg">
  <path d="m355.7 26.4-10.4 13.9h-.3l-10.4-13.9h-8.1L342 46.1v14.4h6.4V46.1l15.5-19.7h-8.2zm-46 13.9h-18.5V26.4h-6.4v34.1h6.4V46.3h18.5v14.2h6.4V26.4h-6.4v13.9zM220 26.4h-6v23.3h-.2l-20.7-23.3h-5.6v34.1h5.9V37.1h.1l20.9 23.4h5.4l.2-34.1zm-49.4 28.2h-21.2v-8.3h15.2v-5.9h-15.2v-8.1h21.2v-5.8H143v34.1h27.6v-6zM111 52h-.2l-10.2-25.6h-7.4l15 34.1h5.3l15-34.1h-7.4L111 52zm-38.6 8.5h6.4V26.4h-6.4v34.1zM36.8 47.9h10.9v5.9c-1.5.5-4.2 1.2-8.6 1.2C31.3 55 27 51.1 27 43.4c0-7.7 4.3-11.6 12.1-11.6 7.9 0 12 2.5 14.3 4.3v-6.8c-2.5-2.1-8.2-3.6-14.3-3.6-9.1 0-19.3 3.7-19.3 17.7S30 61.1 39.1 61.1c5.5 0 11.3-1.3 14.9-3.6V41.9H36.8v6zm198.4-4.5c0 14 10.2 17.7 19.3 17.7 6.1 0 11.7-1.5 14.3-3.6v-6.8c-2.3 1.9-6.3 4.3-14.3 4.3-7.8 0-12.1-3.9-12.1-11.6 0-7.7 4.3-11.6 12.1-11.6 7.9 0 12 2.5 14.3 4.3v-6.8c-2.5-2.1-8.2-3.6-14.3-3.6-9.1 0-19.3 3.8-19.3 17.7zM158.8 73h-5.3v16.4h2.1v-6.7h3.3c2.5 0 5.6-.8 5.6-5 .1-4.3-3.7-4.7-5.7-4.7zm.2 8h-3.3v-6.3h3.3c1.5 0 3.5.6 3.5 3.2 0 2.1-1.4 3.1-3.5 3.1zm16-8-6.4 16.4h2.2l1.6-4.4h7.6l1.6 4.4h2.3L177.7 73H175zm-1.9 10.3 2.2-5.7c.3-.9.7-1.9 1-2.8.3.9.6 1.9 1 2.8l2.2 5.7h-6.4zm28.1-5.9c0-3-2.2-4.4-5.1-4.4h-5.7v16.4h2.1V82h3.6l3.4 7.4h2.6l-4-7.8c.9-.3 3.1-1.1 3.1-4.2zm-5.2 2.8h-3.4v-5.6h3.1c1 0 3.3.1 3.3 2.9.1 1.3-.6 2.7-3 2.7zm12.9 9.2h2.1V73h-2.1v16.4zm17.3-8.6-3-1.3c-1.1-.5-2.2-1-2.2-2.6 0-1.5.9-2.6 2.9-2.6 1.2 0 2.6.4 3 2l2.1-.7c-.8-2.2-2.7-3-5.1-3-2.4 0-5.2 1.3-5.2 4.5 0 1.7.9 2.9 2.5 3.6l4 1.8c.6.3 1.7.8 1.7 2.6 0 1.4-1.1 2.9-3.2 2.9-2.2 0-3.1-1.4-3.4-2.5l-2.1.8c.3 1.2 1.7 3.5 5.3 3.5 4.7 0 5.7-3.1 5.7-4.6 0-2.9-2-3.9-3-4.4z"/>
</svg>
