<svg preserveAspectRatio="xMidYMid" viewBox="0 0 512 114" xmlns="http://www.w3.org/2000/svg">
  <defs>
    <linearGradient id="glamorous_svg__a" x1="26.433%" x2="107.898%" y1="57.179%" y2="57.179%">
      <stop offset="0%" stop-color="#F87880"/>
      <stop offset="100%" stop-color="#EA4964"/>
    </linearGradient>
  </defs>
  <path fill="url(#glamorous_svg__a)" d="M466.504 86.251c-1.248 3.442-3.093 5.971-5.536 7.589-2.464 1.632-5.28 2.448-8.449 2.448-4.352 0-7.28-1.28-8.785-3.84-.768-1.312-1.152-2.897-1.152-4.753 0-1.568.256-3.296.768-5.185l2.208-8.449c-2.496 5.985-4.896 10.586-7.2 13.802-2.305 3.217-4.65 5.425-7.034 6.625-2.384 1.2-5.128 1.8-8.233 1.8-2.976 0-5.256-.696-6.84-2.088-1.585-1.392-2.377-3.432-2.377-6.12 0-1.857.416-4.081 1.248-6.674l9.553-29.188c.32-.96.48-1.744.48-2.352 0-1.184-.56-1.776-1.68-1.776-1.92 0-3.648 2.064-5.184 6.193l-2.065 5.52h-1.685c-.086 5.352-1.364 10.792-3.836 16.323-2.56 5.728-6.425 10.52-11.594 14.377-5.168 3.857-11.433 5.785-18.794 5.785-5.697 0-10.042-1.44-13.034-4.32-2.992-2.88-4.489-7.01-4.489-12.386 0-5.569 1.28-11.218 3.84-16.946a37.97 37.97 0 0 1 1.058-2.174 11.373 11.373 0 0 1-2.426 2.174c-1.68 1.12-3.576 1.68-5.689 1.68-2.4 0-4.232-.624-5.496-1.872-1.265-1.249-1.897-3.089-1.897-5.521 0-1.888.488-3.697 1.464-5.425a13.756 13.756 0 0 1 3.937-4.392c1.648-1.2 3.432-1.977 5.353-2.329-.672-.224-1.136-.336-1.392-.336-2.113 0-4.009.424-5.69 1.272-1.68.849-3.56 2.937-5.64 6.265-2.08 3.329-4.24 8.433-6.48 15.314l-7.25 27.604H319.06l12.001-42.678c.288-1.056.432-1.904.432-2.544 0-1.056-.432-1.584-1.296-1.584-1.024 0-1.968.464-2.832 1.392-.864.928-1.728 2.528-2.592 4.8l-2.257 6.001h-1.552c-.152 5.197-1.427 10.478-3.825 15.843-2.56 5.728-6.425 10.52-11.594 14.377-5.168 3.857-11.433 5.785-18.794 5.785-5.697 0-10.042-1.44-13.034-4.32-2.992-2.88-4.489-7.01-4.489-12.386 0-5.569 1.28-11.218 3.84-16.946 2.561-5.73 6.418-10.522 11.57-14.378 5.153-3.857 11.426-5.785 18.819-5.785 5.697 0 10.041 1.44 13.034 4.32 2.992 2.88 4.488 7.025 4.488 12.434v.116l2.401-6.74c2.465-6.754 7.345-10.13 14.642-10.13 3.233 0 5.561.872 6.985 2.616 1.425 1.745 2.137 3.993 2.137 6.745 0 .384-.032.992-.096 1.824 1.28-2.784 2.616-4.992 4.008-6.624 1.392-1.633 2.897-2.8 4.513-3.505 1.616-.704 3.48-1.056 5.593-1.056 1.984 0 3.688.416 5.112 1.248a8.327 8.327 0 0 1 3.265 3.433c.752 1.456 1.128 3.08 1.128 4.872 0 1.808-.331 3.516-.993 5.124 2.275-3.374 5.118-6.339 8.53-8.892 5.153-3.857 11.426-5.785 18.82-5.785 5.696 0 10.04 1.44 13.033 4.32 2.992 2.88 4.488 7.025 4.488 12.434v.014l2.257-6.639c2.369-6.753 7.057-10.129 14.066-10.129 3.297 0 5.85.776 7.657 2.328 1.809 1.552 2.713 3.865 2.713 6.937 0 2.273-.48 4.833-1.44 7.681l-8.45 25.444c-.544 1.728-.816 3.008-.816 3.84 0 .992.336 1.488 1.008 1.488 1.6 0 3.633-2 6.097-6 2.465-4.001 5.009-9.194 7.633-15.579a198.434 198.434 0 0 0 6.913-19.754l1.296-4.993c7.233-.096 13.17-.56 17.81-1.392l-12.385 44.07c-.416 1.344-.624 2.288-.624 2.832 0 .864.496 1.296 1.488 1.296 1.024 0 1.969-.464 2.833-1.392.864-.928 1.728-2.528 2.592-4.8l1.5-3.992a9.665 9.665 0 0 1 .677-1.799l.08-.21h.029c.19-.36.405-.704.643-1.032 1.216-1.68 2.832-2.52 4.849-2.52 1.92 0 3.464.791 4.632 2.376 1.169 1.584 1.753 3.672 1.753 6.265 0 1.28-.152 2.536-.456 3.768a25.737 25.737 0 0 1-1.105 3.456 47.982 47.982 0 0 1-1.176 2.713c.992.48 2.144.72 3.457.72 2.048 0 3.736-.68 5.064-2.04 1.329-1.36 1.993-3.177 1.993-5.45 0-2.047-.488-4.248-1.465-6.6-.976-2.352-2.392-5.033-4.248-8.041-1.536-2.496-2.648-4.369-3.337-5.617-.688-1.248-1.28-2.656-1.776-4.224a16.138 16.138 0 0 1-.744-4.897c0-2.848.728-5.393 2.184-7.633 1.457-2.24 3.649-4.009 6.577-5.305 2.929-1.296 6.521-1.944 10.778-1.944 4.832 0 8.857.864 12.073 2.592 3.217 1.729 4.825 4.64 4.825 8.737 0 1.409-.272 2.785-.816 4.129-.544 1.344-1.336 2.448-2.376 3.312-1.04.865-2.297 1.297-3.769 1.297-1.952 0-3.488-.76-4.609-2.28-1.12-1.52-1.68-3.513-1.68-5.977 0-1.92.32-3.72.96-5.401.64-1.68 1.36-2.953 2.16-3.817-.575-.288-1.392-.432-2.448-.432-2.304 0-4.04.672-5.208 2.017-1.169 1.344-1.753 3.296-1.753 5.856 0 1.6.352 3.185 1.056 4.753a42.164 42.164 0 0 0 2.545 4.777c.992 1.616 1.728 2.84 2.208 3.672 2.176 3.713 3.697 6.721 4.56 9.025.865 2.305 1.297 4.56 1.297 6.77 0 2.752-.752 5.248-2.256 7.488-1.505 2.24-3.737 4.017-6.697 5.329-2.96 1.312-6.521 1.968-10.682 1.968-5.28 0-9.633-.976-13.057-2.928-2.739-1.561-4.382-3.93-4.931-7.109Zm-333.302-7.293c.65-4.568 2.178-9.216 4.583-13.946 3.297-6.48 7.425-11.858 12.386-16.13 4.96-4.273 9.697-6.409 14.21-6.409 3.712 0 5.76 1.888 6.145 5.665l1.248-4.177c6.497-.096 12.417-.592 17.762-1.488l-13.25 44.07c-.288.864-.432 1.664-.432 2.4 0 1.152.528 1.728 1.585 1.728 1.952 0 3.696-2.064 5.232-6.192l2.065-5.521h1.872l-2.449 7.2c-2.368 6.754-7.056 10.13-14.065 10.13-4.033 0-6.881-1.152-8.546-3.456-1.088-1.536-1.632-3.553-1.632-6.049 0-.736.016-1.312.048-1.728-1.568 4.064-3.6 6.953-6.097 8.665-2.496 1.712-5.44 2.568-8.833 2.568-4.064 0-7.113-1.048-9.145-3.144-2.032-2.096-3.048-5.145-3.048-9.145 0-.33.004-.66.014-.99l-1.071 3.15c-1.312 3.808-3.249 6.449-5.81 7.92-2.56 1.473-5.28 2.21-8.16 2.21-3.265 0-5.809-.849-7.633-2.545-1.824-1.696-2.737-4.177-2.737-7.441 0-2.016.384-4.337 1.153-6.961l15.026-50.023c.32-1.184.48-2.096.48-2.736 0-1.312-.512-2.265-1.537-2.857-1.024-.592-2.736-.888-5.136-.888l.672-2.064c5.217-.032 9.905-.384 14.066-1.056a81.838 81.838 0 0 0 12.29-2.977l-20.74 69.802c-.191.704-.287 1.312-.287 1.824 0 .8.184 1.384.552 1.752.368.368.808.552 1.32.552.64 0 1.4-.408 2.28-1.224.88-.816 1.784-2.472 2.712-4.968l2.065-5.521h.842ZM66.35 91.488c-1.184-1.153-1.776-2.545-1.776-4.177 0-1.824.808-3.496 2.424-5.017 1.616-1.52 3.737-2.92 6.361-4.2 2.624-1.28 6.097-2.785 10.418-4.513-4.897-.096-8.826-1.08-11.786-2.952-2.96-1.872-4.44-4.665-4.44-8.377 0-3.2 1.12-6.313 3.36-9.338 2.24-3.024 5.424-5.504 9.553-7.44 4.129-1.937 8.897-2.905 14.306-2.905 1.536 0 2.992.08 4.369.24 1.536-3.296 2.992-6.049 4.368-8.257 1.376-2.208 2.865-3.953 4.465-5.233 1.856-1.504 3.92-2.256 6.193-2.256 2.208 0 3.968.584 5.28 1.752 1.313 1.168 1.969 2.84 1.969 5.017 0 1.696-.408 3.336-1.225 4.92-.816 1.585-1.936 2.865-3.36 3.841s-2.968 1.464-4.633 1.464c-1.792 0-3.224-.528-4.296-1.584s-1.608-2.4-1.608-4.033c0-1.312.4-2.664 1.2-4.056.8-1.392 1.968-2.713 3.504-3.96-.32-.16-.592-.24-.816-.24-.608 0-1.152.271-1.632.815-1.056.96-2.312 2.593-3.769 4.897a49.731 49.731 0 0 0-3.768 7.201c3.328.64 5.937 1.848 7.825 3.625 1.888 1.776 2.832 4.136 2.832 7.08 0 3.009-.968 5.937-2.904 8.786-1.936 2.848-4.697 5.256-8.281 7.225-3.585 1.968-7.73 3.176-12.434 3.624-5.409 1.92-8.113 3.665-8.113 5.233 0 .512.272.936.816 1.272.544.336 1.424.728 2.64 1.176l8.93 3.36c7.457 2.785 11.185 6.626 11.185 11.522 0 3.905-1.64 7.161-4.92 9.77-3.28 2.608-7.29 4.528-12.026 5.76-4.737 1.232-9.281 1.849-13.634 1.849-4.065 0-7.561-.32-10.49-.96-2.928-.64-5.168-1.545-6.72-2.713-1.553-1.168-2.329-2.536-2.329-4.104 0-2.337 1.08-4.025 3.24-5.065 2.161-1.04 5.314-2.008 9.458-2.905 4.145-.896 7.033-1.664 8.665-2.304l-3.888-1.2c-1.824-.608-3.329-1.488-4.513-2.64Zm202.83-12.53-2.497 7.2c-2.304 6.754-6.993 10.13-14.066 10.13-4.384 0-7.425-1.376-9.12-4.128-.865-1.473-1.297-3.2-1.297-5.185 0-2.208.496-4.753 1.488-7.633l8.45-25.443c.48-1.409.72-2.465.72-3.169 0-.768-.273-1.152-.817-1.152-1.28 0-2.8.984-4.56 2.952-1.76 1.969-3.76 5.297-6.001 9.986-2.24 4.688-4.545 10.841-6.913 18.458l-4.033 13.922h-17.522l11.81-40.997c.512-1.76.768-2.88.768-3.361 0-.64-.32-.96-.96-.96-2.337 0-4.953 2.64-7.85 7.921-2.896 5.28-5.912 12.674-9.049 22.179l-3.936 15.218h-17.427l12.002-42.678c.288-1.056.432-1.872.432-2.448 0-1.12-.512-1.68-1.536-1.68-1.888 0-3.617 2.064-5.185 6.193l-2.256 6h-1.872l2.736-7.68c1.28-3.49 3.16-6.05 5.64-7.682 2.481-1.632 5.322-2.448 8.522-2.448 3.392 0 5.84.824 7.345 2.472 1.504 1.649 2.256 3.817 2.256 6.505 0 1.472-.208 3.073-.624 4.8l-1.104 4.321c1.856-4.288 3.817-7.76 5.88-10.417 2.065-2.656 4.337-4.6 6.818-5.833 2.48-1.232 5.288-1.848 8.425-1.848 5.76 0 8.641 2.608 8.641 7.825 0 2.016-.384 4.369-1.152 7.057l-.528 1.776c1.984-4.256 4.048-7.609 6.193-10.057 2.144-2.448 4.352-4.16 6.625-5.137 2.272-.976 4.768-1.464 7.489-1.464 5.888 0 8.833 2.576 8.833 7.729 0 2.048-.464 4.433-1.392 7.153l-9.698 29.188c-.32.96-.48 1.744-.48 2.352 0 1.184.544 1.776 1.632 1.776 1.953 0 3.697-2.064 5.233-6.192l2.064-5.521h1.873Zm-197.045 24.1c-.848 2.271-1.272 4.208-1.272 5.808 0 1.024.272 1.752.816 2.184.544.432 1.36.648 2.448.648 2.305 0 4.697-.376 7.177-1.128 2.48-.752 4.545-1.816 6.193-3.192 1.648-1.376 2.472-2.945 2.472-4.705 0-.864-.256-1.56-.768-2.088a4.859 4.859 0 0 0-1.776-1.176c-.672-.256-1.728-.608-3.168-1.056l-8.018-2.545c-1.888 2.56-3.256 4.977-4.104 7.25Zm97.479-53c0-1.824-.625-2.736-1.873-2.736-1.856 0-4.104 1.896-6.745 5.688-2.64 3.793-4.912 8.57-6.817 14.33-1.904 5.761-2.856 11.442-2.856 17.043 0 1.92.16 3.264.48 4.032.32.768.912 1.152 1.776 1.152 1.28 0 2.577-.92 3.889-2.76 1.312-1.84 2.768-5.129 4.368-9.865l7.681-25.444c.065-.64.097-1.12.097-1.44Zm-78.829 18.65c1.313-2.064 2.345-4.744 3.097-8.04a47.792 47.792 0 0 0 1.176-10.226c0-2.08-.168-3.616-.504-4.609-.336-.992-1.016-1.488-2.04-1.488-1.44 0-2.825 1.024-4.153 3.073-1.328 2.048-2.392 4.736-3.192 8.065-.8 3.328-1.2 6.833-1.2 10.513 0 2.208.184 3.729.552 4.56.368.833 1 1.249 1.896 1.249 1.6 0 3.056-1.032 4.368-3.096Zm205.207-16.874c-2.8 4.929-5.24 10.882-7.321 17.859-2.08 6.977-3.12 13.345-3.12 19.106 0 2.017.152 3.44.456 4.273.304.832.776 1.248 1.416 1.248 1.76 0 4.032-2.368 6.817-7.105 2.784-4.737 5.216-10.553 7.297-17.45 2.08-6.897 3.12-13.434 3.12-19.611 0-2.272-.152-3.793-.456-4.56-.304-.769-.712-1.153-1.224-1.153-1.856 0-4.185 2.465-6.985 7.393Zm93.566 0c-2.8 4.929-5.24 10.882-7.32 17.859-2.081 6.977-3.121 13.345-3.121 19.106 0 2.017.152 3.44.456 4.273.304.832.776 1.248 1.416 1.248 1.76 0 4.032-2.368 6.817-7.105 2.784-4.737 5.217-10.553 7.297-17.45 2.08-6.897 3.12-13.434 3.12-19.611 0-2.272-.152-3.793-.456-4.56-.304-.769-.712-1.153-1.224-1.153-1.856 0-4.185 2.465-6.985 7.393Z"/>
  <path fill="#ED4C5C" d="M48.143 22.928 37.968 67.131l-24.623-5.702L27.266.953z"/>
  <path fill="#ED4C5C" d="M40.324 8.61C34.707 2.328 29.057-1.297 27.503.43c-1.47 1.86 1.88 8.426 7.582 14.842 5.752 6.196 11.486 9.956 12.957 8.096 1.47-1.86-2.101-8.478-7.718-14.759"/>
  <path fill="#FF8080" d="M40.493 8.88C35.265 2.921 29.785-.432 28.45 1.343c-1.335 1.776 1.898 7.852 7.125 13.81 5.228 5.96 10.709 9.313 11.908 7.622 1.47-1.86-1.627-8.02-6.99-13.895"/>
  <path fill="#E8E8E8" d="m17.805 34.477 28.315 6.537-8.537 36.98-28.315-6.537z"/>
  <path fill="#555B61" d="m2.956 95.616 29.56 6.82-2.115 9.168-29.56-6.82z"/>
  <path fill="#B2C1C0" d="m11.223 59.647 29.56 6.816-1.97 8.546-29.561-6.816z"/>
  <path fill="#3E4347" d="m8.753 63.432 32.67 7.543-8.752 37.912L0 101.344z"/>
</svg>
