<svg preserveAspectRatio="xMidYMid" viewBox="0 0 256 256" xmlns="http://www.w3.org/2000/svg">
  <defs>
    <linearGradient id="goland_svg__a" x1="63.101%" x2="28.874%" y1="29.811%" y2="83.71%">
      <stop offset="0%" stop-color="#087CFA"/>
      <stop offset="2%" stop-color="#0D7BFA"/>
      <stop offset="37%" stop-color="#5566F9"/>
      <stop offset="66%" stop-color="#8A57F8"/>
      <stop offset="88%" stop-color="#AB4EF7"/>
      <stop offset="100%" stop-color="#B74AF7"/>
    </linearGradient>
    <linearGradient id="goland_svg__b" x1="49.124%" x2="74.872%" y1="38.465%" y2="4.95%">
      <stop offset="0%" stop-color="#087CFA"/>
      <stop offset="2%" stop-color="#0D7BFA"/>
      <stop offset="37%" stop-color="#5566F9"/>
      <stop offset="66%" stop-color="#8A57F8"/>
      <stop offset="88%" stop-color="#AB4EF7"/>
      <stop offset="100%" stop-color="#B74AF7"/>
    </linearGradient>
    <linearGradient id="goland_svg__c" x1="13.896%" x2="86.031%" y1="71.063%" y2="34.549%">
      <stop offset="0%" stop-color="#087CFA"/>
      <stop offset="10%" stop-color="#1598D3"/>
      <stop offset="22%" stop-color="#23B6AA"/>
      <stop offset="35%" stop-color="#2DCC8B"/>
      <stop offset="46%" stop-color="#35DD74"/>
      <stop offset="57%" stop-color="#39E767"/>
      <stop offset="67%" stop-color="#3BEA62"/>
    </linearGradient>
  </defs>
  <path fill="url(#goland_svg__a)" d="M225.493 99.013 256 166.667 203.787 256l-32.16-78.08z"/>
  <path fill="#B74AF7" d="m171.627 177.92 32.16 78.08-80.907-27.813z"/>
  <path fill="url(#goland_svg__b)" d="M180.347 72.293 163.76 0H71.787L0 109.813l20.773 50.454L0 206.32 148.667 79.84z"/>
  <path fill="url(#goland_svg__c)" d="M256 54.347 148.667 79.84 0 206.32 95.893 256l75.734-78.08z"/>
  <path d="M48 48h160v160H48z"/>
  <path fill="#FFF" d="M63.013 178h60v10h-60v-10Zm-4.507-75.84v-.187A33.869 33.869 0 0 1 93.093 68a36.32 36.32 0 0 1 25.947 9.04l-9.147 11.04a24.347 24.347 0 0 0-17.253-6.747c-10.453 0-18.627 8.964-18.95 19.864l-.01.856c0 11.848 7.977 20.592 19.328 20.924l.672.01a23.12 23.12 0 0 0 13.653-3.974v-9.493H92.72V96.987h28.613v28.64a42.855 42.855 0 0 1-28.186 10.48c-20.507 0-34.64-14.427-34.64-33.947Zm68.96 0v-.187A34.107 34.107 0 0 1 162.64 68c20.052 0 34.535 14.737 34.95 33.107l.01 1a34.107 34.107 0 0 1-34.159 34.149l-.988-.016c-20.373-.133-34.986-15.307-34.986-34.08Zm54.96 0v-.187a20.027 20.027 0 0 0-19.973-20.64 19.734 19.734 0 0 0-19.8 19.65l.014.99a20.053 20.053 0 0 0 20 20.747 19.734 19.734 0 0 0 19.76-20.56Z"/>
</svg>
