<svg viewBox="0 0 123.72 127.152" xmlns="http://www.w3.org/2000/svg">
  <path fill-rule="evenodd" d="M116.792 90.018c0 20.504-16.634 37.138-37.138 37.138-5.907 0-11.474-1.357-16.498-3.87-4.957 2.445-10.592 3.87-16.43 3.87-20.505 0-37.139-16.634-37.139-37.138 0-20.504 16.634-37.138 37.138-37.138 5.907 0 11.474 1.358 16.43 3.802 4.957-2.444 10.592-3.802 16.499-3.802 20.504 0 37.138 16.634 37.138 37.138zm-7.332 0c0-16.43-13.376-29.805-29.806-29.805-3.123 0-6.178.475-8.962 1.358 5.703 4.752 9.845 11.134 11.881 18.467h-7.672a29.686 29.686 0 0 0-11.677-14.937c-5.364 3.53-9.438 8.759-11.61 14.937h-7.672a37.368 37.368 0 0 1 11.881-18.535 30.604 30.604 0 0 0-9.03-1.358c-16.43 0-29.805 13.375-29.805 29.805s13.375 29.806 29.805 29.806c3.123 0 6.11-.475 8.894-1.358-7.4-6.178-12.22-15.276-12.967-25.46h17.652v7.264l-8.623.136c2.241 5.975 6.247 11 11.475 14.462 5.227-3.463 9.233-8.487 11.474-14.462l-8.623-.136v-7.264h17.653c-.815 10.184-5.703 19.214-13.104 25.392 2.852.883 5.907 1.426 9.03 1.426 16.498.068 29.806-13.24 29.806-29.738z" clip-rule="evenodd"/>
  <path d="m110.626 177.408-.228.076q-1.331-2.891-3.804-4.603-2.434-1.711-6.123-1.711-2.054 0-3.918.875-1.864.836-3.271 2.396-1.37 1.521-2.206 3.69-.837 2.167-.837 4.792 0 2.624.837 4.792.837 2.168 2.206 3.728 1.407 1.521 3.27 2.358 1.865.837 3.919.837 3.651 0 5.933-1.141 2.32-1.18 3.918-3.576l.228.076-.076 2.434q-.875.913-2.016 1.636-1.14.685-2.472 1.18-1.293.455-2.7.684-1.408.266-2.815.266-2.929 0-5.591-.95-2.663-.952-4.679-2.663-2.016-1.75-3.195-4.184-1.179-2.472-1.179-5.477 0-3.005 1.18-5.44 1.178-2.472 3.194-4.221 2.016-1.75 4.679-2.663 2.662-.95 5.59-.95 1.408 0 2.816.227 1.407.229 2.7.723 1.331.457 2.472 1.18 1.141.684 2.016 1.597zm-83.816 7.265q-.418.19-.798.494-.38.304-.38.837v4.679q-1.827 2.624-4.68 4.07-2.852 1.445-6.313 1.445-2.929 0-5.592-.951-2.662-.951-4.678-2.663-2.016-1.75-3.195-4.183-1.179-2.473-1.179-5.478 0-3.004 1.18-5.439 1.178-2.472 3.194-4.222 2.016-1.75 4.678-2.662 2.663-.951 5.592-.951 1.407 0 2.814.228 1.408.228 2.7.723 1.332.456 2.473 1.179 1.141.685 2.016 1.597l.153 4.032-.229.076q-1.33-2.89-3.803-4.602-2.435-1.712-6.124-1.712-2.054 0-3.918.875-1.863.837-3.27 2.396-1.37 1.522-2.207 3.69-.837 2.168-.837 4.792 0 2.586.8 4.754.836 2.169 2.205 3.728 1.408 1.521 3.271 2.396 1.864.837 3.956.837 3.956 0 6.77-1.521v-7.113q0-.532-.418-.837-.38-.304-.76-.495l.034-.19q.19.035.685.076.495.035 1.027.076h3.271q.457-.035.875-.076.418-.035.646-.076zm27.55-14.226q-.38.19-.76.495-.381.304-.419 1.141-.035.913-.076 2.32 0 1.37-.034 3.12 0 1.749-.035 3.803v4.26q-.035 2.472-.609 4.222-.57 1.75-1.521 2.928-.913 1.18-2.054 1.864-1.103.685-2.206 1.027-1.065.38-2.016.457-.951.114-1.484.114-2.168 0-4.184-.57-2.016-.533-3.537-1.75-1.521-1.218-2.434-3.157-.913-1.94-.913-4.717v-8.254q0-1.825-.035-3.27 0-1.484-.035-2.397-.034-.837-.418-1.14-.38-.305-.76-.496l.034-.19q.19.035.61.076.456.035.912.076.495 0 .95.035h1.37q.457-.035.951-.035.495-.035.913-.076.456-.035.646-.076l.035.19q-.418.19-.799.495-.342.304-.38 1.141-.035.913-.076 2.396v11.525q0 4.146 1.94 6.124 1.94 1.978 5.743 1.978 1.103 0 2.51-.267 1.408-.304 2.625-1.217 1.255-.913 2.092-2.586.875-1.674.875-4.45 0-3.005-.035-5.135 0-2.168-.035-3.69 0-1.56-.035-2.662-.034-1.103-.076-2.016-.034-.837-.418-1.141-.38-.304-.76-.495l.034-.19q.419.076.951.153.533.034.99.034.417 0 .95-.034.57-.076.989-.153zm27.6 6.961-.228.076q-1.332-2.891-3.804-4.603-2.434-1.711-6.124-1.711-2.053 0-3.917.875-1.864.836-3.271 2.396-1.37 1.521-2.206 3.69-.837 2.167-.837 4.792 0 2.624.837 4.792.836 2.168 2.206 3.728 1.407 1.521 3.27 2.358 1.865.837 3.918.837 3.652 0 5.934-1.141 2.32-1.18 3.918-3.576l.228.076-.076 2.434q-.875.913-2.016 1.636-1.14.685-2.472 1.18-1.293.455-2.7.684-1.408.266-2.815.266-2.93 0-5.592-.95-2.662-.952-4.678-2.663-2.016-1.75-3.195-4.184-1.18-2.472-1.18-5.477 0-3.005 1.18-5.44 1.18-2.472 3.195-4.221 2.016-1.75 4.678-2.663 2.663-.95 5.592-.95 1.407 0 2.814.227 1.408.229 2.7.723 1.332.457 2.473 1.18 1.141.684 2.016 1.597zm40.13 18.142q-.19-.034-.646-.075-.418 0-.913-.035-.495 0-.951-.034h-2.281q-.457.034-.914.075-.418.035-.646.076l-.035-.152q.38-.19.76-.495.381-.304.419-1.141.035-.913.035-1.902.035-.989.035-2.244v-13.426q0-1.256-.035-2.207 0-.989-.035-1.901-.035-.837-.418-1.141-.38-.343-.76-.533l.034-.152q.228.076.646.114.457 0 .913.035.495.035.951.035h1.331q.456-.035.95-.035.496-.035.914-.076.456-.035.646-.076l.035.153q-.418.19-.799.532-.342.304-.38 1.14-.035.914-.076 1.903v17.877q.035.988.076 1.901.034.837.38 1.141.38.304.799.495z" style="line-height:1000%" transform="translate(0 -169.848)"/>
</svg>
