<svg fill="none" viewBox="0 0 129 31" xmlns="http://www.w3.org/2000/svg">
  <path fill="#000" d="m116.854 9.725-.241.08c-.937-2.019-2.276-3.625-4.017-4.82-1.714-1.195-3.87-1.792-6.469-1.792a9.697 9.697 0 0 0-4.138.916 10.294 10.294 0 0 0-3.455 2.509c-.964 1.062-1.74 2.35-2.33 3.863-.589 1.514-.884 3.187-.884 5.019 0 1.832.295 3.505.884 5.018.59 1.514 1.366 2.815 2.33 3.903a10.553 10.553 0 0 0 3.455 2.47 10.07 10.07 0 0 0 4.139.876c2.571 0 4.66-.398 6.267-1.195 1.634-.823 3.013-2.07 4.138-3.744l.241.08-.08 2.549a11.315 11.315 0 0 1-2.129 1.712 15.72 15.72 0 0 1-2.612 1.235c-.91.319-1.861.558-2.852.717-.991.186-1.982.279-2.973.279-2.062 0-4.031-.332-5.906-.996-1.875-.664-3.522-1.593-4.941-2.788a13.584 13.584 0 0 1-3.375-4.38c-.83-1.727-1.246-3.639-1.246-5.736 0-2.098.416-3.996 1.246-5.696a13.44 13.44 0 0 1 3.374-4.42c1.42-1.222 3.067-2.152 4.942-2.789a17.566 17.566 0 0 1 5.906-.996c.991 0 1.982.08 2.973.24.991.159 1.942.411 2.852.756.938.319 1.808.73 2.612 1.235a10.192 10.192 0 0 1 2.129 1.673l.16 4.222Zm-88.53 7.607a3.993 3.993 0 0 0-.844.518c-.268.212-.402.505-.402.877v4.898a13.16 13.16 0 0 1-4.941 4.262c-2.01 1.01-4.232 1.514-6.67 1.514-2.062 0-4.03-.332-5.905-.996-1.875-.664-3.522-1.593-4.942-2.788a13.583 13.583 0 0 1-3.375-4.381C.415 19.51 0 17.598 0 15.5c0-2.097.415-3.996 1.245-5.695.83-1.726 1.956-3.2 3.375-4.421 1.42-1.222 3.067-2.15 4.942-2.788a17.561 17.561 0 0 1 5.905-.996c.991 0 1.982.08 2.973.239.991.16 1.942.412 2.853.757.937.318 1.808.73 2.611 1.235a10.183 10.183 0 0 1 2.13 1.672l.16 4.222-.24.08c-.938-2.018-2.277-3.625-4.018-4.82-1.714-1.195-3.87-1.792-6.468-1.792a9.694 9.694 0 0 0-4.138.916 10.292 10.292 0 0 0-3.455 2.51c-.965 1.061-1.741 2.35-2.33 3.863-.59 1.513-.884 3.186-.884 5.018 0 1.806.28 3.465.843 4.979.59 1.513 1.366 2.814 2.33 3.903a11.072 11.072 0 0 0 3.456 2.51 10.16 10.16 0 0 0 4.178.875c2.785 0 5.169-.53 7.15-1.593v-7.448c0-.371-.146-.663-.44-.876a4.596 4.596 0 0 0-.804-.518l.036-.199c.134.024.375.05.724.08.348.024.71.05 1.084.079h3.456c.321-.025.629-.051.924-.08a7.55 7.55 0 0 0 .682-.079l.044.2Zm29.1-14.896a4.516 4.516 0 0 0-.804.518c-.268.212-.415.61-.442 1.195a304.97 304.97 0 0 0-.08 2.43c0 .956-.012 2.044-.037 3.266 0 1.221-.012 2.549-.037 3.982v4.461c-.024 1.726-.238 3.2-.643 4.421-.401 1.222-.937 2.244-1.607 3.067-.642.823-1.366 1.474-2.17 1.952-.776.478-1.553.836-2.33 1.075a8.36 8.36 0 0 1-2.129.478c-.67.08-1.191.12-1.566.12-1.527 0-3-.2-4.42-.598-1.42-.371-2.665-.982-3.736-1.832-1.071-.85-1.928-1.952-2.571-3.306-.643-1.354-.964-3-.964-4.939v-8.643c0-1.274-.013-2.416-.037-3.425 0-1.035-.012-1.872-.037-2.509-.024-.584-.172-.982-.441-1.195a4.6 4.6 0 0 0-.804-.518l.037-.199c.133.025.348.051.643.08.321.024.643.05.964.079.348 0 .683.012 1.004.036h1.447c.321-.024.656-.036 1.004-.036.348-.024.67-.05.964-.08.322-.024.55-.05.683-.079l.037.2a3.994 3.994 0 0 0-.844.517c-.241.212-.375.61-.402 1.195-.024.637-.051 1.474-.08 2.51v12.067c0 2.895.683 5.032 2.049 6.413 1.366 1.38 3.388 2.07 6.066 2.07.777 0 1.66-.092 2.652-.278a7.098 7.098 0 0 0 2.772-1.275c.884-.637 1.62-1.54 2.21-2.708.616-1.168.924-2.722.924-4.66 0-2.098-.012-3.89-.037-5.377 0-1.513-.012-2.801-.037-3.863 0-1.089-.012-2.018-.036-2.788a155.65 155.65 0 0 0-.08-2.111c-.025-.584-.172-.983-.442-1.195a4.602 4.602 0 0 0-.804-.518l.037-.199c.294.053.63.106 1.004.16.375.024.723.036 1.045.036.294 0 .63-.012 1.004-.036.402-.053.75-.107 1.045-.16l.025.2Zm29.152 7.289-.241.08c-.938-2.019-2.277-3.625-4.018-4.82-1.714-1.195-3.87-1.792-6.468-1.792a9.694 9.694 0 0 0-4.138.916 10.292 10.292 0 0 0-3.455 2.509c-.965 1.062-1.741 2.35-2.33 3.863-.59 1.514-.884 3.187-.884 5.019 0 1.832.294 3.505.884 5.018.589 1.514 1.366 2.815 2.33 3.903a10.55 10.55 0 0 0 3.455 2.47c1.312.584 2.692.876 4.138.876 2.571 0 4.66-.398 6.267-1.195 1.634-.823 3.013-2.07 4.138-3.744l.241.08-.08 2.549a11.308 11.308 0 0 1-2.13 1.712c-.803.478-1.673.89-2.61 1.235-.911.319-1.862.558-2.853.717-.991.186-1.982.279-2.973.279-2.062 0-4.03-.332-5.906-.996-1.874-.664-3.522-1.593-4.941-2.788a13.583 13.583 0 0 1-3.375-4.381c-.83-1.726-1.245-3.638-1.245-5.735 0-2.098.415-3.996 1.245-5.696a13.43 13.43 0 0 1 3.375-4.42c1.42-1.222 3.067-2.152 4.941-2.789A17.562 17.562 0 0 1 75.85 1.6c.991 0 1.982.08 2.973.24.991.159 1.942.41 2.852.756.938.319 1.808.73 2.612 1.235a10.18 10.18 0 0 1 2.13 1.673l.16 4.222Zm42.387 18.998a8.697 8.697 0 0 0-.682-.08c-.295 0-.616-.011-.965-.036-.348 0-.683-.012-1.004-.036h-2.41c-.322.024-.643.05-.965.08a7.55 7.55 0 0 0-.682.079l-.037-.16c.268-.132.536-.305.803-.518.268-.212.416-.61.442-1.195.025-.637.037-1.3.037-1.991.024-.69.037-1.474.037-2.35V8.456c0-.876-.013-1.646-.037-2.31 0-.69-.012-1.354-.037-1.991-.024-.584-.172-.983-.442-1.195a3.654 3.654 0 0 0-.803-.557l.037-.16c.16.053.388.093.682.12.322 0 .643.012.965.036.348.024.683.036 1.004.036h1.406c.321-.024.656-.036 1.004-.036.349-.024.67-.05.965-.08.321-.024.548-.05.682-.079l.037.16a3.325 3.325 0 0 0-.844.557c-.241.212-.375.61-.402 1.195-.024.637-.051 1.301-.08 1.991v18.72c.025.69.051 1.354.08 1.992.025.584.159.982.402 1.194.268.213.55.385.844.518l-.037.156Z"/>
</svg>
