<svg viewBox="0 0 105.833 15.653" xmlns="http://www.w3.org/2000/svg">
  <clipPath id="guerlain_svg__a">
    <path d="M-121.881 644.803h651.968V-7.165h-651.968"/>
  </clipPath>
  <clipPath id="guerlain_svg__b">
    <path d="M141.297 335.706h120.977v-21.774H141.297"/>
  </clipPath>
  <clipPath id="guerlain_svg__c">
    <path d="M-121.881 644.803h651.968V-7.165h-651.968"/>
  </clipPath>
  <clipPath id="guerlain_svg__d">
    <path d="M141.297 335.706h120.977v-21.774H141.297"/>
  </clipPath>
  <clipPath id="guerlain_svg__e">
    <path d="M-121.881 644.803h651.968V-7.165h-651.968"/>
  </clipPath>
  <clipPath id="guerlain_svg__f">
    <path d="M141.297 335.706h120.977v-21.774H141.297"/>
  </clipPath>
  <clipPath id="guerlain_svg__g">
    <path d="M-121.881 644.803h651.968V-7.165h-651.968"/>
  </clipPath>
  <clipPath id="guerlain_svg__h">
    <path d="M141.297 335.706h120.977v-21.774H141.297"/>
  </clipPath>
  <clipPath id="guerlain_svg__i">
    <path d="M-121.881 644.803h651.968V-7.165h-651.968"/>
  </clipPath>
  <clipPath id="guerlain_svg__j">
    <path d="M141.297 335.706h120.977v-21.774H141.297"/>
  </clipPath>
  <clipPath id="guerlain_svg__k">
    <path d="M-121.881 644.803h651.968V-7.165h-651.968"/>
  </clipPath>
  <clipPath id="guerlain_svg__l">
    <path d="M141.297 335.706h120.977v-21.774H141.297"/>
  </clipPath>
  <clipPath id="guerlain_svg__m">
    <path d="M-121.881 644.803h651.968V-7.165h-651.968"/>
  </clipPath>
  <clipPath id="guerlain_svg__n">
    <path d="M141.297 335.706h120.977v-21.774H141.297"/>
  </clipPath>
  <clipPath id="guerlain_svg__o">
    <path d="M-121.881 644.803h651.968V-7.165h-651.968"/>
  </clipPath>
  <clipPath id="guerlain_svg__p">
    <path d="M141.297 335.706h120.977v-21.774H141.297"/>
  </clipPath>
  <g clip-path="url(#guerlain_svg__a)" transform="matrix(.87214 0 0 -.87214 -122.957 291.746)">
    <g clip-path="url(#guerlain_svg__b)">
      <path fill="#231f20" d="M153.731 323.942h3.282l-.053-.149c-.878-2.422-2.981-3.755-5.921-3.755-3.844 0-6.429 2.212-6.429 5.508 0 1.69.692 3.083 2.057 4.145 1.132.867 2.726 1.363 4.372 1.363 2.222 0 4-.771 5.43-2.356l1.892.999c-1.906 2.252-4.177 3.303-7.134 3.303-2.407 0-4.491-.659-6.027-1.905-1.791-1.43-2.7-3.296-2.7-5.549 0-2.276.896-4.15 2.663-5.568 1.494-1.201 3.636-1.888 5.876-1.888 5.086 0 8.504 3.083 8.504 7.671v.108h-5.812"/>
    </g>
  </g>
  <g clip-path="url(#guerlain_svg__c)" transform="matrix(.87214 0 0 -.87214 -122.957 291.746)">
    <g clip-path="url(#guerlain_svg__d)">
      <path fill="#231f20" d="M169.298 318.086c-4.4 0-7.357 1.898-7.357 4.723v9.025h2.062v-8.484c0-2.136 1.88-3.311 5.295-3.311 3.39 0 5.257 1.175 5.257 3.311v8.484h2.064v-9.025c0-2.825-2.942-4.723-7.321-4.723"/>
    </g>
  </g>
  <g clip-path="url(#guerlain_svg__e)" transform="matrix(.87214 0 0 -.87214 -122.957 291.746)">
    <g clip-path="url(#guerlain_svg__f)">
      <path fill="#231f20" d="M181.587 324.59h7.619v1.8h-7.619v3.645h9.712v1.799h-11.715v-13.277h11.726v1.798h-9.723"/>
    </g>
  </g>
  <g clip-path="url(#guerlain_svg__g)" transform="matrix(.87214 0 0 -.87214 -122.957 291.746)">
    <g clip-path="url(#guerlain_svg__h)">
      <path fill="#231f20" d="M195.873 325.514v4.508h7.218c1.747 0 2.636-.784 2.636-2.33 0-1.385-.894-2.178-2.451-2.178zm11.716-6.958-3.246 5.226.158.03c1.983.366 3.076 1.744 3.076 3.88 0 2.554-1.531 4.142-3.999 4.142h-9.507v-13.278h1.802v5.147h6.334l3.301-5.147"/>
    </g>
  </g>
  <g clip-path="url(#guerlain_svg__i)" transform="matrix(.87214 0 0 -.87214 -122.957 291.746)">
    <g clip-path="url(#guerlain_svg__j)">
      <path fill="#231f20" d="M222.087 320.368h-9.966v11.466h-1.918v-13.278h11.884"/>
    </g>
  </g>
  <g clip-path="url(#guerlain_svg__k)" transform="matrix(.87214 0 0 -.87214 -122.957 291.746)">
    <g clip-path="url(#guerlain_svg__l)">
      <path fill="#231f20" d="m228.36 323.389 3.326 6.889 3.31-6.889zm4.534 8.445h-2.433l-6.415-13.278h1.986l1.429 3.021h8.433l1.431-3.021h1.986"/>
    </g>
  </g>
  <g clip-path="url(#guerlain_svg__m)" transform="matrix(.87214 0 0 -.87214 -122.957 291.746)">
    <g clip-path="url(#guerlain_svg__n)">
      <path fill="#231f20" d="M241.469 318.556h1.833v13.278h-1.833"/>
    </g>
  </g>
  <g clip-path="url(#guerlain_svg__o)" transform="matrix(.87214 0 0 -.87214 -122.957 291.746)">
    <g clip-path="url(#guerlain_svg__p)">
      <path fill="#231f20" d="M258.9 331.834V320.58l-10.005 11.254h-2.49v-13.278h1.915v11.253l10.02-11.253h2.475v13.278"/>
    </g>
  </g>
</svg>
