<svg viewBox="0 0 890.86 432.404" xmlns="http://www.w3.org/2000/svg">
  <path d="m0 0-5.701-.002c.619 1.681 2.148 5.942 2.8 7.663C-2.337 5.921-.018.056 0 0m1.706 11.674c-.354.936-1.025 1.336-2.25 1.358-.112.003-5.792-.005-5.792-.005L-14.74-9.867l4.089.002a1.98 1.98 0 0 1 .975.162c.798.364 1.19 1.289 1.303 1.602-.002-.004 1.142 3.188 1.22 3.396l8.457.005c.176-.541 1.72-5.155 1.72-5.155h5.532L5.048 1.285 1.706 11.674" style="fill:#000;fill-opacity:1;fill-rule:nonzero;stroke:none" transform="matrix(5.9933 0 0 -5.9933 194.628 365.58)"/>
  <path d="M0 0c-3.338 0-5.953 2.889-5.953 6.577 0 3.656 2.559 6.413 5.952 6.413 3.363 0 5.805-2.697 5.805-6.413C5.804 2.827 3.309 0 0 0m-.165 18.207h-.002c-6.548-.01-11.3-4.928-11.3-11.691 0-6.625 4.858-11.623 11.302-11.623 6.446 0 11.496 5.105 11.496 11.623 0 6.556-5.05 11.691-11.496 11.691" style="fill:#000;fill-opacity:1;fill-rule:nonzero;stroke:none" transform="matrix(5.9933 0 0 -5.9933 444.585 395.523)"/>
  <path d="m0 0-.214.061c.007-.001-2.13.65-2.135.652l-.319.117c-1.744.631-2.984 1.159-2.984 2.175l.002.075c.17 1.685 3.301 1.705 3.333 1.705 1.723 0 3.05-.264 4.731-.94l.037-.015.071-.02c.388-.081.724-.09 1.002-.028l.465.175c.666.37 1.332 2.315 1.588 3.134l.082.264-.206.19c-.081.074-.574.479-2.35 1.142-1.81.677-4.376.785-4.376.785l-1.265.005c-6.604 0-9.126-4.077-9.206-6.818-.057-2.729 1.496-4.135 3.845-5.406.983-.549 2.771-1.046 4.076-1.41l1.346-.396C-.015-5.325.922-6.184.749-7.516c-.078-.442-.909-1.171-2.8-1.171-1.434 0-2.734.221-4.087.694-.652.257-1.323.591-2.035 1.011l-.035.021-.069.031c-.394.146-.746.21-1.048.187l-.52-.115c-.754-.282-1.814-2.21-2.234-3.026l-.165-.32.286-.226c.048-.039 1.224-.97 2.221-1.554 1.172-.65 2.495-1.119 4.05-1.436.627-.115 1.624-.26 3.186-.26 5.116 0 8.838 2.595 9.264 6.457C6.951-3.717 4.801-1.431 0 0" style="fill:#000;fill-opacity:1;fill-rule:nonzero;stroke:none" transform="matrix(5.9933 0 0 -5.9933 601.298 344.16)"/>
  <path d="M0 0c-.216.002-1.328-.021-1.972-.615a1.387 1.387 0 0 1-.45-1.045l-.004-3.62 6.984.002.003-17.598 5.719.005v17.595l4.496.002c.214-.001 1.327.022 1.969.617.296.273.451.633.451 1.044v3.611L0 0" style="fill:#000;fill-opacity:1;fill-rule:nonzero;stroke:none" transform="matrix(5.9933 0 0 -5.9933 666.895 287.661)"/>
  <path d="M0 0h-6.423l-.017 15.603c0 .649-.197 1.161-.585 1.523-.625.582-1.548.576-1.896.573l-3.374.005.009-22.876H2.033l.01 3.635C2.043-1.074 1.844 0 0 0" style="fill:#000;fill-opacity:1;fill-rule:nonzero;stroke:none" transform="matrix(5.9933 0 0 -5.9933 78.688 393.7)"/>
  <path d="M0 0c1.389.091 2.555-.005 3.659-.303.589-.198 1.124-.236 1.577-.11l.459.203c.637.397 1.096 2.405 1.312 3.565l.051.274-.232.166c-.059.043-.24.172-2.313.729a17.03 17.03 0 0 1-4.402.567L.023 5.09c-4.743 0-11.876-3.129-12.082-11.749v-.046c.206-8.619 7.339-11.747 12.085-11.747l.087-.001a16.9 16.9 0 0 1 4.4.566c2.073.558 2.254.687 2.314.729l.231.166-.051.274c-.216 1.162-.675 3.168-1.312 3.567h-.002.002-.002l-.456.202c-.454.125-.989.087-1.59-.113-1.093-.296-2.26-.392-3.663-.3-3.588.351-5.748 2.793-5.908 6.699C-5.764-2.794-3.604-.352 0 0" style="fill:#000;fill-opacity:1;fill-rule:nonzero;stroke:none" transform="matrix(5.9933 0 0 -5.9933 324.048 316.807)"/>
  <path d="M0 0c.886.018 2.386.541 2.386 2.299L2.37 5.171l-10.082-.005.016 3.837H.629l-.015 5.292-8.297-.01c-.003.627.001 2.659-.001 3.291l7.639.007c.214-.001 1.352-.003 1.97.617.433.432.452 1.219.452 1.629v3.019l-15.864.002.008-22.868L0 0" style="fill:#000;fill-opacity:1;fill-rule:nonzero;stroke:none" transform="matrix(5.9933 0 0 -5.9933 871.56 424.65)"/>
  <path d="M0 0s.017 1.302-1.342 2.159c-2.192 1.381-1.06 2.266-1.132 2.249 0 0-2.232 1.851-6.058.465-3.826-1.384-4.046-1.239-4.811-.692-.765.547-2.368.255-2.112-.656.254-.912.873-4.921 5.793-2.406 4.919 2.515 1.13-4.302 10.64-5.358 9.511-1.059 15.269-.584 8.964 1.64C3.638-.375 1.894-.146 1.894-.146L0 0" style="fill:#ca0039;fill-opacity:1;fill-rule:nonzero;stroke:none" transform="matrix(5.9933 0 0 -5.9933 579.357 168.376)"/>
  <path d="M0 0s.02.323-.63.741c-1.104.714-1.686-.026-1.686-.026s-.523-.457-.144-1.16c0 0 2.09.26 2.46.445" style="fill:#fff;fill-opacity:1;fill-rule:nonzero;stroke:none" transform="matrix(5.9933 0 0 -5.9933 559.53 120.61)"/>
  <path d="M0 0s-.254-.444-.027-.601c.113-.078 1.264.246 1.355.295C1.418-.259.827 1.331 0 0" style="fill:#fff;fill-opacity:1;fill-rule:nonzero;stroke:none" transform="matrix(5.9933 0 0 -5.9933 571.763 114.269)"/>
  <path d="M0 0c.456.166.85-.72 1.328-.54.504.191.134 1.079.68 1.285.505.189.838-.712 1.323-.532.514.19.187 1.106.674 1.281.508.184.803-.72 1.329-.529.525.192.183 1.097.667 1.28.49.184.85-.711 1.332-.535.461.17.2 1.116.674 1.288.499.181.821-.713 1.353-.521.432.157.194 1.107.643 1.276.456.172.873-.711 1.343-.534.443.166.18 1.108.653 1.283.495.185.879-.7 1.346-.532.461.167.114.934.718 1.229 0 0 .839.282.789.901-.01.102-.185 1.429-1.566 1.707C11.961 8.074 1.47 5.155 1.34 5.326.371 7.243-.866 6.709-1.055 6.669c-.193-.046-1.36-.556-2.661-.053-2.546 1.161-4.58-1.788-5.97-1.399-1.289.361-2.269.157-2.807-.029-.496-.171-1.292-.817-2.987-.234-13.094 4.502-23.332.567-23.332.567-5.771-1.937-6.511-.001-6.511-.001s-1.895 2.598 11.475 5.69c19.219 4.447 19.795 11.799 19.573 12.26-.32.675-.438-.118-1.072-.85-.528-.608-1.145-.306-1.145-.306-.605.292-.99-.406-.99-.406s-.781-1.211-1.47-.523c-.659.662-1.541-.837-1.867-.895-.391-.069-.581.124-1.112.363-.789.356-1.635-1.097-2.069-1.195-.667-.153-1.133.788-1.699.394-1.709-1.187-1.98-1.359-2.438-.892-.341.348-.39.726-1.529-.372-.974-.938-1.436-1.108-1.829-.516-.402.6-.296 1.417-1.963-.193-.797-.768-1.205-.783-1.662-.436-.342.258-.338 1.496-1.54.375-1.082-1.01-1.872-1.454-2.176-.555-.34 1.005-1.616-.183-1.915-.465-.303-.283-.961-1.024-1.422-.255-.463.763-1.564-.385-2.217-1.114-.509-.564-.92-.13-1.448.231-.61.419-2.422-2.131-2.588-2.283-.165-.148-.292-.005-.708.35-.641.546-2.365-2.478-2.641-2.677 0 0-.122-.262-.591.188-.665.638-4.22-4.059-5.559-9.385-1.713-6.823 1.017-12.049 1.017-12.049s.819-.025 1.171.536l.532 1.205c.43 1.001 1.133.684 1.133.684l-1.672-5.01c-.26-.662-.102-1.595.479-2.481.551-.887.933-1.486 1.376-1.902 1.361-1.289 1.222.234 1.258.425.157.818 1.056.194 1.758-.202 1.279-.721 1.138.874 1.417 1.397.193.368.826.387 1.508-.189.531-.446 1.061 1.066 1.061 1.066.659 3.224-.895 3.603-1.739 3.644l-1.705.081s.115.489.287.953l.08.319c1.858 4.665-1.25 5.568-2.181 5.489-1.023-.089-.951.569-.951.569s5.616 1.109 4.57-4.883c0 0-.208-1.042-.333-1.588l1.543-.18c1.332-.166 1.567-1.749 1.567-1.749s4.883-1.296 7.653-.777c0 0 1.244.296 1.584 1.069 0 0 1.795 4.256 7.035 4.435 0 0 .187-.554-.653-.835-1.008-.34-4.345-.611-5.041-4.476l-.003-.014c-.077-.632.094-1.985 1.463-2.611 1.163-.529 1.575-2.662 1.814-3.237.682-1.636 1.697-.071 1.697-.071s.645 1.318 1.194.589c.936-1.24 1.369-.617 1.581.169.23.85.569 1.221 1.545.188.417-.447 1.236-.102 1.317.668.171 1.684 1.306.346 1.47.278.193-.077 1.38.197.719 2.097 0 0-.901 1.813-4.945 2.598-.95.185-.8.877-.8.877l.896-.128c.263-.047 2.616-.306 2.87-.348 9.865-.98 17.35 2.387 17.576 2.627h.001c7.667-1.475 18.088-.97 20.045-.263 1.961.703 2.11 1.852 1.88 2.159-.288.383-.758.536-1.082.685-.321.148-.272.462-.539.548-.268.086-.745-.467-1.114-.348-.367.118-.338.814-.65.915-.313.101-.865-.423-1.152-.331-.288.093-.344.818-.621.907-.277.089-.863-.435-1.15-.342-.287.093-.304.804-.62.906-.319.102-.872-.427-1.153-.335-.284.09-.309.804-.618.904-.307.099-.869-.422-1.156-.33-.287.093-.37.821-.637.907-.266.086-.801-.346-1.23-.32C.432-2.769-.712-.877-.914-1.432c-.201-.552.621-1.888 1.66-2.341.821-.358 9.74-2.841 9.972-2.954.231-.113.788-.368.594-.693-.313-.415-1.185-.004-1.402.179-.228.191-.178.259-.388.311-.476.119-.741-.761-1.244-.643-.462.108-.432 1.037-.896 1.145-.515.121-.753-.759-1.243-.643-.405.094-.46 1.045-.895 1.147-.506.118-.733-.764-1.254-.642-.449.105-.425 1.034-.893 1.143-.47.111-.799-.747-1.243-.643-.445.104-.506 1.05-.906 1.143-.4.095-.721-.391-1.267-.459 0 0-1.557-.426-4.021 2.163C-6.813-.63-7.827-.129-9.232-1.18c-2.3-1.721-3.721-.58-4.142-.073-.493.59.027 1.127.027 1.127s.732-1.13 1.647-1.157C-10.223-1.327-9.105.709-6.57.741c3.208.117 4.047-1.03 4.923-1.118C-.831-.459-.562-.327.001 0H0" style="fill:#005d34;fill-opacity:1;fill-rule:nonzero;stroke:none" transform="matrix(5.9933 0 0 -5.9933 575.809 147.196)"/>
  <path d="M0 0s.019.323-.63.742c-1.105.715-1.687-.027-1.687-.027s-.522-.456-.143-1.16c0 0 2.09.261 2.46.445" style="fill:#fff;fill-opacity:1;fill-rule:nonzero;stroke:none" transform="matrix(5.9933 0 0 -5.9933 559.68 120.532)"/>
  <path d="M0 0s-.254-.444-.026-.601c.111-.077 1.263.246 1.354.295C1.418-.259.828 1.33 0 0" style="fill:#fff;fill-opacity:1;fill-rule:nonzero;stroke:none" transform="matrix(5.9933 0 0 -5.9933 571.913 114.191)"/>
  <path d="M0 0s1.556.844 1.887.596c.332-.247.02-1.701-.217-1.493L0 0" style="fill:#fff;fill-opacity:1;fill-rule:nonzero;stroke:none" transform="matrix(5.9933 0 0 -5.9933 435.338 149.87)"/>
  <path d="M0 0s1.553.844 1.886.595c.331-.246.016-1.701-.216-1.488L0 0" style="fill:#fff;fill-opacity:1;fill-rule:nonzero;stroke:none" transform="matrix(5.9933 0 0 -5.9933 438.88 133.711)"/>
  <path d="M0 0s1.554.846 1.885.598c.331-.249.017-1.704-.216-1.492L0 0" style="fill:#fff;fill-opacity:1;fill-rule:nonzero;stroke:none" transform="matrix(5.9933 0 0 -5.9933 458.304 137.217)"/>
  <path d="M0 0s1.556.846 1.888.598c.329-.245.015-1.697-.216-1.491L0 0" style="fill:#fff;fill-opacity:1;fill-rule:nonzero;stroke:none" transform="matrix(5.9933 0 0 -5.9933 442.668 117.164)"/>
  <path d="M0 0s1.553.841 1.883.595c.33-.248.019-1.701-.216-1.492L0 0" style="fill:#fff;fill-opacity:1;fill-rule:nonzero;stroke:none" transform="matrix(5.9933 0 0 -5.9933 418.952 130.66)"/>
  <path d="M0 0s1.556.844 1.886.597c.332-.248.021-1.699-.213-1.493L0 0" style="fill:#fff;fill-opacity:1;fill-rule:nonzero;stroke:none" transform="matrix(5.9933 0 0 -5.9933 415.721 147.364)"/>
  <path d="M0 0s1.555.846 1.884.599c.332-.248.018-1.702-.217-1.491L0 0" style="fill:#fff;fill-opacity:1;fill-rule:nonzero;stroke:none" transform="matrix(5.9933 0 0 -5.9933 394.907 147.376)"/>
  <path d="M0 0s1.557.849 1.889.6c.327-.247.015-1.699-.217-1.491L0 0" style="fill:#fff;fill-opacity:1;fill-rule:nonzero;stroke:none" transform="matrix(5.9933 0 0 -5.9933 398.173 129.708)"/>
  <path d="M0 0s1.556.848 1.888.596c.33-.247.016-1.701-.216-1.49L0 0" style="fill:#fff;fill-opacity:1;fill-rule:nonzero;stroke:none" transform="matrix(5.9933 0 0 -5.9933 401.93 112.087)"/>
  <path d="M0 0s1.556.848 1.886.598c.328-.247.018-1.699-.217-1.489L0 0" style="fill:#fff;fill-opacity:1;fill-rule:nonzero;stroke:none" transform="matrix(5.9933 0 0 -5.9933 377.724 130.595)"/>
  <path d="M0 0s1.553.847 1.882.599c.335-.25.022-1.701-.215-1.491L0 0" style="fill:#fff;fill-opacity:1;fill-rule:nonzero;stroke:none" transform="matrix(5.9933 0 0 -5.9933 381.02 113.022)"/>
  <path d="M0 0s1.555.846 1.886.601c.328-.249.017-1.706-.216-1.495L0 0" style="fill:#fff;fill-opacity:1;fill-rule:nonzero;stroke:none" transform="matrix(5.9933 0 0 -5.9933 359.667 115.887)"/>
  <path d="M0 0s1.554.846 1.886.602c.333-.251.017-1.705-.216-1.493L0 0" style="fill:#fff;fill-opacity:1;fill-rule:nonzero;stroke:none" transform="matrix(5.9933 0 0 -5.9933 356.184 133.172)"/>
  <path d="M0 0s1.556.845 1.885.599c.333-.248.021-1.705-.215-1.491L0 0" style="fill:#fff;fill-opacity:1;fill-rule:nonzero;stroke:none" transform="matrix(5.9933 0 0 -5.9933 353.457 150.816)"/>
  <path d="M0 0s1.552.846 1.885.598c.332-.247.019-1.701-.214-1.492L0 0" style="fill:#fff;fill-opacity:1;fill-rule:nonzero;stroke:none" transform="matrix(5.9933 0 0 -5.9933 374.99 147.046)"/>
  <path d="M0 0s1.553.845 1.885.597C2.216.349 1.9-1.105 1.67-.894L0 0" style="fill:#fff;fill-opacity:1;fill-rule:nonzero;stroke:none" transform="matrix(5.9933 0 0 -5.9933 331.563 157.864)"/>
  <path d="M0 0s1.555.844 1.886.599c.328-.247.017-1.7-.217-1.494L0 0" style="fill:#fff;fill-opacity:1;fill-rule:nonzero;stroke:none" transform="matrix(5.9933 0 0 -5.9933 334.938 139.95)"/>
  <path d="M0 0s1.551.843 1.884.596c.33-.248.017-1.702-.218-1.493L0 0" style="fill:#fff;fill-opacity:1;fill-rule:nonzero;stroke:none" transform="matrix(5.9933 0 0 -5.9933 338.432 121.575)"/>
  <path d="M0 0s1.551.839 1.883.596c.33-.248.017-1.702-.214-1.492L0 0" style="fill:#fff;fill-opacity:1;fill-rule:nonzero;stroke:none" transform="matrix(5.9933 0 0 -5.9933 317.533 126.525)"/>
  <path d="M0 0s1.556.846 1.885.597c.331-.245.016-1.7-.217-1.491L0 0" style="fill:#fff;fill-opacity:1;fill-rule:nonzero;stroke:none" transform="matrix(5.9933 0 0 -5.9933 313.901 144.26)"/>
  <path d="M0 0s1.555.841 1.886.598c.333-.248.017-1.705-.217-1.493L0 0" style="fill:#fff;fill-opacity:1;fill-rule:nonzero;stroke:none" transform="matrix(5.9933 0 0 -5.9933 309.574 160.987)"/>
  <path d="M0 0s1.553.845 1.883.596c.33-.245.019-1.702-.218-1.491L0 0" style="fill:#fff;fill-opacity:1;fill-rule:nonzero;stroke:none" transform="matrix(5.9933 0 0 -5.9933 292.205 146.243)"/>
  <path d="M0 0s1.55.847 1.882.6c.33-.248.021-1.701-.216-1.491L0 0" style="fill:#fff;fill-opacity:1;fill-rule:nonzero;stroke:none" transform="matrix(5.9933 0 0 -5.9933 287.41 163.042)"/>
  <path d="M0 0s1.556.847 1.887.599c.329-.247.015-1.702-.217-1.495L0 0" style="fill:#fff;fill-opacity:1;fill-rule:nonzero;stroke:none" transform="matrix(5.9933 0 0 -5.9933 269.587 155.167)"/>
  <path d="M0 0s1.552.844 1.886.6c.329-.251.015-1.705-.218-1.493L0 0" style="fill:#fff;fill-opacity:1;fill-rule:nonzero;stroke:none" transform="matrix(5.9933 0 0 -5.9933 295.508 130.343)"/>
  <path d="M0 0s1.555.844 1.888.599c.331-.247.016-1.701-.217-1.494L0 0" style="fill:#fff;fill-opacity:1;fill-rule:nonzero;stroke:none" transform="matrix(5.9933 0 0 -5.9933 274.064 136.888)"/>
  <path d="M0 0s1.557.844 1.884.596c.332-.246.018-1.698-.216-1.491L0 0" style="fill:#fff;fill-opacity:1;fill-rule:nonzero;stroke:none" transform="matrix(5.9933 0 0 -5.9933 255.245 143.45)"/>
  <path d="M0 0s1.554.847 1.884.598c.329-.245.018-1.701-.218-1.491L0 0" style="fill:#fff;fill-opacity:1;fill-rule:nonzero;stroke:none" transform="matrix(5.9933 0 0 -5.9933 285.769 117.152)"/>
  <path d="M0 0s1.554.846 1.881.599c.332-.25.02-1.701-.214-1.492L0 0" style="fill:#fff;fill-opacity:1;fill-rule:nonzero;stroke:none" transform="matrix(5.9933 0 0 -5.9933 266.71 122.006)"/>
  <path d="M0 0s1.557.844 1.887.596c.332-.245.018-1.701-.214-1.492L0 0" style="fill:#fff;fill-opacity:1;fill-rule:nonzero;stroke:none" transform="matrix(5.9933 0 0 -5.9933 247.37 129.15)"/>
  <path d="M0 0s1.557.846 1.885.599c.332-.248.017-1.705-.213-1.494L0 0" style="fill:#fff;fill-opacity:1;fill-rule:nonzero;stroke:none" transform="matrix(5.9933 0 0 -5.9933 287.614 99.909)"/>
  <path d="M0 0s1.554.848 1.884.599c.332-.248.018-1.701-.214-1.491L0 0" style="fill:#fff;fill-opacity:1;fill-rule:nonzero;stroke:none" transform="matrix(5.9933 0 0 -5.9933 269.018 105.543)"/>
  <path d="M0 0s1.554.842 1.885.599c.33-.247.016-1.705-.217-1.494L0 0" style="fill:#fff;fill-opacity:1;fill-rule:nonzero;stroke:none" transform="matrix(5.9933 0 0 -5.9933 249.257 111.926)"/>
  <path d="M0 0s1.553.844 1.885.596c.329-.249.017-1.704-.216-1.492L0 0" style="fill:#fff;fill-opacity:1;fill-rule:nonzero;stroke:none" transform="matrix(5.9933 0 0 -5.9933 295.891 85.98)"/>
  <path d="M0 0s1.556.846 1.884.598c.331-.247.02-1.701-.213-1.492L0 0" style="fill:#fff;fill-opacity:1;fill-rule:nonzero;stroke:none" transform="matrix(5.9933 0 0 -5.9933 275.58 88.282)"/>
  <path d="M0 0s1.553.845 1.883.597c.329-.246.018-1.703-.212-1.489L0 0" style="fill:#fff;fill-opacity:1;fill-rule:nonzero;stroke:none" transform="matrix(5.9933 0 0 -5.9933 301.555 68.936)"/>
  <path d="M0 0s1.554.842 1.887.6c.329-.252.016-1.705-.215-1.492L0 0" style="fill:#fff;fill-opacity:1;fill-rule:nonzero;stroke:none" transform="matrix(5.9933 0 0 -5.9933 317.815 63.392)"/>
  <path d="M0 0s1.555.844 1.885.598c.331-.249.016-1.698-.214-1.495L0 0" style="fill:#fff;fill-opacity:1;fill-rule:nonzero;stroke:none" transform="matrix(5.9933 0 0 -5.9933 284.283 75)"/>
  <path d="M0 0s1.552.846 1.883.596c.33-.247.017-1.702-.217-1.491L0 0" style="fill:#fff;fill-opacity:1;fill-rule:nonzero;stroke:none" transform="matrix(5.9933 0 0 -5.9933 258.271 94.317)"/>
  <path d="M0 0s1.556.846 1.885.599c.331-.247.016-1.701-.217-1.491L0 0" style="fill:#fff;fill-opacity:1;fill-rule:nonzero;stroke:none" transform="matrix(5.9933 0 0 -5.9933 422.734 113.598)"/>
</svg>
