<svg fill="none" viewBox="0 0 601 92" xmlns="http://www.w3.org/2000/svg">
  <path fill="#0A2B1A" d="M206.914 78.334c16.5 0 31.1-11.1 31.1-29.9 0-18.8-14.6-29.9-31.1-29.9s-31.1 11.1-31.1 29.9c0 18.8 14.6 29.9 31.1 29.9Zm-106.3-1.2h12l-27.6-57.5h-11.5l-25.5 57.5h10.6l5.5-13h30.5l6 13Zm298.1-57.4h-43.6v57.5h44.5v-9.2h-34.3v-15h29.2v-9.2h-29.2v-14.9h33.4v-9.2Zm-152.8 51.7c2.3 1.9 9.3 6.9 21.6 6.9 12.4 0 22.5-6.7 22.5-17.2 0-21.9-31.6-14.9-31.6-26.8 0-3.4 2.8-6.1 10.1-6.1 8.7 0 14.4 3.9 16.6 5.7l4.2-8.5c-2.6-2.5-10.6-6.9-20.9-6.9-15.3 0-21.6 8.6-21.6 17.1 0 19.8 31.7 14.1 31.7 26 0 5-5 7.1-10.6 7.1-8.6 0-15.5-3.8-18.4-6l-3.6 8.7Zm-100.1-42.7c8.6 0 13.4 4.7 16.2 7.2l7.1-7c-2.3-2.6-9.2-10.4-23.5-10.4-16.5 0-31.1 11.1-31.1 29.9 0 18.8 14.4 29.9 30.9 29.9 12.7 0 21.3-6.9 24.1-9.3l-5.7-8c-4.5 3.8-11.7 7.2-18.2 7.2-11.4 0-20-8.6-20-19.7.1-11.2 8.7-19.8 20.2-19.8Zm61.1 39.4c-11.4 0-20-8.6-20-19.7s8.6-19.7 20-19.7 20 8.6 20 19.7-8.6 19.7-20 19.7Zm108.8-39.3v48.3h10.2v-48.3h20.1v-9.2h-49.8v9.2h19.5Zm-305.2-9.1H.314v57.5h40.7v-9.2h-30.5v-48.3Zm68.4 10 11.7 25.5h-22.6l10.9-25.5Z"/>
  <path fill="#0B542A" d="M599.014 65.034c-1.2-.8-2.3-.9-3.5-1.2-1.5-.5-2-2.4-2.6-2.6-1.1-.4-2.2 1.3-2.9 1.1-.7-.2-1-2.5-1.5-2.7-1.1-.4-2.3 1.3-3 1.1-.7-.2-1.1-2.5-1.6-2.7-1.1-.4-2.3 1.4-3 1.2-.7-.2-.9-2.6-1.5-2.8-1.2-.5-2.4 1.4-3.5 1.2-.7-.1-2.2-.4-4.2-1.7-.6-.4-1.8-1.3-1.8-1.4-.2-.1-.7-.2-.6.8.3 2.4 4.4 4.1 9.2 5.5 4.8 1.4 9.6 2.7 12.4 4 1.8.8 2.5 1.8 1.9 2.8-.5.7-1.7.8-3 .1-1.4-.7-1.6-1.8-2.5-2-1.1-.3-2.5 1.8-3.3 1.6-1.1-.3-1.2-2.6-2.2-2.9-1.3-.3-2.8 1.7-3.6 1.5-.9-.2-1.2-2.7-2-2.9-1.4-.4-2.8 1.8-3.6 1.6-.9-.2-1.3-2.7-2.1-3-1.4-.6-3.2 1.5-5.1.5-6.1-4.1-5-6.3-9.7-7.7-2.4-.7-5.4.1-7.2.3-4.2.4-4-3.2-4-3.2 1.2.3 2.9 1 6-.1 3.4-1.2 5.2-1.5 9.6 0 3.7 1.2 5.9.1 7.2-.2.6-.2 1.1-.5 2.3.3 1.2.8 2.3 1.6 2.9 1.3.9-.4.6-2.9 2.1-3.4.7-.2 2.7 1.7 3.5 1.4.9-.3.6-2.9 2.2-3.4.7-.2 2.7 1.7 3.5 1.4.9-.3.6-2.9 2.1-3.4.7-.2 2.7 1.7 3.5 1.4.8-.3.6-2.9 2.1-3.4.7-.2 2.7 1.7 3.5 1.4.8-.3.7-1 1.4-2.7.1-.3.4-.7.7-1 1-.8 2.4-2.5 1.5-4.3-.8-1.7-2.4-1.6-5.8-.9-2.9.6-21.2 4.6-21.2 4.6-2.8-5.3-4.8-1.8-9-2.3-2.7-.3-7-3-13.8 3.3-3.7-1.1-6.9-.1-9.3 1.2-4.1-1.7-11.9-5.7-26.8-5.7-4.2 0-14.2.8-30.2 5-4.1 1.1-7.8.8-8.7-1.6-.9-2.5 2.3-5.2 8.5-8.2 15.3-7.3 25.5-5.6 46.1-16.5 11.1-5.8 11.8-12.7 11.7-14.4 0-1.1-1.1-1.5-1.8-.6-3.7 5.2-4.7 4.8-5.8 3.6-1.5-1.5-2.6.9-4.2 2.2-1.3.9-1.5-.2-2.5-.8-1.8-1.1-3.2 2.2-4.7 2.9-1.7.8-2.1-.1-2.6-.7-.4-.4-1.2-.4-1.7.1-3.5 3.3-4 3-5.1 1.8-.8-.8-1.2-1.4-3.5.9-1.3 1.3-3.5 2.9-4.2 1.2-.7-1.7-1.2-2.6-4.5.3-1.9 1.7-3.2 1.9-3.8 1.1-.6-.8-.5-3.1-3.5-.7-2.7 2.1-4.1 3.4-5 1.3-.9-2-2.9-.3-4.4 1.1-.8.8-2.1 2.6-3.2.7-1.1-1.8-2.8.1-4.9 2.4-1.2 1.3-2 .7-3.2-.1-1.4-1-2.9 2.6-4.9 4.7-.4.3-.9.6-2.1-.2-1.6-1.1-4.1 4.4-4.8 5.8-1.2 2.2-2.4-.6-3.8 1.4-3.1 4.6-6.5 9.7-7.5 18.8-1.1 10.8 2.9 19.6 6.9 22.9 0 0-.5 1.2-1.1 2.7-1.1 3-1.6 7-.1 9.8 1.4 2.7 4.7 7.2 5.9 2.9.6-2 1.2-1.9 3.1-.5 3 2.1 2.2-1.7 2.8-2.9.4-.8.9-1.1 3.4.5 1.4.9 1.9-.3 2.3-2.1 1.3-5.4-1.2-6.7-3.8-7.2-1.8-.4-3.8-.1-3.8-.1 4-6.1 4.5-9.5 0-12.6.7-.3 1.2-.1 1.8.1 1.1.5 2 1.3 2.6 2.3.6 1.1 1.6 3.6-.4 7.9.9 0 4.2.2 5.7 3.6 2 .6 14.7 1.7 20.3.7 2-.3 2.9-2.2 5-4 2.2-2.1 4.8-4.3 7-2.6-3.9 1.6-6.6 4.6-6.6 8.4 0 2.9 1.2 4 3.3 5.8 1.9 1.5 2.4 4 3.1 5.9.9 2.4 2.7 2.5 3.1.2.6-3.2 1.5-2.6 2.8-1.2 1.5 1.7 2.7 1.4 2.7-1 0-2.2.7-3.4 3.2-.8 1 1.1 2.2 1 2.2-1.3 0-2.8 1.2-2.5 2.8-1.3.6.4.9.7 1.2.7 1.2-.1 2.1-2.5 1.1-4.4-.5-1-1.2-2.4-7.6-3.7-2.1-.4-1.7-1.9-1.7-1.9 15.7.8 29-1.2 37.7-6.5 10.8 2.6 26.5 2.8 31.6 2.8 5.1-.1 9.1-.3 12.3-1.8 3.9-1.4 3.4-3.8 1.8-4.8Zm-32.4-24.4c.3-.8 1-1.3 1.6-1.3 1.2 0 1.8 1.3 1.8 1.7l-2.9.6c-.8.2-.8-.3-.5-1Zm-7.5-.3c2 0 3.2 1.5 3.5 2.2 0 0-3 .7-4.3 1-.8.2-1.4-.2-1.5-.9-.1-.7.7-2.3 2.3-2.3Zm-83.1-18.4c1.4-.7 2.8-1.1 4.3-1.4.3 0 .5.1.4.4-.3 1-.5 2-.7 3-.1.3-.3.4-.5.3-1.1-.6-2.3-1.1-3.6-1.7-.2-.2-.2-.4.1-.6Zm-6.6 3.1c1.4-.7 2.8-1.1 4.3-1.4.3-.1.5.1.4.3-.2 1-.5 2-.7 3 0 .3-.3.4-.5.3-1.1-.6-2.3-1.1-3.6-1.7-.2-.1-.2-.3.1-.5Zm2.8 6.8c.3 0 .5.1.4.4-.2 1-.5 2-.7 3 0 .3-.3.4-.5.3-1.1-.6-2.3-1.1-3.6-1.7-.3-.1-.3-.3 0-.5 1.4-.7 2.9-1.2 4.4-1.5Zm-2.7 5.8c-.2 1-.5 2-.7 3-.1.3-.3.4-.5.3-1.1-.6-2.3-1.1-3.6-1.7-.3-.1-.3-.3 0-.5 1.4-.7 2.8-1.1 4.3-1.4.3-.1.5 0 .5.3Zm-6-8.6c1.4-.7 2.8-1.1 4.3-1.4.3 0 .5.1.4.3-.2 1-.5 2-.7 3-.1.3-.3.4-.5.3-1.1-.6-2.3-1.1-3.6-1.7-.2-.2-.2-.4.1-.5Zm-4.5 5.2c1.4-.7 2.8-1.1 4.3-1.4.3-.1.5.1.4.3-.3 1-.5 2-.7 3-.1.3-.3.4-.5.3-1.1-.6-2.3-1.1-3.6-1.7-.2-.2-.2-.4.1-.5Zm-1.7 5.9c1.4-.7 2.8-1.1 4.3-1.4.3-.1.5.1.4.3-.2 1-.5 2-.7 3-.1.3-.3.4-.5.3-1.1-.5-2.3-1.1-3.6-1.7-.2-.1-.2-.3.1-.5Zm.7 6.5c-.3-.1-.3-.4 0-.5 1.4-.7 2.8-1.1 4.3-1.4.3 0 .5.1.4.3-.2 1-.5 2-.7 3 0 .3-.3.4-.5.3-1-.5-2.2-1.1-3.5-1.7Zm7.7 7.3c0 .3-.3.4-.5.3-1.1-.6-2.3-1.1-3.6-1.7-.3-.1-.3-.3 0-.5 1.4-.7 2.8-1.1 4.4-1.4.3-.1.5.1.4.3-.2 1-.4 2-.7 3Zm-.3-8.9c-.3-.1-.3-.3 0-.5 1.4-.7 2.8-1.2 4.3-1.4.3-.1.5.1.4.3-.2 1-.5 2-.7 3-.1.3-.3.4-.5.3-1.1-.5-2.3-1.1-3.5-1.7Zm6.8 12.2c0 .3-.3.4-.5.3-1.1-.5-2.3-1.1-3.6-1.7-.3-.1-.3-.4 0-.5 1.4-.7 2.8-1.1 4.3-1.4.3-.1.5.1.4.3-.1 1-.4 2-.6 3Zm1.4-6.3c-.1.3-.3.4-.5.3-1.1-.6-2.3-1.1-3.6-1.7-.3-.1-.3-.4 0-.5 1.4-.7 2.8-1.1 4.4-1.4.3-.1.5.1.4.3-.2 1-.4 2-.7 3Zm6.5 3.1c-.3 1-.5 2-.7 3 0 .3-.3.4-.5.3-1.1-.6-2.3-1.1-3.6-1.7-.3-.1-.3-.3 0-.5 1.4-.7 2.8-1.1 4.3-1.4.3-.1.5.1.5.3Zm.3-3.4c-1.1-.6-2.3-1.1-3.6-1.7-.3-.1-.3-.4 0-.5 1.4-.7 2.8-1.1 4.3-1.4.3 0 .5.1.4.4-.3 1-.5 2-.7 3 0 .2-.2.3-.4.2Zm5.5 8.2c-.2 1-.5 2-.7 3-.1.2-.3.4-.5.2-1.1-.5-2.3-1.1-3.6-1.7-.3-.1-.3-.3 0-.5 1.4-.7 2.8-1.1 4.3-1.4.4-.1.6.1.5.4Zm1.5-6.6c-.3 1-.5 2-.7 3 0 .2-.3.4-.5.2-1.1-.5-2.3-1.1-3.6-1.7-.3-.1-.3-.4 0-.5 1.4-.7 2.8-1.1 4.3-1.4.3 0 .5.2.5.4Zm.8-3.9c0 .3-.3.4-.5.3-1.1-.5-2.3-1.1-3.6-1.7-.3-.1-.3-.3 0-.5 1.4-.7 2.8-1.1 4.3-1.4.3-.1.5.1.4.4-.1.9-.3 1.9-.6 2.9Zm4.5 11.3c-.1.3-.3.4-.5.3-1.1-.6-2.3-1.1-3.5-1.7-.3-.1-.3-.4 0-.5 1.4-.7 2.8-1.1 4.3-1.4.3 0 .5.1.4.3-.3.9-.5 2-.7 3Zm1.4-6.3c0 .3-.3.4-.5.3-1.1-.6-2.3-1.1-3.6-1.7-.3-.1-.3-.3 0-.5 1.4-.7 2.8-1.1 4.3-1.4.3 0 .5.1.4.4-.1.8-.4 1.8-.6 2.9Zm1-6.4c-1.1-.6-2.3-1.1-3.6-1.7-.3-.1-.3-.3 0-.5 1.4-.7 2.8-1.1 4.3-1.4.3-.1.5.1.4.3-.2 1-.5 2-.7 3 .1.3-.2.4-.4.3Zm5.9 8.1c-.2 1-.5 2-.7 3 0 .3-.3.4-.5.3-1.1-.6-2.3-1.1-3.6-1.7-.3-.1-.3-.3 0-.5 1.4-.7 2.8-1.1 4.4-1.4.2-.1.4 0 .4.3Zm1.4-6.4c-.2 1-.5 2-.7 3-.1.3-.3.4-.5.2-1.1-.5-2.3-1.1-3.5-1.7-.3-.1-.3-.3 0-.5 1.4-.7 2.8-1.1 4.3-1.4.2.1.4.2.4.4Zm.2-3c-1.1-.5-2.3-1.1-3.6-1.7-.3-.1-.3-.4 0-.5 1.4-.7 2.8-1.1 4.3-1.4.3-.1.5.1.4.3-.3 1-.5 2-.7 3 0 .3-.2.5-.4.3Zm5.7 8.6c-.3 1-.5 2-.7 3-.1.3-.3.4-.5.3-1.1-.6-2.3-1.1-3.6-1.7-.3-.1-.3-.3 0-.5 1.4-.7 2.8-1.1 4.3-1.4.4-.1.6.1.5.3Zm1.4-6.3c-.2 1-.5 2-.7 3-.1.2-.3.4-.5.2-1.1-.5-2.3-1.1-3.6-1.7-.3-.1-.3-.4 0-.5 1.4-.7 2.8-1.1 4.3-1.4.4 0 .6.2.5.4Zm.7-3.1c0 .3-.3.4-.5.3-1.1-.6-2.3-1.1-3.6-1.7-.3-.1-.3-.3 0-.5 1.4-.7 2.8-1.1 4.3-1.4.3 0 .5.1.4.4-.1.8-.4 1.8-.6 2.9Zm5.2 9.7c-.3 1-.5 2-.7 3 0 .3-.3.4-.5.3-1.1-.6-2.3-1.1-3.5-1.7-.3-.1-.3-.4 0-.5 1.4-.7 2.8-1.1 4.3-1.4.3-.1.5 0 .4.3Zm1.4-6.4c-.2 1-.5 2-.7 3-.1.3-.3.4-.5.3-1.1-.6-2.3-1.1-3.6-1.7-.3-.1-.3-.3 0-.5 1.4-.7 2.8-1.1 4.3-1.4.4-.1.6.1.5.3Zm1.4-6.2c-.2 1-.5 2-.7 3-.1.3-.3.4-.5.3-1.1-.6-2.3-1.1-3.5-1.7-.3-.1-.3-.3 0-.5 1.4-.7 2.8-1.1 4.4-1.4.2-.1.4.1.3.3Zm5 10.6c0 .3-.3.4-.5.3-1.1-.5-2.3-1.1-3.6-1.7-.3-.1-.3-.4 0-.5 1.4-.7 2.8-1.2 4.3-1.4.3-.1.5.1.4.3l-.6 3Zm2.1-9.4c-.2 1-.5 2-.7 3-.1.3-.3.4-.5.3-1.1-.6-2.3-1.1-3.6-1.7-.3-.1-.3-.4 0-.5 1.4-.7 2.8-1.1 4.3-1.4.4-.1.6 0 .5.3Zm6.7 2.3c-.2 1-.5 2-.7 3-.1.3-.3.4-.5.3-1.1-.6-2.3-1.1-3.6-1.7-.3-.1-.3-.3 0-.5 1.4-.7 2.8-1.1 4.3-1.4.4-.1.6.1.5.3Z"/>
  <path fill="#E50043" d="M560.114 51.534c-4.4-1.5-6.3-1.2-9.6 0-3.1 1.1-4.8.4-6 .1 0 0-.2 3.6 4 3.2 1.8-.2 4.8-1.1 7.2-.3 4.7 1.4 3.5 3.5 9.7 7.7 1.9 1 3.7-1.1 5.1-.5.7.3 1.2 2.8 2.1 3 .9.2 2.3-1.9 3.6-1.6.8.2 1.1 2.8 2 3 .9.2 2.3-1.8 3.6-1.5 1 .3 1.1 2.6 2.2 2.9.9.2 2.3-1.9 3.4-1.6.9.2 1 1.3 2.5 2 1.3.6 2.5.6 3-.2.6-1-.1-1.9-1.9-2.8-2.9-1.3-7.7-2.6-12.4-4-4.8-1.4-8.9-3.1-9.2-5.5-.1-1 .4-.9.6-.8-1.8-1.4-2.2-2.6-2.1-3.4-.2 0-.3.1-.5.2-1.4.2-3.6 1.4-7.3.1Z"/>
</svg>
