<svg class="lancel_svg__img-fluid" style="transform:none;transform-origin:50% 50%;cursor:move" viewBox="0 0 11800 3580" xmlns="http://www.w3.org/2000/svg">
  <g style="transform:none">
    <path d="M7282 3562c-60-22-114-63-143-108l-19-32 42-25 42-24 46 47c37 38 57 50 101 60 107 24 189-26 189-116 0-65-34-97-147-139-100-37-170-79-196-119-46-69-38-168 18-234 97-112 289-115 392-5l35 36-24 18c-55 42-61 43-101 5-90-85-238-45-241 64-1 57 34 87 158 135 118 46 167 80 195 137 52 109 8 232-104 291-57 29-173 34-243 9z"/>
    <path d="M4180 3184v-386l158 4c139 3 162 6 198 25 172 92 175 326 5 417-47 25-69 30-153 34l-98 5v287h-110v-386zm325-35c43-38 60-93 46-146-23-84-70-113-185-113h-76v290h90c86 0 91-1 125-31z"/>
    <path d="M4859 3548c10-25 281-684 304-736l13-33 158 383c87 211 161 389 163 396 4 9-10 12-50 12h-55l-32-80-32-80-156 2-156 3-29 78-30 77h-53c-51 0-53-1-45-22zm428-240c-3-7-29-73-57-146-29-73-56-130-60-125-8 9-110 264-110 276 0 4 52 7 116 7 89 0 115-3 111-12z"/>
    <path d="M5810 3185v-385h136c162 0 209 10 265 58 102 87 106 236 8 329-19 17-47 37-63 43-18 6-26 15-23 24 3 8 46 77 95 153s92 144 96 151c5 9-8 12-56 12h-63l-100-160-100-160h-85v320h-110v-385zm308-45c58-36 78-116 44-179-28-52-72-71-164-71h-78v270h83c65 0 89-4 115-20z"/>
    <path d="M6680 3185v-385h110v770h-110v-385z"/>
    <path d="M7380 2194c-428-68-764-336-891-710-91-267-75-593 39-837 151-322 436-536 824-618 82-18 138-22 273-23 94 0 182 3 198 7l27 7v405l-143-3c-177-4-295 17-418 75-188 89-301 212-365 398-25 71-28 95-28 210-1 109 3 142 22 205 37 116 79 187 162 271 158 158 385 230 678 214l122-7v200c0 146-3 203-12 208-25 16-389 14-488-2z"/>
    <path d="M0 1110V30h450v1760h780v400H0V1110z"/>
    <path d="M2042 1110 2402 30h426l360 1080 360 1080h-467l-26-87c-15-49-32-106-39-128l-13-40h-777l-37 125-36 125-236 3-235 2 360-1080zm848 443c-1-27-267-904-275-904-7 0-274 876-275 904 0 4 124 7 275 7s275-3 275-7z"/>
    <path d="M4100 1110V30h153l152 1 480 615 480 615 3-615 2-616h450v2160l-147-1h-148l-485-622-485-622-3 623-2 622h-450V1110z"/>
    <path d="M8550 1110V30h1260v400h-810v480h710v370h-710v510h850v400H8550V1110z"/>
    <path d="M10570 1110V30h450v1760h780v400h-1230V1110z"/>
  </g>
</svg>
