<svg xmlns:xlink="http://www.w3.org/1999/xlink" preserveAspectRatio="xMidYMid" viewBox="0 0 256 256" xmlns="http://www.w3.org/2000/svg">
  <defs>
    <linearGradient id="lateral-icon_svg__c" x1="0%" x2="37.75%" y1="73.25%" y2="36.583%">
      <stop offset="0%" stop-color="#0060FF"/>
      <stop offset="100%" stop-color="#1F66D6"/>
    </linearGradient>
    <linearGradient id="lateral-icon_svg__d" x1="34.722%" x2="92.014%" y1="0%" y2="90.75%">
      <stop offset="0%" stop-color="#1F6AE2"/>
      <stop offset="100%" stop-color="#2E7BED"/>
    </linearGradient>
    <linearGradient id="lateral-icon_svg__g" x1="76.5%" x2="0%" y1="48.265%" y2="54.819%">
      <stop offset="0%" stop-color="#0D57D9"/>
      <stop offset="100%" stop-color="#0D57D9"/>
    </linearGradient>
    <path id="lateral-icon_svg__e" d="M234.667 256V0H0l192 256z"/>
    <path id="lateral-icon_svg__h" d="M186.453 0 0 52.693v38.4h256V73.6z"/>
    <circle id="lateral-icon_svg__a" cx="128" cy="128" r="128"/>
  </defs>
  <mask id="lateral-icon_svg__b" fill="#fff">
    <use xlink:href="#lateral-icon_svg__a"/>
  </mask>
  <g mask="url(#lateral-icon_svg__b)">
    <path fill="url(#lateral-icon_svg__c)" d="M378.169 325.99v-256h-256v255.787z" transform="translate(-122.169 -69.99)"/>
    <path fill="#115EDE" d="m-112.514 120.985 181.02-181.02.904.906-181.019 181.02z"/>
    <path fill="#115EDE" d="M-97.127 136.372 83.892-44.648l.905.905-181.02 181.02z"/>
    <path fill="#115EDE" d="M-81.74 151.758 99.278-29.26l.905.905-181.02 181.02z"/>
    <path fill="#115EDE" d="m-66.355 167.145 181.02-181.02.905.906-181.02 181.02z"/>
    <path fill="#115EDE" d="M-50.967 182.532 130.052 1.512l.905.905-181.02 181.02z"/>
    <path fill="#115EDE" d="M-35.58 197.918 145.438 16.9l.905.905-181.02 181.02z"/>
    <path fill="#115EDE" d="m-20.194 213.305 181.019-181.02.905.905-181.02 181.02z"/>
    <path fill="#115EDE" d="m-4.808 228.691 181.02-181.02.905.906-181.02 181.02z"/>
    <path fill="#115EDE" d="m10.579 244.078 181.02-181.02.904.906-181.02 181.019z"/>
    <path fill="#115EDE" d="m25.965 259.465 181.02-181.02.905.906L26.87 260.37z"/>
    <path fill="#115EDE" d="m-122.169 84.782.906-.905 181.019 181.02-.905.904z"/>
    <path fill="#115EDE" d="m-106.782 69.395.905-.905L75.142 249.509l-.905.905z"/>
    <path fill="#115EDE" d="m-91.395 54.008.905-.905 181.02 181.02-.906.904z"/>
    <path fill="#115EDE" d="m-76.009 38.621.906-.905 181.019 181.02-.905.904z"/>
    <path fill="#115EDE" d="m-60.622 23.234.905-.905 181.02 181.02-.906.905z"/>
    <path fill="#115EDE" d="m-45.235 7.848.905-.905 181.02 181.02-.906.905z"/>
    <path fill="#115EDE" d="m-29.849-7.538.905-.905 181.02 181.019-.906.905z"/>
    <path fill="#115EDE" d="m-14.462-22.925.905-.905 181.02 181.02-.906.904z"/>
    <path fill="#115EDE" d="m.924-38.312.906-.905 181.019 181.02-.905.904z"/>
    <path fill="#115EDE" d="m16.311-53.699.905-.905 181.02 181.02-.905.905z"/>
    <path fill="#115EDE" d="m31.698-69.085.905-.905 181.019 181.019-.905.905z"/>
    <path fill="url(#lateral-icon_svg__d)" d="M378.169 325.99v-256H143.502l192 256z" transform="translate(-122.169 -69.99)"/>
    <g transform="translate(21.333)">
      <mask id="lateral-icon_svg__f" fill="#fff">
        <use xlink:href="#lateral-icon_svg__e"/>
      </mask>
      <g fill="#3582F7" mask="url(#lateral-icon_svg__f)">
        <path d="m-52.972 40.374 181.019-181.02.905.905-181.02 181.02z"/>
        <path d="m100.894 194.24 181.02-181.02.904.906L101.8 195.146z"/>
        <path d="m-37.586 55.76 181.02-181.019.905.905-181.02 181.02z"/>
        <path d="M116.28 209.627 297.3 28.607l.905.906-181.02 181.02z"/>
        <path d="m-22.2 71.147 181.02-181.02.905.906-181.02 181.02z"/>
        <path d="m131.667 225.014 181.02-181.02.905.906-181.02 181.019z"/>
        <path d="m-6.812 86.534 181.019-181.02.905.906L-5.908 87.439z"/>
        <path d="m147.054 240.4 181.02-181.019.904.905-181.019 181.02z"/>
        <path d="m8.574 101.92 181.02-181.019.905.905-181.02 181.02z"/>
        <path d="m162.44 255.787 181.02-181.02.905.905-181.02 181.02z"/>
        <path d="m23.96 117.307 181.02-181.02.905.906-181.02 181.02z"/>
        <path d="m177.827 271.173 181.02-181.019.905.905-181.02 181.02z"/>
        <path d="m39.347 132.693 181.02-181.019.905.905L40.252 133.6z"/>
        <path d="m193.214 286.56 181.02-181.02.904.906-181.019 181.02z"/>
        <path d="m54.734 148.08 181.02-181.02.904.906L55.64 148.986z"/>
        <path d="m208.6 301.947 181.02-181.02.905.905-181.02 181.02z"/>
        <path d="m70.12 163.467 181.02-181.02.905.905-181.02 181.02z"/>
        <path d="m223.987 317.333 181.02-181.019.905.905-181.02 181.02z"/>
        <path d="M85.507 178.853 266.527-2.166l.905.905-181.02 181.02z"/>
        <path d="m-62.627 4.17.905-.905 332.17 332.17-.904.905z"/>
        <path d="m-47.24-11.217.905-.905 332.17 332.17-.905.906z"/>
        <path d="m-31.854-26.604.905-.905 332.17 332.17-.904.906z"/>
        <path d="m-16.467-41.99.905-.905 332.17 332.17-.904.905z"/>
        <path d="m-1.08-57.377.905-.905 332.17 332.17-.905.905z"/>
        <path d="m14.306-72.763.905-.905 332.17 332.17-.904.905z"/>
        <path d="m29.693-88.15.905-.905 332.17 332.17-.905.906z"/>
        <path d="m45.08-103.537.905-.905 332.17 332.17-.905.906z"/>
        <path d="m60.466-118.923.905-.905 332.17 332.17-.904.905z"/>
        <path d="m75.853-134.31.905-.905 332.17 332.17-.905.906z"/>
        <path d="m91.24-149.697.905-.905 332.17 332.17-.905.906z"/>
      </g>
    </g>
    <path fill="url(#lateral-icon_svg__g)" stroke="#0D57D9" d="M308.622 234.897 122.169 287.59v38.4h256v-17.493z" transform="translate(-122.169 -69.99)"/>
    <g transform="translate(0 164.907)">
      <mask id="lateral-icon_svg__i" fill="#fff">
        <use xlink:href="#lateral-icon_svg__h"/>
      </mask>
      <g fill="#1362DD" mask="url(#lateral-icon_svg__i)">
        <path d="M-92.725 73.628 398.19-71.788l.727 2.454L-91.998 76.082z"/>
        <path d="M-80.365 115.356 410.551-30.06l.727 2.454L-79.638 117.81z"/>
        <path d="M-68.005 157.083 422.911 11.667l.727 2.455-490.916 145.416z"/>
        <path d="M-55.644 198.811 435.27 53.395l.73 2.455-490.917 145.416z"/>
        <path d="m-75.144.78 2.455-.726L72.726 490.969l-2.454.728z"/>
        <path d="m-33.416-11.58 2.455-.727L114.454 478.61l-2.454.727z"/>
        <path d="m8.312-23.94 2.454-.727L156.182 466.25l-2.455.727z"/>
        <path d="m50.04-36.3 2.454-.728L197.91 453.888l-2.455.727z"/>
        <path d="m91.767-48.66 2.455-.728 145.416 490.916-2.455.727z"/>
        <path d="m133.495-61.021 2.455-.727 145.415 490.915-2.454.727z"/>
        <path d="m175.223-73.381 2.455-.727 145.415 490.915-2.454.727z"/>
        <path d="m216.95-85.742 2.456-.727L364.82 404.447l-2.454.727z"/>
      </g>
    </g>
  </g>
  <path fill="#6AABD4" d="m98.133 45.227-11.52 65.706 42.24 22.614z"/>
  <path fill="#E4F6FE" d="M169.387 110.933 98.133 45.227l30.72 88.32z"/>
  <path fill="#A8CCE9" d="m169.387 110.933-40.534 22.614 80.64 47.36z"/>
  <path fill="#D8E9F8" d="m209.493 180.907-80.64-47.36 39.254 64.853z"/>
  <path fill="#84C1F2" d="m168.107 198.4-39.254-64.853-81.92 47.36z"/>
  <path fill="#AECEE9" d="m46.933 180.907 81.92-47.36-42.24-22.614z"/>
</svg>
