<svg xmlns:xlink="http://www.w3.org/1999/xlink" preserveAspectRatio="xMidYMid" viewBox="0 0 256 256" xmlns="http://www.w3.org/2000/svg">
  <defs>
    <linearGradient id="lateral-icon_svg__c" x1="0%" x2="37.75%" y1="73.25%" y2="36.583%">
      <stop offset="0%" stop-color="#0060FF"/>
      <stop offset="100%" stop-color="#1F66D6"/>
    </linearGradient>
    <linearGradient id="lateral-icon_svg__d" x1="34.722%" x2="92.014%" y1="0%" y2="90.75%">
      <stop offset="0%" stop-color="#1F6AE2"/>
      <stop offset="100%" stop-color="#2E7BED"/>
    </linearGradient>
    <linearGradient id="lateral-icon_svg__g" x1="76.5%" x2="0%" y1="48.265%" y2="54.819%">
      <stop offset="0%" stop-color="#0D57D9"/>
      <stop offset="100%" stop-color="#0D57D9"/>
    </linearGradient>
    <path id="lateral-icon_svg__e" d="M234.667 256V0H0l192 256z"/>
    <path id="lateral-icon_svg__h" d="M186.453 0 0 52.693v38.4h256V73.6z"/>
    <circle id="lateral-icon_svg__a" cx="128" cy="128" r="128"/>
  </defs>
  <mask id="lateral-icon_svg__b" fill="#fff">
    <use xlink:href="#lateral-icon_svg__a"/>
  </mask>
  <g mask="url(#lateral-icon_svg__b)">
    <path fill="url(#lateral-icon_svg__c)" d="M378.169 325.99v-256h-256v255.787z" transform="translate(-122.169 -69.99)"/>
    <path fill="#115EDE" d="m-112.514 120.985 181.02-181.02.904.906-181.019 181.02zm15.387 15.387L83.892-44.648l.905.905-181.02 181.02zm15.387 15.386L99.278-29.26l.905.905-181.02 181.02zm15.385 15.387 181.02-181.02.905.906-181.02 181.02zm15.388 15.387L130.052 1.512l.905.905-181.02 181.02zm15.387 15.386L145.438 16.9l.905.905-181.02 181.02zm15.386 15.387 181.019-181.02.905.905-181.02 181.02zm15.386 15.386 181.02-181.02.905.906-181.02 181.02zm15.387 15.387 181.02-181.02.904.906-181.02 181.019zm15.386 15.387 181.02-181.02.905.906L26.87 260.37z"/>
    <path fill="#115EDE" d="m-122.169 84.782.906-.905 181.019 181.02-.905.904zm15.387-15.387.905-.905L75.142 249.509l-.905.905zm15.387-15.387.905-.905 181.02 181.02-.906.904zm15.386-15.387.906-.905 181.019 181.02-.905.904zm15.387-15.387.905-.905 181.02 181.02-.906.905zm15.387-15.386.905-.905 181.02 181.02-.906.905zm15.386-15.386.905-.905 181.02 181.019-.906.905zm15.387-15.387.905-.905 181.02 181.02-.906.904zM.924-38.312l.906-.905 181.019 181.02-.905.904zm15.387-15.387.905-.905 181.02 181.02-.905.905zm15.387-15.386.905-.905 181.019 181.019-.905.905z"/>
    <path fill="url(#lateral-icon_svg__d)" d="M378.169 325.99v-256H143.502l192 256z" transform="translate(-122.169 -69.99)"/>
    <g transform="translate(21.333)">
      <mask id="lateral-icon_svg__f" fill="#fff">
        <use xlink:href="#lateral-icon_svg__e"/>
      </mask>
      <g fill="#3582F7" mask="url(#lateral-icon_svg__f)">
        <path d="m-52.972 40.374 181.019-181.02.905.905-181.02 181.02zM100.894 194.24l181.02-181.02.904.906L101.8 195.146zM-37.586 55.76l181.02-181.019.905.905-181.02 181.02zM116.28 209.627 297.3 28.607l.905.906-181.02 181.02zM-22.2 71.147l181.02-181.02.905.906-181.02 181.02zm153.867 153.867 181.02-181.02.905.906-181.02 181.019zM-6.812 86.534l181.019-181.02.905.906L-5.908 87.439zM147.054 240.4l181.02-181.019.904.905-181.019 181.02zM8.574 101.92l181.02-181.019.905.905-181.02 181.02zM162.44 255.787l181.02-181.02.905.905-181.02 181.02zM23.96 117.307l181.02-181.02.905.906-181.02 181.02zm153.867 153.866 181.02-181.019.905.905-181.02 181.02zm-138.48-138.48 181.02-181.019.905.905L40.252 133.6zM193.214 286.56l181.02-181.02.904.906-181.019 181.02zM54.734 148.08l181.02-181.02.904.906L55.64 148.986zM208.6 301.947l181.02-181.02.905.905-181.02 181.02zM70.12 163.467l181.02-181.02.905.905-181.02 181.02zm153.867 153.866 181.02-181.019.905.905-181.02 181.02zm-138.48-138.48L266.527-2.166l.905.905-181.02 181.02z"/>
        <path d="m-62.627 4.17.905-.905 332.17 332.17-.904.905zm15.387-15.387.905-.905 332.17 332.17-.905.906zm15.386-15.387.905-.905 332.17 332.17-.904.906zm15.387-15.386.905-.905 332.17 332.17-.904.905zM-1.08-57.377l.905-.905 332.17 332.17-.905.905zm15.386-15.386.905-.905 332.17 332.17-.904.905zM29.693-88.15l.905-.905 332.17 332.17-.905.906zm15.387-15.387.905-.905 332.17 332.17-.905.906zm15.386-15.386.905-.905 332.17 332.17-.904.905zm15.387-15.387.905-.905 332.17 332.17-.905.906zm15.387-15.387.905-.905 332.17 332.17-.905.906z"/>
      </g>
    </g>
    <path fill="url(#lateral-icon_svg__g)" stroke="#0D57D9" d="M308.622 234.897 122.169 287.59v38.4h256v-17.493z" transform="translate(-122.169 -69.99)"/>
    <g transform="translate(0 164.907)">
      <mask id="lateral-icon_svg__i" fill="#fff">
        <use xlink:href="#lateral-icon_svg__h"/>
      </mask>
      <g fill="#1362DD" mask="url(#lateral-icon_svg__i)">
        <path d="M-92.725 73.628 398.19-71.788l.727 2.454L-91.998 76.082zm12.36 41.728L410.551-30.06l.727 2.454L-79.638 117.81zm12.36 41.727L422.911 11.667l.727 2.455-490.916 145.416zm12.361 41.728L435.27 53.395l.73 2.455-490.917 145.416z"/>
        <path d="m-75.144.78 2.455-.726L72.726 490.969l-2.454.728zm41.728-12.36 2.455-.727L114.454 478.61l-2.454.727zM8.312-23.94l2.454-.727L156.182 466.25l-2.455.727zM50.04-36.3l2.454-.728L197.91 453.888l-2.455.727zm41.727-12.36 2.455-.728 145.416 490.916-2.455.727zm41.728-12.361 2.455-.727 145.415 490.915-2.454.727zm41.728-12.36 2.455-.727 145.415 490.915-2.454.727zm41.727-12.361 2.456-.727L364.82 404.447l-2.454.727z"/>
      </g>
    </g>
  </g>
  <path fill="#6AABD4" d="m98.133 45.227-11.52 65.706 42.24 22.614z"/>
  <path fill="#E4F6FE" d="M169.387 110.933 98.133 45.227l30.72 88.32z"/>
  <path fill="#A8CCE9" d="m169.387 110.933-40.534 22.614 80.64 47.36z"/>
  <path fill="#D8E9F8" d="m209.493 180.907-80.64-47.36 39.254 64.853z"/>
  <path fill="#84C1F2" d="m168.107 198.4-39.254-64.853-81.92 47.36z"/>
  <path fill="#AECEE9" d="m46.933 180.907 81.92-47.36-42.24-22.614z"/>
</svg>
