<svg xmlns:xlink="http://www.w3.org/1999/xlink" preserveAspectRatio="xMidYMid" viewBox="0 0 512 129" xmlns="http://www.w3.org/2000/svg">
  <defs>
    <linearGradient id="lateral_svg__c" x1="0%" x2="37.75%" y1="73.25%" y2="36.583%">
      <stop offset="0%" stop-color="#0060FF"/>
      <stop offset="100%" stop-color="#1F66D6"/>
    </linearGradient>
    <linearGradient id="lateral_svg__d" x1="34.722%" x2="92.014%" y1="0%" y2="90.75%">
      <stop offset="0%" stop-color="#1F6AE2"/>
      <stop offset="100%" stop-color="#2E7BED"/>
    </linearGradient>
    <linearGradient id="lateral_svg__g" x1="76.5%" x2="0%" y1="48.265%" y2="54.819%">
      <stop offset="0%" stop-color="#0D57D9"/>
      <stop offset="100%" stop-color="#0D57D9"/>
    </linearGradient>
    <path id="lateral_svg__e" d="M118.034 128.765V0H0l96.573 128.765z"/>
    <path id="lateral_svg__h" d="M93.784 0 0 26.504v19.315h128.765v-8.8z"/>
    <circle id="lateral_svg__a" cx="64.382" cy="64.382" r="64.382"/>
  </defs>
  <path fill="#006BFF" d="M181.809 38.366c0-2.344-.306-3.873-.714-4.587-.408-.611-1.427-1.02-3.058-1.02-1.223 0-2.65.205-4.18.51v63.304h23.548c1.223 0 2.14-.203 2.65-.611.408-.408.714-1.325.714-2.65 0-.816-.102-1.836-.306-3.059l-18.654.408V38.366Zm63.098 53.824c.408 2.039.917 3.262 1.631 3.874.612.611 1.835.815 3.568.815 1.835 0 3.364-.204 4.485-.815L239.81 32.76h-11.621l-3.976 15.902c-2.65 10.704-5.3 21.407-7.95 32.009-2.651 10.602-3.874 15.902-3.773 15.902h7.85l2.956-13.66h19.674l1.937 9.277Zm-12.029-53.008h1.223l7.748 38.125h-17.33l8.36-38.125Zm45.763-1.121v58.512h7.951V38.265l10.908.101c1.529.102 2.548-.101 3.16-.51.611-.407.917-1.12.917-2.344 0-.611-.102-1.529-.204-2.752H268.04c-1.631 0-2.65.204-3.16.611-.612.408-.816 1.224-.816 2.243 0 .816.102 1.835.306 2.854l14.272-.407Zm49.325 28.746 16.412.306c1.223 0 2.039-.204 2.549-.713.51-.51.815-1.428.815-2.65 0-1.02-.102-1.938-.204-2.651h-19.572V38.57l19.266.204c1.427 0 2.345-.204 2.957-.611.51-.408.815-1.224.815-2.447 0-.714-.102-1.733-.306-2.956h-30.683v57.799c0 2.752.306 4.485.917 5.097.612.612 2.447.917 5.505.917h20.693c1.428 0 2.345-.203 2.855-.713.407-.51.713-1.427.713-2.753 0-.611-.102-1.63-.204-2.854l-22.528.408V66.807Zm57.134-1.529c-2.549 0-4.69-.204-6.422-.611V38.265c1.63-.204 3.975-.306 6.83-.306 4.689 0 7.95 1.02 9.99 3.058 1.936 2.039 2.956 5.3 2.956 9.99 0 5.403-1.325 9.378-3.976 12.029-2.039 1.529-5.097 2.242-9.378 2.242Zm-14.373 31.295h7.95v-25.79c1.836.204 3.467.306 5.098.306 1.835 0 3.568-.102 4.995-.408l8.664 22.528c.51 1.428 1.224 2.447 2.04 2.957.815.611 2.038.815 3.669.815 1.835 0 3.466-.306 4.791-1.02l-12.64-27.625c3.16-1.223 5.912-3.465 8.257-6.83 2.344-3.363 3.568-7.135 3.568-11.213 0-11.62-6.015-17.533-18.044-17.533h-18.348v63.813Zm85.086-4.383c.408 2.039.918 3.262 1.631 3.874.612.611 1.835.815 3.568.815 1.835 0 3.364-.204 4.485-.815l-14.78-63.304h-11.622l-3.975 15.902c-2.65 10.704-5.301 21.407-7.952 32.009-2.65 10.602-3.873 15.902-3.771 15.902h7.849l2.956-13.66h19.674l1.937 9.277Zm-12.029-53.008h1.224l7.747 38.125h-17.33l8.36-38.125Zm49.255-.816c0-2.344-.305-3.873-.713-4.587-.408-.611-1.427-1.02-3.058-1.02-1.224 0-2.65.205-4.18.51v63.304h23.548c1.223 0 2.14-.203 2.65-.611.408-.408.714-1.325.714-2.65 0-.816-.102-1.836-.306-3.059l-18.655.408V38.366Z"/>
  <mask id="lateral_svg__b" fill="#fff">
    <use xlink:href="#lateral_svg__a"/>
  </mask>
  <g mask="url(#lateral_svg__b)">
    <path fill="url(#lateral_svg__c)" d="M190.214 163.969V35.204H61.449v128.657z" transform="translate(-61.45 -35.204)"/>
    <path fill="#115EDE" d="m-56.593 60.854 91.05-91.05.455.455-91.05 91.05zm7.739 7.739 91.05-91.05.456.455-91.05 91.05zm7.739 7.739 91.05-91.05.456.455-91.05 91.05zm7.739 7.74 91.05-91.05.456.455-91.05 91.05zm7.74 7.739L65.414.761l.456.455-91.05 91.05zm7.739 7.739L73.153 8.5l.456.455-91.05 91.05zm7.74 7.74 91.05-91.051.455.455-91.05 91.05zm7.739 7.739 91.05-91.05.455.455-91.05 91.05zm7.739 7.739 91.05-91.05.456.455-91.05 91.05zm7.739 7.739 91.05-91.05.456.455-91.05 91.05z"/>
    <path fill="#115EDE" d="m-61.45 42.644.456-.455 91.05 91.05-.455.455zm7.74-7.739.455-.456 91.05 91.05-.455.456zm7.74-7.74.455-.455 91.05 91.05-.455.456zm7.739-7.739.455-.455 91.05 91.05-.455.455zm7.739-7.739.455-.456 91.05 91.05-.455.456zm7.739-7.739.455-.456 91.05 91.05-.454.456zm7.739-7.74.456-.455 91.05 91.05-.455.456zm7.74-7.739.455-.455 91.05 91.05-.455.455zM.465-19.27l.455-.456 91.05 91.05-.455.456zm7.739-7.74.456-.455 91.05 91.05-.455.456zm7.739-7.739.456-.455 91.05 91.05-.455.455z"/>
    <path fill="url(#lateral_svg__d)" d="M190.214 163.969V35.204H72.179l96.574 128.765z" transform="translate(-61.45 -35.204)"/>
    <g transform="translate(10.73)">
      <mask id="lateral_svg__f" fill="#fff">
        <use xlink:href="#lateral_svg__e"/>
      </mask>
      <g fill="#3582F7" mask="url(#lateral_svg__f)">
        <path d="m-26.644 20.307 91.05-91.05.455.455-91.05 91.05zM50.748 97.7l91.05-91.05.456.455-91.05 91.05zm-69.653-69.653 91.05-91.05.455.455-91.05 91.05zm77.393 77.393 91.05-91.05.455.455-91.05 91.05zm-69.654-69.654 91.05-91.05.456.455-91.05 91.05zm77.393 77.393 91.05-91.05.455.455-91.05 91.05zM-3.427 43.525l91.05-91.05.456.455-91.05 91.05zm77.393 77.393 91.05-91.05.456.455-91.05 91.05zM4.313 51.265l91.05-91.05.455.455-91.05 91.05zm77.392 77.392 91.05-91.05.456.455-91.05 91.05zM12.052 59.004l91.05-91.05.455.455-91.05 91.05zm77.393 77.393 91.05-91.05.455.454-91.05 91.05zM19.791 66.743l91.05-91.05.456.455-91.05 91.05zm77.393 77.393 91.05-91.05.455.455-91.05 91.05zM27.53 74.482l91.05-91.05.456.455-91.05 91.05zm77.393 77.393 91.05-91.05.456.455-91.05 91.05zM35.27 82.222l91.05-91.05.455.454-91.05 91.05zm77.393 77.392 91.05-91.05.455.455-91.05 91.05zM43.009 89.96l91.05-91.05.455.456-91.05 91.05z"/>
        <path d="m-31.5 2.097.455-.455L136.032 168.72l-.455.456zm7.739-7.739.455-.455L143.771 160.98l-.455.455zm7.739-7.739.455-.455L151.51 153.24l-.455.455zm7.739-7.739.456-.456L159.25 145.501l-.455.456zm7.74-7.74.455-.455 167.077 167.077-.455.455zm7.739-7.739.455-.455 167.077 167.077-.455.455zm7.739-7.739.455-.455 167.078 167.077-.456.455zm7.739-7.739.456-.456 167.077 167.078-.455.455zm7.74-7.74.455-.455 167.077 167.077-.455.455zm7.739-7.739.455-.455L205.685 99.066l-.455.455zm7.739-7.739.455-.456L213.425 91.327l-.456.455z"/>
      </g>
    </g>
    <path fill="url(#lateral_svg__g)" stroke="#0D57D9" d="m155.233 118.15-93.784 26.504v19.315h128.765v-8.8z" transform="translate(-61.45 -35.204)"/>
    <g transform="translate(0 82.946)">
      <mask id="lateral_svg__i" fill="#fff">
        <use xlink:href="#lateral_svg__h"/>
      </mask>
      <g fill="#1362DD" mask="url(#lateral_svg__i)">
        <path d="m-46.64 37.034 246.924-73.142.366 1.234-246.924 73.142zm6.218 20.988L206.502-15.12l.365 1.235-246.924 73.142zm6.217 20.988L212.718 5.87l.366 1.234L-33.84 80.245zm6.217 20.99 246.924-73.143.365 1.235-246.924 73.142z"/>
        <path d="m-37.796.393 1.234-.366L36.58 246.951l-1.234.366zm20.988-6.217 1.235-.366 73.142 246.924-1.235.366zM4.18-12.041l1.235-.366 73.142 246.924-1.234.366zm20.99-6.218 1.234-.366L99.546 228.3l-1.235.366zm20.988-6.217 1.234-.365 73.143 246.924-1.235.365zm20.988-6.217 1.235-.366 73.142 246.924-1.235.366zm20.989-6.217 1.234-.366 73.143 246.924-1.235.366zm20.988-6.217 1.235-.366L183.5 203.431l-1.234.366z"/>
      </g>
    </g>
  </g>
  <path fill="#6AABD4" d="m49.36 22.748-5.795 33.05 21.246 11.374z"/>
  <path fill="#E4F6FE" d="m85.2 55.798-35.84-33.05 15.45 44.424z"/>
  <path fill="#A8CCE9" d="M85.2 55.798 64.81 67.172l40.561 23.822z"/>
  <path fill="#D8E9F8" d="m105.372 90.994-40.56-23.822 19.743 32.62z"/>
  <path fill="#84C1F2" d="m84.555 99.793-19.744-32.62-41.204 23.82z"/>
  <path fill="#AECEE9" d="M23.607 90.994 64.81 67.172 43.565 55.798z"/>
</svg>
