<svg preserveAspectRatio="xMidYMid" viewBox="0 0 512 80" xmlns="http://www.w3.org/2000/svg">
  <path d="M30.632 61.656v-7.485H8.489v-36.8H0v44.285h30.632Zm21.261-1.352a12.328 12.328 0 0 0 4.153-5.505v6.857h8.114V40.272a11.028 11.028 0 0 0-1.745-6.107 11.246 11.246 0 0 0-4.833-4.118 17.685 17.685 0 0 0-7.52-1.474 25.231 25.231 0 0 0-4.59.401 22.99 22.99 0 0 0-4.188 1.195 24.027 24.027 0 0 0-3.611 1.798l.244 7.607a27.508 27.508 0 0 1 5.854-2.983 18.75 18.75 0 0 1 6.351-1.039 6.56 6.56 0 0 1 4.363 1.318 4.24 4.24 0 0 1 1.57 3.402v2.199h-7.198c-4.321 0-7.738.913-10.251 2.74a8.82 8.82 0 0 0-3.778 7.572 9.597 9.597 0 0 0 1.257 4.877 8.925 8.925 0 0 0 3.638 3.412 11.394 11.394 0 0 0 5.444 1.256 11.037 11.037 0 0 0 6.726-2.024Zm-7.328-5.505a3.394 3.394 0 0 1-1.352-2.897 3.795 3.795 0 0 1 1.884-3.394 10.626 10.626 0 0 1 5.601-1.195h5.235v1.256a6.77 6.77 0 0 1-.873 3.211 7.852 7.852 0 0 1-2.713 2.862 7.407 7.407 0 0 1-4.161 1.195 5.924 5.924 0 0 1-3.621-1.038Zm45.446 5.4a14.744 14.744 0 0 0 4.214-6.718v8.175h8.245v-32.08h-8.245v14.971a15.573 15.573 0 0 1-1.003 5.759 8.847 8.847 0 0 1-2.923 3.96 7.294 7.294 0 0 1-4.44 1.414 5.54 5.54 0 0 1-4.241-1.588 6.474 6.474 0 0 1-1.483-4.598V29.576h-8.236v20.067c0 4.152.986 7.351 2.957 9.597a10.033 10.033 0 0 0 8.027 3.42c2.6.093 5.14-.784 7.128-2.46Zm29.663 1.475v-14.99a15.573 15.573 0 0 1 1.004-5.757 8.934 8.934 0 0 1 2.896-3.961 7.137 7.137 0 0 1 4.406-1.414 5.54 5.54 0 0 1 4.24 1.57 6.465 6.465 0 0 1 1.483 4.59v19.944h8.306V41.59c0-4.153-.997-7.352-2.992-9.597a10.13 10.13 0 0 0-8.018-3.394 10.356 10.356 0 0 0-7.137 2.478 14.997 14.997 0 0 0-4.188 6.7v-8.2h-8.236v32.08l8.236.017Zm50.036.689a19.56 19.56 0 0 0 2.992-.69c.925-.296 1.745-.584 2.617-.872l.061-7.8a18.644 18.644 0 0 1-4.187 1.51c-1.453.34-2.94.51-4.432.506a11.42 11.42 0 0 1-5.567-1.23 7.747 7.747 0 0 1-3.306-3.368 11.272 11.272 0 0 1 0-9.597 7.94 7.94 0 0 1 3.306-3.394 10.95 10.95 0 0 1 5.444-1.256c1.56-.008 3.113.183 4.624.567a22.5 22.5 0 0 1 4.118 1.51l-.06-7.992a21.89 21.89 0 0 0-2.705-.873 25.17 25.17 0 0 0-6.29-.785 19.43 19.43 0 0 0-9.537 2.233 15.704 15.704 0 0 0-6.255 6.108 17.606 17.606 0 0 0-2.207 8.803 17.1 17.1 0 0 0 2.233 8.724 15.451 15.451 0 0 0 6.29 5.977 19.936 19.936 0 0 0 9.406 2.137c1.144.008 2.287-.07 3.42-.236l.035.018Zm21.235-.69V46.686a15.573 15.573 0 0 1 1.003-5.758 8.847 8.847 0 0 1 2.923-3.961 7.198 7.198 0 0 1 4.362-1.414 5.619 5.619 0 0 1 4.302 1.57 6.465 6.465 0 0 1 1.483 4.59v19.944h8.236V41.59c0-4.153-.986-7.352-2.958-9.597a10.033 10.033 0 0 0-7.983-3.394 10.47 10.47 0 0 0-7.171 2.478 14.832 14.832 0 0 0-4.214 6.7V17.371h-8.114v44.285l8.131.018Zm48.814 0c4.168.124 8.3-.806 12.013-2.704a18.051 18.051 0 0 0 7.547-7.678 25.04 25.04 0 0 0 2.574-11.7 25.301 25.301 0 0 0-2.574-11.725 18.19 18.19 0 0 0-7.547-7.739 24.594 24.594 0 0 0-12.013-2.739h-17.022v44.268l17.022.018Zm-8.559-7.502V24.856h8.428c4.24 0 7.564 1.291 9.972 3.874 2.408 2.582 3.615 6.197 3.62 10.844 0 4.654-1.206 8.251-3.62 10.793-2.414 2.541-5.738 3.81-9.972 3.804H231.2Zm52.277 6.107a12.398 12.398 0 0 0 4.153-5.505v6.857h8.131V40.272a11.028 11.028 0 0 0-1.7-6.107 11.272 11.272 0 0 0-4.878-4.118 17.676 17.676 0 0 0-7.512-1.474 25.301 25.301 0 0 0-4.597.401 22.893 22.893 0 0 0-4.18 1.195 23.73 23.73 0 0 0-3.62 1.798l.253 7.607a27.308 27.308 0 0 1 5.854-2.983 18.723 18.723 0 0 1 6.351-1.039 6.535 6.535 0 0 1 4.363 1.318 4.249 4.249 0 0 1 1.579 3.402v2.199h-7.172c-4.362 0-7.738.872-10.26 2.74a8.83 8.83 0 0 0-3.769 7.572 9.597 9.597 0 0 0 1.257 4.877 8.873 8.873 0 0 0 3.603 3.412 11.342 11.342 0 0 0 5.435 1.256c2.42.087 4.803-.624 6.78-2.024l-.07-.026Zm-7.328-5.505a3.368 3.368 0 0 1-1.326-2.87 3.795 3.795 0 0 1 1.884-3.395 10.609 10.609 0 0 1 5.601-1.195h5.235v1.256a6.875 6.875 0 0 1-.872 3.211 7.852 7.852 0 0 1-2.705 2.862 7.416 7.416 0 0 1-4.18 1.195 5.898 5.898 0 0 1-3.611-1.038l-.026-.026Zm36.19 6.883V47.985c0-3.56.75-6.282 2.259-8.14a7.442 7.442 0 0 1 6.107-2.8c1.15-.01 2.295.158 3.394.497v-7.879a9.1 9.1 0 0 0-1.606-.34 13.209 13.209 0 0 0-1.744-.096 7.067 7.067 0 0 0-5.165 2.181 13.497 13.497 0 0 0-3.246 5.846v-7.678h-8.245v32.08h8.245Zm25.222 0V51.274l2.957-2.827 9.597 13.21h9.685l-13.707-18.75 13.454-13.33h-10.313l-11.7 11.428V17.45h-8.113v44.207h8.14Zm35.543 0V17.371h-8.183v44.285h8.183Zm12.52 11.953a13.49 13.49 0 0 0 7.416-1.858c1.925-1.24 3.519-3.389 4.781-6.448l14.753-35.727h-8.428l-8.724 22.457-8.82-22.457h-8.429l13.21 32.02-.699 1.63a4.903 4.903 0 0 1-1.745 2.391 5.83 5.83 0 0 1-3.297.76h-6.85v7.232h6.832Z"/>
  <path d="M472.957 79.027a1.745 1.745 0 0 1-1.57-.977 1.658 1.658 0 0 1 .156-1.745l18.566-25.563-32.508 13.279c-.22.095-.457.146-.697.148a1.745 1.745 0 0 1-1.667-1.256 1.675 1.675 0 0 1 .716-1.911l28.59-16.882-50.34-2.897a1.745 1.745 0 0 1 0-3.437l50.366-2.888-28.599-16.882a1.675 1.675 0 0 1-.715-1.91 1.745 1.745 0 0 1 1.657-1.257c.242 0 .48.053.698.157l32.517 13.296L471.56 2.748a1.658 1.658 0 0 1-.157-1.745A1.745 1.745 0 0 1 472.965 0c.459.003.896.192 1.213.523l37 36.992a2.81 2.81 0 0 1 0 3.97l-37.017 37.036a1.684 1.684 0 0 1-1.204.506Z"/>
</svg>
