<svg preserveAspectRatio="xMidYMid" viewBox="0 0 256 239" xmlns="http://www.w3.org/2000/svg">
  <defs>
    <linearGradient id="linkerd_svg__a" x1="50%" x2="50%" y1="0%" y2="100%">
      <stop offset="0%" stop-color="#4AD8AC"/>
      <stop offset="100%" stop-color="#4076C4"/>
    </linearGradient>
  </defs>
  <path fill="#40A0B4" d="m238.218 141.656 17.777 10.263v-96.4l-17.777-10.267z"/>
  <path fill="#40A0B4" d="M0 55.52v96.405l17.778-10.268V45.255z"/>
  <path fill="#40A0B4" d="m78.232 227.958 17.778 10.263 42.329-24.439-17.778-10.263z"/>
  <path fill="#338090" d="m103.118 213.59 17.777 10.265 17.444-10.073-17.778-10.263z"/>
  <g fill="#45C1A8">
    <path d="M168.884 198.188V177.66l-76.546-44.195-5.226 3.017.009.005v14.494z"/>
    <path d="M87.12 196.144 160 238.222l17.781-10.263-90.661-52.345z"/>
  </g>
  <g fill="#7CE1C0">
    <path d="m194.712 70.374 17.776 10.263 43.508-25.118-17.782-10.261z"/>
    <path d="m136.99 124.229-17.778-10.263-40.988 23.666L96 147.895z"/>
    <path d="M216.893 32.943 199.11 22.679l-43.5 25.119 17.778 10.265z"/>
    <path d="M97.888 101.653 80.11 91.39l-40.99 23.665 17.78 10.263z"/>
    <path d="m116.507 25.222 17.778 10.263 43.506-25.118L160.009.104z"/>
    <path d="m.02 92.478 17.777 10.263 40.988-23.664-17.777-10.265z"/>
  </g>
  <g fill="url(#linkerd_svg__a)" transform="translate(0 92.444)">
    <path d="M238.218 10.29v90.327l17.777-10.265V.027z"/>
    <path d="M216.884 112.933V22.607L199.106 32.87v90.328z"/>
    <path d="M159.994 55.451v90.327l17.78-10.264V45.186z"/>
    <path d="m78.232 135.514 17.778 10.263V55.453L78.232 45.187z"/>
    <path d="M56.899 32.871v90.326L39.12 112.934V22.607z"/>
    <path d="m.01 90.352 17.777 10.263V10.29L.01.025z"/>
  </g>
  <g fill="#45C1A8">
    <path d="m103.108 123.263 17.778 10.263 16.105-9.297-17.778-10.263z"/>
    <path d="m24.904 78.11 17.778 10.264 16.103-9.298-17.776-10.263z"/>
    <path d="m64.006 100.687 17.778 10.263 16.103-9.298L80.11 91.39z"/>
  </g>
  <g fill="#A2EACF">
    <path d="m96.002.094-17.78 10.263 159.993 92.375 17.78-10.263z"/>
    <path d="M56.89 22.676 39.111 32.939l159.99 92.375 17.782-10.263z"/>
    <path d="m0 55.52 159.991 92.375 17.781-10.263L17.778 45.257z"/>
  </g>
</svg>
