<svg fill="none" viewBox="0 0 703 185" xmlns="http://www.w3.org/2000/svg">
  <mask id="loreal-1_svg__a" width="703" height="185" x="0" y="0" maskUnits="userSpaceOnUse" style="mask-type:luminance">
    <path fill="#fff" d="M.604.11h702.04v184.48H.604V.11Z"/>
  </mask>
  <g mask="url(#loreal-1_svg__a)">
    <path fill="#3D3D3D" d="M515.844 177.94V167.8h15.66v-6.1h-15.66v-9.43h19.35v-6.1h-26.03v37.88h26.03v-6.1l-19.35-.01Zm-55.49-25.55c.9-.05 1.79.08 2.63.39.84.31 1.61.8 2.27 1.43.65.63 1.17 1.38 1.53 2.22.36.84.54 1.74.54 2.66 0 .91-.18 1.82-.54 2.66-.36.84-.87 1.6-1.53 2.22-.65.63-1.42 1.11-2.27 1.43-.84.31-1.74.45-2.63.39h-10v-13.41h10v.01Zm-16.68 31.66h6.68v-12.1h9.94c8.34 0 13.74-5.07 13.74-12.97 0-7.74-5.45-12.81-13.74-12.81h-16.63l.01 37.88Zm-68.79-37.88v23.22c0 9.32 6.63 15.21 16.04 15.21s16.04-5.89 16.04-15.15v-23.27h-6.63v23.27c0 5.12-3.53 8.83-9.41 8.83-5.77 0-9.35-3.71-9.35-8.88v-23.22l-6.69-.01Zm-53.99 32.1c-3.34-.13-6.49-1.58-8.8-4.03a13.32 13.32 0 0 1-3.61-9.13c0-3.4 1.29-6.67 3.61-9.13 2.31-2.45 5.47-3.9 8.8-4.03 7 0 12.35 5.4 12.35 13.19.08 1.7-.17 3.4-.76 5-.58 1.6-1.48 3.05-2.64 4.28a12.296 12.296 0 0 1-4.09 2.87c-1.53.66-3.19.99-4.86.98Zm0-32.65c-3.78.02-7.46 1.17-10.59 3.32s-5.57 5.2-7 8.76c-1.44 3.56-1.8 7.47-1.06 11.25a19.643 19.643 0 0 0 5.24 9.96c2.67 2.72 6.08 4.57 9.78 5.32 3.7.75 7.54.36 11.03-1.11 3.49-1.47 6.47-3.97 8.57-7.16 2.1-3.2 3.22-6.96 3.23-10.81.06-2.58-.4-5.15-1.35-7.55-.94-2.4-2.36-4.57-4.15-6.4a18.412 18.412 0 0 0-6.29-4.21 18.316 18.316 0 0 0-7.41-1.37Zm-66.98 6.77c4.49 0 6.95 2.72 6.95 6.16 0 3.6-2.41 6.32-6.95 6.32h-8.93v-12.49h8.93v.01Zm-15.6 31.66h6.68v-12.97h7.64l9.46 12.97h7.91l-10.75-14.44c2.45-.64 4.61-2.11 6.13-4.17a11.393 11.393 0 0 0 2.21-7.16c0-7.36-5.4-12.1-13.74-12.1h-15.55l.01 37.87Zm-35.87-20.55h-15.98v5.61h9.73v7.52c-2.52 1.2-5.29 1.77-8.07 1.69-7.64 0-13.31-4.91-13.31-13.24-.05-1.73.24-3.45.86-5.06.62-1.61 1.56-3.07 2.75-4.3 1.2-1.23 2.62-2.2 4.2-2.84 1.57-.65 3.26-.96 4.96-.92 1.92-.06 3.83.28 5.63.99 1.79.71 3.42 1.78 4.8 3.15l3.96-5.07c-3.93-3.63-9.08-5.56-14.38-5.4-11.12 0-19.56 8.23-19.56 19.46 0 11.83 8.34 19.51 20.1 19.51 5.08.05 10.07-1.43 14.32-4.25l-.01-16.85Zm180.1-42.6h90.59v-11.28h-75.07V73.51h56.38V62.1h-56.38V28.84h75.06V17.59h-90.59V120.9h.01Zm47.08-120-12.26 14.04L455.864.9h-26.24Zm181.44 16.7v103.29h91.58v-11.28h-77.43V17.59h-14.15v.01Zm-79.23 0-51.51 103.3h17.41l13.18-26.74h61.79l13.29 26.74h17.24l-51.57-103.3h-19.83Zm-14.4 63.61 24.27-49.34 24.57 49.34h-48.84Zm-184.05-3.5c23.21-6.31 25.47-23.93 25.35-30.22-1.38-18.45-13.58-29.88-35.49-29.88h-63.86V120.9h14.56V77.56h41.57l30.58 43.32h18.35s-22-29.16-31.06-43.19v.02Zm-12.13-12.37h-47.31V29.83h48.97c11.26 0 17.61 5.36 19.89 12.18.68 2.5.86 5.12.52 7.7a19.66 19.66 0 0 1-2.48 7.29c-4.09 6.9-11.86 8.37-19.59 8.37m-149.85 51.42c-28.43 0-51.85-23.29-51.85-51.35 0-28.03 22.31-52.43 52.95-52.43 6.79-.06 13.52 1.26 19.81 3.87a51.267 51.267 0 0 1 16.83 11.34 52.442 52.442 0 0 1 11.26 17.06 53.312 53.312 0 0 1 3.95 20.16c-.01 28.05-24.53 51.35-52.95 51.35Zm.49-116.68c-41.09 0-69.1 29.54-69.1 65.29 0 37.64 30.94 64.21 69.1 64.21s69.07-26.19 69.07-64.21c0-35.75-28.36-65.29-69.07-65.29ZM66.134 54.14h10.5l19.07-36.54h-15.34l-14.23 36.54ZM.604 17.6v103.29h91.57v-11.28h-77.4V17.59H.604v.01Z"/>
  </g>
</svg>
