<svg fill="none" viewBox="0 0 241 53" xmlns="http://www.w3.org/2000/svg">
  <path fill="#000" d="M28.352 10h3.574v19.406h-3.52V17.622l-6.17 11.784H19.69l-6.173-11.784v11.784H10V10h3.574l7.386 14.133zm39.885 8.03L62.03 10h-4.629l9.066 11.474v7.932h3.521v-7.932L79.073 10h-4.48zm43.991 3.06h11.637v-3.396h-11.637v-4.298h12.131V10h-15.652v19.406h15.791v-3.445h-12.27zm35.587 4.852h-10.961V10h-3.516v19.406h14.477zm21.753 0h-10.96V10h-3.516v19.406h14.476zM180.092 10h-3.516v19.406h3.516zm22.703 13.235L192.065 10h-3.147v19.406h3.516v-13.26l10.553 13.037.158.199h3.157V10h-3.516zm28.028 2.727h-12.271V21.11h11.618v-3.396h-11.618v-4.318h12.127V10h-15.647v19.406h15.791zm-179.26-2.029H43.89l-2.437 5.473h-3.91L46.346 10h2.782l8.802 19.406h-3.905zm-3.837-8.495c-.633 1.403-1.731 3.833-2.288 5.075h4.581c-.547-1.237-1.645-3.658-2.283-5.075zm53.095 8.064a5.661 5.661 0 0 1-1.559 4.017c-1.208 1.237-2.978 1.863-5.276 1.863H83.913V10h10.231c3.838 0 6.092 2.018 6.092 5.405a4.882 4.882 0 0 1-1.496 3.73c1.918 1.373 2.081 3.644 2.081 4.367zm-4.077-8.03c0-1.76-.806-2.056-3.228-2.056h-6.063v4.26h6.236c2.691 0 3.055-1.117 3.055-2.203zm-3.252 5.619h-6.039v4.851h6.317c3.171 0 3.535-1.455 3.535-2.557-.004-1.96-1.175-2.294-3.813-2.294zm47.488 18.77-5.248-6.574h-2.398v9.475h2.249v-6.598l5.277 6.598h2.398v-9.475h-2.259zm8.202-1.193h5.996V37.08h-5.977v-2.15h6.481v-1.644h-8.831v9.475h8.97v-1.664h-6.62zm21.106 1.407-2.255-6.793h-2.321l-2.312 6.793-2.077-6.793h-2.399l3.195 9.403.029.092h2.336l2.369-6.84 2.307 6.825h2.303l3.358-9.494h-2.399zm15.004-2.761-3.056-4.027h-2.758l4.61 5.788v3.707h2.346v-3.726l4.59-5.769h-2.672zm18.429.723c0 2.91-2.398 4.963-5.833 4.963-3.434 0-5.804-2.042-5.804-4.963 0-2.92 2.398-4.968 5.828-4.968s5.833 2.042 5.833 4.968zm-2.35 0c0-2.494-1.876-3.396-3.483-3.396-2.571 0-3.482 1.824-3.482 3.396 0 1.572.911 3.396 3.482 3.396 1.631-.02 3.502-.902 3.502-3.396zm15.671 4.497.283.238h-2.663l-.038-.053a2.191 2.191 0 0 1-.345-1.456c0-1.562-.336-2.304-2.236-2.304h-2.93v3.798h-2.351v-9.47h5.814c2.624 0 4.067.937 4.067 2.63a2.374 2.374 0 0 1-1.631 2.31 1.94 1.94 0 0 1 1.44 1.988c.014 1.135.239 2.004.613 2.32zm-4.682-7.67h-3.247v2.615h3.309c.868 0 1.919-.233 1.919-1.339 0-.912-.604-1.276-1.957-1.276zm18.429-1.577h-3.017l-5.118 4.061v-4.06h-2.351v9.474h2.351v-3.168l1.549-1.188 3.837 4.366H231l-5.147-5.671z"/>
</svg>
