<svg class="meta-spark_svg__img-fluid" style="transform:none;transform-origin:50% 50%;cursor:move;max-height:none" viewBox="0 0 14640 3660" xmlns="http://www.w3.org/2000/svg">
  <g fill="#213842" style="transform:none">
    <path d="M10010 2250v-790h220v75c0 41 1 75 3 75s28-24 58-53c137-133 346-164 529-79 82 38 188 148 232 242 119 251 71 581-108 752-145 138-370 177-548 94-28-12-75-44-103-70l-53-48v592h-230v-790zm696 117c158-81 223-312 148-530-24-71-102-151-172-177-47-18-72-21-142-18-99 5-157 27-219 84-76 68-81 87-81 301 0 207-2 201 69 276 35 37 89 71 141 88 14 5 66 7 115 6 74-3 99-8 141-30z"/>
    <path d="M5320 2595c-102-23-187-70-263-146-272-271-201-794 129-958 254-126 552-47 682 180 53 95 92 258 92 391v38l-417 2-418 3 4 25c14 100 88 202 179 247 53 26 66 28 172 27 131 0 194-18 273-79 25-19 48-35 51-35 2 0 32 33 65 73l60 74-47 35c-62 47-154 93-228 112-86 24-254 29-334 11zm405-707c-10-65-61-163-103-198-109-90-319-73-408 33-34 40-71 116-83 166l-9 41h610l-7-42z"/>
    <path d="M6547 2600c-153-26-252-135-277-305-5-39-10-199-10-357v-288h-220v-190h220v-330h230v330h340v190h-341l3 313c3 289 4 315 23 351 36 71 60 81 196 81h120l-3 95-3 95-65 11c-76 14-146 15-213 4z"/>
    <path d="M7343 2595c-128-35-246-131-311-252-97-184-97-462 0-646 148-279 533-354 753-146l55 52v-143h230v1120h-230v-153l-58 55c-32 31-77 65-100 77-97 50-234 64-339 36zm334-228c62-32 115-83 143-137 18-35 20-59 20-212v-173l-30-53c-56-97-161-152-291-152-136 0-233 63-292 188-31 64-32 72-32 192 1 157 21 218 99 296 69 69 115 84 236 81 80-3 103-7 147-30z"/>
    <path d="M9038 2595c-165-31-310-110-399-217-27-32-49-63-49-68s38-38 84-75l84-65 61 64c99 103 232 155 393 156 202 0 318-79 318-216 0-86-44-148-130-186-25-11-126-37-225-59-99-21-202-46-230-55-227-74-343-251-305-464 41-230 246-363 555-363 178 0 307 40 422 132 50 39 133 134 133 151 0 4-39 36-87 70-71 51-88 59-95 46-35-62-128-131-218-162-76-25-244-25-318 0-63 21-119 68-138 113-18 43-18 117 1 152 37 73 103 102 355 156 198 42 277 69 355 121 99 65 160 168 171 289 21 234-106 405-351 470-85 23-291 28-387 10z"/>
    <path d="M11660 2592c-241-63-394-314-377-617 10-166 56-280 157-388 181-194 492-210 673-36 28 27 52 49 54 49s3-31 3-70v-70h220v1120h-220v-161l-57 58c-117 118-282 160-453 115zm298-207c65-20 128-67 170-129l32-48v-374l-29-45c-60-96-160-149-280-149-96 0-160 22-220 76-109 98-148 286-96 462 30 99 99 175 192 208 51 18 168 17 231-1z"/>
    <path d="M3050 1825v-755h296l254 460c140 253 257 460 261 460s121-207 260-460l254-460h285v1510h-230v-580c0-319-3-580-7-580-5 0-107 179-228 398l-220 397-116 3-115 3-214-387c-118-213-220-394-227-403-10-13-12 106-13 567v582h-240v-755z"/>
    <path d="M12660 2020v-560h230v173l29-39c85-116 199-169 325-150l46 7v207h-92c-141 0-220 36-279 130l-29 46v746h-230v-560z"/>
    <path d="M13470 1790v-790h220v470c0 264 4 470 9 470 11 0 307-292 403-398l75-83 136 3 136 3-155 165c-85 91-199 206-253 255-55 50-100 95-100 101-1 6 29 37 65 68 64 58 345 351 445 467l51 59h-290l-119-132c-139-156-378-398-393-398-6 0-10 90-10 265v265h-220v-790z"/>
  </g>
  <g fill="#0094F8" style="transform:none">
    <path d="M460 2596c-188-55-298-217-316-466-4-47-3-125 0-172l8-87 91 6c51 3 106 8 122 12l30 7v145c0 130 3 149 24 197 30 67 77 109 134 117 94 14 167-31 269-165 83-108 400-609 393-620-3-5 3-10 13-10 14 0 37 26 76 86 54 83 72 140 42 128-9-3-47 56-122 188-213 379-344 546-478 609-56 26-82 32-154 35-53 2-105-2-132-10z"/>
    <path d="M2045 2604c-11-3-41-12-67-20-45-15-48-18-48-49 0-46 9-65 30-65 43 0 50-10 50-70 0-33 4-61 9-64s25 1 45 9c50 21 94 19 146-7 82-42 117-158 105-348-24-374-160-661-356-750-66-29-161-27-226 6-75 37-243 225-243 271 0 14-19 17-36 5-28-18-104-134-104-159 0-20 3-24 11-16s26-8 68-60c80-101 173-181 259-224 317-158 687 134 807 639 81 340 46 634-92 788-66 73-149 111-255 116-46 1-92 1-103-2z"/>
  </g>
  <path fill="#0082E9" d="M2003 2584c-3-8-12-13-19-10-9 3-14-2-14-14 0-11 6-20 14-20 9 0 12-7 9-20-10-39-33-14-33 36v25l-38-21c-116-65-216-192-421-535-79-132-150-245-157-251-18-15-113-161-125-192-28-73-185-239-263-277-124-61-223-41-326 64-103 106-180 273-216 473l-17 90-35-7c-36-7-95-12-170-16-26-2-42-8-42-16 0-7 9-57 19-111 48-247 150-452 296-597 178-176 397-213 609-103 70 37 295 255 360 351 22 31 43 57 48 57 4 0 8 8 8 18 0 9 9 31 20 47 12 17 71 113 132 215 224 372 338 533 403 568 15 8 17 13 7 24-7 9-10 36-7 71 4 47 2 57-11 57-11 0-13 6-9 21 5 14 2 25-6 30-11 7-11 9-1 9 16 0 42 24 42 39 0 17-50 13-57-5z" style="transform:none"/>
</svg>
