<svg fill="none" viewBox="0 0 215 75" xmlns="http://www.w3.org/2000/svg">
  <path fill="#5C686D" d="M7.967 73.62H.1V34.395h10.906l9.762 21.848c3.397-7.58 6.615-14.66 9.833-21.848h10.8c.464 1.538.643 35.4.178 39.155h-8.01c-.107-2.575-.036-5.22-.071-7.831V49.734l-.394-.143c-3.468 6.83-6.507 13.946-9.904 20.847h-4.9L8.468 49.52l-.465.107v23.994h-.035Zm103.555-29.965h7.759c.036.715.107 1.43.107 2.146v13.588c0 1.18.108 2.36.358 3.54.715 3.611 3.719 5.22 6.937 3.754 2.646-1.215 3.754-3.468 3.826-6.364.072-3.934 0-7.867.036-11.8v-4.792h7.759V73.62h-7.652c-.071-1.109-.107-2.11-.215-3.433-.572.536-1.001.858-1.358 1.287-2.861 3.111-6.401 3.29-10.013 2.253-3.825-1.109-6.293-3.826-7.115-8.01a22.53 22.53 0 0 1-.394-4.649c-.035-5.72-.035-11.406-.035-17.414Zm30.465-11.585h7.224c.428 1.609.572 38.44.143 41.443h-7.367V32.07Zm11.121 11.585h7.58c.108 1.073.215 2.146.323 3.469 2.539-2.074 4.934-4.005 8.295-3.97v7.653c-.714.036-1.43.072-2.109.072-2.253.035-3.862 1.215-4.971 3.218-.929 1.68-1.43 3.575-1.394 5.506v14.018a70.188 70.188 0 0 1-7.76 0l.036-29.966ZM100.437 32.07c0 2.646.036 5.006 0 7.366-.036 2.288.215 4.613-.215 7.116-.429-.322-.68-.43-.858-.644-4.076-4.04-11.836-3.933-16.342.858-3.325 3.54-4.434 7.76-4.255 12.551.18 5.185 2.289 9.226 6.079 12.408 3.934 3.29 10.406 3.433 14.16-.5.322-.358.716-.644 1.288-1.144.107 1.322.214 2.395.321 3.575 2.61 0 5.114.18 7.545-.071V32.07h-7.723Zm-.93 31.145c-2.289 4.97-8.403 5.328-11.407.787-1.001-1.502-1.43-3.04-1.43-5.364-.143-2.36.643-4.649 2.181-6.365 2.86-3.29 7.402-3.11 9.87.5 2.288 3.255 2.466 6.866.786 10.442ZM71.759 48.34c-3.326-4.041-7.652-5.436-12.694-5.293-8.01.215-15.555 8.01-13.946 18.38 1.18 7.51 7.938 13.266 15.054 12.694h.858c6.187-.179 10.692-3.325 13.088-9.19 2.431-5.864 1.752-11.621-2.36-16.591Zm-6.186 16.305c-3.111 3.898-9.083 3.29-11.514-1.144-1.502-2.753-1.574-5.65-.537-8.546 1.252-3.433 4.255-5.292 7.724-4.827 3.182.429 5.721 3.325 6.115 6.972.035.501.035 1.037 0 1.538.178 2.217-.394 4.29-1.788 6.007Z"/>
  <path fill="#FEDF3B" d="M198.628 16.872V.888h-32.182V33h16.02V16.872h16.162Zm0 0V33h-16.162v15.984h32.182v-32.11h-16.02Z"/>
</svg>
