<svg xml:space="preserve" id="polygon-matic_svg__Layer_1" x="0" y="0" style="enable-background:new 0 0 24.5 15.6" version="1.0" viewBox="0 0 24.5 15.6" xmlns="http://www.w3.org/2000/svg">
  <style>
    .polygon-matic_svg__st0{fill:#8247e5}
  </style>
  <path d="m9.9 6.9.3.3c.1.1.1.3.1.5s0 .4-.1.5c0 .3-.2.4-.3.5-.2 0-.3.1-.5.1-.1 0-.2 0-.3-.1-.1 0-.2-.1-.3-.1v1h-.6V6.9h.5l.1.2c.2-.2.4-.3.7-.3.1 0 .3 0 .4.1zm-.3 1.3c.1-.1.2-.2.2-.4s-.1-.3-.2-.4c-.1-.1-.2-.1-.3-.1-.1 0-.2 0-.3.1-.1 0-.1.1-.2.2V8c0 .1.1.2.2.2 0 .1.1.1.2.1.2 0 .3 0 .4-.1z" class="polygon-matic_svg__st0"/>
  <path d="M10.7 7.3c.1-.1.2-.3.4-.3.2-.1.3-.1.5-.1s.4 0 .5.1c.1.1.3.2.4.4.1.1.1.3.1.5s0 .3-.1.5c-.1.1-.2.3-.4.3-.1.1-.3.1-.5.1s-.4 0-.5-.1-.3-.2-.4-.3c-.1-.1-.1-.3-.1-.5 0-.3 0-.5.1-.6zm.6.9c.1.1.2.1.3.1s.2-.1.3-.1.1-.2.1-.4 0-.3-.1-.4c-.1-.1-.2-.1-.3-.1-.1 0-.2.1-.3.1-.1.1-.1.2-.1.4 0 .1 0 .3.1.4z" class="polygon-matic_svg__st0"/>
  <path d="M13.6 5.4v3.3H13V5.4h.6z" class="polygon-matic_svg__st0"/>
  <path d="m16 6.9-1.2 2.7h-.6l.4-1-.8-1.7h.7L15 8l.5-1.1h.5z" class="polygon-matic_svg__st0"/>
  <path d="M18.2 6.9v1.8c0 .2 0 .3-.1.5s-.2.2-.4.3-.4.1-.6.1c-.1 0-.3 0-.4-.1-.1 0-.2-.1-.3-.1-.1 0-.2-.1-.3-.2l.3-.4c.2.2.3.2.4.3s.2.1.3.1c.1 0 .3 0 .4-.1.1-.1.1-.2.1-.3v-.3c-.1.1-.1.2-.3.2-.1.1-.3.1-.4.1s-.3 0-.5-.1l-.3-.3c-.1-.3-.1-.4-.1-.6 0-.2 0-.3.1-.5s.2-.3.4-.4c.1-.1.3-.1.4-.1.1 0 .3 0 .4.1.1 0 .2.1.3.2l.1-.1h.5zM17.6 8v-.4c0-.1-.1-.2-.2-.2s-.2-.1-.3-.1c-.1 0-.3.1-.4.1-.1.1-.1.2-.1.4 0 .1 0 .3.1.4.1.1.2.2.4.2.2-.1.4-.2.5-.4z" class="polygon-matic_svg__st0"/>
  <path d="M18.7 7.3c.1-.2.2-.3.3-.4.2-.1.3-.1.5-.1s.4 0 .5.1c.1.1.3.2.4.3.1.2.1.3.1.5s0 .4-.1.5c-.1.2-.2.3-.4.4-.1.1-.3.1-.5.1s-.4 0-.5-.1c-.2-.1-.3-.2-.4-.3-.1-.2-.1-.3-.1-.5s.1-.4.2-.5zm.5.9c.1.1.2.1.3.1s.2-.1.3-.1.2-.3.2-.4c0-.2 0-.3-.1-.4-.1-.1-.2-.1-.3-.1s-.2.1-.3.1c-.1.1-.1.2-.1.4-.1.1 0 .3 0 .4z" class="polygon-matic_svg__st0"/>
  <path d="M22.7 7c.1.1.2.2.2.4v1.4h-.6V7.6c0-.2-.1-.3-.3-.3-.1 0-.2.1-.3.2s-.2.3-.2.5v.7H21V6.9h.5v.3l.3-.3c.1-.1.3-.1.4-.1.2 0 .3.1.5.2z" class="polygon-matic_svg__st0"/>
  <path d="M5.7 6.9c-.1-.1-.2-.1-.3 0l-.8.4-.5.3-.8.5c-.1.1-.2.1-.3 0l-.7-.4c-.1 0-.1-.1-.1-.3v-.7c0-.1.1-.2.2-.3l.6-.3c.1-.1.2-.1.3 0l.6.3c.1.1.2.2.2.3v.5l.5-.3v-.5c0-.1-.1-.2-.2-.3l-1.1-.6c-.1-.1-.2-.1-.3 0l-1.2.6c-.1.1-.2.2-.2.3v1.3c0 .2.1.3.2.3l1.2.7c.1.1.2.1.3 0l.8-.4.5-.3.8-.4c.1-.1.2-.1.3 0l.6.3c.1 0 .2.1.2.2v.7c0 .1-.1.2-.2.3l-.6.4c-.1.1-.2.1-.3 0l-.6-.4c-.1 0-.2-.1-.2-.2v-.5l-.5.3v.5c0 .1.1.2.2.3l1.2.7c.1.1.2.1.3 0L7 9.5c0-.1.1-.2.1-.3V7.8c0-.1-.1-.2-.2-.3l-1.2-.6z" class="polygon-matic_svg__st0"/>
</svg>
