<svg fill="none" viewBox="0 0 78 90" xmlns="http://www.w3.org/2000/svg">
  <path fill="#000" d="M45.156 80.952c-2.3 2.3-3.9 3-5.8 3s-3.7-.6-6-3l-24.7-25.4c-2.3-2.3-2.9-4.3-2.9-6.2 0-1.9.6-4.1 2.9-6.4 1.4-1.5 5.8-6.4 5.8-6.4l-2.9 15.1 4.3 4.3 3.3-17.7c1.6-9.8 3.1-19.4 4.3-29.2.2-.2.2-.4.2-.6 1.6 10.9 3.7 21.5 6 32.2l5.4 26.4c.6 2.6 2.5 4.1 4.3 4.1 1.6 0 3.5-1.5 4.1-4.1l5.6-26.4c2.3-10.7 4.1-21.3 5.8-32.2 0 .2.2.4.2.6 1.2 9.8 2.7 19.4 4.5 29.2l8 43.9h5.1l-3.5-18.8 4.5-4.5c2.7-3 4.1-6.2 4.1-9.6 0-3.6-1.4-6.6-4.1-9.6l-11.1-11.5-5.1-27.7h-5.1l-3.1 14.9-.8-.6c-2.7-3-5.8-4.5-9.1-4.5-3.5 0-6.4 1.5-9.3 4.5l-.6.6-3.3-14.9h-5.1l-5.1 27.7-10.9 11.5c-2.9 3-4.3 6-4.3 9.6 0 3.4 1.4 6.6 4.3 9.6l4.3 4.5-3.5 18.8h5.4l2.7-14.1 16.3 16.8c2.9 3 5.8 4.3 9.3 4.3 3.3 0 6.4-1.3 9.1-4.3l12.6-13-1.2-6-14.9 15.1Zm24.9-38c1.9 2.1 2.7 4 2.7 6.4 0 2.1-.8 4-2.9 6.2l-1.9 2.1-4.1-21.5s4.7 5.1 6.2 6.8Zm-39.6-22.2c.8-.9 1.6-1.7 2.7-2.6 2.5-2.1 3.9-2.8 6.2-2.8 2.1 0 3.7.6 6 2.8 1 .9 1.9 1.7 2.7 2.6l-7.2 34.5c-.4 1.9-1.4 8.3-1.4 8.3s-1.2-6.4-1.6-8.3l-7.4-34.5Z"/>
</svg>
