<svg fill="none" viewBox="0 0 387 69" xmlns="http://www.w3.org/2000/svg">
  <path fill="#000" d="M206.295.346c-3.079.332-7.089 1.55-9.726 2.968-8.131 4.365-13.537 13.604-14.844 25.347-.532 4.963-.178 12.252.864 16.993 3.013 13.825 12.961 22.643 26.033 23.086 3.833.133 7.245-.354 10.546-1.55 5.783-2.083 10.878-6.824 13.98-13.05 3.944-7.865 5.428-18.943 3.811-28.537C234.19 9.208 224.197-.009 209.397.235c-1.285 0-2.681.066-3.102.11Zm8.287 5.827c1.551.332 4.143 1.418 5.605 2.348 8.309 5.295 12.474 19.01 10.125 33.212-1.839 11.1-7.2 18.433-15.199 20.737-2.326.665-7.2.842-9.682.333-9.305-1.883-15.021-9.35-16.949-22.067-.177-1.241-.31-3.767-.31-6.204-.022-8.818 1.972-15.908 5.938-21.27 2.636-3.544 6.358-6.048 10.369-7 2.88-.688 7.09-.732 10.103-.09Z"/>
  <path fill="#000" d="M.911 34.399V67.1h6.204V38.298h7.71l7.688.023 9.483 13.337a6071.829 6071.829 0 0 1 10.191 14.38l.71 1.04 3.943.023c3.102 0 3.922-.067 3.767-.266-.089-.155-1.906-2.68-4.055-5.605-11.964-16.285-16.617-22.71-16.617-22.887 0-.089.421-.2.953-.222 4.63-.221 9.15-1.772 12.163-4.143 5.384-4.232 7.312-12.363 4.808-20.162-.864-2.703-1.994-4.564-3.966-6.536-2.924-2.902-6.203-4.43-11.077-5.096-.931-.132-8.309-.288-16.772-.376L.91 1.675v32.724ZM34.145 8.01c4.52 1.374 7.356 4.41 8.308 8.907 1.307 6.181-1.13 11.964-5.96 14.18-2.99 1.395-3.965 1.484-17.348 1.595l-12.03.11V7.48l12.917.088c11.21.067 13.05.111 14.113.443Z"/>
  <path fill="#000" d="M71.588 34.443v32.658h6.204V1.719l-3.102.044-3.102.023v32.657Z"/>
  <path fill="#000" d="M102.828 34.443v32.658h6.203l.023-27.54c0-16.838.088-27.34.221-27.074.111.244 1.529 3.921 3.146 8.198 1.64 4.254 6.293 16.461 10.347 27.074l7.4 19.342h4.897l10.413-27.252c5.716-14.977 10.435-27.207 10.457-27.163.045.023.089 12.275.133 27.185l.044 27.12 3.169.066 3.146.066-.044-32.635-.067-32.636h-7.932l-9.039 22.931c-4.963 12.607-9.86 25.014-10.857 27.54-.997 2.548-1.883 4.542-1.971 4.431-.067-.088-4.963-12.451-10.857-27.429-5.893-15-10.834-27.318-10.945-27.429-.133-.088-1.972-.155-4.054-.132l-3.833.022v32.657Z"/>
  <path fill="#000" d="M247.284 1.985c0 .155 4.253 14.69 9.438 32.303 5.184 17.614 9.46 32.215 9.527 32.436.111.355.377.377 2.681.333l2.548-.067 7.688-26.1c4.209-14.334 7.71-26.077 7.776-26.077.067 0 3.567 11.743 7.777 26.1l7.666 26.077 2.526.067 2.548.066 9.504-32.192c5.207-17.703 9.527-32.414 9.594-32.702l.089-.488h-3.213c-2.304 0-3.257.089-3.412.266-.111.155-3.523 12.208-7.599 26.764-4.055 14.557-7.445 26.543-7.511 26.632-.089.11-3.523-11.455-7.644-25.701-4.143-14.224-7.644-26.321-7.821-26.92l-.31-1.04h-2.061c-1.395 0-2.149.088-2.304.265-.177.244-7.843 26.41-14.49 49.518-.642 2.238-1.218 3.966-1.307 3.878-.089-.089-3.456-12.03-7.511-26.52-4.054-14.513-7.466-26.543-7.577-26.765-.177-.332-.576-.377-3.39-.377-2.282 0-3.212.067-3.212.244Z"/>
  <path fill="#000" d="M354.539 2.118c-.265.532-1.417 3.345-15.752 38.507-4.121 10.103-8.242 20.206-9.151 22.421l-1.661 4.055h7.001l.665-1.706c.354-.953 2.016-5.384 3.7-9.882l3.057-8.13 14.822.043 14.845.067 3.678 9.815 3.677 9.793h7.002l-.421-1.041c-.222-.599-3.523-8.686-7.334-18.013-3.811-9.328-9.549-23.44-12.784-31.35-3.234-7.932-5.982-14.535-6.093-14.69-.155-.177-.974-.266-2.636-.266-2.061 0-2.437.045-2.615.377Zm8.907 23.707c3.346 8.751 6.137 16.04 6.182 16.195.044.222-2.349.288-12.319.266-6.824 0-12.452-.044-12.496-.11-.111-.111 12.208-32.215 12.385-32.237.067 0 2.88 7.156 6.248 15.886Z"/>
</svg>
