<svg fill="none" viewBox="0 0 65 68" xmlns="http://www.w3.org/2000/svg">
  <path fill="#3C65F1" d="M48.295 46.5c9.882-4.49 15.962-13.532 15.962-23.807 0-6.095-2.225-11.67-6.19-15.75C53.776 2.604 47.806.331 40.858.331H13.5c-1.412 0-2.549.98-2.714 2.322l-2.17 19.519c1.577.055 3.148 0 4.67-.104a56.306 56.306 0 0 0 8.903-1.495 48.296 48.296 0 0 0 2.878-.876l.977-8.675c.055-.466.654-.723 1.033-.411l17.642 12.86c.324.256.324.771-.055.98L24.255 37.31c-.434.257-1.033-.05-.978-.57l.758-6.665c-3.58.312-7.168.362-10.694.104a57.508 57.508 0 0 1-10.474-1.862c-.434-.104-.813-.258-1.247-.362-.703-.207-1.301.57-.867 1.134l6.135 7.848-2.933 27.888c-.165 1.55 1.087 2.842 2.713 2.842h12.05c1.412 0 2.555-.98 2.714-2.322l1.625-15.028c.055-.515.544-.931 1.088-.931h4.779c.378 0 .757.208.977.57l9.228 16.37c.488.826 1.411 1.341 2.389 1.341h14.165c2.06 0 3.367-2.065 2.39-3.768L48.3 46.495l-.006.006Z"/>
</svg>
