<svg xmlns="http://www.w3.org/2000/svg" fill="none" viewBox="0 0 640 200">
	<path
		fill="#3C65F1"
		d="M151.98 77.29c-12.722 0-24.294 4.306-32.666 12.138-8.044 7.518-12.476 17.699-12.476 28.506 0 20.361 15.102 34.066 37.673 34.066 12.722 0 24.294-4.307 32.666-12.139 8.043-7.518 12.475-17.698 12.475-28.506-.082-20.361-15.184-34.066-37.672-34.066zm-5.581 53.879c-9.849 0-14.281-7.362-14.281-14.645 0-10.259 7.879-18.325 17.892-18.325 8.536 0 14.445 6.108 14.445 14.801 0 9.946-8.125 18.169-18.056 18.169zM247.187 114.645c-.657 6.186-3.53 16.445-14.774 16.445-3.283 0-5.745-.861-7.304-2.584-2.299-2.428-3.119-6.735-2.463-13l3.529-32.108c.247-2.35-1.641-4.308-4.103-4.308h-16.744c-2.134 0-3.857 1.488-4.103 3.524l-4.186 38.296c-1.067 9.71-.821 16.915 3.365 22.554 4.022 5.403 10.998 8.301 20.19 8.301 9.767 0 18.139-3.211 23.474-8.928l-.328 2.898c-.247 2.271 1.641 4.307 4.103 4.307h16.908c2.134 0 3.857-1.488 4.104-3.524l6.894-63.199c.246-2.27-1.642-4.307-4.104-4.307h-16.907c-2.134 0-3.858 1.488-4.104 3.524l-3.447 32.109zM287.486 145.97l5.581-48.398h-7.715c-2.463 0-4.35-2.036-4.104-4.307l1.149-10.572c.246-1.958 1.97-3.524 4.104-3.524h8.618l3.036-26.94c.247-1.958 1.97-3.524 4.104-3.524h17.564c2.462 0 4.35 2.036 4.104 4.307l-2.955 26.078h9.357c2.462 0 4.35 2.036 4.104 4.308l-1.15 10.572c-.246 1.958-1.969 3.524-4.103 3.524h-10.26l-4.596 49.181c-.164 2.036-1.97 3.602-4.104 3.602h-18.631c-2.544 0-4.432-1.958-4.103-4.307zM395.578 86.687c-4.267-5.795-12.065-9.241-21.093-9.241-21.75 0-39.478 18.325-39.478 40.801 0 19.5 13.296 33.675 31.681 33.675 8.864 0 17.236-3.368 22.653-8.928l-.329 2.819c-.246 2.35 1.642 4.386 4.104 4.386h16.908c2.134 0 3.857-1.488 4.103-3.524l6.977-63.2c.246-2.349-1.642-4.306-4.104-4.306h-16.907c-2.134 0-3.858 1.488-4.104 3.524l-.411 3.994zm-2.872 26.235c0 10.024-8.126 18.247-18.057 18.247-8.535 0-14.445-6.03-14.445-14.645 0-10.102 8.126-18.325 18.057-18.325 8.453-.078 14.445 6.03 14.445 14.723zM478.474 77.446c-8.946 0-17.4 3.367-22.899 9.084l3.858-34.145c.246-2.349-1.642-4.307-4.104-4.307h-16.825c-2.134 0-3.858 1.488-4.104 3.524l-10.424 94.289c-.246 2.35 1.642 4.308 4.104 4.308h16.908c2.134 0 3.857-1.488 4.103-3.524l.411-3.916c3.611 4.777 10.587 9.163 21.257 9.163 21.75 0 39.478-18.326 39.478-40.802-.082-19.578-13.378-33.674-31.763-33.674zm6.402 35.476c0 10.024-8.125 18.247-18.056 18.247-8.454 0-14.281-6.031-14.281-14.645 0-10.102 8.043-18.325 17.892-18.325 9.931-.079 14.445 7.596 14.445 14.723zM518.937 150.12h16.908c2.134 0 3.857-1.487 4.104-3.524l10.423-94.289c.246-2.35-1.641-4.307-4.104-4.307h-16.907c-2.134 0-3.858 1.488-4.104 3.524l-10.423 94.289c-.247 2.35 1.641 4.307 4.103 4.307zM593.462 77.29c-12.804 0-23.802 4.228-31.681 12.216-7.387 7.518-11.491 17.855-11.491 29.133 0 20.909 13.542 33.361 36.277 33.361 19.534 0 35.375-9.789 39.396-24.355.164-.705-.328-1.332-1.067-1.332h-20.683c-1.395 0-2.708.627-3.447 1.645-2.298 3.132-6.976 6.187-12.639 6.187-4.515 0-7.88-1.097-10.096-3.29-1.887-1.879-2.872-4.62-3.036-8.222 0-.862.738-1.645 1.641-1.645h48.753c.738 0 1.395-.47 1.559-1.175.657-2.506 2.052-8.379 2.052-11.903 0-18.326-14.281-30.62-35.538-30.62zm-14.938 28.975c-1.149 0-1.888-1.018-1.56-2.036 1.97-6.343 7.633-10.26 15.102-10.26 4.104 0 7.387 1.254 9.603 3.525 1.724 1.801 2.626 4.229 2.708 7.205 0 .861-.738 1.566-1.641 1.566h-24.212zM83.12 118.012c14.938-6.813 24.13-20.518 24.13-36.102 0-9.241-3.365-17.7-9.356-23.886C91.41 51.446 82.382 48 71.876 48H30.51c-2.134 0-3.857 1.488-4.104 3.524l-3.282 29.602c2.38.079 4.76 0 7.058-.156a84.533 84.533 0 0 0 13.46-2.271 69.831 69.831 0 0 0 4.35-1.331L49.47 64.21c.082-.705.985-1.096 1.56-.627l26.674 19.5c.492.392.492 1.175-.083 1.488l-30.86 19.5c-.656.392-1.56-.078-1.477-.861l1.149-10.103c-5.417.47-10.834.549-16.169.157-5.499-.47-10.752-1.41-15.84-2.82-.657-.156-1.231-.39-1.888-.547-1.067-.314-1.97.861-1.313 1.723l9.274 11.903-4.432 42.289c-.246 2.35 1.642 4.307 4.104 4.307h18.22c2.134 0 3.858-1.487 4.104-3.524l2.462-22.789c.083-.783.821-1.409 1.642-1.409h7.223c.574 0 1.149.313 1.477.861l13.953 24.825c.738 1.253 2.134 2.036 3.611 2.036h21.422c3.118 0 5.088-3.132 3.61-5.716L83.12 118.012z"
	/>
</svg>
