<svg fill="none" viewBox="0 0 95 16" xmlns="http://www.w3.org/2000/svg">
  <path fill="currentColor" d="M21.685 4.506c-1.956 0-3.734.663-5.021 1.867a5.969 5.969 0 0 0-1.917 4.386c0 3.133 2.32 5.241 5.79 5.241 1.955 0 3.734-.663 5.02-1.867a5.968 5.968 0 0 0 1.918-4.386c-.013-3.133-2.334-5.241-5.79-5.241Zm-.858 8.29c-1.514 0-2.195-1.133-2.195-2.254 0-1.578 1.21-2.82 2.75-2.82 1.312 0 2.22.94 2.22 2.278 0 1.53-1.249 2.795-2.775 2.795Z"/>
  <path fill="currentColor" d="M36.317 10.253c-.1.952-.542 2.53-2.27 2.53-.505 0-.883-.132-1.123-.397-.353-.374-.48-1.037-.378-2l.542-4.94c.038-.362-.252-.663-.63-.663h-2.574a.62.62 0 0 0-.63.542l-.644 5.892c-.164 1.494-.126 2.602.517 3.47.618.831 1.69 1.277 3.103 1.277 1.501 0 2.788-.494 3.608-1.374l-.05.446c-.038.35.252.663.63.663h2.599a.62.62 0 0 0 .63-.542l1.06-9.723c.038-.35-.252-.663-.63-.663h-2.6a.62.62 0 0 0-.63.542l-.53 4.94Z"/>
  <path fill="currentColor" d="m42.511 15.072.858-7.446h-1.186c-.378 0-.668-.313-.63-.662l.176-1.627a.63.63 0 0 1 .63-.542h1.325l.467-4.144a.63.63 0 0 1 .63-.543h2.7c.379 0 .669.314.63.663l-.453 4.012h1.438c.378 0 .668.313.63.663l-.176 1.626a.63.63 0 0 1-.63.542h-1.578l-.706 7.567c-.025.313-.303.554-.63.554h-2.864c-.391 0-.681-.301-.63-.663Z"/>
  <path fill="currentColor" d="M59.124 5.952c-.656-.892-1.854-1.422-3.242-1.422-3.342 0-6.067 2.82-6.067 6.277 0 3 2.044 5.181 4.87 5.181 1.361 0 2.648-.518 3.48-1.373l-.05.433a.62.62 0 0 0 .631.675h2.599a.62.62 0 0 0 .63-.542l1.073-9.723c.037-.362-.253-.663-.631-.663h-2.599a.62.62 0 0 0-.63.542l-.064.615Zm-.441 4.036c0 1.542-1.249 2.807-2.775 2.807-1.312 0-2.22-.928-2.22-2.253 0-1.554 1.248-2.82 2.775-2.82 1.3-.011 2.22.929 2.22 2.266Z"/>
  <path fill="currentColor" d="M71.865 4.53c-1.375 0-2.674.518-3.52 1.398l.593-5.253c.038-.362-.252-.663-.63-.663h-2.586a.62.62 0 0 0-.631.542L63.489 15.06c-.038.362.252.663.63.663h2.6a.62.62 0 0 0 .63-.542l.063-.603c.555.735 1.627 1.41 3.267 1.41 3.343 0 6.068-2.82 6.068-6.277-.013-3.012-2.056-5.18-4.882-5.18Zm.984 5.458c0 1.542-1.249 2.807-2.775 2.807-1.3 0-2.195-.928-2.195-2.253 0-1.554 1.236-2.82 2.75-2.82 1.526-.011 2.22 1.17 2.22 2.266Z"/>
  <path fill="currentColor" d="M78.084 15.71h2.599a.62.62 0 0 0 .63-.541L82.915.663C82.953.3 82.663 0 82.285 0h-2.599a.62.62 0 0 0-.63.542l-1.603 14.506c-.038.362.253.663.631.663Z"/>
  <path fill="currentColor" d="M89.538 4.506c-1.968 0-3.658.65-4.87 1.88-1.134 1.156-1.765 2.746-1.765 4.481 0 3.217 2.081 5.133 5.575 5.133 3.003 0 5.437-1.506 6.055-3.747a.163.163 0 0 0-.164-.205h-3.178a.655.655 0 0 0-.53.253c-.353.482-1.073.952-1.943.952-.694 0-1.21-.169-1.552-.506-.29-.29-.441-.71-.466-1.265 0-.133.113-.253.252-.253h7.493a.241.241 0 0 0 .24-.18c.1-.386.315-1.29.315-1.832 0-2.82-2.195-4.711-5.462-4.711Zm-2.296 4.458c-.176 0-.29-.157-.24-.313.303-.976 1.174-1.579 2.322-1.579.63 0 1.135.193 1.475.542.265.278.404.651.417 1.109a.248.248 0 0 1-.252.24h-3.722Z"/>
  <path fill="currentColor" d="M11.101 10.771c2.296-1.048 3.709-3.157 3.709-5.554 0-1.422-.517-2.723-1.438-3.675C12.375.53 10.988 0 9.373 0H3.015a.62.62 0 0 0-.63.542L1.88 5.096c.366.012.732 0 1.085-.024.706-.06 1.4-.18 2.069-.35.227-.06.454-.132.668-.204l.227-2.024c.013-.108.152-.169.24-.096l4.1 3c.075.06.075.18-.013.229l-4.743 3c-.101.06-.24-.013-.227-.133l.176-1.554c-.832.072-1.665.084-2.485.024A13.315 13.315 0 0 1 .543 6.53c-.101-.024-.19-.06-.29-.084-.164-.048-.303.132-.202.265l1.425 1.831-.68 6.506c-.039.362.251.663.63.663h2.8a.62.62 0 0 0 .631-.542l.378-3.506a.254.254 0 0 1 .253-.217h1.11c.088 0 .176.048.227.132l2.144 3.82a.647.647 0 0 0 .555.313h3.293c.48 0 .782-.482.555-.88l-2.27-4.06Z"/>
</svg>
