<svg fill="none" viewBox="0 0 151 24" xmlns="http://www.w3.org/2000/svg">
  <g clip-path="url(#rtfkt_svg__a)">
    <path fill="#000" fill-rule="evenodd" d="M0 0s1.201.356 3.1.902l.512.147.821.235.582.165c1.882.534 4.135 1.164 6.478 1.795l.742.2 1.494.396.748.195c4.235 1.103 8.371 2.085 10.784 2.412.236.032.623.11 1.035.155l.155.015c1.455.125 3.015-.273-.747-4.58L36.19 5.752a10.242 10.242 0 0 1 5.3 4.288L50.088 24s-4.186-2.33-8.83-4.874l-.637-.348-.96-.524c-3.525-1.924-7.071-3.834-9.064-4.837a14.023 14.023 0 0 0-1.44-.617l-.174-.062a9.426 9.426 0 0 0-.447-.142l-.18-.05c-1.887-.493-3.632-.127.204 5.168L0 0Zm67.07 5.265c.195-.01 4.696-.197 4.696 3.489v.059c-.003.372-.116 2.384-2.082 2.962 0 0 2.368.745 2.36 3.197l-.003.9v.534l-.001.154v.85l.001.065v.152l.001.037v.078l.001.016v.025h-4.37v-2.09c-.004-.114-.098-1.844-2.238-1.844h-7.613v3.934h-4.561V5.266H67.07Zm24.8-.004V8.66h-7.135v9.123h-4.5V8.66h-7.148v-3.4H91.87Zm58.434 0V8.66h-7.135v9.123h-4.5V8.66h-7.147v-3.4h18.782Zm-40.695 0v3.402h-12.33v1.825h8.043v3.182h-8.043v4.113h-4.366V5.266h1.925V5.26h14.771Zm5.58 0v4.21l7.129-4.21 7.304.023-9.626 5.665 10.482 6.834h-7.273l-8.016-5.246v5.246h-4.537V5.26h4.537ZM59.646 8.664h-1.824v2.145h8.162s1.313.13 1.313-1.14c0-.672-.405-.97-1.181-.988-.317-.007-1.763-.012-3.36-.014h-.538l-.27-.001h-.539l-.266-.001-1.265-.001h-.232Z" clip-rule="evenodd"/>
  </g>
  <defs>
    <clipPath id="rtfkt_svg__a">
      <path fill="#fff" d="M0 0h151v24H0z"/>
    </clipPath>
  </defs>
</svg>
