<svg preserveAspectRatio="xMidYMid" viewBox="0 0 256 256" xmlns="http://www.w3.org/2000/svg">
  <defs>
    <linearGradient id="rubymine_svg__a" x1="55.271%" x2="39.509%" y1="73.825%" y2="35.404%">
      <stop offset="0%" stop-color="#FE2857"/>
      <stop offset="6%" stop-color="#FE3052"/>
      <stop offset="33%" stop-color="#FD533B"/>
      <stop offset="58%" stop-color="#FC6C2A"/>
      <stop offset="81%" stop-color="#FC7B20"/>
      <stop offset="100%" stop-color="#FC801D"/>
    </linearGradient>
    <linearGradient id="rubymine_svg__b" x1="19.047%" x2="50.141%" y1="2.917%" y2="36.328%">
      <stop offset="0%" stop-color="#6B57FF"/>
      <stop offset="100%" stop-color="#FE2857"/>
    </linearGradient>
    <linearGradient id="rubymine_svg__c" x1="9.775%" x2="73.277%" y1="8%" y2="97.512%">
      <stop offset="0%" stop-color="#6B57FF"/>
      <stop offset="30%" stop-color="#FE2857"/>
      <stop offset="63%" stop-color="#FE2857"/>
      <stop offset="64%" stop-color="#FE3052"/>
      <stop offset="70%" stop-color="#FD533B"/>
      <stop offset="76%" stop-color="#FC6C2A"/>
      <stop offset="81%" stop-color="#FC7B20"/>
      <stop offset="85%" stop-color="#FC801D"/>
    </linearGradient>
  </defs>
  <path fill="url(#rubymine_svg__a)" d="m212.907 0-73.254 26.24L81.92 0 62.907 47.893H50.613V189.28l177.787 1.547 27.6-140.8z"/>
  <path fill="url(#rubymine_svg__b)" d="M210.72 91.867 93.733 22.533l116.987 137.12z"/>
  <path fill="url(#rubymine_svg__c)" d="m106.56 249.333 95.68-12.746-14.853-28.56h23.333v-48.374L93.707 22.32 0 45.333l.107 134.4L53.973 256l52.294-6.64.24-.027z"/>
  <path d="M50.667 48h160v160h-160z"/>
  <path fill="#FFF" d="M70.613 177.76h60v10h-60v-10Zm59.28-109.84h14.267l15.813 25.44 15.814-25.44h14.266v60.133h-13.146V88.8l-16.934 25.68h-.346L142.88 89.067v38.986h-12.987V67.92ZM70.667 68h27.466c7.61 0 13.44 2.027 17.494 6.08a18.667 18.667 0 0 1 5.146 13.733V88a18.667 18.667 0 0 1-3.573 11.867 20.64 20.64 0 0 1-9.307 6.746l14.694 21.334H107.12L94.667 109.52H83.76v18.453H70.667V68Zm26.666 29.093a10.987 10.987 0 0 0 7.387-2.426 8 8 0 0 0 2.667-6.187v-.16a7.6 7.6 0 0 0-2.667-6.427 12.08 12.08 0 0 0-7.627-2.16h-13.28v17.254l13.52.106Z"/>
</svg>
