<svg fill="none" viewBox="0 0 462 115" xmlns="http://www.w3.org/2000/svg">
  <path fill="#10161F" d="M75.09 74.793c-7.433 3.947-15.752 5.923-24.958 5.928a57.35 57.35 0 0 1-13.204-1.575 48.976 48.976 0 0 1-11.871-4.353 1.675 1.675 0 0 1-.85-1.575 1.605 1.605 0 0 1 .607-1.315L49.16 51.917c.289-.2.623-.326.973-.363a1.317 1.317 0 0 1 .97.363L75.453 72a1.76 1.76 0 0 1 .607 1.211 1.813 1.813 0 0 1-.97 1.572v.01Zm-58.274-5.71a32.722 32.722 0 0 1-6.118-7.502 21.59 21.59 0 0 1-3.071-9.923 1.44 1.44 0 0 1 1.455-1.449h30.993a.882.882 0 0 1 .73.302c.156.186.241.42.24.663a1.159 1.159 0 0 1-.363.85l-21.07 17.183a2.46 2.46 0 0 1-1.315.482 2.633 2.633 0 0 1-1.455-.606h-.026ZM92.56 50.231a22.733 22.733 0 0 1-2.48 10.283 28.546 28.546 0 0 1-6.966 8.833 1.85 1.85 0 0 1-1.317.606 2.456 2.456 0 0 1-1.317-.482L53.345 46.839a1.646 1.646 0 0 1-.488-1.209V21.91a1.85 1.85 0 0 1 .488-1.27 1.542 1.542 0 0 1 1.212-.545h.24a51.271 51.271 0 0 1 19.163 4.96c5.773 2.823 10.307 6.452 13.61 10.891 3.3 4.437 4.954 9.196 4.964 14.28l.024.006h.002ZM35.836 32.919 8.337 18.152a1.795 1.795 0 0 1-.97-1.568 1.85 1.85 0 0 1 .604-1.318 36.192 36.192 0 0 1 8.928-5.4 51.853 51.853 0 0 1 9.61-3.197 4.234 4.234 0 0 1 1.693.061c.409.219.716.59.854 1.031l9.084 24.443c.084.28.062.581-.062.846a.798.798 0 0 1-.784.366 1.707 1.707 0 0 1-.97-.243l-.488-.254Zm14.297 82.049a60.481 60.481 0 0 0 17.929-2.66 51.786 51.786 0 0 0 15.385-7.626c4.93-3.712 8.587-7.908 10.972-12.587 2.387-4.679 3.578-10.09 3.578-16.224V50.226c0-6.455-2.16-12.407-6.483-17.855-4.323-5.449-10.14-9.778-17.456-12.987-7.316-3.215-15.29-4.821-23.926-4.821a2.921 2.921 0 0 0-2.788 2.781l.247 26.505a1.068 1.068 0 0 1-1.213 1.211h-2.422l-.245-11.138a8.572 8.572 0 0 0-.476-2.698l-5.934-16.578-3.88-9.925a5.447 5.447 0 0 0-1.817-2.665A4.83 4.83 0 0 0 28.456.968a5.63 5.63 0 0 0-1.314.124 58.316 58.316 0 0 0-14.36 4.821 38.777 38.777 0 0 0-11.08 7.985 5.452 5.452 0 0 0-1.32 3.631v15.49a7.142 7.142 0 0 0 .849 3.631 6.464 6.464 0 0 0 2.002 2.057 19.34 19.34 0 0 0 3.949 1.815l11.852 4.481H5.308c-2.02 0-3.029 1.13-3.029 3.39v27.469c0 6.14 1.19 11.547 3.574 16.223 2.382 4.68 6.039 8.873 10.972 12.588a51.841 51.841 0 0 0 15.383 7.624 60.406 60.406 0 0 0 17.927 2.671m391.902-55.062c-6.945-1.774-10.896-2.864-11.85-3.27-1.371-.646-2.059-1.655-2.059-3.026 0-1.05.545-1.957 1.634-2.721 1.089-.768 2.644-1.15 4.665-1.15 2.905 0 5.993.784 9.265 2.358a33.143 33.143 0 0 1 9.161 6.748l6.628-14.678c-2.584-2.586-6.217-4.804-10.903-6.662a40.413 40.413 0 0 0-15.019-2.778c-6.867 0-12.399 1.712-16.6 5.142-4.204 3.43-6.303 7.958-6.301 13.592 0 4.762 1.496 8.552 4.482 11.376 2.988 2.82 8.036 5.156 15.143 7.013.565.164 1.735.447 3.511.846 2.87.653 5.701 1.46 8.481 2.422 1.617.563 2.423 1.613 2.423 3.147 0 1.13-.588 2.038-1.755 2.722-1.167.684-2.889 1.03-5.15 1.03a30.856 30.856 0 0 1-11.267-2.118c-3.633-1.41-7.461-4.061-10.385-6.726l-6.94 14.773c2.587 2.745 6.524 5.066 11.811 6.958a51.246 51.246 0 0 0 17.387 2.846c7.511 0 13.286-1.608 17.326-4.822 4.037-3.215 6.055-7.856 6.055-13.917 0-5.244-1.607-9.336-4.826-12.279-3.219-2.94-8.193-5.218-14.924-6.835m-36.457 7.025c0-6.14-1.111-11.644-3.334-16.518a26.745 26.745 0 0 0-9.612-11.495c-4.201-2.783-9.175-4.175-14.924-4.175-5.813 0-10.963 1.351-15.445 4.052a27.814 27.814 0 0 0-10.482 11.316c-2.501 4.84-3.752 10.367-3.752 16.578 0 9.524 2.706 17.088 8.115 22.69 5.411 5.606 12.922 8.408 22.534 8.415a39.825 39.825 0 0 0 14.719-2.605 32.456 32.456 0 0 0 11.206-7.199l-6.878-12.278a48.307 48.307 0 0 1-8.995 4.997 23.965 23.965 0 0 1-8.839 1.572c-3.881 0-7.031-.827-9.451-2.482-2.421-1.653-3.954-4.137-4.603-7.453h39.612l.129-5.415Zm-39.72-7.502a12.449 12.449 0 0 1 4.178-6.717c2.137-1.817 4.781-2.724 7.936-2.724 3.155 0 5.739.95 7.751 2.845a10.231 10.231 0 0 1 3.395 6.579l-23.26.017Zm-21.372-6.712c.956-5.325 4.432-10.612 8.146-14.471-2.905-2.337-6.46-3.508-10.661-3.508-6.541 0-11.386 3.268-14.539 9.802h-.24l-1.576-8.59h-14.047v60.507h17.808V65.834c0-4.517.93-8.025 2.789-10.52a8.879 8.879 0 0 1 7.508-3.755 9.737 9.737 0 0 1 4.812 1.149Zm-46.975-11.621c-4.277-4.237-10.053-6.358-17.325-6.358a36.497 36.497 0 0 0-15.2 3.145c-4.646 2.101-8.421 4.807-11.329 8.11l7.582 15.388a27.333 27.333 0 0 1 8.229-8.187 18.887 18.887 0 0 1 9.995-2.845c2.423 0 4.26.423 5.513 1.27 1.251.848 1.876 1.917 1.874 3.207a3.387 3.387 0 0 1-1.695 3.069c-1.132.688-3.514 1.434-7.145 2.239l-6.303 1.316c-6.54 1.294-11.286 3.474-14.234 6.538-2.951 3.064-4.425 7.23-4.42 12.5 0 5.244 1.607 9.438 4.826 12.585 3.22 3.144 7.464 4.719 12.73 4.721 3.645.074 7.251-.78 10.478-2.482a17.475 17.475 0 0 0 6.966-6.716h.245l1.576 7.866h14.047V57.968c.007-7.015-2.128-12.642-6.41-16.881Zm-10.533 33.582c0 2.423-1.131 4.437-3.395 6.052a13.397 13.397 0 0 1-7.991 2.42c-1.621 0-2.889-.32-3.821-.969a3.285 3.285 0 0 1-1.39-2.902 3.948 3.948 0 0 1 1.576-3.211c1.051-.843 2.867-1.551 5.452-2.116 5.328-1.212 8.438-2.622 9.327-4.237h.242v4.963Zm-60.215-39.94a23.283 23.283 0 0 0-10.841 2.6 21.418 21.418 0 0 0-8.06 7.083h-.24V18.147h-17.808V96.45h17.808V66.302a21.686 21.686 0 0 1 1.212-6.897 14.783 14.783 0 0 1 3.997-6.232c1.859-1.733 4.242-2.603 7.147-2.603 6.055 0 9.085 4.073 9.085 12.224v33.642h17.813V55.658c0-6.052-1.778-11.054-5.333-15.01-3.554-3.955-8.481-5.926-14.78-5.919Zm-62.986 25.177c-6.949-1.774-10.908-2.864-11.873-3.27-1.372-.646-2.059-1.655-2.059-3.026 0-1.05.544-1.957 1.633-2.721 1.089-.768 2.644-1.15 4.665-1.15 2.905 0 5.994.784 9.265 2.358a33.152 33.152 0 0 1 9.185 6.748l6.626-14.678c-2.582-2.586-6.217-4.804-10.903-6.662a40.433 40.433 0 0 0-15.02-2.776c-6.866 0-12.398 1.715-16.599 5.144-4.204 3.43-6.301 7.959-6.301 13.592 0 4.762 1.496 8.553 4.482 11.374 2.988 2.822 8.036 5.159 15.147 7.016.564.164 1.736.447 3.512.846a80.666 80.666 0 0 1 8.48 2.422c1.617.563 2.426 1.613 2.426 3.147 0 1.13-.59 2.038-1.76 2.722-1.165.684-2.886 1.03-5.147 1.03a30.793 30.793 0 0 1-11.267-2.118c-3.633-1.41-7.461-4.064-10.386-6.726l-6.94 14.772c2.587 2.746 6.524 5.064 11.812 6.96a51.241 51.241 0 0 0 17.387 2.844c7.513 0 13.286-1.607 17.325-4.82 4.037-3.219 6.056-7.857 6.056-13.918 0-5.244-1.608-9.339-4.827-12.28-3.219-2.94-8.185-5.217-14.902-6.834"/>
</svg>
