<svg class="snap-ar_svg__img-fluid" style="transform:matrix(.60113,0,0,.60113,0,0);transform-origin:50% 50%;cursor:move;max-height:none;transition:transform 200ms ease-in-out 0s" viewBox="0 0 11820 5760" xmlns="http://www.w3.org/2000/svg">
  <g style="transform:none">
    <path d="M5510 3320V2210h380v133l1 132 22-30c143-195 378-297 612-266 308 41 530 245 610 557 46 183 46 399-1 593-21 87-102 253-154 316-134 161-320 246-540 247-186 2-333-54-448-169-38-37-76-79-85-93-15-23-16 2-16 388l-1 412h-380V3320zm910 269c173-27 285-133 336-319 14-51 18-102 18-230 0-184-12-251-66-353-42-77-131-159-205-187-172-64-376-21-490 103-96 105-133 227-133 434 0 150 17 242 60 330 84 170 270 256 480 222z"/>
    <path d="M779 3890c-144-13-261-44-378-101-88-43-116-63-180-128-47-48-90-104-113-147-41-76-82-208-92-296l-7-58h200c111 0 201 3 201 8 0 4 7 37 14 74 40 184 152 293 340 329 74 14 235 11 299-6 122-32 214-103 259-200 32-70 33-220 1-281-58-109-169-157-483-209-212-35-327-67-448-126-214-103-312-266-312-515 0-121 13-181 61-281 120-251 424-398 789-380 442 21 685 219 754 615l6 32h-387l-7-37c-9-59-60-154-102-195-119-113-390-141-561-58-136 67-193 205-148 358 20 66 51 102 122 139 82 44 140 59 368 98 346 59 494 115 614 233 108 106 148 206 158 388 7 137-11 230-69 345-142 284-483 435-899 399z"/>
    <path d="M4208 3890c-214-26-364-132-423-300-84-238 7-480 222-593 148-77 299-106 592-114l213-6-4-111c-9-225-89-306-303-306-106 0-171 20-228 70-45 40-87 122-87 170 0 19-8 20-185 20-148 0-185-3-185-13 0-32 41-169 64-214 51-102 147-191 262-244 241-110 616-97 810 29 102 66 163 148 205 277 24 70 24 72 27 688l3 617h-371v-200l-62 63c-35 35-88 77-118 95-107 60-286 90-432 72zm338-284c121-32 207-103 244-203 16-42 20-78 20-168v-115h-162c-306 0-438 44-494 164-26 56-31 126-13 189 14 52 71 112 122 131 54 19 216 20 283 2z"/>
    <path d="M7770 3898c0-2 175-523 389-1158l388-1155 279-3 279-2 169 506 168 506 32-6c93-17 287-28 404-23l132 5v-988h415c559 0 687 16 875 107 77 37 109 60 171 122 124 124 172 253 172 461 1 199-48 325-173 450-104 104-225 166-413 209l-67 16 72 55c166 127 391 364 538 570 68 95 200 307 200 322 0 4-102 8-227 8l-228-1-47-83c-154-269-385-537-596-689-76-55-248-157-264-157-5 0-8 209-8 465v465h-420V2853l-37-7c-85-14-421-1-439 17-2 1 73 234 167 516 93 283 169 516 169 518 0 1-99 3-219 3h-220l-65-202c-35-112-99-313-142-448-42-135-81-249-86-255-16-18-206 91-353 204-161 123-389 372-542 593l-75 108h-199c-109 0-199-1-199-2zm779-916c115-87 276-183 400-239 53-24 95-47 95-51-4-27-239-752-243-752-3 0-84 246-180 548-96 301-176 553-179 561-7 18-4 16 107-67zm2337-332c147-19 256-86 304-187 32-69 46-183 31-268-23-136-90-214-219-256-60-20-94-23-319-27l-253-4v752h193c105 0 224-5 263-10z"/>
    <path d="M2010 3035v-825h380v133l1 132 21-40c52-98 201-204 338-240 80-22 253-25 330-6 153 37 273 131 335 263 71 151 69 127 73 801l3 607h-380l-3-572c-3-522-5-577-21-619-26-66-78-122-139-150-46-21-68-24-168-24-98 0-122 4-165 23-78 36-121 70-159 125-66 98-66 102-66 689v528h-380v-825z"/>
  </g>
</svg>
