<svg xml:space="preserve" style="enable-background:new 0 0 2568 643" viewBox="0 0 2568 643" xmlns="http://www.w3.org/2000/svg">
  <path d="M0 0h2568v643H0z" style="fill:#fff"/>
  <path d="M931.1 341h82.5c11.6 0 21 9.5 21 21.1 0 11.7-9.4 21.1-21 21.1h-99.5c-1.6 0-3.1.6-4.2 1.6l-30 25.9c-4.6 4-1.8 11.5 4.2 11.5h124.5s.1 0 .1-.1.1-.1.1-.1c1.6.1 3.1.2 4.7.2 33 0 59.8-26.9 59.8-60.1 0-31.5-24.1-57.4-54.9-59.9 0 0-.1 0-.1-.1s0-.1-.1-.1h-88.8c-11.6 0-21-9.5-21-21.1 0-11.7 9.4-21.1 21-21.1h99.3c1.6 0 3.2-.6 4.4-1.7l27.9-25.9c4.4-4.1 1.5-11.4-4.4-11.4H929.5c-33 0-59.8 26.9-59.8 60.1s26.8 60.1 59.8 60.1h1.6zm480.2-120.3c-3.6 0-6.5 2.9-6.5 6.6v188.4c0 3.6 2.9 6.6 6.5 6.6h151c1.8 0 3.5-.8 4.8-2.1l18.9-20.3c3.9-4.2 1-11.1-4.8-11.1h-131.8c-3.6 0-6.5-2.9-6.5-6.6v-155c0-3.6-2.9-6.6-6.5-6.6h-25.1z"/>
  <path d="M1169.5 220.7c0 .1 0 .1 0 0-19.3.9-34.8 16.4-35.7 35.7v128.3c0 20.1 15.8 36.5 35.7 37.3h137c19.8-.9 35.7-17.3 35.7-37.3V256.5c-.8-19.3-16.3-34.9-35.6-35.7h-137.1zm25.6 35.8c-.1 0-.1 0 0 0-12.1.5-21.8 10.3-22.3 22.5v80.7c0 12.6 9.9 23 22.3 23.5h85.9c12.4-.5 22.3-10.9 22.3-23.5V279c-.5-12.2-10.2-21.9-22.3-22.5h-85.9zm610.4 159.2c0 3.6 2.9 6.6 6.5 6.6h25.6c3.6 0 6.5-2.9 6.5-6.6V258.2c0-20.1-15.7-36.5-35.3-37.3h-133.1c-20.4 0-36.9 16.7-36.9 37.4v157.5c0 3.6 2.9 6.6 6.5 6.6h25.6c3.6 0 6.5-2.9 6.5-6.6v-64.9c0-3.6 2.9-6.6 6.5-6.6h115.4c3.6 0 6.5 2.9 6.5 6.6v64.8zm-128.3-107.3V276c0-12.6 10.1-22.8 22.5-22.8h83.4c12.4 0 22.5 10.2 22.5 22.8v32.4c0 3.6-2.9 6.6-6.5 6.6h-115.4c-3.6 0-6.5-2.9-6.5-6.6zM2346 422.3c-3.6 0-6.5-2.9-6.5-6.6v-64.9c0-3.6-2.9-6.6-6.5-6.6h-116.7c-3.6 0-6.5 2.9-6.5 6.6v64.9c0 3.6-2.9 6.6-6.5 6.6h-25.8c-3.6 0-6.5-2.9-6.5-6.6V258.2c0-20.6 16.7-37.4 37.3-37.4h134.5c19.8.9 35.7 17.3 35.7 37.3v157.5c0 3.6-2.9 6.6-6.5 6.6h-26zM2209.8 276v32.4c0 3.6 2.9 6.6 6.5 6.6H2333c3.6 0 6.5-2.9 6.5-6.6V276c0-12.6-10.2-22.8-22.7-22.8h-84.3c-12.6 0-22.7 10.2-22.7 22.8z" style="fill-rule:evenodd;clip-rule:evenodd"/>
  <path d="M1940.5 220.7c1.9 0 3.7.8 4.9 2.3l114.8 136.9c3.9 4.6 11.4 1.8 11.4-4.3V227.3c0-3.6 2.9-6.6 6.5-6.6h25.6c3.6 0 6.5 2.9 6.5 6.6v188.4c0 3.6-2.9 6.6-6.5 6.6h-31.8c-.1 0-.2-.1-.2-.2s0-.1-.1-.2L1954.8 286c-3.9-4.6-11.4-1.7-11.4 4.3v125.5c0 3.6-2.9 6.6-6.5 6.6h-25.8c-3.6 0-6.5-2.9-6.5-6.6V227.3c0-3.6 2.9-6.6 6.5-6.6h29.4zM274.4 429.2c3.2-3.2 7.5-5 12-5h416.5c7.6 0 11.4 9.2 6 14.5L626.6 521c-3.2 3.2-7.5 5-12 5H198.1c-7.6 0-11.4-9.2-6-14.5l82.3-82.3zm0-307.2c3.2-3.2 7.5-5 12-5h416.5c7.6 0 11.4 9.2 6 14.5l-82.3 82.2c-3.2 3.2-7.5 5-12 5H198.1c-7.6 0-11.4-9.2-6-14.5l82.3-82.2zm352.2 152.6c-3.2-3.2-7.5-5-12-5H198.1c-7.6 0-11.4 9.2-6 14.5l82.3 82.2c3.2 3.2 7.5 5 12 5h416.5c7.6 0 11.4-9.2 6-14.5l-82.3-82.2z"/>
</svg>
