<svg xmlns:xlink="http://www.w3.org/1999/xlink" viewBox="-2.2 0 402.1 311.7" xmlns="http://www.w3.org/2000/svg">
  <linearGradient id="solana-icon_svg__a">
    <stop offset="0" stop-color="#00ffa3"/>
    <stop offset="1" stop-color="#dc1fff"/>
  </linearGradient>
  <linearGradient xlink:href="#solana-icon_svg__a" id="solana-icon_svg__b" x1="360.879" x2="141.213" y1="351.455" y2="-69.294" gradientTransform="matrix(1 0 0 -1 0 314)" gradientUnits="userSpaceOnUse"/>
  <linearGradient xlink:href="#solana-icon_svg__a" id="solana-icon_svg__c" x1="264.829" x2="45.163" y1="401.601" y2="-19.148" gradientTransform="matrix(1 0 0 -1 0 314)" gradientUnits="userSpaceOnUse"/>
  <linearGradient xlink:href="#solana-icon_svg__a" id="solana-icon_svg__d" x1="312.548" x2="92.882" y1="376.688" y2="-44.061" gradientTransform="matrix(1 0 0 -1 0 314)" gradientUnits="userSpaceOnUse"/>
  <path fill="url(#solana-icon_svg__b)" d="M64.6 237.9c2.4-2.4 5.7-3.8 9.2-3.8h317.4c5.8 0 8.7 7 4.6 11.1l-62.7 62.7c-2.4 2.4-5.7 3.8-9.2 3.8H6.5c-5.8 0-8.7-7-4.6-11.1z"/>
  <path fill="url(#solana-icon_svg__c)" d="M64.6 3.8C67.1 1.4 70.4 0 73.8 0h317.4c5.8 0 8.7 7 4.6 11.1l-62.7 62.7c-2.4 2.4-5.7 3.8-9.2 3.8H6.5c-5.8 0-8.7-7-4.6-11.1z"/>
  <path fill="url(#solana-icon_svg__d)" d="M333.1 120.1c-2.4-2.4-5.7-3.8-9.2-3.8H6.5c-5.8 0-8.7 7-4.6 11.1l62.7 62.7c2.4 2.4 5.7 3.8 9.2 3.8h317.4c5.8 0 8.7-7 4.6-11.1z"/>
</svg>
