<svg fill="none" viewBox="0 0 403 312" xmlns="http://www.w3.org/2000/svg">
  <g clip-path="url(#solana-icon_svg__a)">
    <path fill="url(#solana-icon_svg__b)" d="M66.8 237.9c2.4-2.4 5.7-3.8 9.2-3.8h317.4c5.8 0 8.7 7 4.6 11.1l-62.7 62.7c-2.4 2.4-5.7 3.8-9.2 3.8H8.7c-5.8 0-8.7-7-4.6-11.1l62.7-62.7Z"/>
    <path fill="url(#solana-icon_svg__c)" d="M66.8 3.8C69.3 1.4 72.6 0 76 0h317.4c5.8 0 8.7 7 4.6 11.1l-62.7 62.7c-2.4 2.4-5.7 3.8-9.2 3.8H8.7c-5.8 0-8.7-7-4.6-11.1L66.8 3.8Z"/>
    <path fill="url(#solana-icon_svg__d)" d="M335.3 120.1c-2.4-2.4-5.7-3.8-9.2-3.8H8.7c-5.8 0-8.7 7-4.6 11.1l62.7 62.7c2.4 2.4 5.7 3.8 9.2 3.8h317.4c5.8 0 8.7-7 4.6-11.1l-62.7-62.7Z"/>
  </g>
  <defs>
    <linearGradient id="solana-icon_svg__b" x1="363.079" x2="143.413" y1="-37.455" y2="383.294" gradientUnits="userSpaceOnUse">
      <stop stop-color="#00FFA3"/>
      <stop offset="1" stop-color="#DC1FFF"/>
    </linearGradient>
    <linearGradient id="solana-icon_svg__c" x1="267.029" x2="47.363" y1="-87.601" y2="333.148" gradientUnits="userSpaceOnUse">
      <stop stop-color="#00FFA3"/>
      <stop offset="1" stop-color="#DC1FFF"/>
    </linearGradient>
    <linearGradient id="solana-icon_svg__d" x1="314.748" x2="95.082" y1="-62.688" y2="358.061" gradientUnits="userSpaceOnUse">
      <stop stop-color="#00FFA3"/>
      <stop offset="1" stop-color="#DC1FFF"/>
    </linearGradient>
    <clipPath id="solana-icon_svg__a">
      <path fill="#fff" d="M0 0h402.1v311.7H0z"/>
    </clipPath>
  </defs>
</svg>
