<svg fill="none" style="margin-bottom:0" viewBox="0 0 90 56" xmlns="http://www.w3.org/2000/svg">
  <g fill="#1D1D1B" clip-path="url(#tink_svg__a)">
    <path d="M12.38 36.374c-2.946 0-3.947-1.433-3.947-3.52v-9.263h6.461v-4.257h-6.46v-7.427H3.445v7.427H0v4.312h3.168v9.348c0 4.743 3.07 7.872 8.447 7.872 1.514 0 2.862-.264 3.599-.57l-.181-4.395c-.834.347-1.695.473-2.654.473zM23.564 19.32h-5.28v21.31h5.28V19.32zm15.296-.208c-3.209 0-5.418 1.349-6.668 3.31l-.18-3.088H26.94v21.31h5.28V28.556c0-2.92 1.861-4.868 4.723-4.868 2.682 0 4.071 1.78 4.071 4.785v12.17h5.322V27.25c.013-4.924-2.752-8.137-7.475-8.137zm22.411 9.041 7.92-8.833h-6.322l-8.017 9.223v-16.65h-5.28V40.63h5.28v-5.383l3.03-3.352 6.112 8.735h6.016l-8.739-12.477zm-37.707-16.26h-5.28v4.687h5.28v-4.687zm48.141-5.286A6.6 6.6 0 0 0 78.305 0h5.28c0 6.58-5.322 11.907-11.893 11.907v-5.3h.013z"/>
    <path d="M89.406 11.893a6.6 6.6 0 0 0-6.6 6.607c0 3.644 2.96 6.607 6.6 6.607v5.285c-6.572 0-11.893-5.327-11.893-11.906 0-6.58 5.321-11.907 11.893-11.907v5.314zM27.732 55.847h-.778l2.542-6.635h.903l2.53 6.635h-.904l-.75-2.03H28.51l-.778 2.03zm.986-2.698h2.293l-1.14-3.019h-.027l-1.126 3.019zm7.183-3.937 2.029 5.703h.041L40 49.212h.778l-2.417 6.635h-.931l-2.418-6.635h.89zm5.725.501c0-.125.041-.236.139-.32a.484.484 0 0 1 .347-.125c.139 0 .25.042.347.125a.403.403 0 0 1 .14.32.435.435 0 0 1-.14.334.508.508 0 0 1-.347.125.508.508 0 0 1-.348-.125.432.432 0 0 1-.139-.334zm.875 1.21v4.924h-.778v-4.924h.778zm1.236 1.322c0-.32.084-.599.237-.807.166-.209.375-.376.653-.487a2.49 2.49 0 0 1 .944-.167 3.536 3.536 0 0 1 1.348.25l.042.71h-.028a1.126 1.126 0 0 0-.39-.181 2.624 2.624 0 0 0-.5-.125 3.306 3.306 0 0 0-.5-.042c-.333 0-.597.056-.777.153-.195.097-.292.292-.292.584a.67.67 0 0 0 .125.417.963.963 0 0 0 .375.25c.167.07.375.126.611.196.334.097.626.194.876.278.25.083.444.222.583.39.139.166.209.416.209.75 0 .501-.167.89-.5 1.155-.334.264-.793.403-1.376.403a3.94 3.94 0 0 1-.931-.111 2.43 2.43 0 0 1-.709-.278l-.055-.765h.028c.194.18.458.32.764.403.32.098.611.14.903.14.403 0 .68-.07.875-.195.18-.126.278-.334.278-.612 0-.181-.042-.32-.139-.418a1.113 1.113 0 0 0-.403-.25c-.18-.07-.403-.14-.667-.209-.291-.083-.57-.18-.806-.264a1.222 1.222 0 0 1-.57-.403c-.138-.167-.208-.418-.208-.765zm4.543-.237.084-.765c.18-.125.417-.236.695-.32a3.18 3.18 0 0 1 .917-.125c.639 0 1.097.125 1.417.375.306.25.458.668.458 1.238v3.436h-.736v-.946h-.042c-.125.362-.32.64-.597.807-.264.167-.598.264-1 .264-.278 0-.529-.055-.75-.153a1.2 1.2 0 0 1-.556-.459c-.14-.208-.209-.473-.209-.793 0-.32.07-.57.195-.765.139-.194.32-.347.57-.445.235-.111.527-.18.86-.25.417-.07.737-.14.987-.195.236-.056.417-.139.514-.236v-.223c0-.362-.083-.626-.25-.779-.167-.153-.472-.25-.93-.25-.293 0-.584.055-.862.153a2.33 2.33 0 0 0-.764.445v-.014zm2.807 2.184v-1.016c-.097.084-.264.153-.486.209-.236.056-.528.125-.875.18-.292.043-.542.14-.723.265-.18.125-.278.362-.278.682 0 .292.084.514.264.654.167.139.403.208.709.208.291 0 .542-.056.75-.18a1.25 1.25 0 0 0 .472-.46c.112-.18.167-.361.167-.542zm3.738-3.282c0-.404.097-.752.291-1.016a1.72 1.72 0 0 1 .792-.598 2.85 2.85 0 0 1 1.098-.195c.486 0 .875.056 1.167.153.292.111.514.209.653.32l.056.848h-.028a2.826 2.826 0 0 0-.5-.32 4.165 4.165 0 0 0-.667-.236 3.078 3.078 0 0 0-.709-.084c-.403 0-.736.07-1 .223s-.39.403-.39.765c0 .278.07.5.195.654.125.153.306.278.542.361.236.084.514.181.834.279.291.083.57.166.82.25.25.083.486.195.68.334.195.139.348.306.473.528.11.223.166.501.166.849 0 .64-.208 1.14-.639 1.474-.43.334-1.028.501-1.792.501-.39 0-.764-.056-1.153-.167-.39-.111-.709-.25-.945-.417l-.042-.863h.028c.292.237.625.432 1.014.557.39.139.778.208 1.181.208 1.028 0 1.556-.375 1.556-1.112 0-.265-.055-.487-.18-.64-.125-.167-.306-.292-.542-.39a8.383 8.383 0 0 0-.89-.292 6.595 6.595 0 0 1-.791-.25 3.731 3.731 0 0 1-.667-.334 1.265 1.265 0 0 1-.445-.528 2.121 2.121 0 0 1-.166-.863zm7.752-.112c.486 0 .903.111 1.278.334.376.222.653.528.862.918.208.39.32.834.32 1.335 0 .5-.112.946-.32 1.335-.209.39-.5.696-.862.918a2.434 2.434 0 0 1-1.278.334 2.47 2.47 0 0 1-1.278-.334 2.319 2.319 0 0 1-.875-.918 2.79 2.79 0 0 1-.32-1.335c0-.5.111-.946.32-1.335.208-.39.5-.696.875-.918a2.504 2.504 0 0 1 1.278-.334zm0 4.52c.542 0 .959-.166 1.237-.514.278-.348.417-.82.417-1.419 0-.598-.14-1.085-.417-1.433-.278-.347-.681-.514-1.237-.514-.542 0-.959.167-1.236.514-.278.348-.417.821-.417 1.433 0 .598.139 1.071.417 1.419.277.348.694.514 1.236.514zm4.293-6.37v6.899h-.778v-6.9h.778zm3.335 6.342c.264 0 .514-.055.736-.166a1.37 1.37 0 0 0 .542-.473 1.24 1.24 0 0 0 .195-.71V50.91h.778v4.924h-.737V54.79h-.041c-.098.278-.237.5-.431.681a1.79 1.79 0 0 1-.625.376c-.237.07-.459.111-.695.111-.528 0-.959-.139-1.264-.417-.306-.278-.459-.71-.459-1.293v-3.339h.778v3.172c0 .417.084.723.264.918.18.208.5.292.959.292zm4.696-.764c0 .32.07.528.195.64.124.11.305.166.527.166a1.9 1.9 0 0 0 .514-.055c.14-.042.264-.07.362-.125h.028l-.07.653a2.141 2.141 0 0 1-.389.126 2.196 2.196 0 0 1-.528.055c-.43 0-.778-.097-1.028-.306s-.375-.542-.375-1.015V51.59h-.903l.11-.515.807-.111v-1.057l.778-.112v1.155h1.514l-.097.64h-1.417v2.935H74.9zm2.334-4.813c0-.125.042-.236.139-.32a.484.484 0 0 1 .347-.125c.14 0 .25.042.348.125a.403.403 0 0 1 .139.32.431.431 0 0 1-.14.334.508.508 0 0 1-.347.125.508.508 0 0 1-.347-.125.432.432 0 0 1-.139-.334zm.875 1.21v4.924h-.778v-4.924h.778zm3.543-.125c.486 0 .903.111 1.278.334.376.222.654.528.862.918.208.39.32.834.32 1.335 0 .5-.112.946-.32 1.335-.209.39-.5.696-.862.918a2.435 2.435 0 0 1-1.278.334 2.47 2.47 0 0 1-1.278-.334 2.319 2.319 0 0 1-.875-.918 2.79 2.79 0 0 1-.32-1.335c0-.5.111-.946.32-1.335.208-.39.5-.696.875-.918a2.434 2.434 0 0 1 1.278-.334zm0 4.52c.542 0 .959-.166 1.237-.514.278-.348.417-.82.417-1.419 0-.598-.14-1.085-.417-1.433-.278-.347-.681-.514-1.237-.514-.542 0-.958.167-1.236.514-.278.348-.417.821-.417 1.433 0 .598.139 1.071.417 1.419.264.348.68.514 1.236.514zm5.752-3.853c-.278 0-.514.056-.75.167a1.17 1.17 0 0 0-.528.473 1.372 1.372 0 0 0-.194.724v3.018h-.779v-4.924h.737v1.043h.041c.098-.278.237-.5.417-.681.195-.167.403-.292.64-.376a2.07 2.07 0 0 1 .694-.111c.528 0 .959.139 1.25.403.292.264.46.696.46 1.28v3.366h-.765v-3.144c0-.417-.084-.723-.264-.931-.167-.21-.486-.306-.959-.306z"/>
  </g>
  <defs>
    <clipPath id="tink_svg__a">
      <path fill="#1D1D1B" d="M0 0h89.406v56H0z"/>
    </clipPath>
  </defs>
</svg>
