<svg aria-label="Atlassian Trello" class="trello_svg__Logo-sc-1anfgcw-0 trello_svg__gguOta" viewBox="0 0 312 105" xmlns="http://www.w3.org/2000/svg">
  <linearGradient id="trello_svg__a" x1="49.992%" x2="49.992%" y1="100%" y2=".016%">
    <stop offset="0" stop-color="#0052cc"/>
    <stop offset="1" stop-color="#2684ff"/>
  </linearGradient>
  <path fill="url(#trello_svg__a)" d="M55.3 40.6H7.8C3.7 40.6.4 43.9.4 48v47.6c0 4.1 3.3 7.4 7.4 7.4h47.5c4.1 0 7.4-3.3 7.4-7.4V48c0-4.1-3.3-7.4-7.4-7.4zM27.2 85.5c0 1.4-1.1 2.5-2.5 2.5H14.3c-1.4 0-2.5-1.1-2.5-2.5V54.6c0-1.4 1.1-2.5 2.5-2.5h10.4c1.4 0 2.5 1.1 2.5 2.5zm24-14.2c0 1.4-1.1 2.5-2.4 2.5H38.3c-1.4 0-2.5-1.1-2.5-2.5V54.6c0-1.4 1.1-2.5 2.5-2.5h10.4c1.4 0 2.5 1.1 2.5 2.5z"/>
  <path fill="#253858" d="M129.6 45.2v12.1h-14.3V103h-13.8V57.2H87.2v-12zm17.6 57.8h-12.7V58h12.7v8.6c2.4-6.1 6.3-9.7 13.2-9.2v13.3c-9-.7-13.2 1.5-13.2 8.7zm82.8.4c-8.4 0-13.6-4-13.6-13.5V40.6h12.8v47.5c0 2.7 1.8 3.7 4 3.7.6 0 1.3 0 1.9-.1v11.1c-1.7.4-3.4.6-5.1.6zm26.8 0c-8.4 0-13.6-4-13.6-13.5V40.6H256v47.5c0 2.7 1.8 3.7 4 3.7.6 0 1.3 0 1.9-.1v11.1c-1.7.4-3.4.6-5.1.6zM268 80.5c0-13.9 8-23.4 21.8-23.4s21.6 9.5 21.6 23.4-7.9 23.6-21.6 23.6S268 94.3 268 80.5zm12.5 0c0 6.8 2.8 12.1 9.3 12.1s9.1-5.4 9.1-12.1-2.8-12-9.1-12-9.3 5.2-9.3 12zm-102.9 4.1c3.6.4 7.2.6 10.7.6 9.8 0 18-2.6 18-12.1 0-9.2-8.5-16.1-18.7-16.1-13.7 0-22.5 10-22.5 23.8 0 14.4 7.6 23 24.7 23 5.1.1 10.1-.8 14.9-2.6V90.4c-4.4 1.4-9.4 2.8-14.4 2.8-6.8.1-11.5-2.2-12.7-8.6zm9.8-17.7c3.6 0 6.5 2.4 6.5 5.8 0 4.3-4.6 5.7-9.8 5.7-2.2 0-4.5-.2-6.7-.5.2-2.1.8-4.1 1.8-6 1.6-3.1 4.8-5 8.2-5z"/>
  <path fill="#0052cc" d="M192.9 16.7c0-4-2.6-5.8-7.4-7-3-.8-3.7-1.4-3.7-2.4 0-1.2 1.1-1.8 3.1-1.8 2.4.1 4.8.7 7 1.8v-5c-2.1-1-4.5-1.5-6.8-1.5-5.3 0-8.2 2.5-8.2 6.6 0 3.9 2.6 5.9 7 6.9 3.1.7 4 1.2 4 2.5 0 1-.7 1.8-3 1.8-2.8-.1-5.6-.9-8.1-2.3v5.3c2.5 1.2 5.2 1.9 8 1.9 5.4 0 8.1-2.7 8.1-6.8zm60.4-15.5v22h4.7V6.4l2 4.4 6.6 12.3h5.9v-22h-4.7v14.2l-1.8-4.1-5.3-10.1h-7.4zm-29.7 0h-5.1v22h5.1zm-86.4 0v22h10.5l1.6-4.8h-7V1.2zm-20.8 0V6h5.7v17.2h5.1V6h6.1V1.2zm-7.4 0h-6.7l-7.7 22h5.9l1.1-3.7c1.3.4 2.7.6 4.1.6s2.8-.2 4.1-.6l1.1 3.7h5.9zm-3.4 14.3c-1 0-1.9-.1-2.8-.4l2.8-9.6 2.8 9.6c-.9.3-1.8.4-2.8.4zm60.1-14.3H159l-7.7 22h5.9l1.1-3.7c1.3.4 2.7.6 4.1.6s2.8-.2 4.1-.6l1.1 3.7h5.9zm-3.3 14.3c-1 0-1.9-.1-2.8-.4l2.8-9.6 2.8 9.6c-.9.3-1.9.4-2.8.4zM242 1.2h-6.7l-7.7 22h5.9l1.1-3.7c1.3.4 2.7.6 4.1.6s2.8-.2 4.1-.6l1.1 3.7h5.9zm-3.4 14.3c-1 0-1.9-.1-2.8-.4l2.8-9.6 2.8 9.6c-.9.3-1.8.4-2.8.4zm-25.4 1.2c0-4-2.6-5.8-7.4-7-3-.8-3.7-1.4-3.7-2.4 0-1.2 1.1-1.8 3-1.8 2.4.1 4.8.7 7 1.8v-5c-2.2-1-4.5-1.5-6.9-1.5-5.3 0-8.2 2.5-8.2 6.6 0 3.9 2.6 5.9 7 6.9 3.1.7 4 1.2 4 2.5 0 1-.7 1.8-3 1.8-2.8-.1-5.6-.9-8.1-2.3v5.3c2.5 1.2 5.2 1.9 8 1.9 5.7 0 8.3-2.7 8.3-6.8z"/>
</svg>
