<svg xml:space="preserve" style="enable-background:new 0 0 800 600" version="1.0" viewBox="0 0 800 600" xmlns="http://www.w3.org/2000/svg">
  <path d="M399.8 549.7c144.2 0 261-112 261-250.1S544 49.5 399.8 49.5s-261 112-261 250.1 116.9 250.1 261 250.1z" style="fill:#ff060a"/>
  <path d="M546.6 254.7c-14.4-12.8-34.4-32.3-50.6-46.1l-1-.6c-1.6-1.2-3.4-2.2-5.3-2.9-39.2-7-221.6-39.7-225.1-39.3-1 .1-2 .5-2.8 1l-.9.7c-1.1 1.1-2 2.4-2.5 3.9l-.2.6v3.8c20.5 54.8 101.6 234.2 117.6 276.4 1 2.9 2.8 8.3 6.2 8.6h.8c1.8 0 9.6-9.9 9.6-9.9s139.3-161.8 153.4-179c1.8-2.1 3.4-4.4 4.8-6.8.4-1.9.2-3.8-.5-5.6s-2-3.5-3.5-4.8zM428 273.6l59.4-47.2 34.9 30.8-94.3 16.4zm-23.1-3.1-102.3-80.4 165.6 29.3-63.3 51.1zm9.2 21 104.7-16.2-119.7 138.3 15-122.1zm-125.4-93.3 107.7 87.5-15.6 128-92.1-215.5z" style="fill:#fff"/>
</svg>
