<svg fill="none" viewBox="0 0 103 48" xmlns="http://www.w3.org/2000/svg">
  <path fill="#6441A5" fill-rule="evenodd" d="m100.244 18.724-4.103-4.103h-7.622V9.344h-6.45V33.38h6.45V21.068h5.275V33.38h6.45V18.724ZM79.726 14.62H69.76l-4.104 4.103v10.551l4.104 4.105h9.966v-6.448h-7.622v-5.864h7.622V14.62Zm-16.415 0h-5.275V9.344h-6.45v19.931l4.104 4.105h7.621v-6.448h-5.275v-5.864h5.275v-6.447Zm-14.07-5.277h-6.447v2.932h6.448V9.344Zm0 5.277h-6.447v18.758h6.448V14.621Zm-8.792 0h-6.448v12.31h-2.345V14.62h-6.448v12.31h-2.344V14.62h-6.45v18.76h19.932l4.103-4.105V14.621Zm-26.38 0H8.794V9.344H2.345v19.931L6.45 33.38h7.62v-6.448H8.794v-5.864h5.275v-6.447Zm88.518 2.93v17.586L93.794 41h-5.862v-2.932L83.83 41h-5.275v-2.932L75.624 41h-9.38l-2.933-2.932L62.724 41H54.52l-3.356-2.932L50.975 41h-9.301l-.329-2.932L38.827 41H24.621l-2.932-1.173V41h-7.62l-8.794-5.277L0 30.449V7h11.139l5.275 5.276h24.035V7H60.38v5.276h5.276v2.93l2.932-2.93h5.861L79.726 7h11.138v5.276h6.449l5.274 5.275Z" clip-rule="evenodd"/>
</svg>
