<svg xml:space="preserve" style="enable-background:new 0 0 2500 612" viewBox="0 0 2500 612" xmlns="http://www.w3.org/2000/svg">
  <path d="M1660.3 306c0-96.4 71-162.3 159.9-162.3 52.7 0 89.6 23 114.6 54.3 3.2 4 2 9.9-2.5 12.3l-17.5 9.7c-4 2.2-9 1.2-11.9-2.3-18.5-23-48.7-39.3-82.8-39.3-67.3 0-119.5 52.7-119.5 127.5 0 74.3 52.2 127.5 119.5 127.5 34.1 0 64.3-15.9 82.8-39.3 2.8-3.6 7.8-4.6 11.9-2.4l17.7 9.7c4.5 2.5 5.7 8.5 2.4 12.5-26 31.7-62.1 54.3-114.8 54.3-88.8.1-159.8-65.8-159.8-162.2zm413.5-76.2c69.1 0 112.4 53.2 112.4 119s-43.3 119.5-112.4 119.5-112.4-53.6-112.4-119.5 43.2-119 112.4-119zm0 31.5c-48.5 0-75.7 41.4-75.7 87.5 0 46.6 27.3 88 75.7 88 48.5 0 75.3-41.4 75.3-88 0-46.1-26.9-87.5-75.3-87.5zm390.9 52.7c0-40-20.2-52.7-50.8-52.7-27.7 0-54.1 16.9-67.3 35.3v156.6c0 5.2-4.2 9.4-9.4 9.4h-16.5c-5.2 0-9.4-4.2-9.4-9.4V244.8c0-5.2 4.2-9.4 9.4-9.4h16.5c5.2 0 9.4 4.2 9.4 9.4v23.5c16-18.8 47-38.6 80.9-38.6 47.5 0 72.4 24 72.4 73.4v150.1c0 5.2-4.2 9.4-9.4 9.4H2474c-5.2 0-9.4-4.2-9.4-9.4l.1-139.2zM1410.2 148.9c97.4 0 160.9 68.2 160.9 157.1 0 89.4-63.5 156.6-160.9 156.6h-97.8c-5.2 0-9.4-4.2-9.4-9.4V158.3c0-5.2 4.2-9.4 9.4-9.4h97.8zm0 34.8H1342v244.1h68.2c76.2 0 120.4-54.6 120.4-121.8 0-67.7-42.8-122.3-120.4-122.3zm825.4 51.7h16.5c5.2 0 9.4 4.2 9.4 9.4v208.4c0 5.2-4.2 9.4-9.4 9.4h-16.5c-5.2 0-9.4-4.2-9.4-9.4V244.8c0-5.1 4.2-9.4 9.4-9.4zm-15.5-62c0-13.2 10.8-23.5 23.5-23.5 13.2 0 24 10.4 24 23.5 0 13.2-10.8 24-24 24-12.7-.1-23.5-10.9-23.5-24zM1037.7 396.3c3-3.9 8.7-4.2 12.3-.8 21 20.4 52.4 38 92.3 38 56 0 73.8-30.1 73.8-54.1 0-37.6-38.1-48-79.5-59.3-50.3-13.2-106.3-27.3-106.3-88.9 0-51.7 46.1-87 107.7-87 44.2 0 79.3 13.6 105.1 37.5 3.7 3.4 4.1 9.1.9 12.9l-12.3 15c-3 3.7-8.5 4-12 .7-22.9-21.5-53.2-31.3-84.6-31.3-37.6 0-64.4 20.2-64.4 49.9 0 31.5 36.2 40.9 76.2 51.7 51.3 13.6 109.6 29.6 109.6 95.5 0 45.6-31 92.2-115.7 92.2-50.7 0-88.8-17.9-114.7-43.8-3.4-3.4-3.7-8.7-.8-12.5l12.4-15.7zM731.5 148.9h20.2c5.2 0 9.4 4.2 9.4 9.4v181.6c0 57.4 31 93.6 88.9 93.6 57.9 0 88.9-36.2 88.9-93.6V158.3c0-5.2 4.2-9.4 9.4-9.4h20.2c5.2 0 9.4 4.2 9.4 9.4v182c0 78.1-42.8 127.9-127.9 127.9S722.1 418 722.1 340.8V158.3c0-5.2 4.2-9.4 9.4-9.4z" style="fill-rule:evenodd;clip-rule:evenodd;fill:#4d4e50"/>
  <circle cx="306" cy="306" r="258" style="fill-rule:evenodd;clip-rule:evenodd;fill:#fff"/>
  <path d="M306 0c169 0 306 137 306 306S475 612 306 612 0 475 0 306 137 0 306 0zm69.9 90.5c-6.9-2.2-12.5 1.9-12.5 9.1v17.8c0 4.9 3.7 10.4 8.2 12.1 73.2 26.8 125.7 97.2 125.7 179.6 0 82.4-52.4 152.8-125.7 179.6-5 1.8-8.2 6.7-8.2 12.1v17.8c0 7.2 5.6 11.3 12.5 9.1 92.6-29.6 159.6-116.3 159.6-218.7 0-102.2-67-188.9-159.6-218.5zm-127.3 9.2c0-7.3-5.6-11.3-12.5-9.1-92.6 29.5-159.6 116.2-159.6 218.6 0 102.4 67 189.1 159.6 218.7 6.9 2.2 12.5-1.9 12.5-9.1V501c0-4.9-3.7-10.4-8.2-12.1-73.2-26.8-125.7-97.2-125.7-179.6 0-82.4 52.4-152.8 125.7-179.6 4.6-1.7 8.2-7.2 8.2-12.1V99.7zm67 56.5h-19.1c-5.3 0-9.6 4.3-9.6 9.6v29.6c-37.9 5.4-62.4 30.6-62.4 63 0 41.9 25.3 58.2 78.8 65.4 36.3 5.9 46.6 13.8 46.6 34.4 0 20.6-17.5 34.4-42.2 34.4-33.4 0-44.4-14.6-48.4-33.5-1-4.5-4.8-7.8-9.4-7.8H228c-5.5 0-9.8 4.9-8.8 10.4 5.6 31.8 26 55.2 67.7 60.8v30.2c0 5.3 4.3 9.6 9.6 9.6h19.1c5.3 0 9.6-4.3 9.6-9.6v-30.2c39.5-6.3 64.7-33.8 64.7-67.7 0-44.7-27.2-59.7-79.7-66.9-38.8-5.6-46.3-14.7-46.3-32.8 0-17.2 13.1-29.4 38.5-29.4 22.9 0 36.1 8 41.5 26.4 1.2 4.1 4.9 7 9.2 7h20.1c5.6 0 10-5.2 8.8-10.6-6.4-29.1-26-46.6-56.8-52.1v-30.5c0-5.4-4.3-9.7-9.6-9.7z" style="fill-rule:evenodd;clip-rule:evenodd;fill:#2775ca"/>
</svg>
