<svg viewBox="0 0 256 301" xmlns="http://www.w3.org/2000/svg">
  <defs>
    <linearGradient id="vector_svg__a" x1="13.523%" x2="86.414%" y1="74.679%" y2="25.305%">
      <stop offset="0%" stop-color="#10E7FF"/>
      <stop offset="10.3%" stop-color="#33D5FF"/>
      <stop offset="25.5%" stop-color="#60BDFF"/>
      <stop offset="40.8%" stop-color="#86AAFF"/>
      <stop offset="56%" stop-color="#A39AFF"/>
      <stop offset="71%" stop-color="#B790FF"/>
      <stop offset="85.8%" stop-color="#C489FF"/>
      <stop offset="100%" stop-color="#C887FF"/>
    </linearGradient>
    <linearGradient id="vector_svg__b" x1="21.006%" x2="96.466%" y1="54.033%" y2="27.047%">
      <stop offset="0%" stop-color="#10E7FF"/>
      <stop offset="10.3%" stop-color="#33D5FF"/>
      <stop offset="25.5%" stop-color="#60BDFF"/>
      <stop offset="40.8%" stop-color="#86AAFF"/>
      <stop offset="56%" stop-color="#A39AFF"/>
      <stop offset="71%" stop-color="#B790FF"/>
      <stop offset="85.8%" stop-color="#C489FF"/>
      <stop offset="100%" stop-color="#C887FF"/>
    </linearGradient>
  </defs>
  <path fill="url(#vector_svg__a)" d="M128 300.346 0 225.26V75.087L128 0l128 75.087V225.26l-128 75.086ZM17.89 214.677l109.858 64.504 109.858-64.504V85.67L128 21.165 17.89 85.67v129.008Z"/>
  <path fill="url(#vector_svg__b)" d="m183.181 109.354-44.85 78.866 14.614 25.701 59.464-104.567h-29.228Zm-50.142 0L88.19 188.22l14.614 25.701 59.465-104.567H133.04Zm-89.448 0 59.464 104.567 14.614-25.7-44.85-78.867H43.59Zm0 0 59.464 104.567 14.614-25.7-44.85-78.867H43.59Zm89.448 0L88.19 188.22l14.614 25.701 59.465-104.567H133.04Z"/>
</svg>
