<svg fill="none" viewBox="0 0 117 30" xmlns="http://www.w3.org/2000/svg">
  <path fill="#1B1B1B" d="M37.882 12.04c0-2.062-2.062-4.261-5.498-4.261-3.848 0-8.246 2.886-8.933 8.658-.688 5.773 2.886 8.384 6.597 8.384 3.71 0 5.497-1.374 7.422-3.298-1.65-2.062-3.849-1.1-4.261-.962-.412.274-1.1.55-2.2.55-1.373 0-2.885-.688-2.885-3.3 9.07-.961 9.758-3.71 9.758-5.772Zm-4.398.274c0 .687-.275 1.787-4.81 2.336.962-3.436 2.748-3.71 3.573-3.71.825.137 1.237.687 1.237 1.374Zm-15.256.55s-1.924 6.047-2.062 6.597c0-.55-1.511-11.408-1.511-11.408-3.3 0-5.086 2.337-5.91 4.81 0 0-2.337 6.048-2.474 6.598-.138-.412-.413-6.46-.413-6.46C5.583 9.978 2.835 8.053.635 8.053l2.75 16.493c3.435 0 5.36-2.336 6.322-4.81 0 0 2.061-5.36 2.199-5.635 0 .275 1.511 10.445 1.511 10.445 3.437 0 5.36-2.199 6.323-4.535l4.81-11.958c-3.573 0-5.36 2.337-6.322 4.81ZM50.664 7.64c-2.062 0-3.711 1.1-5.085 2.886l1.1-9.895c-2.887 0-5.086 2.474-5.636 6.047l-2.199 17.73c1.65 0 3.299-.412 4.26-1.65.825 1.1 2.062 1.925 3.849 1.925 4.81 0 8.109-5.498 8.109-10.72.138-4.811-2.199-6.323-4.398-6.323Zm-.55 8.521c-.55 2.887-2.061 4.81-3.71 4.81-1.513 0-2.2-.686-2.2-.686.275-2.474.55-4.124 1.1-5.498.55-1.374 1.924-3.436 3.298-3.436 1.375.137 2.062 1.924 1.512 4.81Zm17.043-8.109h-3.299v-.137c.275-2.2.687-3.299 2.474-3.436 1.1-.138 1.65-.687 1.787-1.374.137-.55.412-2.337.412-2.337-6.734 0-8.796 2.886-9.346 7.284v.138h-.137c-1.1 0-2.337 1.237-2.474 2.749l-.138.55h2.2L56.71 26.882l-.55 2.749h.275c3.162-.138 5.086-2.612 5.636-6.185l1.511-12.095h1.1c.962 0 2.199-.962 2.474-2.749v-.55Zm17.317-.274c-3.848 0-7.421 2.886-8.521 7.284-1.1 4.398.55 9.758 6.185 9.758s8.933-5.498 8.933-10.033c-.137-4.536-3.16-7.01-6.597-7.01Zm1.512 8.246c-.137 2.062-1.1 5.085-3.573 5.085-2.474 0-2.062-3.573-1.924-5.223.274-1.786 1.236-4.398 3.436-4.398 2.061 0 2.336 2.337 2.061 4.536Zm24.052-3.161s-1.924 6.047-2.061 6.597c0-.55-1.512-11.408-1.512-11.408-3.299 0-5.085 2.337-5.91 4.81 0 0-2.337 6.048-2.474 6.598 0-.412-.412-6.46-.412-6.46-.138-3.023-3.024-4.81-5.223-4.81l2.749 16.493c3.436 0 5.36-2.337 6.322-4.81 0 0 2.062-5.36 2.199-5.636 0 .275 1.512 10.446 1.512 10.446 3.436 0 5.36-2.2 6.322-4.536l4.536-12.095c-3.436 0-5.223 2.337-6.048 4.81ZM70.318.769l-2.749 22.54-.55 2.75h.275c3.024 0 5.223-2.75 5.498-6.048l1.65-12.92C74.853 3.243 72.38.77 70.317.77Z"/>
</svg>
