<svg width="518" height="118" viewBox="0 0 518 118" fill="none" xmlns="http://www.w3.org/2000/svg">
<path d="M517.1 51.7999C517.1 21.7999 496.2 0.699951 466.9 0.699951C429.6 0.699951 404.6 27.8 404.6 66.5C404.6 96.7 425.7 117.6 455.5 117.6C482.6 117.6 502.8 104.5 511.1 83.6H481C477 90.1 468.5 94.2 458.1 94.2C442.1 94.2 432.1 83.6 431.2 68.6H515.4C516.5 62.9 517.1 57.9999 517.1 51.7999ZM433.5 48.2999C436.2 34.4999 449.6 23.5 465.8 23.5C479.8 23.5 490.4 33.6999 490.4 48.2999H433.5Z" fill="#2E4369"/>
<path d="M323.7 114.9L329.1 86.1C345.6 89.4 348.1 80.1 352.4 57.7L354.5 46.6C360.5 15.3 372.6 -0.300037 407.2 3.89996L401.8 32.7C385.3 29.4 382.4 41.9 378.7 61.3L376.6 72.4C370.6 104.1 358.1 119.1 323.7 114.9Z" fill="#2E4369"/>
<path d="M283.3 115L303.7 3.3999H330.6L310.3 115H283.3Z" fill="#2E4369"/>
<path d="M129.2 3.3999H155.3L163.8 84.0999L198 3.3999H223.9L233 84.8999L266 3.3999H292L244.7 115H215.1L205.5 38.1999L172.8 115H144.2L129.2 3.3999Z" fill="#2E4369"/>
<path d="M31.7 32.9999L0.699951 62.5999H53.4L58.9 49.6999H32.2L48.9 32.9999L39.2 16.2999H84.5L42.7 115H58.4L105.7 3.3999H14.3L31.7 32.9999Z" fill="#00B9FF"/>
</svg>
