<svg version="1.0" viewBox="0 0 612 792" xmlns="http://www.w3.org/2000/svg">
  <path d="M310.344 118.906h4.187l-1.562-5.82-2.625 5.82m-6.516 9.848c.207-.211.66-.863.883-1.242l9.71-19.075 4.434 18.766s.528 1.371.786 1.55h-2.32c-.16-.538-2.509-8.85-2.509-8.85h-4.953l-4.027 8.85h-2.004zm19.27-5.441c.027 6.68 7.972 6.898 7.988-.38l.012-13.39 2.21.004c-.55.441-.753 2.445-.863 4.09-.035.566-.43 8.918-.476 9.738-.602 8.965-10.54 7.664-11 .77-.051-.754-.215-12.258-.27-12.665-.054-.94-.27-1.722-.672-1.937h3.043l.028 13.77m12.207-13.715c16.754-2.453 12.593 9.05 6.785 10.156 0 0 7.031 8.621 7.3 9l-.199-17.246c-.043-1.387-.636-1.965-.636-1.965h10.039v1.965s-2.13-1.047-6.828-1.074l-.192 8.39h7.02v1.16h-7.02v7.637c0 .606.512.563.89.563 4.583 0 7.438-1.024 7.438-1.024l-.812 1.824s-8.809.012-9.414 0c.281.47 2.629 2.977 4.16 3.918-.754-.297-3.906-1.43-5.063-2.691-.375-.41-8.824-9.328-9.445-10.055 8.61-1.574 5.7-11.664-.793-9.965l-.918 18.563h-2.613c.195-.281.36-.902.433-1.547l.458-15.562c-.012-1.098-.282-1.665-.59-2.047M268.09 128.78l-.309-17.62c0-.63-.367-1.333-.73-1.696h3.14l-.199 18.2c-.031.245.309 1.054.457 1.116-.039-.004-2.36 0-2.36 0m4.462-19.316h3.351l12.23 16.863v-16.863h14.848l1.239-5.645c.133-.754.133-1.215-.219-1.656h3.48l-7.386 30.953c-.184.711-.133 1.332 1.058 1.352 3.66.05 11.207-.61 14.22-1.645l-1.4 2.45h-16.917c.265-.348.511-.997.754-1.883l4.785-22.215c-1.817-.668-4.035-.711-6.078-.707l-.586 16.816a5.189 5.189 0 0 0 .21 1.496h-2.585c.183-.484.242-.89.265-1.582l-.136-16.738h-3.204c-1.05.027-.835.969-.863 1.375l-.836 18.512-13.988-17.914.008 16.347h-1.848c.176-.265.438-1.11.473-1.777l.523-15.734-1.398-1.805m116.96.187v1.375c-1.859-.558-3.163-.558-5.245-.558l-.621 17.191c-.024.613.039.856.164 1.305 0 0-2.473-.004-2.473-.008.14-.465.219-.64.262-1.309l-.114-17.18h-3.488c-1.09 0-1.09 1.126-1.09 1.528 0 0-.668 17.86-.695 18.531-.242-.351-13.988-17.91-13.988-17.91l.007 16.348h-1.664c.239-.531.254-1.074.29-1.781 0 0 .527-15.246.527-15.735a83.102 83.102 0 0 0-1.403-1.8h3.356l12.23 16.863v-16.86h13.946m-131.903 9.16h3.993l-1.43-5.496-2.563 5.496m-.496 1.208-5.035 10.703c-3.406 6.968-11.48 6.535-16.922 1.597l.864-2.75c7.226 11.684 19.324 2.504 12.91-5.625l-9.407-11.132c-6.41-7.399-10.27.433-6.71 3.285l5.28 3.988c3.884 2.754 2.587 8.61-2.437 9.133-2.316.242-4.969-.778-6.558-1.871l-.434 1.48h-10.293c.184-.336.383-.953.379-1.43l-.027-17.058c.011-.313-.192-.332-.309-.074l-9.062 19.414-4-17.594c-.133-.434-.407-.027-.407-.027-.672.93-3.632 5.078-4.16 5.789-.394.527-.555.879-.851 1.742-.153.43-3.399 13.484-3.543 13.996-.133.465.05 1.406.297 1.64h-3.208c.114-.09.633-.699.758-1.175l2.551-13.184c.57-2.594-.156-5.226-.156-5.226-1.578-9.22-1.922-13.196-2.746-13.82h2.668c.078.484 3.148 15.003 3.34 15.706-.192.297 10.207-15.578 10.207-15.578h2.695s-1.348 1.27-1.586 1.598c-.211.273-3.45 4.7-3.856 5.25l3.098 16.676 6.707-16.055h11.156v1.816c-1.222-.605-5.464-1.347-7.14-1.129l-.16 8.094c.007.446 0 .48.402.48l6.91-.007v1.117h-7.394l-.23 7.828c0 .54.39.594.73.606 2.89.113 5.617-.27 7.629-1.149l.476-1.75c2.227 2.723 4.027 3.696 6.371 3.004 2.258-.656 4.418-3.738.27-6.625l-4.035-2.855c-5.59-4.223-.868-13.352 7.054-8.782-.027-7.949 10.098-11.918 17.242-5.847l-.699 2.613c-6.312-10.246-17.87-1.82-12.527 5.492l7.566 9.89c1.7 2.134 1.989 3.673 1.989 3.673l8.91-17.043 4.43 18.527c.16.582.484 1.184.714 1.41h-2.547c.004 0-2.355-8.758-2.355-8.758l-4.809-.003" style="fill:#000;fill-opacity:1;fill-rule:nonzero;stroke:none" transform="matrix(16.48428 0 0 19.27333 -4499.102 -1890.464)"/>
</svg>
