<svg fill="none" viewBox="0 0 99 23" xmlns="http://www.w3.org/2000/svg">
  <path fill="#2D8CFF" fill-rule="evenodd" d="M80.173 7.224c.374.646.496 1.38.537 2.206l.053 1.1v7.697l.054 1.102c.109 1.8 1.436 3.13 3.25 3.243l1.095.055V10.53l.055-1.101c.045-.817.166-1.565.546-2.215a4.395 4.395 0 0 1 7.611.014c.375.645.491 1.394.536 2.2l.054 1.098v7.7l.055 1.102c.113 1.809 1.43 3.14 3.249 3.243l1.096.055V9.43a8.8 8.8 0 0 0-12.42-8.023 8.778 8.778 0 0 0-2.978 2.203A8.79 8.79 0 0 0 76.365.628a8.71 8.71 0 0 0-4.927 1.512C70.58 1.183 68.663.628 67.563.628v21.999l1.1-.055c1.842-.12 3.172-1.416 3.244-3.243l.059-1.102v-7.696l.054-1.101c.046-.83.162-1.56.537-2.21a4.408 4.408 0 0 1 3.808-2.193 4.4 4.4 0 0 1 3.808 2.197ZM4.865 22.574l1.1.053h16.5l-.055-1.098c-.149-1.808-1.43-3.13-3.244-3.247l-1.1-.055h-9.9L21.364 5.026l-.055-1.096C21.224 2.103 19.89.783 18.066.682l-1.1-.05L.464.629l.055 1.1c.144 1.792 1.444 3.14 3.243 3.245l1.102.054h9.898l-13.196 13.2.055 1.101c.108 1.814 1.417 3.127 3.244 3.243v.002Zm58.38-18.726a10.999 10.999 0 0 1-7.78 18.777 11.007 11.007 0 0 1-7.78-3.22c-4.296-4.296-4.296-11.262 0-15.557A10.994 10.994 0 0 1 55.457.627a11.002 11.002 0 0 1 7.786 3.222v-.001Zm-3.113 3.115a6.603 6.603 0 0 1 0 9.334 6.603 6.603 0 0 1-9.335 0 6.603 6.603 0 0 1 0-9.334 6.603 6.603 0 0 1 9.335 0ZM32.372.627a10.992 10.992 0 0 1 7.773 3.222c4.296 4.294 4.296 11.261 0 15.555a11.007 11.007 0 0 1-15.56 0c-4.295-4.295-4.295-11.26 0-15.556A10.993 10.993 0 0 1 32.358.627h.014Zm4.66 6.334a6.603 6.603 0 0 1 0 9.335 6.603 6.603 0 0 1-9.334 0 6.603 6.603 0 0 1 0-9.334 6.603 6.603 0 0 1 9.334 0V6.96Z" clip-rule="evenodd"/>
</svg>
